<svg xmlns="http://www.w3.org/2000/svg" width="162" height="127" fill="none"><g filter="url(#a)"><path stroke="#999" stroke-linecap="round" stroke-linejoin="round" stroke-width=".4" d="M149.702 86.8c-.1.1 3.4 1.9 3.4 2-.1.1-2.3-.6-2.4-.5-.2.4.9.2.7.4 0 0-1.1-.5-1.1-.4-.2.4 1.5.6 1.4.8-.2.3-6-2.5-6.2-2.1-.4.7 6.9 3.6 6.7 3.9s-6.9-1.7-7.2-1.3c-.3.5 7.8 3.6 7.4 4.3-.2.3-5-3-5.1-2.8-.5.8 5.8 2.7 5.5 3.2-.2.3-8-3.4-8.3-3-.5.8 4.9 2 4.6 2.6-.1.2-3.8-1.2-3.9-1-.4.6 5.3 2 4.9 2.8-.3.5-9.5-4.1-9.8-3.7-.3.5 8.1 3.6 7.6 4.4-.1.2-8.1-2.4-8.2-2.1-.4.7 7.9 3.8 7.6 4.4-.4.6-10.2-5.2-10.4-4.7-.4.7 13.7 6.7 13.2 7.6-.3.5-9.6-5.4-9.8-5-.3.5 4.9 2 4.5 2.6-.2.3-5.6-1.9-5.8-1.6-.5.9 7.9 3.2 7.3 4.2-.5.8-11.4-6.9-11.8-6.3s9.5 4.5 9 5.2c-.1.2-7.6-2.5-7.9-2.2-.4.7 11.9 5.9 11.5 6.6-.2.4-12.8-7.7-13.1-7.1-.3.5 7.2 3.5 6.9 4-.1.2-6.2-1.5-6.4-1.1-.3.6 4.9 2.1 4.6 2.6-.1.2-5.4-2.4-5.5-2.2-.4.6 9.8 4.2 9.2 5.3-.5.9-13-7.1-13.3-6.7-.6 1 13.1 6.5 12.6 7.3-.6 1-16.2-8.9-16.7-8-.6 1 12.4 6 12 6.9-.4.6-11.9-7.2-12.3-6.5-.5.8 14.1 7.5 13.8 8-.4.7-12.1-6.8-12.5-6.1-.6 1.1 9.1 3.8 8.5 4.9-.5.8-12.4-6.2-12.7-5.7-.4.6 15.6 8.2 15.3 8.8-.4.7-10.3-6.1-10.5-5.7-.6 1 8.8 3.6 8.1 4.7-.3.4-14.3-7-14.6-6.5-.4.7 11.6 5.8 11.2 6.5-.4.6-13.4-6.8-13.8-6.2-.5.9 14.7 7.6 14.3 8.2-.8 1.3-19.9-10.2-20.6-9s19.5 10.1 19 11c-.4.7-19.5-10.1-20.3-8.8-.7 1.1 16.2 7.5 15.4 8.9-.7 1.2-24.8-14.1-25.5-12.8-.6 1.1 24.7 12.5 23.9 13.8-.7 1.3-22-14.3-22.9-12.9-1 1.7 21.1 10.1 20.2 11.7-.5.9-27.7-17.2-28.5-15.8-.9 1.5 32.9 17 32 18.5-.9 1.6-30-19.4-31-17.7-1.3 2.2 32.7 17 31.9 18.4-1.8 3.1-45.3-28.2-46.8-25.6-1.3 2.2 44.1 21.9 42.6 24.6-1.2 2-40.3-26.7-41.9-24-1.7 3.3 43.3 20.5 41.3 23.9-1.5 2.6-52.2-30.5-53.2-28.8-1.9 3.4 51.4 26.7 50.1 28.9-1 1.7-51.4-30.9-52.7-28.6-2.3 4 51.3 24.4 49 28.3-1.1 2-53.5-34-55.7-30.2-2.4 4.2 55.8 29.2 54.5 31.5-2.2 3.8-59.9-37.8-62.2-33.9-2.2 3.8 61.5 32.7 60.2 34.8-1.1 1.9-55.7-35.5-57.6-32.2-1.5 2.6 57.7 28.3 55.5 32.1-1.4 2.4-59.7-38-61.8-34.4-2.4 4.1 57.7 29.5 56 32.3-1.1 1.9-58.6-35.5-60.4-32.3-2.1 3.6 58.1 30.2 56.6 32.7-1.6 2.8-51.3-31.5-52.9-28.7-2.2 3.9 51.3 25 49.3 28.4-1.5 2.5-53.4-33.7-55.3-30.3-2 3.4 47.1 24.8 46.1 26.6-1.6 2.8-44.2-28.1-45.7-25.5-1.1 2 44.7 23 43.5 25.1-.9 1.6-41.4-26.2-42.8-23.7-1 1.7 28.5 14.8 27.8 16-.9 1.6-29.5-15.9-30.1-14.9-1.1 1.8 20.6 10.6 20 11.6-.5.9-21.8-12-22.5-10.6-.8 1.4 14 7.1 13.5 7.8-.4.7-14.1-8.3-14.5-7.6-.7 1.2 15.1 7 14.3 8.3-.5.9-16.2-8.5-16.8-7.5-.6 1.1 13.4 6.1 12.7 7.3-.5.8-18.1-10.9-18.8-9.7-.4.7 18.6 10 18.3 10.6-.5.9-15.3-8.3-15.7-7.7-.4.8 14 7.2 13.7 7.9-.6 1.1-19.3-10.1-19.7-9.4-.7 1.2 15.5 7.3 14.8 8.5-.3.6-10.7-6.3-11-5.7-.4.6 13.8 6.5 13.2 7.6-.4.8-12.2-8-12.6-7.2-.6 1.1 10.6 4.9 10.1 5.8-.2.4-10.4-6-10.7-5.4-.4.7 12.5 5.7 11.9 6.9-.4.8-12.5-7.8-12.9-7.2-.6 1 7.6 3.5 7.3 4.2-.3.5-9.2-3.2-9.4-2.9-.6 1 12.2 6 11.8 6.8-.3.5-12-5.8-12.3-5.3-.4.7 6.9 2.8 6.4 3.7-.2.4-9-5.3-9.4-4.7-.4.7 12.2 6.3 11.8 6.8-.3.4-13-5.9-13.5-5-.4.8 12 5.9 11.5 6.7-.3.6-11.4-6.6-11.6-6.2-.4.8 10.2 4.8 9.7 5.6-.3.6-11.5-6-12-5.2-.3.6 11.6 5.5 11.1 6.4-.3.6-10-5.3-10.2-4.9-.6 1 7.2 3.5 6.9 4s-8.4-2.8-8.6-2.4c-.5.8 10.8 5.2 10.4 6-.4.6-12.4-5.8-12.7-5.3-.4.6 12.1 6.2 11.7 6.8-.3.6-13.8-8.2-14.1-7.6-.5.8 9.7 4.4 9.1 5.3-.3.6-10.6-6.3-11-5.6-.3.5 11.9 5.5 11.3 6.5-.3.5-8.1-3.6-8.3-3.1-.5.9 6.4 2.6 6 3.4-.2.4-10.3-5.7-10.7-5.1-.3.5 15.3 7.8 14.8 8.6-.4.6-11.9-5.4-12.3-4.8-.3.4 6.8 3.1 6.5 3.7-.2.4-6.9-2-7.1-1.8-.2.4 10.1 5 9.7 5.6-.1.3-8.6-4.3-8.9-3.8-.3.6 3 1.1 2.7 1.6-.1.1-2.2 1.2-2.2 1.3-.1.2.7-.1.5.3l-1.1-.1c-.1.2 2.4 1.1 2.3 1.3s-3.4-1.9-3.4-1.8c-.1.2 3.4 1.8 3.4 1.9M149.702 6.4c-.1.1 3.4 1.9 3.4 1.9-.1.1-2.3-.6-2.4-.5-.2.4.9.2.7.4 0 0-1.1-.5-1.1-.4-.2.4 1.5.6 1.4.8-.2.3-6-2.5-6.2-2.1-.4.7 6.9 3.6 6.7 3.9s-6.9-1.7-7.2-1.3c-.3.5 7.8 3.6 7.4 4.3-.2.3-5-3-5.1-2.8-.5.8 5.8 2.7 5.5 3.2-.2.3-8-3.4-8.3-3-.5.8 4.9 2 4.6 2.6-.1.2-3.8-1.2-3.9-1-.4.6 5.3 2 4.9 2.8-.3.5-9.5-4.1-9.8-3.7-.3.5 8.1 3.6 7.6 4.4-.1.2-8.1-2.4-8.2-2.1-.4.7 7.9 3.8 7.6 4.4-.4.6-10.2-5.2-10.4-4.7-.4.7 13.7 6.7 13.2 7.6-.3.5-9.6-5.4-9.8-5-.3.5 4.9 2 4.5 2.6-.2.3-5.6-1.9-5.8-1.6-.5.9 7.8 3.1 7.2 4.2-.5.8-11.4-6.9-11.8-6.3s9.4 4.5 9 5.2c-.1.2-7.6-2.5-7.8-2.2-.4.7 11.9 5.9 11.5 6.6-.2.4-12.8-7.7-13.1-7.1-.3.5 7.2 3.5 6.9 4-.1.2-6.2-1.4-6.4-1.1-.3.6 4.9 2.1 4.6 2.6-.1.2-5.4-2.4-5.5-2.2-.4.6 9.8 4.2 9.2 5.3-.5.9-13-7.1-13.3-6.7-.6 1 13.1 6.5 12.6 7.3-.6 1-16.2-8.9-16.7-8-.5 1 12.4 6 12 6.9-.4.6-11.9-7.2-12.3-6.5-.5.8 14.1 7.5 13.8 8-.4.7-12.1-6.8-12.5-6.1-.6 1.1 9.1 3.8 8.5 4.9-.5.8-12.4-6.2-12.7-5.7-.4.6 15.6 8.2 15.3 8.8-.4.7-10.3-6.1-10.5-5.7-.6 1 8.8 3.6 8.1 4.7-.3.4-14.3-7-14.6-6.5-.4.7 11.6 5.8 11.2 6.5-.4.6-13.4-6.8-13.8-6.2-.5.9 14.7 7.6 14.3 8.2-.8 1.3-19.9-10.2-20.6-9s19.5 10.1 19 11c-.4.7-19.5-10.1-20.3-8.8-.7 1.1 16.2 7.5 15.4 8.9-.7 1.2-24.8-14.1-25.5-12.8-.6 1.1 24.7 12.5 23.9 13.8-.7 1.3-22-14.3-22.9-12.9-1 1.7 21.1 10.1 20.2 11.7-.5.9-27.7-17.3-28.5-15.8-.9 1.5 32.9 17 32 18.5-.9 1.6-30-19.4-31-17.7-1.3 2.2 32.7 17 31.9 18.4-1.8 3.1-45.3-28.2-46.8-25.6-1.3 2.2 44.1 21.9 42.6 24.6-1.2 2-40.3-26.7-41.9-24-1.7 3.4 43.3 20.6 41.3 24.1-1.5 2.6-52.2-30.5-53.2-28.8-1.9 3.4 51.4 26.7 50.1 28.9-1 1.7-51.4-30.9-52.7-28.6-2.3 4 51.3 24.4 49 28.3-1.1 2-53.5-34-55.7-30.2-2.4 4.2 55.8 29.2 54.5 31.5-2.2 3.8-59.9-37.8-62.2-33.9-2.2 3.8 61.5 32.7 60.2 34.8-1.1 1.9-55.7-35.5-57.6-32.2-1.5 2.6 57.7 28.3 55.5 32.1-1.4 2.4-59.7-38-61.8-34.4-2.4 4.1 57.7 29.5 56 32.3-1.1 1.9-58.6-35.5-60.4-32.3-2.1 3.6 58.1 30.2 56.6 32.7-1.6 2.8-51.3-31.5-52.9-28.7-2.2 3.9 51.3 25 49.3 28.4-1.5 2.5-53.4-33.7-55.3-30.3-2 3.4 47.1 24.8 46.1 26.6-1.6 2.8-44.2-28.1-45.7-25.5-1.1 2 44.7 23 43.5 25.1-.9 1.6-41.3-26.2-42.8-23.6-1 1.7 28.5 14.8 27.8 16-.9 1.6-29.5-15.9-30.1-14.9-1.1 1.8 20.6 10.6 20 11.6-.5.9-21.7-12-22.5-10.6s14 7.1 13.5 7.8c-.4.7-14.1-8.3-14.5-7.6-.7 1.2 15 7 14.3 8.3-.5.9-16.2-8.5-16.8-7.5-.6 1.1 13.4 6.1 12.7 7.3-.5.8-18.1-10.9-18.8-9.7-.4.7 18.6 10 18.3 10.6-.5.9-15.3-8.3-15.7-7.7-.4.8 14 7.2 13.7 7.9-.6 1.1-19.3-10.1-19.7-9.4-.7 1.2 15.5 7.3 14.8 8.5-.3.6-10.7-6.2-11-5.7-.4.6 13.8 6.5 13.2 7.6-.4.8-12.2-8-12.6-7.2-.6 1.1 10.6 4.9 10.1 5.8-.2.4-10.4-6-10.7-5.4-.4.7 12.5 5.7 11.9 6.9-.4.8-12.5-7.8-12.9-7.2-.6 1 7.6 3.5 7.3 4.2-.3.5-9.2-3.2-9.4-2.9-.6 1 12.2 6 11.8 6.8-.3.5-12-5.8-12.3-5.3-.4.7 6.9 2.8 6.4 3.7-.2.4-9-5.3-9.4-4.7-.4.7 12.2 6.3 11.8 6.8-.3.4-13-5.9-13.5-5-.4.8 12 5.9 11.5 6.7-.3.6-11.4-6.6-11.6-6.2-.4.8 10.2 4.8 9.7 5.6-.3.6-11.5-6-12-5.2-.3.6 11.6 5.5 11.1 6.4-.3.6-10-5.3-10.2-4.9-.6 1 7.2 3.5 6.9 4s-8.4-2.8-8.6-2.4c-.5.8 10.8 5.2 10.4 6-.4.6-12.4-5.8-12.7-5.3-.4.6 12.1 6.2 11.7 6.8-.3.6-13.8-8.2-14.1-7.6-.5.8 9.6 4.4 9.1 5.3-.3.6-10.6-6.3-11-5.6-.3.5 11.9 5.5 11.3 6.5-.3.5-8.1-3.6-8.3-3.1-.5.9 6.4 2.6 6 3.4-.2.4-10.3-5.7-10.7-5.1-.3.5 15.3 7.8 14.8 8.6-.4.6-11.9-5.4-12.3-4.8-.3.4 6.8 3.1 6.5 3.7-.2.4-6.9-2-7.1-1.8-.2.4 10.1 5 9.7 5.6-.1.3-8.6-4.3-8.9-3.8-.3.6 3 1.1 2.7 1.6-.1.1-2.1 1.2-2.2 1.3-.1.2.7-.1.5.3 0 0-1-.1-1.1-.1-.1.2 2.3 1.1 2.2 1.3s-3.3-1.9-3.4-1.8c-.1.2 3.4 1.8 3.4 1.9M149.702 46.6c-.1.1 3.4 1.9 3.4 2-.1.1-2.3-.6-2.4-.5-.2.4.9.2.7.4 0 0-1.1-.5-1.1-.4-.2.4 1.5.6 1.4.8-.2.3-6-2.5-6.2-2.1-.4.7 6.9 3.6 6.7 3.9s-6.9-1.7-7.2-1.3c-.3.5 7.8 3.6 7.4 4.3-.2.3-5-3-5.1-2.8-.5.8 5.8 2.7 5.5 3.2-.2.3-8-3.4-8.3-3-.5.8 4.9 2 4.6 2.6-.1.2-3.8-1.2-3.9-1-.4.6 5.3 2 4.9 2.8-.3.5-9.5-4.1-9.8-3.7-.3.5 8.1 3.6 7.6 4.4-.1.2-8.1-2.4-8.2-2.1-.4.7 7.9 3.8 7.6 4.4-.4.6-10.2-5.2-10.4-4.7-.4.7 13.7 6.7 13.2 7.6-.3.5-9.6-5.4-9.8-5-.3.5 4.9 2 4.5 2.6-.2.3-5.6-1.9-5.8-1.6-.5.9 7.9 3.2 7.3 4.2-.5.8-11.4-6.9-11.8-6.3s9.5 4.5 9 5.2c-.1.2-7.6-2.5-7.9-2.2-.4.7 11.9 5.9 11.5 6.6-.2.4-12.8-7.7-13.1-7.1-.3.5 7.2 3.5 6.9 4-.1.2-6.2-1.5-6.4-1.1-.3.6 4.9 2.1 4.6 2.6-.1.2-5.4-2.4-5.5-2.2-.4.6 9.8 4.2 9.2 5.3-.5.9-13-7.1-13.3-6.7-.6 1 13.1 6.5 12.6 7.3-.6 1-16.2-8.9-16.7-8-.6 1 12.4 6 12 6.9-.4.6-11.9-7.2-12.3-6.5-.5.8 14.1 7.5 13.8 8-.4.7-12.1-6.8-12.5-6.1-.6 1.1 9.1 3.8 8.5 4.9-.5.8-12.4-6.2-12.7-5.7-.4.6 15.6 8.2 15.3 8.8-.4.7-10.3-6.1-10.5-5.7-.6 1 8.8 3.6 8.1 4.7-.3.4-14.3-7-14.6-6.5-.4.7 11.6 5.8 11.2 6.5-.4.6-13.4-6.8-13.8-6.2-.5.9 14.7 7.6 14.3 8.2-.8 1.3-19.9-10.2-20.6-9s19.5 10.1 19 11c-.4.7-19.5-10.1-20.3-8.8-.7 1.1 16.2 7.5 15.4 8.9-.7 1.2-24.8-14.1-25.5-12.8-.6 1.1 24.7 12.5 23.9 13.8-.7 1.3-22-14.3-22.9-12.9-1 1.7 21.1 10.1 20.2 11.7-.5.9-27.7-17.2-28.5-15.8-.9 1.5 32.8 16.9 32 18.5-.9 1.6-30-19.4-31-17.7-1.3 2.2 32.7 17 31.9 18.4-1.8 3.1-45.3-28.2-46.8-25.6-1.3 2.2 44.1 21.9 42.6 24.6-1.2 2-40.3-26.7-41.9-24-1.8 3.1 43.1 20.3 41.1 23.7-1.5 2.6-52.2-30.5-53.2-28.8-1.9 3.4 51.4 26.7 50.1 28.9-1 1.7-51.4-30.9-52.7-28.6-2.3 4 51.3 24.4 49 28.3-1.1 2-53.5-34-55.7-30.2-2.4 4.2 55.8 29.2 54.5 31.5-2.2 3.8-59.9-37.8-62.2-33.9-2.2 3.8 61.5 32.7 60.2 34.8-1.1 1.9-55.7-35.5-57.6-32.2-1.5 2.6 57.7 28.3 55.5 32.1-1.4 2.4-59.7-38-61.8-34.4-2.4 4.1 57.7 29.5 56 32.3-1.1 1.9-58.6-35.5-60.4-32.3-2.1 3.6 58.1 30.2 56.6 32.7-1.6 2.8-51.3-31.5-52.9-28.7-2.2 3.9 51.3 25 49.3 28.4-1.5 2.5-53.4-33.7-55.3-30.3-2 3.4 47.1 24.8 46.1 26.6-1.6 2.8-44.2-28.1-45.7-25.5-1.1 2 44.7 23 43.5 25.1-.9 1.6-41.4-26.2-42.8-23.6-1 1.7 28.5 14.8 27.8 16-.9 1.6-29.5-15.9-30.1-14.9-1.1 1.8 20.6 10.6 20 11.6-.5.9-21.8-12-22.5-10.6-.8 1.4 14 7.1 13.5 7.8-.4.7-14.1-8.3-14.5-7.6-.7 1.2 15 7 14.3 8.3-.5.9-16.2-8.5-16.8-7.5-.6 1.1 13.4 6.1 12.7 7.3-.5.8-18.1-10.9-18.8-9.7-.4.7 18.6 10 18.3 10.6-.5.9-15.3-8.3-15.7-7.7-.4.8 14 7.2 13.7 7.9-.6 1.1-19.3-10.1-19.7-9.4-.7 1.2 15.5 7.3 14.8 8.5-.3.6-10.7-6.2-11-5.7-.4.6 13.8 6.5 13.2 7.6-.4.8-12.2-8-12.6-7.2-.6 1.1 10.6 4.9 10.1 5.8-.2.4-10.4-6-10.7-5.4-.4.7 12.5 5.7 11.9 6.9-.4.8-12.5-7.8-12.9-7.2-.6 1 7.6 3.5 7.3 4.2-.3.5-9.2-3.2-9.4-2.9-.6 1 12.2 6 11.8 6.8-.3.5-12-5.8-12.3-5.3-.4.7 6.9 2.8 6.4 3.7-.2.4-9-5.3-9.4-4.7-.4.7 12.2 6.3 11.8 6.8-.3.4-13-5.9-13.5-5-.4.8 12 5.9 11.5 6.7-.3.6-11.4-6.6-11.6-6.2-.4.8 10.2 4.8 9.7 5.6-.3.6-11.5-6-12-5.2-.3.6 11.6 5.5 11.1 6.4-.3.6-10-5.3-10.2-4.9-.6 1 7.2 3.5 6.9 4s-8.4-2.8-8.6-2.4c-.5.8 10.8 5.2 10.4 6-.4.6-12.4-5.8-12.7-5.3-.4.6 12.1 6.2 11.7 6.8-.3.6-13.8-8.2-14.1-7.6-.5.8 9.6 4.4 9.1 5.3-.3.6-10.6-6.3-11-5.6-.3.5 11.9 5.5 11.3 6.5-.3.5-8.1-3.6-8.3-3.1-.5.9 6.4 2.6 6 3.4-.2.4-10.3-5.7-10.7-5.1-.3.5 15.3 7.8 14.8 8.6-.4.6-11.9-5.4-12.3-4.8-.3.4 6.8 3.1 6.5 3.7-.2.4-6.9-2-7.1-1.8-.2.4 10.1 5 9.7 5.6-.1.3-8.6-4.3-8.9-3.8-.3.6 3 1.1 2.7 1.6-.1.1-2.1 1.2-2.2 1.3-.1.2.7-.1.5.3l-1.1-.1c-.1.2 2.4 1.1 2.3 1.3s-3.3-1.9-3.4-1.8c-.1.2 3.4 1.8 3.4 1.9"/><path stroke="#666" d="M8.502 110.7c3.4 3.2 6.3 3.6 13 .9 13.6-12.6 25.7-20.8 54.5-4.1 15.3 7.2 29.1 10.3 39.1 10.3 15.7.4 27.9-8.8 36.1-17.7 6.1-2.5 7.4-7.1 2.4-11-.9-3.5-7.8-3.2-11.4-.4-15.4 10.9-25 21-58.3 4.9-39.6-22.5-60.6-7.6-74.4 5.8-3.7 3.3-5.6 8-1 11.3ZM140.302 8c-10.9 11.2-23.4 22.1-56.3 4.2-40.5-22.4-61-5.9-73 7.2-5.2 2.4-5.5 7.8-1.2 10.9.7 3.9 7.4 3.9 12.3.4 10.7-11.9 23.8-21.2 53.6-4.3 15.8 8.2 28 11.3 38.3 10.4 19.3.7 29.2-8.6 37.7-16.5 6.2-3.3 5.1-8.1.1-11.5-1.1-3.6-5.5-3.9-11.5-.8ZM20.202 71c13.4-11.8 26.9-21.4 55.7-4.5 16.6 8.4 27 11.8 36.4 11.5 19.8.1 29.8-9.2 39.3-17.6 4.3-2.9 7-7.9 2.5-10.8-2.6-4.1-7.6-4.4-12.2-1.2-15.2 11.1-24.5 20.2-56.5 3.7-41.7-22-62.5-6.3-75.6 6.4-5.4 3.8-3.8 8.5-.3 11 2.5 3.8 6.7 5.3 10.7 1.5Z"/><path stroke="#4D4D4D" stroke-width=".75" d="M5.702 110.5c8.5 3.5 12.3 3.6 13.3.9 15.4-12 25.7-20.9 60.2-4 11.9 7.4 24.6 10.3 34.2 11.1 20-.7 26-10.1 42.1-17.6-2.2-2.7.2-8-1.3-11.3-2.7-3.2-6.7-4.2-8.8-1.6-18.1 12.3-26.8 21.7-60.3 4.6-43.2-21.3-57.3-5.5-77.8 6.2 1.5 3.1-2.5 8.3-1.6 11.7ZM145.102 7.8c-20.4 11.8-28.5 21.6-60.7 5-38.4-22.1-56.5-6.4-75.2 6-3.7 2.8-5.7 7.9-3.7 11.6 5.5 3.1 9.7 3.6 12.1 1.2 14.5-12.3 29.1-21.7 62.3-5.1 10.9 7.9 22.4 11 34.4 11.4 17.2-.1 27.4-9.7 38-17.7 1.2-2.7 5.1-7.5.8-11.2-1-3.1-6-3.6-8-1.2ZM21.602 71.5c15.8-12.1 23.5-21.5 57.7-4.7 14.1 8.1 22.9 10.8 35 11.5 19.7-1 26.5-9.9 40.1-17.7-.4-2.9 2.1-7.6 1.5-11.1-6.5-3.1-8.2-3.7-13.5-1.1-16.7 11.6-27.3 21.2-55.2 4.4-42-21.4-64.6-5.9-79.1 6.3-1.1 3 .6 7.8.9 11.1 1.6 3.5 10.3 3.9 12.6 1.3Z"/></g><defs><filter id="a" width="160.844" height="126.217" x=".336" y=".658" color-interpolation-filters="sRGB" filterUnits="userSpaceOnUse"><feFlood flood-opacity="0" result="BackgroundImageFix"/><feColorMatrix in="SourceAlpha" result="hardAlpha" values="0 0 0 0 0 0 0 0 0 0 0 0 0 0 0 0 0 0 127 0"/><feOffset dy="4"/><feGaussianBlur stdDeviation="2"/><feComposite in2="hardAlpha" operator="out"/><feColorMatrix values="0 0 0 0 0 0 0 0 0 0 0 0 0 0 0 0 0 0 0.25 0"/><feBlend in2="BackgroundImageFix" result="effect1_dropShadow_3_317"/><feBlend in="SourceGraphic" in2="effect1_dropShadow_3_317" result="shape"/></filter></defs></svg>