<svg width="229" height="158" viewBox="0 0 229 158" fill="none" xmlns="http://www.w3.org/2000/svg">
<g filter="url(#filter0_d_3_128)">
<path d="M149.902 9.29991C149.802 9.49991 150.102 9.19992 150.102 9.39992C149.902 9.69992 143.802 6.0999 143.602 6.4999C143.002 7.4999 151.302 10.0999 150.902 10.6999C150.702 10.9999 143.102 5.99991 142.902 6.29991C142.302 7.39991 152.502 11.0999 152.202 11.6999C151.602 12.6999 134.502 1.2999 133.802 2.4999C132.702 4.2999 159.002 15.7999 158.502 16.6999C157.602 18.1999 130.202 0.699902 129.102 2.5999C128.102 4.2999 164.602 20.2999 163.402 22.3999C162.202 24.5999 131.802 2.8999 131.202 3.9999C129.702 6.4999 164.802 21.4999 164.002 22.9999C163.202 24.3999 127.502 0.799896 126.302 2.9999C124.702 5.6999 163.802 21.9999 162.702 23.9999C161.502 25.9999 126.602 1.89991 125.502 3.79991C124.202 5.99991 167.002 24.1999 165.402 26.8999C164.002 29.1999 120.102 -0.200104 118.802 1.9999C117.802 3.7999 167.502 26.0999 165.702 29.0999C164.802 30.6999 117.002 1.3999 116.002 3.0999C114.402 5.7999 170.002 31.1999 168.702 33.4999C166.702 36.9999 113.902 -0.100086 112.502 2.29991C110.902 4.99991 175.302 33.3999 173.002 37.1999C171.102 40.3999 116.802 2.19991 115.402 4.69991C114.302 6.69991 170.002 32.7999 168.602 35.3999C166.802 38.4999 114.702 2.5999 113.202 5.0999C110.902 9.0999 174.802 34.5999 172.102 39.0999C169.602 43.4999 110.502 -0.800086 108.402 2.79991C106.802 5.59991 172.002 35.0999 170.002 38.3999C169.002 40.1999 110.502 2.29992 108.802 5.39992C106.902 8.59992 178.102 40.8999 176.202 44.2999C175.002 46.3999 108.902 1.49991 107.002 4.79991C105.702 6.99991 171.902 39.1999 170.502 41.4999C169.402 43.4999 109.002 3.39991 106.702 7.29991C105.002 10.1999 172.902 42.1999 171.402 44.6999C169.802 47.5999 107.102 5.29991 105.702 7.79991C104.002 10.7999 179.102 43.2999 176.102 48.3999C173.102 53.4999 103.002 3.89992 101.602 6.39992C98.802 11.1999 178.802 45.4999 176.402 49.5999C173.702 54.3999 100.102 0.999908 97.402 5.69991C94.702 10.3999 175.702 45.2999 173.302 49.4999C170.902 53.5999 99.602 1.5999 97.002 6.0999C94.702 9.9999 176.902 48.8999 175.402 51.3999C172.702 55.9999 101.202 3.3999 98.402 8.0999C95.302 13.3999 175.502 45.6999 172.502 50.8999C169.502 56.0999 96.502 4.1999 94.602 7.4999C92.002 11.9999 213.102 70.3999 210.702 74.4999C206.202 82.2999 101.802 6.6999 99.502 10.5999C95.502 17.4999 213.402 66.0999 208.902 73.7999C206.802 77.4999 95.902 4.99991 93.502 9.19991C90.602 14.1999 211.702 70.9999 208.902 75.7999C205.602 81.4999 94.802 4.8999 91.902 9.9999C88.402 15.9999 214.602 75.1999 212.202 79.3999C207.302 87.8999 92.602 2.89991 88.102 10.6999C83.702 18.2999 217.902 78.5999 214.802 83.8999C212.302 88.1999 96.102 7.0999 91.302 15.4999C87.802 21.5999 218.302 78.7999 214.002 86.2999C210.302 92.6999 90.202 7.8999 86.402 14.4999C83.502 19.5999 218.302 82.8999 215.002 88.6999C210.902 95.8999 93.202 7.8999 88.502 15.9999C84.202 23.3999 216.802 80.7999 212.802 87.6999C210.402 91.7999 87.802 7.3999 84.002 13.9999C80.402 20.1999 220.702 84.7999 217.202 90.8999C213.202 97.7999 90.102 8.19991 86.002 15.2999C80.902 24.0999 221.502 86.2999 218.402 91.6999C213.302 100.5 90.202 9.0999 85.902 16.5999C82.302 22.7999 220.402 84.3999 216.102 91.7999C212.502 97.9999 92.602 9.59992 87.802 17.8999C82.802 26.4999 221.202 82.1999 215.702 91.6999C212.002 98.1999 86.002 13.0999 83.602 17.2999C78.802 25.4999 218.502 87.9999 215.402 93.3999C213.002 97.4999 88.802 14.4999 85.502 20.1999C80.102 29.5999 219.502 85.2999 214.202 94.4999C211.502 99.1999 87.802 11.2999 82.602 20.3999C77.002 30.0999 219.102 92.3999 216.202 97.4999C211.202 106.1 82.802 10.8999 77.802 19.5999C72.802 28.2999 220.202 95.3999 217.402 100.2C214.902 104.6 86.402 15.0999 81.802 22.9999C78.302 28.9999 222.302 92.6999 217.302 101.3C214.102 106.8 81.602 13.2999 76.902 21.4999C71.402 30.9999 217.602 93.8999 213.802 100.5C211.302 104.9 79.402 15.6999 75.102 22.9999C70.102 31.5999 219.302 98.1999 215.802 104.3C211.602 111.6 84.602 20.7999 80.402 27.9999C74.702 37.7999 222.402 98.1999 217.302 107.1C213.502 113.6 80.702 18.0999 75.602 26.8999C70.102 36.3999 217.302 102 214.402 107C209.602 115.4 81.202 20.3999 76.602 28.2999C73.202 34.2999 221.102 103.4 217.502 109.6C214.402 115 82.802 21.7999 77.902 30.0999C74.102 36.6999 217.502 104.1 214.702 109.1C210.402 116.6 80.002 27.4999 77.302 32.1999C71.402 42.3999 220.602 108 217.602 113.2C214.402 118.8 81.402 25.2999 76.302 33.9999C71.002 43.0999 217.102 108.7 214.202 113.6C210.202 120.4 79.302 28.0999 75.702 34.3999C71.102 42.3999 220.402 106.4 215.402 115C210.602 123.2 79.902 26.3999 74.502 35.8999C69.702 44.1999 220.102 107.9 214.802 116.9C211.102 123.3 74.602 24.2999 69.002 33.8999C65.902 39.1999 218.402 114.2 215.902 118.7C210.902 127.4 75.802 31.1999 72.402 37.1999C68.802 43.3999 218.402 114.3 215.302 119.7C210.302 128.4 70.702 30.6999 67.502 36.3999C61.802 46.2999 218.002 109.9 212.202 119.9C207.702 127.7 75.902 31.9999 71.602 39.3999C68.402 44.9999 220.202 112.8 214.802 122.1C209.702 130.9 77.002 31.3999 72.102 39.7999C66.602 49.2999 216.902 112.6 212.202 120.7C209.002 126.3 76.402 32.5999 71.802 40.4999C68.302 46.4999 219.702 112.5 213.902 122.6C208.902 131.3 74.702 33.6999 70.902 40.2999C65.702 49.3999 211.802 114 208.502 119.7C204.002 127.5 73.402 36.3999 70.002 42.2999C64.602 51.6999 216.702 117.3 212.502 124.6C208.702 131.1 73.802 38.2999 70.302 44.2999C66.702 50.4999 212.402 114.8 207.402 123.5C203.602 130 73.202 34.0999 67.702 43.5999C63.902 50.0999 213.102 120.8 210.202 125.8C207.302 130.8 73.102 36.4999 67.502 46.1999C63.302 53.3999 213.602 120.6 209.302 128.1C205.102 135.4 70.802 41.3999 67.702 46.8999C63.502 54.1999 212.102 120 207.602 127.7C203.302 135.2 71.902 38.0999 66.302 47.7999C63.102 53.2999 211.802 121 207.102 129.1C202.402 137.2 70.402 44.6999 67.602 49.4999C62.302 58.6999 206.602 123.6 204.002 128.2C199.302 136.3 71.302 44.8999 67.302 51.8999C63.002 59.3999 210.602 124.4 206.202 132.1C201.902 139.6 69.902 46.8999 66.202 53.2999C62.802 59.2999 208.902 128 205.602 133.8C202.302 139.5 67.302 47.2999 64.202 52.6999C59.802 60.2999 205.502 123.1 200.702 131.5C196.302 139.1 67.702 43.9999 62.802 52.5999C60.102 57.1999 206.502 123 201.102 132.4C195.802 141.5 71.002 48.6999 66.602 56.3999C61.502 65.2999 203.302 125 198.802 132.7C195.702 138.1 66.502 47.5999 62.302 54.8999C59.602 59.5999 207.402 128.6 203.002 136.2C198.602 143.8 64.902 48.8999 60.602 56.1999C57.902 60.7999 201.002 128.5 197.202 135.1C192.102 143.9 59.302 50.2999 56.002 55.8999C53.302 60.4999 203.902 131.7 199.802 138.9C197.202 143.3 60.302 46.6999 54.702 56.4999C50.402 63.8999 197.402 130.6 193.802 136.8C189.502 144.3 56.302 51.2999 52.502 57.8999C49.102 63.6999 199.902 131.1 194.802 140C192.102 144.7 50.402 50.9999 47.702 55.5999C42.002 65.4999 199.602 134.3 195.702 141C191.202 148.9 52.702 51.3999 49.002 57.8999C43.202 67.8999 197.902 133.8 193.502 141.3C189.702 147.9 49.902 47.5999 44.102 57.6999C40.502 63.9999 197.302 132.2 191.302 142.7C188.502 147.5 44.802 50.7999 40.402 58.2999C37.002 64.1999 189.402 134.8 185.302 141.9C180.002 151 42.802 49.6999 37.502 58.8999C32.102 68.2999 186.702 134.3 182.002 142.3C176.802 151.3 37.602 52.1999 34.302 57.8999C28.802 67.3999 186.302 132.6 180.602 142.4C177.602 147.6 36.602 52.8999 33.502 58.2999C27.602 68.4999 184.102 136.6 180.402 143.1C176.902 149.2 35.902 52.5999 31.902 59.5999C26.902 68.2999 180.402 134.6 175.802 142.7C170.502 151.9 40.502 52.4999 34.902 62.1999C30.602 69.6999 179.902 134.4 174.902 143C170.102 151.3 37.002 53.6999 32.702 61.1999C29.802 66.1999 181.702 138.2 177.802 145C174.102 151.4 35.102 53.1999 30.202 61.7999C25.102 70.5999 180.102 138.5 175.802 145.9C170.002 155.9 34.702 56.3999 30.402 63.7999C24.802 73.3999 175.302 141.6 172.702 146C170.202 150.4 34.402 57.1999 29.802 65.1999C27.102 69.7999 169.202 137.3 165.602 143.6C160.202 153 30.902 60.5999 28.002 65.7999C22.302 75.6999 168.602 138.4 164.902 144.8C162.402 149.1 32.502 62.9999 29.302 68.4999C24.502 76.6999 167.502 141.3 164.402 146.5C161.502 151.5 26.402 58.3999 22.002 65.7999C18.302 72.2999 163.602 138.2 159.602 145.2C155.902 151.5 30.302 62.2999 25.502 70.5999C22.602 75.5999 160.902 137.4 155.902 145.9C150.902 154.5 25.502 62.9999 21.102 70.6999C18.502 75.1999 156.102 136.2 150.702 145.5C145.802 154.1 25.602 67.6999 22.802 72.6999C19.202 78.8999 150.802 138.9 147.402 144.7C144.502 149.8 26.302 67.3999 22.602 73.6999C19.502 79.0999 152.902 138.4 148.302 146.3C144.002 153.8 25.802 67.9999 22.002 74.5999C19.002 79.7999 147.202 140.1 144.202 145.2C141.402 150 25.602 67.1999 20.702 75.6999C16.102 83.6999 142.502 137.6 138.802 143.9C134.402 151.5 24.902 70.9999 21.602 76.7999C19.102 81.1999 140.502 138.7 137.602 143.8C134.902 148.5 19.402 71.8999 17.202 75.8999C12.202 84.4999 140.302 139.9 137.202 145.2C135.102 148.8 21.502 73.6999 18.602 78.7999C15.202 84.5999 136.502 136.2 131.902 144.2C128.502 150 19.302 71.2999 15.302 78.2999C11.602 84.6999 131.402 140 129.102 144C125.502 150.3 15.902 72.5999 12.802 77.7999C8.50202 85.2999 130.402 137.7 126.902 143.7C122.602 151.1 15.202 74.1999 12.502 78.8999C8.50204 85.8999 130.402 139 126.902 145C124.002 150 14.302 75.8999 11.802 80.0999C8.50202 85.7999 131.802 138.9 127.302 146.8C123.302 153.7 18.402 77.2999 14.402 84.1999C11.302 89.4999 120.802 135.5 116.402 143.1C114.302 146.7 16.602 82.4999 14.402 86.2999C10.902 92.2999 118.902 138.7 115.502 144.7C112.702 149.5 13.402 81.1999 11.102 85.1999C8.00204 90.5999 116.402 137.8 112.802 143.9C109.102 150.4 16.902 81.9999 12.902 88.8999C9.40203 94.9999 110.802 139.6 108.302 144C105.102 149.5 11.202 83.0999 8.80202 87.2999C5.00202 93.8999 110.702 137.1 106.802 143.9C104.602 147.7 10.602 85.4999 8.00204 89.7999C5.70204 93.8999 104.502 136.9 100.702 143.3C97.602 148.7 13.302 88.3999 10.302 93.6999C8.50202 96.7999 99.502 140 97.202 143.9C94.302 148.9 9.80202 90.8999 7.80202 94.2999C4.40202 100.2 94.602 139.7 92.602 143.3C90.602 146.7 13.302 92.4999 10.902 96.5999C9.00203 99.8999 94.902 140.4 92.802 143.9C90.902 147.2 13.102 95.1999 11.102 98.6999C8.50204 103.1 95.702 143.1 93.802 146.4C91.002 151.2 13.602 97.1999 11.902 100.2C9.30203 104.8 88.902 141.2 87.402 143.8C85.802 146.5 12.202 95.5999 9.10204 101C7.40204 103.9 84.302 139.8 82.302 143.2C80.002 147.1 11.402 98.3999 8.90203 102.6C6.70203 106.4 84.002 141.9 82.202 144.9C80.602 147.7 10.902 100.6 8.50204 104.8C6.40204 108.5 82.602 142.7 80.502 146.4C79.202 148.7 12.102 104.3 10.302 107.4C8.70202 110.1 79.602 141.4 77.002 145.9C74.502 150.2 15.002 105.9 12.802 109.7C10.002 114.5 78.002 140.9 75.202 145.7C73.302 149 11.102 106.4 9.70205 108.9C7.80205 112.2 72.502 142.3 71.302 144.5C69.502 147.6 12.302 106.7 9.90203 110.9C8.40203 113.5 70.402 142.4 68.902 145C67.402 147.6 14.102 109.8 12.302 113C10.202 116.7 70.702 141.2 68.302 145.3C66.302 148.8 10.402 107.8 8.30202 111.3C6.60202 114.3 70.702 141.7 68.302 145.9C66.102 149.7 11.702 112.2 10.202 114.9C8.90205 117.2 62.302 141.8 60.902 144.2C59.902 146 14.302 114 12.802 116.6C11.802 118.3 65.802 144.4 64.602 146.5C63.302 148.7 13.002 114.2 11.802 116.3C10.502 118.6 65.702 144.2 64.302 146.6C63.202 148.6 13.902 115.6 12.302 118.4C11.302 120.2 61.302 144 60.102 146C58.202 149.3 12.302 117 11.202 119C10.102 120.9 57.602 141.6 55.702 144.7C54.602 146.6 12.702 117.7 11.202 120.3C9.40205 123.4 54.102 142.7 53.102 144.5C52.502 145.5 20.502 126.4 19.602 128C18.902 129.1 52.702 144.4 51.502 146.4C50.802 147.5 17.502 124.7 16.302 126.8C15.102 128.9 46.402 141.6 45.302 143.6C44.402 145.2 18.702 127.7 18.102 128.8C17.502 129.8 49.702 144.4 48.602 146.4C47.602 148.1 23.702 131.3 22.702 133C21.902 134.3 40.902 141.3 40.002 143C39.502 143.8 27.302 137.5 27.102 137.9C26.802 138.4 33.502 140.4 33.002 141.3C32.902 141.5 29.702 139.4 29.602 139.7C29.302 140.2 31.902 140 31.502 140.8C31.502 140.8 32.102 141.5 32.002 141.6M32.002 141.6C31.902 141.8 32.102 141.5 32.002 141.6Z" stroke="#999999" stroke-width="0.4" stroke-linecap="round" stroke-linejoin="round"/>
<path d="M193.402 60.3999C190.902 58.6999 184.702 53.4999 179.302 51.4999C176.802 22.3999 149.502 0.899927 121.802 0.799927C88.202 2.39993 65.502 23.4999 63.502 57.6999C60.302 53.9999 54.302 54.6999 55.302 54.0999C28.702 52.3999 5.40201 76.5999 8.70201 102.9C6.40201 130.4 28.602 145 54.202 145.3C54.902 148.7 64.602 148.7 66.602 143.8C64.902 149.1 157.302 148.7 158.902 148.7C160.202 150.2 172.602 147.2 174.802 146.8C201.302 149.3 221.002 128.5 218.302 97.8999C222.602 81.0999 208.302 64.9999 193.402 60.3999Z" stroke="#666666"/>
<path d="M191.202 57.1999C185.502 55.0999 185.602 53.6999 176.802 53.3999C170.802 23.9999 150.702 0.699907 118.702 1.29991C91.102 2.99991 66.002 25.3999 61.002 53.8999C56.102 55.8999 55.602 54.0999 50.702 54.6999C30.202 53.8999 4.40197 74.0999 5.00197 100.9C10.602 125.9 25.202 147.4 55.702 148.7C53.102 145.6 67.702 147.4 66.302 147.5C63.102 145.5 154.502 145 156.702 147.7C159.502 146.4 174.302 146.8 174.202 148.5C198.802 146.6 217.902 127.5 224.002 101.5C219.502 81.7999 208.402 65.4999 191.202 57.1999Z" stroke="#4D4D4D" stroke-width="0.75"/>
</g>
<defs>
<filter id="filter0_d_3_128" x="0.616699" y="0.299927" width="227.77" height="157.317" filterUnits="userSpaceOnUse" color-interpolation-filters="sRGB">
<feFlood flood-opacity="0" result="BackgroundImageFix"/>
<feColorMatrix in="SourceAlpha" type="matrix" values="0 0 0 0 0 0 0 0 0 0 0 0 0 0 0 0 0 0 127 0" result="hardAlpha"/>
<feOffset dy="4"/>
<feGaussianBlur stdDeviation="2"/>
<feComposite in2="hardAlpha" operator="out"/>
<feColorMatrix type="matrix" values="0 0 0 0 0 0 0 0 0 0 0 0 0 0 0 0 0 0 0.25 0"/>
<feBlend mode="normal" in2="BackgroundImageFix" result="effect1_dropShadow_3_128"/>
<feBlend mode="normal" in="SourceGraphic" in2="effect1_dropShadow_3_128" result="shape"/>
</filter>
</defs>
</svg>
