<svg xmlns="http://www.w3.org/2000/svg" width="229" height="158" fill="none"><g filter="url(#a)"><path stroke="#999" stroke-linecap="round" stroke-linejoin="round" stroke-width=".4" d="M149.902 9.3c-.1.2.2-.1.2.1-.2.3-6.3-3.3-6.5-2.9-.6 1 7.7 3.6 7.3 4.2-.2.3-7.8-4.7-8-4.4-.6 1.1 9.6 4.8 9.3 5.4-.6 1-17.7-10.4-18.4-9.2-1.1 1.8 25.2 13.3 24.7 14.2-.9 1.5-28.3-16-29.4-14.1-1 1.7 35.5 17.7 34.3 19.8-1.2 2.2-31.6-19.5-32.2-18.4-1.5 2.5 33.6 17.5 32.8 19-.8 1.4-36.5-22.2-37.7-20-1.6 2.7 37.5 19 36.4 21-1.2 2-36.1-22.1-37.2-20.2-1.3 2.2 41.5 20.4 39.9 23.1-1.4 2.3-45.3-27.1-46.6-24.9-1 1.8 48.7 24.1 46.9 27.1-.9 1.6-48.7-27.7-49.7-26-1.6 2.7 54 28.1 52.7 30.4-2 3.5-54.8-33.6-56.2-31.2-1.6 2.7 62.8 31.1 60.5 34.9-1.9 3.2-56.2-35-57.6-32.5-1.1 2 54.6 28.1 53.2 30.7-1.8 3.1-53.9-32.8-55.4-30.3-2.3 4 61.6 29.5 58.9 34-2.5 4.4-61.6-39.9-63.7-36.3-1.6 2.8 63.6 32.3 61.6 35.6-1 1.8-59.5-36.1-61.2-33-1.9 3.2 69.3 35.5 67.4 38.9-1.2 2.1-67.3-42.8-69.2-39.5-1.3 2.2 64.9 34.4 63.5 36.7-1.1 2-61.5-38.1-63.8-34.2-1.7 2.9 66.2 34.9 64.7 37.4-1.6 2.9-64.3-39.4-65.7-36.9-1.7 3 73.4 35.5 70.4 40.6s-73.1-44.5-74.5-42c-2.8 4.8 77.2 39.1 74.8 43.2-2.7 4.8-76.3-48.6-79-43.9s78.3 39.6 75.9 43.8c-2.4 4.1-73.7-47.9-76.3-43.4-2.3 3.9 79.9 42.8 78.4 45.3-2.7 4.6-74.2-48-77-43.3-3.1 5.3 77.1 37.6 74.1 42.8s-76-46.7-77.9-43.4c-2.6 4.5 118.5 62.9 116.1 67-4.5 7.8-108.9-67.8-111.2-63.9-4 6.9 113.9 55.5 109.4 63.2-2.1 3.7-113-68.8-115.4-64.6-2.9 5 118.2 61.8 115.4 66.6-3.3 5.7-114.1-70.9-117-65.8-3.5 6 122.7 65.2 120.3 69.4-4.9 8.5-119.6-76.5-124.1-68.7-4.4 7.6 129.8 67.9 126.7 73.2-2.5 4.3-118.7-76.8-123.5-68.4-3.5 6.1 127 63.3 122.7 70.8-3.7 6.4-123.8-78.4-127.6-71.8-2.9 5.1 131.9 68.4 128.6 74.2-4.1 7.2-121.8-80.8-126.5-72.7-4.3 7.4 128.3 64.8 124.3 71.7-2.4 4.1-125-80.3-128.8-73.7-3.6 6.2 136.7 70.8 133.2 76.9-4 6.9-127.1-82.7-131.2-75.6-5.1 8.8 135.5 71 132.4 76.4-5.1 8.8-128.2-82.6-132.5-75.1-3.6 6.2 134.5 67.8 130.2 75.2-3.6 6.2-123.5-82.2-128.3-73.9-5 8.6 133.4 64.3 127.9 73.8-3.7 6.5-129.7-78.6-132.1-74.4-4.8 8.2 134.9 70.7 131.8 76.1-2.4 4.1-126.6-78.9-129.9-73.2-5.4 9.4 134 65.1 128.7 74.3-2.7 4.7-126.4-83.2-131.6-74.1-5.6 9.7 136.5 72 133.6 77.1-5 8.6-133.4-86.6-138.4-77.9s142.4 75.8 139.6 80.6c-2.5 4.4-131-85.1-135.6-77.2-3.5 6 140.5 69.7 135.5 78.3-3.2 5.5-135.7-88-140.4-79.8-5.5 9.5 140.7 72.4 136.9 79-2.5 4.4-134.4-84.8-138.7-77.5-5 8.6 144.2 75.2 140.7 81.3-4.2 7.3-131.2-83.5-135.4-76.3-5.7 9.8 142 70.2 136.9 79.1-3.8 6.5-136.6-89-141.7-80.2-5.5 9.5 141.7 75.1 138.8 80.1-4.8 8.4-133.2-86.6-137.8-78.7-3.4 6 144.5 75.1 140.9 81.3-3.1 5.4-134.7-87.8-139.6-79.5-3.8 6.6 139.6 74 136.8 79-4.3 7.5-134.7-81.6-137.4-76.9-5.9 10.2 143.3 75.8 140.3 81-3.2 5.6-136.2-87.9-141.3-79.2-5.3 9.1 140.8 74.7 137.9 79.6-4 6.8-134.9-85.5-138.5-79.2-4.6 8 144.7 72 139.7 80.6-4.8 8.2-135.5-88.6-140.9-79.1-4.8 8.3 145.6 72 140.3 81-3.7 6.4-140.2-92.6-145.8-83-3.1 5.3 149.4 80.3 146.9 84.8-5 8.7-140.1-87.5-143.5-81.5-3.6 6.2 146 77.1 142.9 82.5-5 8.7-144.6-89-147.8-83.3-5.7 9.9 150.5 73.5 144.7 83.5-4.5 7.8-136.3-87.9-140.6-80.5-3.2 5.6 148.6 73.4 143.2 82.7-5.1 8.8-137.8-90.7-142.7-82.3-5.5 9.5 144.8 72.8 140.1 80.9-3.2 5.6-135.8-88.1-140.4-80.2-3.5 6 147.9 72 142.1 82.1-5 8.7-139.2-88.9-143-82.3-5.2 9.1 140.9 73.7 137.6 79.4-4.5 7.8-135.1-83.3-138.5-77.4-5.4 9.4 146.7 75 142.5 82.3-3.8 6.5-138.7-86.3-142.2-80.3-3.6 6.2 142.1 70.5 137.1 79.2-3.8 6.5-134.2-89.4-139.7-79.9-3.8 6.5 145.4 77.2 142.5 82.2s-137.1-89.3-142.7-79.6c-4.2 7.2 146.1 74.4 141.8 81.9-4.2 7.3-138.5-86.7-141.6-81.2-4.2 7.3 144.4 73.1 139.9 80.8-4.3 7.5-135.7-89.6-141.3-79.9-3.2 5.5 145.5 73.2 140.8 81.3s-136.7-84.4-139.5-79.6c-5.3 9.2 139 74.1 136.4 78.7-4.7 8.1-132.7-83.3-136.7-76.3-4.3 7.5 143.3 72.5 138.9 80.2-4.3 7.5-136.3-85.2-140-78.8-3.4 6 142.7 74.7 139.4 80.5-3.3 5.7-138.3-86.5-141.4-81.1-4.4 7.6 141.3 70.4 136.5 78.8-4.4 7.6-133-87.5-137.9-78.9-2.7 4.6 143.7 70.4 138.3 79.8-5.3 9.1-130.1-83.7-134.5-76-5.1 8.9 136.7 68.6 132.2 76.3-3.1 5.4-132.3-85.1-136.5-77.8-2.7 4.7 145.1 73.7 140.7 81.3s-138.1-87.3-142.4-80c-2.7 4.6 140.4 72.3 136.6 78.9-5.1 8.8-137.9-84.8-141.2-79.2-2.7 4.6 147.9 75.8 143.8 83-2.6 4.4-139.5-92.2-145.1-82.4-4.3 7.4 142.7 74.1 139.1 80.3-4.3 7.5-137.5-85.5-141.3-78.9-3.4 5.8 147.4 73.2 142.3 82.1-2.7 4.7-144.4-89-147.1-84.4-5.7 9.9 151.9 78.7 148 85.4-4.5 7.9-143-89.6-146.7-83.1-5.8 10 148.9 75.9 144.5 83.4-3.8 6.6-143.6-93.7-149.4-83.6-3.6 6.3 153.2 74.5 147.2 85-2.8 4.8-146.5-91.9-150.9-84.4-3.4 5.9 149 76.5 144.9 83.6-5.3 9.1-142.5-92.2-147.8-83-5.4 9.4 149.2 75.4 144.5 83.4-5.2 9-144.4-90.1-147.7-84.4-5.5 9.5 152 74.7 146.3 84.5-3 5.2-144-89.5-147.1-84.1-5.9 10.2 150.6 78.3 146.9 84.8-3.5 6.1-144.5-90.5-148.5-83.5-5 8.7 148.5 75 143.9 83.1-5.3 9.2-135.3-90.2-140.9-80.5-4.3 7.5 145 72.2 140 80.8-4.8 8.3-137.9-89.3-142.2-81.8-2.9 5 149 77 145.1 83.8-3.7 6.4-142.7-91.8-147.6-83.2-5.1 8.8 149.9 76.7 145.6 84.1-5.8 10-141.1-89.5-145.4-82.1-5.6 9.6 144.9 77.8 142.3 82.2-2.5 4.4-138.3-88.8-142.9-80.8-2.7 4.6 139.4 72.1 135.8 78.4-5.4 9.4-134.7-83-137.6-77.8-5.7 9.9 140.6 72.6 136.9 79-2.5 4.3-132.4-81.8-135.6-76.3-4.8 8.2 138.2 72.8 135.1 78-2.9 5-138-88.1-142.4-80.7-3.7 6.5 141.6 72.4 137.6 79.4-3.7 6.3-129.3-82.9-134.1-74.6-2.9 5 135.4 66.8 130.4 75.3-5 8.6-130.4-82.9-134.8-75.2-2.6 4.5 135 65.5 129.6 74.8-4.9 8.6-125.1-77.8-127.9-72.8-3.6 6.2 128 66.2 124.6 72-2.9 5.1-121.1-77.3-124.8-71-3.1 5.4 130.3 64.7 125.7 72.6-4.3 7.5-122.5-78.3-126.3-71.7-3 5.2 125.2 65.5 122.2 70.6-2.8 4.8-118.6-78-123.5-69.5-4.6 8 121.8 61.9 118.1 68.2-4.4 7.6-113.9-72.9-117.2-67.1-2.5 4.4 118.9 61.9 116 67-2.7 4.7-118.2-71.9-120.4-67.9-5 8.6 123.1 64 120 69.3-2.1 3.6-115.7-71.5-118.6-66.4-3.4 5.8 117.9 57.4 113.3 65.4-3.4 5.8-112.6-72.9-116.6-65.9-3.7 6.4 116.1 61.7 113.8 65.7-3.6 6.3-113.2-71.4-116.3-66.2-4.3 7.5 117.6 59.9 114.1 65.9-4.3 7.4-111.7-69.5-114.4-64.8-4 7 117.9 60.1 114.4 66.1-2.9 5-112.6-69.1-115.1-64.9-3.3 5.7 120 58.8 115.5 66.7-4 6.9-108.9-69.5-112.9-62.6-3.1 5.3 106.4 51.3 102 58.9-2.1 3.6-99.8-60.6-102-56.8-3.5 6 104.5 52.4 101.1 58.4-2.8 4.8-102.1-63.5-104.4-59.5-3.1 5.4 105.3 52.6 101.7 58.7-3.7 6.5-95.9-61.9-99.9-55-3.5 6.1 97.9 50.7 95.4 55.1-3.2 5.5-97.1-60.9-99.5-56.7-3.8 6.6 101.9 49.8 98 56.6-2.2 3.8-96.2-58.4-98.8-54.1-2.3 4.1 96.5 47.1 92.7 53.5-3.1 5.4-87.4-54.9-90.4-49.6-1.8 3.1 89.2 46.3 86.9 50.2-2.9 5-87.4-53-89.4-49.6-3.4 5.9 86.8 45.4 84.8 49-2 3.4-79.3-50.8-81.7-46.7-1.9 3.3 84 43.8 81.9 47.3-1.9 3.3-79.7-48.7-81.7-45.2-2.6 4.4 84.6 44.4 82.7 47.7-2.8 4.8-80.2-49.2-81.9-46.2-2.6 4.6 77 41 75.5 43.6-1.6 2.7-75.2-48.2-78.3-42.8-1.7 2.9 75.2 38.8 73.2 42.2-2.3 3.9-70.9-44.8-73.4-40.6-2.2 3.8 75.1 39.3 73.3 42.3-1.6 2.8-71.3-44.3-73.7-40.1-2.1 3.7 74.1 37.9 72 41.6-1.3 2.3-68.4-42.1-70.2-39-1.6 2.7 69.3 34 66.7 38.5-2.5 4.3-62-40-64.2-36.2-2.8 4.8 65.2 31.2 62.4 36-1.9 3.3-64.1-39.3-65.5-36.8-1.9 3.3 62.8 33.4 61.6 35.6-1.8 3.1-59-37.8-61.4-33.6-1.5 2.6 60.5 31.5 59 34.1s-54.8-35.2-56.6-32c-2.1 3.7 58.4 28.2 56 32.3-2 3.5-57.9-37.5-60-34-1.7 3 62.4 30.4 60 34.6-2.2 3.8-56.6-33.7-58.1-31-1.3 2.3 52.1 26.9 50.7 29.3-1 1.8-46.6-30.2-48.1-27.6-1 1.7 53 27.8 51.8 29.9-1.3 2.2-51.6-32.3-52.8-30.2-1.3 2.3 53.9 27.9 52.5 30.3-1.1 2-50.4-31-52-28.2-1 1.8 49 25.6 47.8 27.6-1.9 3.3-47.8-29-48.9-27-1.1 1.9 46.4 22.6 44.5 25.7-1.1 1.9-43-27-44.5-24.4-1.8 3.1 42.9 22.4 41.9 24.2-.6 1-32.6-18.1-33.5-16.5-.7 1.1 33.1 16.4 31.9 18.4-.7 1.1-34-21.7-35.2-19.6s30.1 14.8 29 16.8c-.9 1.6-26.6-15.9-27.2-14.8-.6 1 31.6 15.6 30.5 17.6-1 1.7-24.9-15.1-25.9-13.4-.8 1.3 18.2 8.3 17.3 10-.5.8-12.7-5.5-12.9-5.1-.3.5 6.4 2.5 5.9 3.4-.1.2-3.3-1.9-3.4-1.6-.3.5 2.3.3 1.9 1.1 0 0 .6.7.5.8m0 0c-.1.2.1-.1 0 0"/><path stroke="#666" d="M193.402 60.4c-2.5-1.7-8.7-6.9-14.1-8.9-2.5-29.1-29.8-50.6-57.5-50.7-33.6 1.6-56.3 22.7-58.3 56.9-3.2-3.7-9.2-3-8.2-3.6-26.6-1.7-49.9 22.5-46.6 48.8-2.3 27.5 19.9 42.1 45.5 42.4.7 3.4 10.4 3.4 12.4-1.5-1.7 5.3 90.7 4.9 92.3 4.9 1.3 1.5 13.7-1.5 15.9-1.9 26.5 2.5 46.2-18.3 43.5-48.9 4.3-16.8-10-32.9-24.9-37.5Z"/><path stroke="#4D4D4D" stroke-width=".75" d="M191.202 57.2c-5.7-2.1-5.6-3.5-14.4-3.8-6-29.4-26.1-52.7-58.1-52.1-27.6 1.7-52.7 24.1-57.7 52.6-4.9 2-5.4.2-10.3.8-20.5-.8-46.3 19.4-45.7 46.2 5.6 25 20.2 46.5 50.7 47.8-2.6-3.1 12-1.3 10.6-1.2-3.2-2 88.2-2.5 90.4.2 2.8-1.3 17.6-.9 17.5.8 24.6-1.9 43.7-21 49.8-47-4.5-19.7-15.6-36-32.8-44.3Z"/></g><defs><filter id="a" width="227.77" height="157.317" x=".617" y=".3" color-interpolation-filters="sRGB" filterUnits="userSpaceOnUse"><feFlood flood-opacity="0" result="BackgroundImageFix"/><feColorMatrix in="SourceAlpha" result="hardAlpha" values="0 0 0 0 0 0 0 0 0 0 0 0 0 0 0 0 0 0 127 0"/><feOffset dy="4"/><feGaussianBlur stdDeviation="2"/><feComposite in2="hardAlpha" operator="out"/><feColorMatrix values="0 0 0 0 0 0 0 0 0 0 0 0 0 0 0 0 0 0 0.25 0"/><feBlend in2="BackgroundImageFix" result="effect1_dropShadow_3_128"/><feBlend in="SourceGraphic" in2="effect1_dropShadow_3_128" result="shape"/></filter></defs></svg>