<svg xmlns="http://www.w3.org/2000/svg" width="423" height="329" fill="none"><path stroke="#999" stroke-linecap="round" stroke-linejoin="round" stroke-width=".4" d="M284.671 201.963c-.198.198 8.521 4.557 8.323 4.755-.397.793-19.42-9.709-20.014-8.719-.991 1.784 32.696 16.249 31.705 18.231-.793 1.387-36.263-21.599-36.857-20.41-1.189 1.981 31.705 16.249 30.714 17.834-1.387 2.378-36.263-20.807-37.452-18.825s44.784 22.392 43.199 24.968"/><path stroke="#999" stroke-linecap="round" stroke-linejoin="round" stroke-width=".4" d="M220.071 133.003c-.396.595 5.747 2.774 5.549 3.171-.397.792-13.871-7.332-14.268-6.54-1.189 1.982 12.881 5.945 12.286 7.134-.198.396-13.475-7.926-13.673-7.53-1.189 1.982 16.051 7.926 15.456 8.917-.99 1.585-30.12-17.24-31.309-15.06-1.783 3.171 42.605 22.59 41.812 24.176-1.387 2.576-47.558-25.959-49.342-22.789-1.585 2.973 58.655 29.13 56.674 32.696-1.982 3.567-51.522-31.705-52.512-29.922-2.378 4.36 54.89 28.535 53.503 30.913s-60.439-36.263-62.619-32.498c-2.774 4.558 61.033 30.715 59.052 34.084-1.982 3.17-58.061-35.075-59.844-32.102-2.18 3.765 66.977 32.696 64.203 37.055-2.179 3.766-74.904-44.189-76.885-40.424-1.784 2.972 79.858 39.434 76.885 44.388-1.387 2.576-79.66-44.388-81.245-41.614-2.576 4.558 87.586 45.577 85.407 49.342-3.369 5.746-89.766-54.692-92.144-50.531-2.576 4.558 104.033 51.522 100.268 57.863-2.972 5.35-91.946-56.872-94.125-52.909-1.982 3.369 87.586 44.784 85.01 49.144-2.774 4.954-86.398-51.918-88.775-47.955-3.765 6.738 99.079 47.162 94.72 54.692-4.162 7.134-100.665-64.996-104.232-59.051-2.774 4.557 102.844 52.116 99.674 57.466-1.585 2.972-95.315-56.872-98.287-52.116-4.359 7.53 163.481 83.821 158.924 91.748-2.973 4.954-157.735-100.665-162.293-92.739-2.972 5.152 154.762 82.236 151.592 87.587-2.774 4.755-145.845-91.55-151.195-82.236-3.963 6.737 158.923 84.019 155.554 89.766-3.963 6.737-153.771-94.72-157.14-88.776-4.161 7.134 174.182 84.416 167.048 96.504-6.935 12.087-171.605-104.826-174.974-99.08-6.539 11.295 181.91 92.144 176.163 101.854-6.341 11.097-177.748-113.743-183.891-102.845-6.341 10.899 184.09 93.135 178.343 103.043-5.549 9.512-172.795-112.752-178.938-102.052-5.35 9.116 186.666 100.071 183.297 105.817-6.143 10.701-173.587-112.752-179.928-101.655-7.134 12.285 181.514 88.775 174.578 100.863-6.935 12.087-177.154-109.186-181.513-101.656-4.162 7.332 193.997 102.845 190.034 109.78-7.332 12.682-176.56-109.78-180.325-103.439-6.539 11.295 183.496 89.172 176.164 101.656-3.369 5.944-183.297-110.969-187.261-104.232-4.557 8.125 188.846 98.485 184.288 106.411-5.35 9.116-182.108-112.554-186.864-104.429-5.548 9.709 195.187 103.637 191.224 110.374-7.728 13.475-190.629-120.679-197.763-108.393-6.935 12.088 204.698 107.006 199.942 115.527-3.765 6.737-185.08-118.499-192.61-105.421-5.548 9.512 194.988 96.9 188.251 108.591-5.747 9.908-191.422-120.48-197.366-110.176-4.558 7.926 202.914 105.024 197.564 114.14-6.341 10.898-186.269-123.453-193.403-110.969-6.737 11.493 194.988 98.286 188.845 108.987-3.566 6.341-191.619-122.859-197.564-112.752-5.548 9.511 211.039 109.185 205.689 118.697-6.143 10.7-195.385-127.02-201.528-116.121-7.926 13.673 208.662 109.185 203.708 117.706-7.728 13.475-196.772-126.227-203.51-114.734-5.548 9.512 204.302 102.844 197.763 114.14-5.35 9.313-186.666-124.048-193.799-111.564-7.729 13.277 201.329 96.702 192.808 111.365-5.746 9.908-196.97-118.3-200.536-112.158-7.332 12.484 203.311 106.412 198.555 114.734-3.567 6.143-189.242-117.111-194.196-108.591-8.323 14.268 198.555 95.909 190.431 109.979-3.963 6.935-187.855-122.463-195.583-109.186-8.521 14.664 202.32 106.61 197.762 114.14-7.331 12.88-199.149-128.209-206.481-115.329-7.53 12.88 211.832 112.554 207.67 119.886-3.765 6.539-192.61-124.444-199.347-112.752-5.153 8.917 205.688 101.655 198.158 114.536-4.755 8.124-200.338-129.2-207.274-117.31-8.124 14.069 205.095 105.42 199.348 115.13-3.765 6.341-195.385-121.868-201.726-111.365-7.332 12.682 208.86 108.789 203.708 117.508-5.945 10.304-186.27-117.508-192.214-107.402-8.125 14.267 201.329 99.277 193.997 111.959-5.35 9.314-195.385-126.227-202.518-113.743-7.927 13.673 199.744 105.817 195.583 112.951-6.738 11.691-186.666-120.877-193.007-109.78-4.954 8.521 203.707 105.618 198.555 114.734-4.36 7.53-188.449-122.264-195.187-110.573-5.35 9.314 192.809 102.052 188.846 108.988-5.945 10.304-185.08-110.573-188.647-104.232-8.125 14.267 196.375 103.835 192.214 110.969-4.36 7.728-186.071-118.697-193.007-106.808-7.332 12.484 188.251 99.674 184.288 106.412-5.35 9.115-180.325-113.744-185.081-105.421-6.34 10.899 193.602 96.107 186.864 107.799-6.737 11.691-192.412-124.444-200.14-110.969C85.52 210.285 296.362 299.06 289.03 311.941c-5.351 9.313-203.51-133.758-211.436-119.688-4.36 7.728 215.993 116.121 212.228 122.66-7.332 12.682-204.896-127.218-209.85-118.499-5.35 9.115 211.832 111.762 207.274 119.688-7.53 13.078-216.984-132.568-221.938-124.048-8.52 14.664 222.334 108.393 213.814 123.453-6.54 11.494-200.735-129.199-207.076-118.3-4.756 8.322 219.56 108.393 211.633 122.066-7.53 12.88-203.509-133.758-210.643-121.472-8.124 14.268 212.427 106.61 205.491 118.697-4.756 8.323-200.735-129.794-207.472-118.301-5.152 8.917 218.569 106.214 209.85 121.274-7.332 12.88-206.482-131.776-212.228-121.868-7.926 13.475 206.085 107.402 201.131 116.121-6.737 11.691-202.518-123.453-207.67-114.734-8.125 14.267 218.767 111.762 212.624 122.66-5.747 9.908-209.454-129.397-214.606-120.282-5.35 9.313 209.454 103.637 201.924 116.517-5.549 9.512-199.942-133.162-208.265-118.895C48.069 208.7 270.8 314.12 266.44 321.849c-4.359 7.53-208.66-134.55-217.182-119.887-6.34 10.899 216.984 110.375 210.643 121.472-6.341 10.899-206.283-129.002-211.04-120.679-6.34 10.899 213.022 107.6 206.483 119.292-6.54 11.097-203.113-133.163-211.436-118.698-4.756 8.125 214.21 107.601 207.274 119.688-6.935 11.89-201.726-124.047-205.887-116.913-7.926 13.673 201.33 107.204 197.565 113.941-6.936 11.89-195.385-121.273-201.132-111.167-6.34 10.899 206.284 104.033 199.744 115.328-6.341 10.899-199.15-123.254-204.5-113.941-4.954 8.521 203.311 106.213 198.556 114.536-4.756 8.124-198.754-124.048-203.311-116.319-6.342 10.898 199.149 99.079 192.214 110.969-6.341 10.898-188.846-123.85-195.98-111.762-3.764 6.539 202.915 99.278 195.187 112.752-7.332 12.881-183.297-116.913-189.44-106.015-7.332 12.484 187.855 93.928 181.514 104.827-4.36 7.53-185.279-118.5-191.025-108.195-3.765 6.539 203.509 103.24 197.366 113.941-5.945 10.304-187.26-116.914-193.007-107.006-3.567 6.143 182.108 93.531 176.956 102.25-6.539 11.295-175.965-106.609-180.127-99.475-3.368 5.944 186.27 95.314 180.92 104.429-3.171 5.549-173.984-113.941-180.92-101.853-5.35 9.313 171.012 88.577 166.652 96.107-4.954 8.719-160.707-97.693-165.264-90.163-3.964 6.936 168.633 83.227 162.49 93.928-3.171 5.548-168.039-103.241-171.21-97.891-6.737 11.692 176.758 91.55 172.201 99.476-5.152 8.917-162.689-100.467-166.85-93.135-6.54 11.295 164.868 83.821 159.914 92.342-4.161 7.134-158.725-101.061-165.066-90.162-3.963 6.737 163.085 79.065 156.545 90.36-2.972 5.153-155.158-94.72-159.716-86.793-3.567 6.143 148.619 75.895 144.26 83.425-5.152 8.917-141.287-88.974-146.44-79.858-5.35 9.313 141.684 71.139 136.928 79.065-4.954 8.719-138.91-85.803-142.08-80.254-5.35 9.313 143.666 70.346 138.315 79.858-2.774 4.954-135.54-83.425-138.513-78.273-5.746 9.71 140.891 73.121 137.324 79.264-3.17 5.548-133.757-81.246-137.522-74.905-4.558 7.927 130.587 65.591 126.227 72.923-4.557 7.728-114.337-75.3-119.093-67.176-3.963 6.738 121.273 59.646 116.715 67.374-3.963 6.936-116.715-75.3-120.48-68.761-2.576 4.558 129.596 66.78 126.029 72.724-3.171 5.549-123.85-77.282-128.01-69.95-4.36 7.53 127.019 64.798 123.254 71.139-4.756 8.323-116.716-71.931-120.283-65.789-4.557 7.927 115.725 62.024 113.546 65.591-1.982 3.369-108.592-67.572-112.357-61.429-2.18 3.765 100.863 51.521 98.089 56.673-3.963 6.738-96.9-57.664-99.08-53.899-4.359 7.53 100.467 51.521 97.693 56.277-1.585 2.774-89.766-52.908-91.946-49.143-3.368 5.945 93.333 48.747 91.153 52.512-1.981 3.567-100.07-61.826-103.042-56.475-2.576 4.557 96.503 49.143 93.53 54.097-2.179 3.765-78.47-46.171-81.443-41.217-1.783 3.171 77.084 37.452 74.112 42.802-2.774 4.954-75.102-43.991-77.678-39.632-1.387 2.577 70.346 33.688 67.374 38.84-2.378 4.161-60.24-35.867-61.628-33.489-1.981 3.368 56.872 28.733 55.287 31.903-1.19 2.18-51.522-31.111-53.107-28.534-1.585 2.774 57.268 27.742 54.89 31.705-1.784 3.17-51.323-30.913-52.908-28.139-1.388 2.378 46.17 23.581 44.784 25.959-.991 1.585-40.623-23.581-42.208-20.807-1.784 3.171 32.3 15.457 30.912 17.835-.99 1.783-26.553-16.051-27.345-14.664-.991 1.585 25.76 12.484 24.571 14.268-.594.99-26.355-13.079-26.751-12.286-1.387 2.179 24.571 12.285 23.779 13.673-.198.396-16.646-7.53-17.042-6.738-.198.397 9.314 4.756 9.115 5.152M280.113 1.03l2.775 1.585c-.199.198-5.351-1.784-5.549-1.586s5.747 3.17 5.549 3.17c-.199.199-6.341-3.566-6.54-3.17-.198.198 6.54 3.567 6.54 3.765-.199.397-9.908-3.567-10.305-2.972-.396.594 3.171 1.387 3.171 1.783-.198.397-7.926.397-8.323.991-.396.793 8.917 3.765 8.323 4.756-.198.198-3.963-2.18-3.963-1.982-.793 1.19 5.35 2.18 4.954 2.775-.198.198-7.927-1.586-8.125-1.19-.792 1.19 1.982 0 1.387.793-.198.198 1.784 3.17 1.586 3.369-.595.793 1.981-.396 1.189.793-.199.396-7.927-1.19-8.125-.793-.396.594 6.341 2.18 5.747 3.369 0 .198-3.171 3.368-3.171 3.368-.594.991 5.747 2.378 5.35 3.17-.198.595-8.719-2.972-8.917-2.575-.594.792 17.042 8.124 16.249 9.511-.396.793-12.484-6.539-12.88-5.944s9.71 4.557 9.115 5.35c-.198.198-4.756.396-4.954.595-.792 1.188 5.152 1.189 4.36 2.576-.396.792-12.088-6.936-12.484-6.143-.397.792 8.521 3.567 7.926 4.557 0 .198-1.585 3.369-1.783 3.567-.595.991 12.88 6.143 12.286 7.134-.199.396-14.466-8.323-14.862-7.53-.397.594 3.567 1.189 3.17 1.783 0 .198-2.972 3.17-2.972 3.369-.397.793 9.511 4.756 9.115 5.35 0 .198-3.963-.396-3.963-.396-.396.793 7.728 2.774 6.935 3.963-.594.793-12.88-6.143-13.276-5.747-.793 1.19 14.069 6.738 13.475 7.729s-17.835-8.323-18.429-7.332c-.595 1.189 11.889 5.35 11.295 6.54-.396.594-10.502-5.55-10.701-4.955-.594.793 13.079 6.737 12.682 7.332-.198.396-7.133-2.378-7.331-1.982-.595.793 3.368.793 2.774 1.586-.198.396-7.728-1.784-7.927-1.388s4.756 2.378 4.558 2.775-5.945-3.17-6.143-2.973c-.198.397 9.71 4.954 9.512 5.549-.198.198-9.314-1.784-9.512-1.586l2.775 1.586M419.221 150.243l2.774 1.585c-.198.199-5.35-1.783-5.548-1.585s5.746 3.171 5.548 3.171c-.198.198-6.341-3.567-6.539-3.171-.198.198 6.539 3.567 6.539 3.765-.198.396-9.908-3.567-10.304-2.972-.396.594 3.369 1.585 3.171 1.783-.199.396-7.927.396-8.323.991-.396.793 8.917 3.765 8.323 4.756-.199.198-3.964-2.18-4.162-1.982-.793 1.189 5.35 2.18 4.954 2.774-.198.397-13.475-5.152-13.871-4.557-.991 1.585 7.926 2.972 7.134 4.161-.198.396-8.125-2.774-8.323-2.378-.793 1.387 12.286 4.954 11.295 6.539-.792 1.189-24.373-11.691-25.166-10.502-.595.991 17.042 7.53 16.051 9.313-.198.397-16.447-4.954-16.844-4.359-.594 1.189 10.503 4.756 9.908 5.747-.396.792-13.276-5.747-13.475-5.351-.594.793 17.24 8.323 16.448 9.512-.397.793-12.683-6.539-13.079-6.143-.396.595 7.332 3.369 6.936 3.963-.198.397-6.738-.991-6.936-.594-.396.792 1.585-.198 1.189.594-.198.595-7.332-3.765-7.728-3.369-.198.397 12.682 6.738 12.286 7.134-.198.397-12.088-2.972-12.286-2.576 0 0 4.359 2.378 4.359 2.576s-4.161-1.783-4.359-1.585l2.774 1.585M358.584 222.967s3.171 1.784 2.973 1.784c-.198.198-3.963-.991-4.162-.793-.198.396 8.323 4.558 8.125 4.756s-8.323-4.756-8.521-4.36c-.198.397 9.71 5.351 9.512 5.549-.198.396-9.71-3.567-10.106-2.973-.595.991 10.304 5.351 10.106 5.747s-8.521 0-8.917.595c-.793 1.387 23.58 11.295 22.59 13.078-.595 1.189-17.637-10.701-18.033-10.106-1.189 2.18 20.212 10.106 19.618 11.295-.595.991-23.779-12.088-24.572-10.701-1.585 2.775 27.544 13.277 26.355 15.259-.792 1.387-24.175-13.079-24.769-11.89-1.189 1.982 29.525 13.673 28.138 16.249-.991 1.585-31.111-16.051-32.102-14.465-.792 1.387 28.337 13.276 27.148 15.654-.198.396-11.691-1.981-11.89-1.585-.594 1.189 11.296 5.35 10.899 6.143-.198.396-8.322-2.576-8.322-2.378-.397.793 14.862 7.134 14.069 8.124-.198.397-7.134-3.17-7.332-2.774s3.171.991 2.774 1.585c0 .199-1.189 2.577-1.387 2.577-.198.198 5.945 3.17 5.747 3.368s-3.567-1.387-3.567-1.189c0 0 3.17 1.784 2.972 1.784M178.656 43.039s3.171 1.783 2.973 1.783c-.199.198-3.964-.99-4.162-.792-.198.396 8.323 4.557 8.125 4.755-.198.199-8.323-4.755-8.521-4.359s9.71 5.35 9.512 5.548c-.199.397-9.71-3.566-10.106-2.972-.595.99 10.304 5.35 10.106 5.747-.199.396-8.521 0-8.918.594-.792 1.387 23.581 11.295 22.591 13.078-.595 1.19-17.637-10.7-18.033-10.106-1.189 2.18 20.212 10.107 19.618 11.296-.595.99-23.779-12.088-24.572-10.701-1.585 2.774 27.544 13.277 26.355 15.258-.792 1.387-24.175-13.078-24.77-11.89-1.189 1.982 29.526 13.674 28.139 16.25-.991 1.585-31.111-16.051-31.904-14.466-.792 1.387 28.337 13.277 26.95 15.655-.198.396-11.691-1.982-11.89-1.586-.594 1.19 11.296 5.153 10.701 6.143-.198.397-8.125-2.576-8.323-2.378-.396.793 14.664 6.936 14.07 8.125-.199.396-7.134-3.17-7.332-2.774s3.17.99 2.774 1.585c0 .198-1.189 2.576-1.189 2.576-.198.198 5.945 2.972 5.747 3.369-.199.198-3.567-1.387-3.567-1.19 0 0 3.17 1.784 2.972 1.784M383.354 43.039l3.171 1.783c-.198.198-3.963-.99-4.162-.792-.198.396 8.323 4.557 8.125 4.755-.198.199-8.323-4.755-8.521-4.359s9.908 5.35 9.71 5.548c-.198.397-9.908-3.566-10.304-2.972-.595.99 9.709 4.954 9.313 5.35-.198.397-7.926.397-8.124.991-.397.595 5.152 1.982 4.755 2.774v.199c-.594.99.991-.199.793.396-.198.198-7.134-.991-7.332-.595-.594.991 5.152 1.982 4.756 2.775-.198.396-6.143-1.388-6.143-1.19-.396.595 5.152 1.784 4.756 2.775-.198.396-9.314-1.982-9.512-1.585-.198.594 1.784-.199 1.189.792 0 .198-1.981 3.963-1.981 4.162-.397.792 1.189-.199.792.396-.198.396-5.945-1.19-6.143-.99-.396.593 12.286 5.746 11.89 6.736-.198.397-8.917-4.36-9.115-3.963s4.953 1.982 4.755 2.774c-.198.397-6.737-.792-6.737-.594-.595.99 5.35 1.585 4.756 2.774-.397.595-8.917-4.756-9.116-4.161-.396.594 3.765 1.189 3.369 1.981 0 .199 0 4.36-.198 4.558-.396.793 8.323 3.765 7.728 4.558-.198.396-10.502-5.747-10.7-5.152-.199.396 4.954 2.18 4.755 2.774-.198.198-7.728.198-7.926.594-.396.595 4.954 2.18 4.756 2.775l-.793 1.585c-.396.594 3.171.396 2.576 1.387-.396.594-9.71-4.161-9.908-3.765-.594.99 9.512 4.36 8.917 5.152-.594.99-15.456-6.737-16.05-5.945-.595.991 7.53 3.17 7.133 4.162-.198.396-7.133-3.567-7.332-2.973-.396.793 10.899 5.747 10.701 6.143-.198.397-6.341-1.981-6.737-1.585-.595.99 5.35 1.783 4.755 2.774-.198.595-8.124-1.981-8.322-1.783-.198.396 8.719 4.557 8.521 4.954-.397.594-8.323-4.558-8.521-4.162-.397.595 12.88 6.54 12.484 7.134 0 .198-4.954 0-4.954.198l3.17 1.784M297.948 191.262c-.595.991 20.014 10.304 19.419 11.295-.198.198-5.548-.594-5.746-.396-.397.594 12.088 5.945 11.493 6.737-.198.396-11.889-6.539-12.088-6.143-.396.595 4.162 1.982 3.964 2.378-.199.396 2.576 4.954 2.377 5.152l2.973 1.586"/><path stroke="#999" stroke-linecap="round" stroke-linejoin="round" stroke-width=".4" d="M316.376 106.053c-.198.397 1.586.397 1.388.793-.397.594-9.908-4.756-10.305-4.161-.99 1.585 7.728 3.17 7.134 4.161-.198.198-7.728-4.36-7.926-4.161-.991 1.783 10.7 5.152 10.304 5.944-.793 1.387-24.77-13.673-25.761-11.89-1.585 2.775 35.669 18.826 34.876 20.213-1.189 2.18-39.632-20.608-41.019-18.032-1.387 2.377 48.946 24.175 47.162 27.345-1.585 2.973-42.01-25.958-43-24.571-2.18 3.765 45.18 23.382 43.991 25.364s-50.531-29.724-52.314-26.553c-2.378 3.963 49.342 24.571 47.558 27.544-1.585 2.576-46.567-27.742-47.954-25.166-1.784 3.17 54.493 26.355 52.314 30.12-1.784 3.17-62.222-36.065-64.006-33.093-1.387 2.576 65.393 32.102 63.015 36.462-1.189 2.179-64.996-35.273-66.383-33.093-2.18 3.765 71.931 37.254 69.95 40.424-2.775 4.756-74.31-44.783-76.292-41.415-2.179 3.765 86.992 43.001 83.822 48.351-2.576 4.359-75.697-46.567-77.48-43.397-1.586 2.774 70.148 35.867 68.166 39.434-2.179 3.963-69.355-41.019-71.337-37.849-3.17 5.549 80.651 38.047 76.886 44.388-3.369 5.945-83.227-53.503-86.001-48.549-2.18 3.963 84.019 42.406 81.443 46.964-1.387 2.378-77.084-44.982-79.263-41.217-2.577 4.359 92.54 47.162 89.766 51.917-1.586 2.973-90.559-57.268-93.135-52.71-1.784 2.972 83.227 43.991 81.443 46.964-1.387 2.378-77.282-45.973-80.056-41.019-2.18 3.765 81.84 42.802 79.858 46.171-1.982 3.567-79.462-47.955-81.245-44.982-2.378 3.963 93.927 44.982 89.964 51.917-3.963 6.738-95.711-57.664-97.692-54.493-3.765 6.539 100.664 50.728 97.494 56.277-3.567 6.341-101.061-63.213-104.628-57.07s100.268 50.531 97.098 56.079c-2.973 5.152-94.126-60.835-97.494-55.088-2.973 5.152 103.042 55.088 101.259 58.457-3.369 5.746-93.928-59.844-97.494-53.899-3.964 6.935 94.72 45.774 90.756 52.512-3.765 6.539-95.116-57.07-97.494-53.107-2.378 4.161 106.61 56.475 104.43 60.24-3.765 6.54-92.54-57.268-94.522-53.899-3.567 6.341 94.126 44.982 90.162 52.116-1.585 2.972-90.558-52.71-92.342-49.342-2.377 4.162 89.965 46.568 87.785 50.729-2.18 3.765-74.31-43.991-76.291-40.622-2.378 4.161 81.047 42.802 79.263 45.774-2.774 4.954-70.346-40.821-72.922-36.263s74.904 39.037 72.922 42.208c-1.189 1.982-54.097-30.318-56.277-26.752-1.783 3.171 51.918 24.77 49.54 28.734-1.586 2.576-52.512-30.319-54.098-27.545-1.387 2.378 54.89 27.941 53.305 30.715s-46.567-30.318-48.351-27.346c-1.981 3.567 45.379 21.798 43.397 25.166-.991 1.586-49.143-30.516-50.729-27.94-1.585 2.774 59.844 30.913 58.259 33.687s-52.116-33.687-53.899-30.715c-2.378 3.964 57.268 29.922 55.881 32.3-1.982 3.369-50.729-30.318-52.314-27.544-1.585 2.576 47.36 23.185 45.576 26.355-1.189 1.982-39.83-26.157-41.415-23.382-1.981 3.566 42.406 19.221 40.226 23.184-1.189 2.18-43.793-23.383-44.585-21.995-1.784 3.17 42.406 21.797 41.217 23.779-.595.99-33.093-17.438-33.885-16.051-1.982 3.368 30.912 13.475 28.931 16.843-.793 1.387-37.452-23.184-39.038-20.41 0 .198 3.765 2.18 3.765 2.18"/><path stroke="#666" d="M259.307 192.451c-.991-42.406-38.839-74.112-79.858-68.959-45.577-1.586-78.273 30.318-84.614 73.517-10.7-1.784-17.636-10.107-19.023-5.945-41.416-.595-70.545 31.111-67.573 69.157-5.152 34.678 26.752 66.185 65.393 63.015-1.585-1.189 6.737 4.161 6.935-.595 3.766 1.189 11.494 1.189 16.646-1.585 3.369 3.171 136.333 3.963 132.766 2.576 8.521.594 22.194 3.963 24.374 3.369 37.254.792 70.743-27.743 63.807-65.789 5.35-37.452-21.797-62.222-58.853-68.761ZM281.5 1.228c.595-.199-19.815.99-19.815 1.188 0-.594-.199 52.116.198 51.522-.198 1.387 20.014.396 20.014 1.189.198.594 0-54.098-.397-53.9ZM380.382 151.234c0-.198-.396 17.24.198 17.24 0 .396 41.019-.199 40.226 0 .595.198.397-17.636.199-17.438.198-.595-40.623-.397-40.623.198ZM348.082 235.65c-1.387-.199 36.461 37.65 36.065 36.065.594.99 13.475-10.701 12.682-11.89.793.396-37.452-36.065-36.858-36.065-.594-1.585-12.484 11.097-11.889 11.89ZM216.504 79.896c.595.397-37.055-36.46-36.659-35.866.396-1.19-12.88 11.493-11.89 12.087-.396-1.387 37.254 37.849 36.264 37.254.594-.594 13.078-12.88 12.285-13.475ZM397.225 55.523c-.396-.594-12.484-12.88-13.276-12.088.594-.396-37.056 37.056-36.263 36.065-.198.595 11.889 13.277 12.087 13.079.199 0 37.849-36.66 37.452-37.056Z"/><path stroke="#666" d="M282.491 94.759c-20.014-1.586-39.235 9.511-50.728 25.166 22.59 11.493 38.442 37.452 43.991 59.051 17.24 5.549 31.507 18.825 43.793 33.687 16.843-12.088 27.742-30.318 26.355-52.314.397-34.678-27.346-64.6-63.411-65.59Z"/><path stroke="#4D4D4D" stroke-width=".75" d="M257.722 194.631c2.576-40.227-31.904-72.13-80.453-75.895-37.65 5.152-73.319 34.281-86.992 77.678-8.322-3.17-3.567-5.35-17.834-4.558-32.696.595-59.844 28.932-71.14 66.582 7.333 36.461 37.85 64.005 70.15 69.157 8.916-4.954 3.764-4.755 5.548-2.774 7.331-1.783 12.88-2.576 22.59 2.973-5.945-3.964 134.153-3.369 133.559-2.378-2.973-2.775 22.194-2.18 21.995.792 31.508-2.576 58.457-29.129 64.798-66.581-3.368-34.282-28.733-60.835-62.221-64.996ZM282.095 1.822c0 .198-20.807.595-20.609 0 .595-.198.397 52.512 0 53.503 0-.396 20.411-.99 20.609 0-.198-1.387-.396-53.107 0-53.503ZM380.184 150.441c-.198.396.99 18.032-.397 17.834 1.387-.198 40.821 0 41.416.198-1.189 0 .198-17.438 0-17.834-.595.396-39.83.396-41.019-.198ZM346.893 235.848c1.585-.198 36.659 36.263 38.641 37.254-1.783-.198 11.295-12.881 11.691-12.286 0-.396-36.263-37.848-36.461-38.443-.792 1.189-13.078 13.277-13.871 13.475ZM217.099 80.689c.595 0-37.452-36.858-37.848-37.848 1.585.99-11.097 12.682-12.088 12.484.396.198 36.857 37.452 38.443 38.244-1.189-.792 11.889-13.078 11.493-12.88ZM396.631 56.117c-.793-.198-12.088-12.682-10.899-13.276-1.585.594-38.641 37.65-38.641 37.848.595 0 12.682 11.89 12.088 12.088.198-.198 36.857-36.66 37.452-36.66Z"/><path stroke="#4D4D4D" stroke-width=".75" d="M283.086 93.966c-22.194 2.576-37.254 11.691-49.738 25.166 18.825 13.673 37.452 36.659 42.406 62.618 18.627 2.774 34.083 14.466 44.189 29.922 14.07-12.682 23.383-31.309 25.167-52.116-.595-35.074-26.157-63.807-62.024-65.59Z"/></svg>