<svg width="182" height="182" viewBox="0 0 182 182" fill="none" xmlns="http://www.w3.org/2000/svg">
<g filter="url(#filter0_d_3_276)">
<path d="M112.802 7.79993C112.802 7.89993 115.702 9.29993 115.602 9.39993C115.502 9.49993 110.902 9.19993 110.702 9.39993C110.502 9.79993 113.202 10.2999 113.002 10.6999C112.902 10.8999 108.102 9.49992 108.002 9.69992C107.802 10.0999 115.602 13.3999 115.302 13.8999C115.102 14.2999 108.902 12.3999 108.802 12.5999C108.402 13.2999 113.102 14.1999 112.702 14.7999C112.602 14.9999 108.702 12.9999 108.602 13.0999C108.402 13.4999 115.802 16.5999 115.502 17.0999C115.202 17.4999 107.202 12.8999 107.002 13.1999C106.802 13.5999 110.602 14.7999 110.402 15.0999C110.402 15.0999 109.502 14.7999 109.502 14.8999C109.302 15.2999 112.602 15.8999 112.202 16.4999C112.002 16.7999 104.402 12.9999 104.202 13.3999C104.002 13.6999 108.102 14.9999 107.802 15.4999C107.802 15.5999 108.402 16.8999 108.302 16.9999C108.102 17.2999 109.102 16.7999 108.802 17.2999C108.702 17.3999 106.802 17.7999 106.702 17.8999C106.402 18.3999 108.502 18.4999 108.302 18.7999C108.202 18.8999 105.102 17.8999 105.002 18.0999C104.602 18.6999 109.302 20.0999 109.102 20.4999C108.902 20.7999 103.602 17.7999 103.402 18.0999C103.202 18.4999 107.502 19.9999 107.302 20.3999C107.202 20.5999 102.002 17.8999 101.802 18.1999C101.502 18.7999 104.502 19.0999 104.202 19.5999C104.202 19.6999 102.002 18.6999 102.002 18.7999C101.702 19.2999 105.502 20.2999 105.302 20.6999C105.202 20.7999 101.602 20.1999 101.502 20.3999C101.302 20.7999 102.602 20.4999 102.402 20.8999C102.302 21.0999 99.0021 19.4999 98.9021 19.5999C98.7021 19.9999 106.702 23.4999 106.502 23.9999C106.302 24.2999 101.002 21.8999 100.902 22.0999C100.702 22.4999 101.502 21.5999 101.102 22.1999C101.102 22.2999 99.9021 23.5999 99.9021 23.6999C99.6021 24.1999 103.102 24.7999 102.702 25.2999C102.502 25.5999 95.5021 21.1999 95.4021 21.4999C95.1021 21.9999 104.602 25.9999 104.202 26.5999C104.102 26.7999 100.702 24.6999 100.602 24.7999C100.402 25.1999 102.602 25.3999 102.402 25.7999" stroke="#999999" stroke-width="0.4" stroke-linecap="round" stroke-linejoin="round"/>
<path d="M93.802 4.09991C93.702 4.19991 93.902 3.99991 93.802 4.09991ZM93.802 4.09991C93.802 4.19991 92.5021 5.39991 92.4021 5.49991M92.4021 5.49991C92.2021 5.89991 92.5021 5.29991 92.4021 5.49991ZM92.4021 5.49991C92.4021 5.59991 91.602 6.59992 91.602 6.69992C91.302 7.09992 92.902 6.89992 92.602 7.29992C92.402 7.69992 85.6021 4.69991 85.4021 5.09991C85.1021 5.59991 90.302 7.29992 90.102 7.79992L89.0021 8.69992C88.8021 9.09992 93.8021 10.5999 93.4021 11.1999C93.2021 11.4999 86.9021 9.49992 86.7021 9.69992C86.5021 10.0999 91.002 11.1999 90.602 11.8999C90.502 11.9999 89.6021 13.8999 89.5021 13.9999C89.3021 14.2999 95.6021 16.9999 95.4021 17.3999C95.1021 17.8999 85.202 11.4999 84.802 12.0999C84.502 12.6999 90.7021 14.7999 90.4021 15.2999L90.602 15.8999C90.402 16.2999 94.7021 17.7999 94.5021 18.0999C94.4021 18.2999 90.4021 15.6999 90.2021 15.9999C89.9021 16.4999 90.602 15.5999 90.302 16.0999C90.102 16.3999 85.1021 14.0999 85.0021 14.2999C84.7021 14.7999 94.6021 19.3999 94.4021 19.6999C94.0021 20.2999 84.8021 14.5999 84.5021 14.9999C84.1021 15.6999 91.102 17.9999 90.802 18.5999C90.702 18.7999 86.202 18.2999 86.102 18.5999C85.502 19.6999 103.102 26.6999 102.302 27.9999C101.702 28.9999 87.4021 19.8999 87.0021 20.5999C86.5021 21.4999 98.5021 26.0999 98.0021 26.9999C97.8021 27.2999 89.5021 23.4999 89.2021 23.7999C88.6021 24.8999 98.1021 28.0999 97.7021 28.6999C97.4021 29.2999 85.5021 21.0999 85.2021 21.5999C84.6021 22.5999 99.902 29.3999 99.602 29.8999" stroke="#999999" stroke-width="0.4" stroke-linecap="round" stroke-linejoin="round"/>
<path d="M54.0021 15.3999C53.9021 15.4999 57.0021 17.0999 57.0021 17.0999C56.8021 17.3999 51.9021 15.4999 51.8021 15.6999C51.7021 15.8999 56.1021 17.7999 55.9021 18.0999C55.8021 18.1999 52.9021 17.5999 52.8021 17.6999C52.5021 18.1999 53.9021 17.9999 53.7021 18.1999C53.6021 18.3999 49.8021 16.9999 49.7021 17.1999C49.5021 17.5999 52.7021 18.1999 52.4021 18.7999C52.4021 18.8999 52.9021 21.3999 52.9021 21.4999C52.7021 21.7999 53.8021 21.5999 53.7021 21.8999C53.6021 22.0999 49.702 20.2999 49.602 20.3999C49.402 20.7999 53.002 21.4999 52.602 22.0999C52.602 22.1999 52.3021 24.0999 52.3021 24.1999C51.9021 24.8999 53.9021 24.2999 53.5021 24.8999C53.3021 25.2999 47.4021 21.1999 47.2021 21.3999C47.0021 21.7999 53.7021 24.4999 53.5021 24.9999C53.4021 25.0999 50.6021 25.9999 50.5021 26.0999C50.3021 26.4999 55.902 28.5999 55.602 28.9999C55.502 29.0999 53.5021 29.5999 53.5021 29.6999C53.2021 30.1999 57.8021 31.4999 57.5021 31.9999C57.3021 32.2999 50.8021 29.2999 50.7021 29.4999C50.5021 29.7999 57.9021 32.6999 57.5021 33.3999C57.3021 33.6999 49.6021 29.5999 49.5021 29.8999C49.2021 30.3999 54.7021 32.3999 54.5021 32.7999C54.4021 32.9999 48.202 30.4999 48.102 30.6999C47.802 31.2999 54.902 33.9999 54.602 34.4999C54.402 34.7999 49.5021 33.6999 49.4021 33.8999C49.1021 34.2999 53.6021 35.4999 53.2021 36.0999C53.2021 36.1999 53.3021 37.9999 53.3021 37.9999C53.0021 38.4999 57.2021 39.7999 57.0021 40.0999C56.8021 40.4999 47.902 35.1999 47.602 35.5999C47.402 35.9999 56.7021 40.0999 56.3021 40.5999C56.2021 40.6999 51.702 39.2999 51.602 39.4999C51.402 39.8999 57.502 41.9999 57.102 42.6999C56.902 42.9999 52.1021 39.7999 52.0021 39.9999C51.7021 40.5999 55.7021 41.4999 55.4021 41.9999C55.3021 42.1999 50.4021 38.8999 50.3021 39.0999C50.1021 39.4999 53.6021 40.4999 53.4021 40.8999" stroke="#999999" stroke-width="0.4" stroke-linecap="round" stroke-linejoin="round"/>
<path d="M26.7021 94.8999C26.4021 95.3999 35.0021 99.1999 34.8021 99.5999C34.7021 99.7999 26.9021 95.5999 26.8021 95.8999C26.6021 96.2999 32.8021 98.4999 32.4021 99.0999C32.2021 99.3999 23.9021 94.9999 23.7021 95.2999C23.4021 95.8999 33.6021 100.3 33.3021 100.8C33.1021 101.1 24.2021 95.7999 24.0021 96.1999C23.6021 96.7999 32.902 100.8 32.602 101.2C32.502 101.3 28.4021 98.9999 28.3021 99.0999C27.9021 99.7999 31.7021 100.6 31.5021 101C31.3021 101.4 22.9021 97.8999 22.7021 98.1999C22.5021 98.4999 31.0021 102.3 30.7021 102.8C30.5021 103.1 24.7021 100.8 24.5021 101.1C24.2021 101.6 26.902 101.6 26.602 102.3C26.402 102.6 21.5021 101.4 21.3021 101.6C21.0021 102.1 25.5021 103.5 25.2021 103.9C24.9021 104.4 17.2021 101 16.9021 101.3C16.7021 101.7 24.3021 104.8 24.0021 105.4C23.9021 105.6 16.6021 101.1 16.4021 101.5C16.1021 102 23.5021 104.9 23.2021 105.4C23.1021 105.5 21.602 105.9 21.602 106C21.302 106.5 25.0021 107.3 24.7021 107.8C24.5021 108.1 19.1021 105.3 18.9021 105.7C18.7021 106 21.8021 106.7 21.5021 107.2C21.3021 107.5 14.5021 103.2 14.3021 103.5C14.0021 104 24.8021 108.8 24.5021 109.4C24.3021 109.8 16.1021 104.3 15.8021 104.8C15.6021 105.1 18.5021 105.6 18.2021 106.2C18.1021 106.4 13.6021 105.2 13.5021 105.4C13.1021 106 17.2021 106.7 16.8021 107.3C16.7021 107.4 17.9021 110.3 17.9021 110.4C17.6021 110.9 18.9021 110.5 18.7021 110.9C18.6021 111 14.702 108.8 14.602 108.9C14.302 109.4 18.6021 110.7 18.3021 111.1C18.2021 111.2 15.5021 111.5 15.4021 111.6C15.2021 112 16.5021 111.8 16.3021 112.1C16.2021 112.3 12.2021 111.9 12.0021 112.1C11.8021 112.4 13.202 112.5 13.102 112.7C13.102 112.7 12.102 113.1 12.102 113.2C12.002 113.3 15.5021 115 15.4021 115.1" stroke="#999999" stroke-width="0.4" stroke-linecap="round" stroke-linejoin="round"/>
<path d="M17.3021 61.9C17.2021 62 20.2021 63.4 20.1021 63.5C20.0021 63.7 16.3021 61.4 16.2021 61.6C16.1021 61.8 21.2021 64.3 21.1021 64.4L19.7021 64.6C19.4021 65.2 22.0021 65.4 21.8021 65.8C21.6021 66.1 16.8021 62.7 16.6021 63C16.3021 63.4 23.5021 66.4 23.2021 66.8C22.8021 67.4 13.6021 62 13.4021 62.4C12.9021 63.3 24.0021 67.7 23.6021 68.3C23.4021 68.7 14.4021 63.3 14.2021 63.7C13.9021 64.3 28.4021 71 28.0021 71.7C27.6021 72.4 16.7021 65.8 16.4021 66.4C15.9021 67.3 31.7021 74 31.2021 74.9C30.9021 75.4 17.1021 67.3 16.6021 68.2C16.1021 69.1 32.8021 76.4 32.3021 77.2C31.7021 78.3 11.8021 65.5 11.2021 66.6C9.90211 68.8 58.5021 91.8 57.5021 93.4C56.5021 95.2 12.8021 65.8 11.2021 68.6C10.0021 70.8 50.3021 87.9 48.9021 90.4C47.9021 92.2 15.8021 70.6 14.8021 72.4C14.0021 73.8 51.9021 91.6 51.0021 93.3C50.0021 95 23.0021 76.4 22.1021 78C21.0021 79.9 47.5021 91 46.8021 92.2C46.1021 93.4 27.5021 82 26.9021 82.9C26.2021 84.2 43.3021 91.2 42.8021 92.1C42.4021 92.8 26.2021 82.7 25.7021 83.6C25.0021 84.8 43.3021 93 43.0021 93.6C42.4021 94.7 23.4021 83 22.8021 83.9C22.3021 84.7 36.4021 90.2 35.7021 91.4C35.5021 91.8 25.1021 85.7 24.8021 86.3C24.4021 86.9 36.4021 91.6 35.8021 92.7C35.4021 93.3 20.3021 84.8 19.9021 85.5C19.5021 86.2 34.7021 92.2 33.9021 93.6C33.5021 94.3 18.6021 85.2 18.2021 85.7C17.6021 86.8 33.8021 93.7 33.4021 94.5C33.1021 95.1 19.0021 85.4 18.6021 86.2C17.8021 87.6 34.7021 94.1 34.1021 95.2C33.4021 96.5 14.2021 84.3 13.7021 85.1C13.0021 86.4 30.3021 93.6 29.8021 94.4C29.2021 95.5 12.2021 85.4 11.8021 86.1C11.3021 87.1 34.6021 98 34.0021 98.9C33.5021 99.8 10.4021 85.1 9.60207 86.5C9.00207 87.5 22.1021 92.9 21.7021 93.5C21.4021 93.9 9.20208 87.9 8.80208 88.6C8.30208 89.4 12.5021 90.2 12.3021 90.6C12.1021 90.9 6.40211 86.8 6.20211 87.1C5.80211 87.9 14.5021 91.1 14.1021 91.7C14.0021 91.8 10.9021 89.8 10.7021 90C10.4021 90.5 16.1021 92.5 15.8021 93C15.5021 93.5 8.00211 88.3 7.70211 88.9C7.50211 89.2 15.9021 93.1 15.6021 93.5C15.4021 93.9 6.60208 89 6.30208 89.5C6.10208 89.9 12.4021 92.2 12.0021 92.8C11.8021 93.1 6.40211 91.7 6.20211 92C6.10211 92.2 10.3021 94.1 10.2021 94.3C10.1021 94.5 7.00212 92.4 6.90212 92.6C6.80212 92.7 7.70207 92.9 7.60207 93" stroke="#999999" stroke-width="0.4" stroke-linecap="round" stroke-linejoin="round"/>
<path d="M50.5021 139.4C50.1021 140.1 53.902 140.6 53.602 141.2C53.502 141.4 49.8021 141.5 49.7021 141.6C49.3021 142.3 60.2021 146.8 59.8021 147.4C59.5021 147.9 51.4021 142.8 51.2021 143.2C51.0021 143.6 56.7021 145.9 56.5021 146.2C56.3021 146.5 51.3021 145.5 51.2021 145.7C51.0021 146.1 58.9021 149.7 58.7021 150C58.4021 150.5 49.9021 146.6 49.7021 147C49.3021 147.7 54.2021 148.8 53.8021 149.4C53.7021 149.5 50.202 149.4 50.102 149.5C49.902 149.9 58.2021 153.6 58.0021 154C57.9021 154.1 53.5021 152 53.4021 152.2C53.2021 152.5 54.3021 151.9 53.9021 152.5C53.9021 152.5 54.0021 153.5 54.0021 153.6C53.7021 154.2 56.1021 153.8 55.7021 154.6C55.6021 154.9 50.0021 151.9 49.8021 152.2C49.5021 152.7 55.6021 154.9 55.3021 155.4C55.2021 155.6 49.9021 152.6 49.8021 152.7C49.5021 153.2 58.7021 157 58.3021 157.6C58.2021 157.7 54.202 156.9 54.102 157C53.802 157.5 58.302 159 58.102 159.3C58.002 159.5 50.802 156.2 50.602 156.5C50.402 156.8 55.902 159 55.602 159.4C55.502 159.5 52.1021 158.2 52.0021 158.4C51.8021 158.7 53.2021 158.7 53.0021 159C53.0021 159 51.4021 159.7 51.3021 159.8C51.2021 159.9 52.2021 160.2 52.2021 160.3" stroke="#999999" stroke-width="0.4" stroke-linecap="round" stroke-linejoin="round"/>
<path d="M46.102 133.8C45.802 134.4 57.6021 139.1 57.0021 140.1C56.7021 140.5 43.702 133.5 43.302 134.2C42.902 134.9 54.4021 139.6 54.0021 140.4C53.5021 141.3 40.1021 131.9 39.7021 132.7C39.2021 133.5 55.502 140.2 54.802 141.4C54.402 142 41.702 134.9 41.302 135.6C41.002 136.2 46.7021 138.1 46.4021 138.6C46.2021 139 40.002 134.7 39.802 135C39.502 135.6 46.2021 138 45.9021 138.5C45.8021 138.8 38.8021 134.7 38.7021 135.1C38.5021 135.4 44.9021 138.3 44.7021 138.6C44.6021 138.7 41.902 137.2 41.802 137.3C41.502 137.9 43.4021 137.8 43.2021 138.1C43.2021 138.2 41.9021 137.6 41.9021 137.7C41.7021 138 43.702 137.9 43.302 138.5C43.202 138.7 38.402 135.6 38.302 135.9C38.002 136.4 45.602 139.3 45.302 139.9C45.102 140.3 37.302 136.8 37.102 137.2C36.802 137.7 42.8021 139.6 42.4021 140.3C42.2021 140.7 36.002 138.3 35.802 138.5C35.602 138.9 44.8021 142.9 44.4021 143.5C44.2021 143.8 37.3021 140.7 37.2021 140.9C36.9021 141.5 42.9021 143.7 42.7021 144.1C42.5021 144.4 35.9021 142.5 35.7021 142.8C35.4021 143.3 40.602 144.8 40.302 145.4C40.002 145.9 32.102 140.3 31.802 140.8C31.502 141.3 40.1021 145 39.9021 145.5C39.7021 145.8 34.6021 144.1 34.5021 144.4C34.3021 144.8 40.302 147.1 40.102 147.6C40.002 147.8 34.7021 145.4 34.5021 145.8C34.1021 146.4 35.2021 145.5 34.9021 146C34.8021 146.1 34.0021 147.8 34.0021 147.9C33.7021 148.4 37.8021 149.5 37.5021 149.9C37.3021 150.3 30.8021 147.9 30.7021 148.1C30.6021 148.2 34.302 150 34.302 150.2C34.302 150.3 32.5021 149.1 32.4021 149.2C32.3021 149.3 33.3021 149.5 33.2021 149.7" stroke="#999999" stroke-width="0.4" stroke-linecap="round" stroke-linejoin="round"/>
<path d="M87.7021 154.9C87.5021 155.3 91.6021 156.3 91.2021 156.9C91.2021 157 92.102 158.7 92.102 158.8C91.802 159.3 92.6021 158.3 92.2021 158.9C92.2021 159 90.7021 158.3 90.7021 158.4C90.4021 158.9 97.402 161.5 97.102 162.1C97.002 162.4 90.1021 158.8 89.9021 159.3C89.6021 159.8 95.4021 161.6 95.0021 162.3C94.8021 162.6 89.0021 159.5 88.8021 159.8C88.5021 160.4 93.002 161.3 92.602 162C92.502 162.2 87.202 160.7 87.102 161C86.902 161.4 94.002 164.1 93.602 164.8C93.502 165 90.602 165.9 90.602 165.9C90.302 166.4 95.1021 167.8 94.8021 168.3C94.7021 168.5 90.6021 168.3 90.5021 168.4C90.2021 168.9 92.6021 168.9 92.3021 169.4C92.2021 169.6 89.4021 170.1 89.3021 170.3C89.1021 170.7 90.702 170.8 90.602 171C90.602 171.1 89.5021 170.9 89.4021 170.9C89.2021 171.2 89.9021 170.9 89.8021 171.1C89.7021 171.2 87.7021 171 87.7021 171.2C87.6021 171.3 90.8021 172.8 90.7021 172.9" stroke="#999999" stroke-width="0.4" stroke-linecap="round" stroke-linejoin="round"/>
<path d="M101.902 156.9C101.402 157.7 115.602 163 114.802 164.3C114.302 165.1 101.302 156.2 100.802 157C100.202 158.1 113.002 163.2 112.602 163.8C112.302 164.4 102.002 157.3 101.702 157.7C101.202 158.6 115.202 164.6 114.802 165.2C114.502 165.8 105.902 160.4 105.702 160.7C105.402 161.2 113.602 164.5 113.202 165.1C113.102 165.3 109.802 164.9 109.702 165.1C109.502 165.5 113.402 166.9 113.302 167.2C113.202 167.4 107.602 164.2 107.402 164.5C107.302 164.6 113.002 167.4 112.802 167.6C112.702 167.7 108.502 165.3 108.402 165.5C108.302 165.6 111.802 167.3 111.702 167.4" stroke="#999999" stroke-width="0.4" stroke-linecap="round" stroke-linejoin="round"/>
<path d="M87.1021 101.5C86.8021 102 91.3021 103.4 91.1021 103.8C91.1021 103.8 90.1021 103.3 90.0021 103.3C89.8021 103.7 93.7021 104.7 93.4021 105.3C93.2021 105.6 85.9021 103.5 85.8021 103.8C85.4021 104.4 93.7021 107.4 93.3021 108.1C93.2021 108.2 90.8021 106.7 90.7021 106.8C90.3021 107.4 93.8021 107.8 93.5021 108.4C93.4021 108.6 90.2021 109.1 90.1021 109.3C89.8021 109.8 93.9021 110.9 93.7021 111.4C93.4021 111.8 86.6021 108.9 86.4021 109.3C86.2021 109.6 91.9021 111.8 91.6021 112.3C91.6021 112.4 90.2021 113.3 90.1021 113.4C89.9021 113.7 92.2021 114 92.0021 114.5C92.0021 114.6 89.5021 114.1 89.4021 114.3C89.0021 114.9 94.5021 116.6 94.2021 117.1C94.1021 117.4 88.7021 114.8 88.5021 115.2C88.1021 115.9 97.0021 119.2 96.6021 119.9C96.5021 120.1 89.0021 115.8 88.8021 116.1C88.5021 116.6 94.1021 118.5 93.9021 119C93.8021 119.2 89.5021 118.6 89.4021 118.8C89.2021 119.1 91.8021 119.7 91.5021 120C91.5021 120.1 89.6021 120.8 89.6021 120.9C89.3021 121.4 92.9021 122 92.5021 122.6C92.4021 122.8 87.8021 121.9 87.7021 122C87.4021 122.5 94.7021 125.6 94.5021 125.9C94.4021 126 91.8021 124.3 91.7021 124.4C91.3021 125.1 93.9021 124.7 93.4021 125.4C93.3021 125.6 87.2021 123.5 87.0021 123.8C86.6021 124.5 96.6021 128.8 96.3021 129.2C96.0021 129.7 89.0021 124.8 88.8021 125.2C88.5021 125.6 91.1021 126 90.9021 126.4L90.4021 127.6C90.1021 128.1 97.0021 130.9 96.8021 131.3C96.6021 131.6 90.9021 129.5 90.7021 129.9C90.5021 130.3 92.2021 130.3 92.0021 130.6C91.9021 130.8 87.9021 128.8 87.8021 129C87.5021 129.5 93.8021 131.5 93.4021 132.2C93.3021 132.4 89.8021 131.6 89.7021 131.8C89.3021 132.5 91.8021 132.5 91.6021 132.9C91.5021 133.1 86.2021 132.2 86.1021 132.5C85.7021 133.2 94.2021 136.6 94.0021 137.1C93.9021 137.3 88.2021 135 88.0021 135.3C87.7021 135.8 95.3021 138.3 94.8021 139.2C94.7021 139.3 91.8021 138.2 91.7021 138.4C91.4021 138.9 98.4021 140.9 97.8021 141.9C97.5021 142.5 87.7021 136.8 87.5021 137.2C87.0021 138.1 102.002 143.8 101.202 145.1C101.002 145.5 92.3021 140.5 91.9021 141.1C91.0021 142.7 107.502 148.3 106.702 149.6C106.102 150.7 88.9021 140.5 88.5021 141.1C87.8021 142.2 109.702 150.9 108.602 152.7C108.002 153.8 89.5021 141.1 89.0021 142C88.1021 143.6 115.702 155.4 114.802 156.9C114.102 158.1 89.3021 143.6 88.7021 144.6C88.1021 145.7 113.502 156.8 112.602 158.4C111.502 160.2 83.2021 142.2 82.7021 143.1C81.6021 145 114.802 159.6 113.902 161.1C113.102 162.4 83.2021 140.9 82.1021 142.8C81.1021 144.5 113.802 158.5 112.702 160.5C111.802 162 82.7021 140.9 81.6021 142.8C80.2021 145.2 119.502 161.9 118.302 164C117.302 165.8 82.4021 142.9 81.2021 144.8C80.8021 145.5 91.2021 149.3 90.6021 150.2C90.5021 150.4 84.5021 147.4 84.3021 147.6C83.7021 148.6 95.5021 152.6 94.9021 153.7C94.5021 154.4 81.2021 147 81.0021 147.5C80.4021 148.6 93.1021 153.7 92.7021 154.3C92.2021 155.1 78.4021 147.1 78.0021 147.8C77.6021 148.5 92.7021 154.7 92.0021 155.9C91.7021 156.5 78.4021 149.5 77.9021 150.4C77.6021 150.8 82.3021 152.3 82.1021 152.8C81.9021 153.1 75.8021 149.6 75.7021 149.9C75.5021 150.3 81.5021 152.6 81.2021 153.1C81.1021 153.2 77.7021 153.2 77.6021 153.4C77.3021 153.9 80.6021 154.4 80.3021 155C80.2021 155.2 74.4021 153.4 74.2021 153.8C73.8021 154.5 82.3021 157.8 82.0021 158.3C81.8021 158.6 75.5021 155.2 75.2021 155.6C75.0021 156 79.7021 157.6 79.5021 158.1C79.3021 158.4 74.3021 156 74.1021 156.3C73.8021 156.8 75.1021 156.1 74.8021 156.7C74.8021 156.8 72.8021 156 72.8021 156.1C72.5021 156.6 80.7021 160 80.4021 160.5C80.1021 161.1 71.0021 155.5 70.7021 156C70.4021 156.5 75.7021 158.4 75.5021 158.8C75.4021 159 68.2021 156.4 68.0021 156.8C67.7021 157.2 77.8021 161.9 77.6021 162.3C77.3021 162.9 66.9021 158 66.7021 158.3C66.4021 158.8 72.9021 161.2 72.6021 161.7C72.6021 161.8 71.7021 162.5 71.7021 162.6C71.4021 163.1 76.0021 164.3 75.7021 164.9C75.4021 165.4 66.5021 160.6 66.3021 160.9C66.0021 161.4 74.2021 164.6 73.8021 165.3C73.7021 165.5 68.1021 162.2 67.9021 162.6C67.6021 163.2 70.0021 163.3 69.8021 163.7C69.8021 163.7 70.2021 164.3 70.2021 164.4C69.9021 164.9 70.5021 164.1 70.3021 164.5C70.2021 164.6 68.0021 163.6 68.0021 163.7C67.7021 164.2 71.1021 164.8 70.8021 165.3C70.7021 165.5 68.1021 165 68.0021 165.1C67.9021 165.3 69.7021 165.7 69.5021 166C69.4021 166.1 65.2021 163.7 65.1021 163.9C64.9021 164.3 72.2021 167.5 72.0021 167.9C71.9021 168.2 66.6021 166 66.4021 166.3C66.3021 166.4 69.3021 167.9 69.2021 167.9" stroke="#999999" stroke-width="0.4" stroke-linecap="round" stroke-linejoin="round"/>
<path d="M82.7021 95.9999C82.1021 96.9999 94.9021 102.1 94.5021 102.8C94.0021 103.6 77.0021 94.3999 76.7021 94.9999C76.2021 95.8999 95.0021 103.8 94.2021 105.1C93.8021 105.7 79.7021 98.4 79.2021 99.2C78.8021 99.8 79.8021 98.8 79.5021 99.4C79.4021 99.5 78.9021 101.5 78.8021 101.6C78.6021 102 79.4021 101.5 79.2021 101.9C79.1021 102.1 75.5021 100.3 75.4021 100.6C75.2021 101 79.6021 102.4 79.3021 102.9C79.1021 103.3 72.802 99.3 72.602 99.6C72.402 99.9 76.2021 101.1 75.9021 101.5C75.9021 101.6 75.5021 102.7 75.4021 102.7C75.1021 103.3 78.402 103.7 78.102 104.2C78.002 104.4 74.1021 102.3 74.0021 102.4C73.8021 102.8 78.6021 104.5 78.4021 104.9C78.3021 105.1 73.6021 102.5 73.5021 102.8C73.1021 103.5 76.2021 103.8 76.0021 104.2C75.9021 104.3 72.6021 104.2 72.5021 104.4C72.2021 104.9 74.0021 104.6 73.7021 105.1C73.6021 105.4 67.3021 103.7 67.2021 103.9C66.9021 104.4 72.6021 106.2 72.2021 106.8C72.2021 106.9 72.0021 108.7 71.9021 108.8C71.7021 109.1 72.6021 108.7 72.4021 109.1C72.3021 109.3 66.6021 106.4 66.4021 106.7C66.2021 107.1 70.5021 108.5 70.2021 108.9C70.2021 109 70.2021 109.9 70.2021 109.9C69.9021 110.4 70.7021 109.7 70.5021 110C70.4021 110.2 66.0021 109.2 65.9021 109.4C65.7021 109.8 68.4021 110.5 68.3021 110.8C68.2021 111 64.9021 110.5 64.8021 110.7C64.5021 111.3 72.7021 114.5 72.4021 115.1C72.3021 115.3 67.0021 111.9 66.8021 112.2C66.5021 112.8 67.7021 112.1 67.4021 112.5C67.4021 112.6 64.6021 111.8 64.5021 111.9C64.3021 112.2 68.8021 113.5 68.4021 114.2C68.2021 114.5 60.7021 110.7 60.5021 111.1C60.2021 111.7 68.302 115.2 68.102 115.5C67.902 115.8 59.6021 111.9 59.5021 112.2C59.3021 112.6 68.5021 116.7 68.2021 117.2C68.1021 117.3 64.0021 115.1 63.9021 115.3C63.5021 115.9 65.7021 115.9 65.5021 116.2C65.3021 116.5 59.5021 112.9 59.4021 113.2C59.2021 113.6 68.8021 117.9 68.5021 118.4C68.3021 118.8 60.6021 114.4 60.3021 114.9C60.1021 115.2 65.7021 117.6 65.5021 117.9C65.4021 118 61.202 117.2 61.102 117.4C60.902 117.7 67.2021 120.2 66.9021 120.8C66.6021 121.3 58.1021 118 57.9021 118.4C57.7021 118.8 62.1021 120.3 61.8021 120.7C61.6021 121 55.2021 119.3 55.0021 119.7C54.7021 120.2 63.302 124 63.102 124.4C62.702 125.1 51.8021 120 51.5021 120.6C51.2021 121.1 56.7021 123 56.5021 123.5C56.3021 123.8 49.7021 120.8 49.5021 121.1C49.1021 121.9 60.002 126.3 59.602 126.9C59.402 127.3 48.502 122.4 48.102 123.1C47.702 123.8 55.3021 126.2 54.8021 127C54.4021 127.6 42.402 120.1 42.102 120.6C41.502 121.6 55.102 126.9 54.602 127.8C54.202 128.5 43.9021 122.8 43.7021 123.2C43.0021 124.5 55.5021 128.9 55.0021 129.7C54.7021 130.2 42.3021 121.4 41.8021 122.3C41.1021 123.6 56.6021 130 56.2021 130.6C55.7021 131.5 36.1021 120.2 35.3021 121.5C34.7021 122.5 58.6021 133.3 57.9021 134.5C57.1021 136 35.502 121.2 34.602 122.8C33.902 124.1 59.4021 135.9 58.9021 136.8C58.2021 138.1 25.9021 119.3 25.3021 120.3C24.6021 121.6 58.9021 136.9 57.7021 139C56.6021 140.9 28.502 121.9 27.602 123.5C26.902 124.7 37.502 128.3 37.102 129C36.702 129.8 23.7021 122.3 23.2021 123.2C22.6021 124.2 36.902 130.4 36.602 130.9C36.102 131.7 20.002 120.9 19.602 121.6C19.002 122.6 34.1021 129.1 33.8021 129.8C33.5021 130.3 20.4021 121.5 19.9021 122.2C19.6021 122.7 33.4021 128.7 32.9021 129.7C32.7021 130.1 20.7021 122.6 20.3021 123.2C19.8021 124.1 30.7021 128.1 30.2021 128.9C30.0021 129.2 21.9021 125.9 21.7021 126.3C21.5021 126.7 26.9021 128.3 26.5021 129C26.3021 129.4 20.4021 125.5 20.2021 125.8C19.9021 126.3 29.7021 130.4 29.3021 131.1C29.1021 131.4 24.302 128.2 24.102 128.4M24.102 128.4C23.902 128.8 24.502 127.9 24.102 128.4ZM24.102 128.4C23.902 128.7 18.5021 125.1 18.3021 125.5C18.1021 125.9 22.0021 127 21.7021 127.5C21.6021 127.7 19.3021 128.9 19.3021 129C19.2021 129.1 23.0021 131 23.0021 131.1C22.9021 131.3 19.8021 129.1 19.7021 129.3C19.7021 129.4 22.8021 131 22.7021 131" stroke="#999999" stroke-width="0.4" stroke-linecap="round" stroke-linejoin="round"/>
<path d="M135.402 138.5C134.802 139.5 146.802 144 146.302 144.8C146.102 145.1 141.402 143.6 141.302 143.8C140.902 144.4 148.702 147.4 148.502 147.9C148.402 148 146.302 148.6 146.202 148.7C146.202 148.8 146.502 148.7 146.402 148.8" stroke="#999999" stroke-width="0.4" stroke-linecap="round" stroke-linejoin="round"/>
<path d="M101.002 103.4C99.1021 106.6 146.802 126.2 145.302 129C144.502 130.5 105.802 105 104.702 106.8C102.902 109.9 146.002 126.8 144.302 129.7C143.502 131.1 105.902 108.1 105.202 109.4C104.402 110.8 141.102 128.6 140.402 129.7C139.902 130.6 110.202 110.9 109.002 113C107.902 114.9 142.402 129 140.902 131.4C140.302 132.5 116.102 118.7 115.602 119.5C114.802 120.9 149.202 135.9 147.902 138.1C146.902 139.9 117.602 118.8 116.602 120.5C115.202 123 153.002 138.3 151.602 140.7C151.002 141.8 123.202 122.2 122.102 124.2C121.302 125.6 148.402 137.1 147.402 138.8C146.702 140 126.302 127 125.502 128.3C124.802 129.5 153.002 141.4 151.802 143.5C151.002 145 128.002 130 127.102 131.6C126.502 132.7 148.302 141.1 147.102 143.1C146.602 144 128.002 133.5 127.602 134.1C127.302 134.6 131.602 135.5 131.202 136.2C131.102 136.3 128.702 137.4 128.602 137.5C128.202 138.1 130.002 137.7 129.702 138.2C129.602 138.4 126.702 138.6 126.602 138.8C126.302 139.2 132.702 141.8 132.402 142.2C132.302 142.4 129.302 141.8 129.202 142C129.002 142.4 130.702 142.4 130.502 142.8C130.402 142.9 127.902 144 127.802 144.2C127.502 144.6 129.002 144.1 128.602 144.7C128.502 144.8 128.002 146.4 128.002 146.5C127.702 147 133.502 148.8 133.202 149.5C132.902 150 124.902 146.1 124.602 146.7C124.302 147.3 133.702 151.1 133.302 151.7C133.102 152 128.002 149 127.902 149.2C127.502 149.8 134.002 152 133.702 152.6C133.502 152.9 128.302 151.1 128.102 151.4C127.702 152.1 128.802 151 128.502 151.6C128.402 151.7 125.802 152.7 125.702 152.8C125.402 153.3 133.802 156.9 133.502 157.3C133.302 157.6 126.302 154.3 126.102 154.7C125.802 155.3 129.902 156.3 129.702 156.8C129.502 157.1 124.102 155.2 123.902 155.5C123.702 155.8 126.902 156.6 126.602 157.1C126.602 157.2 126.402 158 126.402 158.1C126.202 158.4 127.102 158.1 126.902 158.4C126.902 158.5 124.702 158.4 124.702 158.5C124.702 158.6 127.802 160.1 127.702 160.2" stroke="#999999" stroke-width="0.4" stroke-linecap="round" stroke-linejoin="round"/>
<path d="M159.602 119.1C159.602 119.2 162.702 120.7 162.602 120.8C162.502 120.9 159.802 119.6 159.702 119.7C159.602 119.9 163.502 121.7 163.402 121.8C163.302 121.9 159.402 121.4 159.302 121.6C159.102 122 160.902 121.8 160.602 122.4C160.402 122.7 154.702 119.5 154.502 119.7C154.302 120.1 159.002 121.7 158.702 122.1C158.602 122.3 153.802 119.7 153.702 119.8C153.502 120.2 164.302 124.9 163.802 125.6C163.402 126.4 149.402 118.2 149.002 119C148.502 119.9 161.802 125.3 161.302 126.1C161.102 126.5 153.102 121.1 153.002 121.4C152.802 121.8 160.002 124.2 159.502 125.1C159.102 125.8 148.702 119.8 148.402 120.2C147.902 121.1 161.702 126.5 161.102 127.5C160.702 128.2 147.902 121.2 147.702 121.5C147.302 122.2 158.302 126.6 157.902 127.4C157.602 128 147.202 121.4 146.902 121.9C146.402 122.7 155.602 125.3 154.902 126.5C154.602 126.9 143.902 119.4 143.602 120C143.202 120.7 156.202 126.5 155.902 127.1C155.602 127.5 143.602 121.7 143.302 122.3C142.602 123.5 155.902 128.2 155.302 129.2C155.002 129.7 142.702 121.3 142.202 122.1C141.802 122.8 149.602 125.1 149.102 126.1C148.902 126.4 139.902 121.1 139.602 121.6C139.302 122.2 148.202 125.1 147.502 126.2C147.202 126.8 137.902 122.2 137.702 122.7C137.002 123.9 145.002 125.6 144.502 126.6C144.102 127.3 131.902 119.3 131.602 119.7C131.302 120.3 148.202 128.2 147.702 129" stroke="#999999" stroke-width="0.4" stroke-linecap="round" stroke-linejoin="round"/>
<path d="M55.7021 58.9999C54.4021 61.1999 115.502 87.8999 113.102 92.0999C111.302 95.2999 63.702 62.7999 62.102 65.5999C60.602 68.1999 105.702 86.7999 104.002 89.7999C102.502 92.3999 66.5021 67.3999 65.3021 69.3999C64.0021 71.5999 102.402 88.1999 101.302 90.1999C100.302 91.9999 66.8021 67.5999 65.5021 69.7999C64.0021 72.4999 101.702 87.2999 100.302 89.8999C99.7021 90.9999 70.5021 72.6999 69.9021 73.8999C69.3021 74.9999 102.902 91.1999 102.102 92.4999C101.102 94.1999 69.7021 71.5999 68.5021 73.5999C67.1021 76.0999 104.102 91.5999 103.002 93.4999C102.202 94.8999 79.702 81.2999 79.102 82.2999C77.802 84.4999 111.202 98.7999 110.302 100.3C109.702 101.3 79.6021 81.1999 78.7021 82.7999C77.9021 84.2999 114.402 100.6 113.202 102.7C112.402 104.1 81.9021 84.3999 81.3021 85.3999C80.3021 87.0999 117.902 103.4 116.502 105.7C115.202 108 79.3021 83.4999 78.0021 85.7999C76.6021 88.1999 123.002 109.6 122.102 111.2C120.402 114.1 77.9021 83.4999 76.8021 85.1999C75.0021 88.3999 121.202 106.6 119.402 109.8C118.002 112.2 70.0021 81.2999 68.9021 83.2999C67.2021 86.1999 131.102 116.1 129.802 118.4C127.902 121.7 69.702 83.1999 68.602 85.2999C67.902 86.3999 95.6021 97.9999 94.4021 100.2C93.3021 102.1 65.7021 83.3999 64.8021 84.9999C63.5021 87.2999 97.8021 100.9 96.4021 103.3C94.9021 105.9 58.9021 81.3999 57.9021 83.1999C57.4021 83.9999 72.602 90.4999 72.102 91.3999C71.602 92.2999 53.8021 82.2999 53.4021 82.9999C52.9021 83.8999 70.202 91.1999 69.602 92.2999C69.102 93.0999 56.4021 85.1999 56.2021 85.5999C55.6021 86.5999 67.4021 90.8999 66.9021 91.7999C66.7021 92.1999 56.5021 85.0999 56.2021 85.6999C55.6021 86.7999 63.9021 89.0999 63.4021 89.8999C63.2021 90.1999 54.4021 85.1999 54.0021 85.7999C53.6021 86.3999 63.602 90.0999 63.102 90.9999C62.802 91.4999 50.6021 84.7999 50.3021 85.2999C49.8021 86.0999 60.2021 90.0999 59.8021 90.7999C59.4021 91.3999 48.402 84.1999 48.102 84.6999C47.602 85.5999 58.4021 89.4999 57.9021 90.3999C57.6021 90.8999 43.6021 83.0999 43.3021 83.5999C42.8021 84.4999 56.7021 90.1999 56.2021 90.9999C55.7021 91.8999 41.902 83.2999 41.602 83.7999C41.202 84.3999 54.5021 90.0999 54.0021 90.9999" stroke="#999999" stroke-width="0.4" stroke-linecap="round" stroke-linejoin="round"/>
<path d="M35.1021 26.5999C35.1021 26.6999 37.9021 28.0999 37.9021 28.1999C37.9021 28.2999 37.9021 30.2999 37.8021 30.3999C37.4021 31.0999 38.7021 30.3999 38.5021 30.7999C38.2021 31.2999 30.4021 27.1999 30.2021 27.6999C29.6021 28.6999 47.7021 36.9999 47.3021 37.5999C46.9021 38.1999 31.6021 30.3999 31.3021 30.8999C30.5021 32.2999 53.1021 42.0999 52.5021 43.0999C52.1021 43.7999 32.1021 32.5998 31.6021 33.4998C30.4021 35.5998 55.6021 45.5999 54.8021 46.8999C54.1021 48.0999 29.4021 31.9999 28.5021 33.5999C27.1021 35.9999 61.9021 50.6999 61.0021 52.2999C60.5021 53.0999 37.4021 39.2999 36.8021 40.3999C35.7021 42.2999 71.1021 57.4998 70.0021 59.4998C69.2021 60.8998 35.8021 36.5999 34.4021 39.0999C33.1021 41.2999 70.7021 57.4999 69.6021 59.3999C69.0021 60.3999 40.3021 41.5999 39.7021 42.5999C38.7021 44.2999 67.7021 57.1999 67.0021 58.3999C66.1021 59.9999 43.1021 44.4999 42.7021 45.2999C41.7021 46.9999 71.7021 60.0999 70.9021 61.5999C70.0021 63.1999 39.6021 40.7999 38.3021 43.0999C37.3021 44.7999 72.1021 60.0998 71.0021 61.9998C70.0021 63.6998 42.1021 45.2999 40.9021 47.3999C39.2021 50.3999 77.1021 64.8998 75.6021 67.4998C75.0021 68.5998 40.4021 46.2999 39.6021 47.7999C38.7021 49.3999 80.3021 68.5999 79.1021 70.5999C77.7021 72.9999 36.0021 45.2999 34.6021 47.6999C34.0021 48.6999 49.0021 55.0999 48.6021 55.7999C48.2021 56.3999 29.8021 45.8999 29.3021 46.7999C28.6021 47.9999 44.8021 54.6998 44.4021 55.4998C43.9021 56.3998 25.8021 44.6999 25.3021 45.5999C24.6021 46.7999 42.0021 54.0999 41.5021 54.8999C40.9021 55.8999 26.7021 48.1999 26.3021 48.8999C26.0021 49.4999 39.2021 54.7999 38.5021 55.8999C38.1021 56.4999 25.1021 49.2998 24.7021 49.9998C24.2021 50.8998 36.3021 55.8998 36.0021 56.4998C35.6021 57.1998 21.9021 49.7999 21.7021 50.1999C21.3021 50.8999 29.8021 53.7999 29.4021 54.5999C29.0021 55.2999 18.7021 49.6998 18.5021 49.9998C18.1021 50.5998 29.4021 55.4999 29.0021 56.0999C28.7021 56.5999 19.3021 50.9999 19.0021 51.5999C18.7021 52.0999 21.5021 52.5999 21.3021 52.8999C21.2021 53.0999 17.8021 51.1999 17.7021 51.3999C17.5021 51.7999 21.2021 52.9999 21.0021 53.2999C20.9021 53.3999 19.3021 54.4999 19.3021 54.5999C19.3021 54.6999 22.4021 56.1999 22.3021 56.2999" stroke="#999999" stroke-width="0.4" stroke-linecap="round" stroke-linejoin="round"/>
<path d="M146.402 95.2999C145.602 96.5999 170.402 107.7 169.802 108.8C169.202 109.9 149.102 96.6999 148.302 97.9999C147.802 98.7999 167.402 107.3 166.602 108.6C166.202 109.3 154.702 102.1 154.202 102.9C153.502 104.1 168.702 109.6 168.002 110.8C167.802 111.1 158.302 106.6 158.002 107C157.702 107.5 168.702 112.3 168.302 113C168.202 113.3 160.202 108.2 160.002 108.6C159.602 109.3 167.302 112.1 167.002 112.6C166.902 112.8 163.202 110.4 163.002 110.7C162.602 111.4 163.502 110.5 163.302 110.9C163.202 111 160.702 110.9 160.602 111C160.502 111.2 165.602 113.7 165.502 113.8C165.402 113.9 162.702 112.4 162.702 112.5C162.602 112.6 164.302 113.3 164.202 113.4" stroke="#999999" stroke-width="0.4" stroke-linecap="round" stroke-linejoin="round"/>
<path d="M166.502 60.5999C166.402 60.6999 169.302 62.0999 169.202 62.1999C169.102 62.2999 166.002 60.5999 165.902 60.6999C165.802 60.8999 167.302 61.2999 167.202 61.4999C167.102 61.6999 163.702 60.3999 163.602 60.4999C163.502 60.6999 165.202 61.0999 165.102 61.3999C165.002 61.4999 167.302 63.3999 167.202 63.4999C167.002 63.7999 169.602 64.3999 169.402 64.7999C169.202 65.0999 164.202 63.6999 164.002 63.8999C163.702 64.3999 167.702 65.2999 167.402 65.7999C167.302 65.8999 164.002 63.7999 163.902 64.0999C163.602 64.6999 167.702 65.4999 167.402 66.0999C167.402 66.1999 164.502 64.9999 164.402 65.0999C164.102 65.6999 169.802 67.4999 169.502 67.9999C169.202 68.5999 160.202 63.2999 160.002 63.5999C159.802 63.9999 163.702 65.2999 163.502 65.5999C163.402 65.7999 158.902 64.2999 158.802 64.4999C158.502 64.9999 165.702 67.9999 165.502 68.3999C165.302 68.6999 158.502 66.1999 158.202 66.6999C157.902 67.0999 164.702 69.6999 164.402 70.2999C164.302 70.4999 159.802 68.0999 159.702 68.2999C159.502 68.5999 164.502 70.2999 164.202 70.8999C164.102 71.0999 159.902 68.3999 159.802 68.5999C159.502 69.1999 163.802 70.3999 163.602 70.7999C163.502 70.9999 158.102 67.6999 157.902 67.9999C157.502 68.5999 160.402 68.8999 160.202 69.2999C160.102 69.4999 157.302 70.0999 157.202 70.1999C157.002 70.4999 162.002 72.1999 161.702 72.7999C161.602 72.8999 159.102 73.3999 159.102 73.4999C158.902 73.8999 161.702 74.1999 161.402 74.7999C161.302 74.9999 156.602 74.5999 156.502 74.8999C156.302 75.2999 157.802 74.7999 157.402 75.3999C157.402 75.4999 155.702 76.0999 155.602 76.1999C155.402 76.5999 159.402 77.8999 159.102 78.1999C159.002 78.3999 154.502 77.2999 154.402 77.4999C154.102 77.9999 158.702 79.2999 158.402 79.7999C158.302 79.9999 151.502 76.4999 151.302 76.7999C151.002 77.2999 155.402 78.7999 155.202 79.0999C155.002 79.3999 149.602 77.1999 149.402 77.3999C149.102 77.8999 156.102 80.3999 155.702 81.0999C155.602 81.2999 148.802 77.0999 148.502 77.5999C147.502 79.3999 173.302 89.8999 172.402 91.3999C171.402 93.0999 148.002 77.8999 147.002 79.5999C146.202 80.8999 168.102 90.6999 167.602 91.4999C167.002 92.4999 146.102 78.4999 145.702 79.2999C145.202 80.0999 169.502 91.0999 168.702 92.5999C168.102 93.6999 144.102 80.2999 143.702 80.9999C143.002 82.2999 159.402 89.0999 159.002 89.7999C158.602 90.4999 142.802 81.5999 142.302 82.3999C141.602 83.5999 159.202 91.1999 158.802 91.8999C158.502 92.3999 146.002 84.5999 145.502 85.3999C145.002 86.2999 158.502 91.3999 157.902 92.5999C157.002 94.0999 135.302 81.0999 134.702 82.0999C133.802 83.6999 162.702 96.1999 161.802 97.7999C161.002 99.1999 134.802 81.3999 133.802 83.1999C132.502 85.4999 162.002 97.4999 161.202 98.9999C160.502 100.2 135.402 84.2999 134.902 85.0999C134.002 86.5999 168.902 101.7 167.602 104C166.102 106.6 129.802 81.7999 128.602 83.8999C126.802 86.9999 171.402 104.7 169.702 107.6C168.702 109.3 131.402 83.2999 130.102 85.6999C128.402 88.6999 169.402 105.7 168.302 107.7C167.502 109.1 126.002 83.5999 125.202 84.9999C124.502 86.0999 133.202 88.6999 132.802 89.3999C132.502 89.8999 116.402 81.5999 115.902 82.4999C115.302 83.4999 129.302 89.2999 128.902 89.9999C128.602 90.4999 119.302 84.4999 119.002 84.9999C118.502 85.7999 128.202 89.1999 127.702 89.9999C127.402 90.5999 118.202 84.9999 117.902 85.5999C117.402 86.4999 127.402 90.2999 127.102 90.8999C126.702 91.5999 110.202 81.8999 109.802 82.6999C109.102 83.8999 123.202 88.9999 122.602 90.0999C122.102 90.9999 107.102 81.9999 106.602 82.8999C105.902 84.0999 119.602 89.4999 119.202 90.1999C118.902 90.7999 109.102 84.2999 108.802 84.6999C108.102 85.7999 123.602 91.6999 122.902 92.8999C122.402 93.6999 109.202 84.7999 108.802 85.3999C108.102 86.5999 122.302 91.9999 121.802 92.8999" stroke="#999999" stroke-width="0.4" stroke-linecap="round" stroke-linejoin="round"/>
<path d="M70.1021 8.19995C70.0021 8.29995 72.9021 9.69996 72.8021 9.79996C72.7021 9.99996 69.1021 10.2 69.0021 10.3C68.5021 11.2 78.3021 14.6 77.8021 15.4C77.6021 15.8 69.9021 11.0999 69.6021 11.4999C69.2021 12.1999 81.7021 17.1 81.1021 18.2C80.8021 18.7 70.5021 11.5 70.2021 12.2C69.9021 12.7 81.1021 17.0999 80.5021 18.0999C79.9021 19.0999 65.7021 8.59996 65.2021 9.39996C64.7021 10.3 80.8021 17.7 80.5021 18.2C80.3021 18.6 70.2021 13.1 69.8021 13.7C68.4021 16 101.802 29.3999 100.602 31.4999C99.8021 32.8999 68.6021 11.7 67.9021 12.9C66.9021 14.7 96.1021 27.4 95.4021 28.7C94.8021 29.7 64.6021 9.29995 63.7021 10.7C62.4021 13 95.4021 27.4999 94.8021 28.5999C94.1021 29.7999 64.9021 10.5 64.1021 11.8C62.8021 14 100.402 30.3 99.4021 32.2C98.3021 34 65.7021 12 65.0021 13.4C64.1021 15 95.7021 28.2 94.4021 30.4C93.4021 32.1 69.8021 16 69.3021 16.8C68.2021 18.7 97.7021 30.7999 96.6021 32.5999C95.6021 34.3999 69.3021 16 68.8021 16.9C68.0021 18.4 97.8021 30.9 96.6021 32.9C95.7021 34.4 67.0021 15.4 65.8021 17.4C64.6021 19.5 96.3021 32.3 95.1021 34.3C94.2021 35.8 69.6021 18.3 68.7021 19.8C67.6021 21.7 94.2021 31.9 93.1021 33.9C92.5021 35 73.2021 23.4 72.6021 24.3C71.7021 25.8 97.0021 36.4 96.1021 37.9C95.8021 38.5 80.8021 30.0999 80.5021 30.4999C79.9021 31.5999 91.9021 35.8 91.3021 36.8C91.0021 37.2 83.0021 31.9 82.7021 32.4C82.0021 33.5 90.8021 35.7 90.2021 36.7C90.1021 36.9 85.5021 34.7 85.4021 34.9C85.0021 35.6 95.5021 39.7999 95.1021 40.4999C94.9021 40.8999 86.6021 36.8 86.3021 37.3C85.9021 38 91.2021 39.5999 90.9021 39.9999C90.9021 39.9999 89.7021 40.8999 89.7021 40.9999C89.3021 41.6999 92.2021 41.8 91.9021 42.3C91.6021 42.8 84.6021 38.9 84.4021 39.3C84.2021 39.7 94.8021 44.5999 94.5021 45.0999C94.3021 45.3999 85.6021 40.8999 85.3021 41.4999C84.9021 42.0999 93.2021 45.5999 93.0021 45.9999C92.9021 46.1999 89.0021 44.2 88.9021 44.4C88.7021 44.8 92.3021 45.9 92.1021 46.3C92.0021 46.5 88.5021 44.7 88.4021 44.9C88.1021 45.5 90.0021 44.8999 89.6021 45.5999C89.5021 45.7999 85.9021 43.7999 85.7021 44.0999C85.4021 44.4999 92.2021 47 91.9021 47.7C91.8021 47.8 89.7021 48.3 89.6021 48.4C89.2021 49 95.1021 51.0999 94.9021 51.4999C94.8021 51.6999 88.4021 49.5 88.2021 49.8C87.8021 50.4 91.6021 50.9999 91.3021 51.5999C91.2021 51.6999 89.3021 50.7 89.2021 50.8C88.8021 51.5 96.2021 53.9999 95.8021 54.5999C95.6021 54.9999 87.7021 51.4 87.4021 51.9C87.0021 52.6 93.9021 54.7 93.5021 55.4C93.4021 55.6 88.1021 52.5 88.0021 52.7C87.8021 53.1 95.4021 56.1 95.0021 56.8C94.8021 57.1 89.5021 55.7 89.3021 55.9C88.9021 56.5 95.3021 58.5 94.9021 59.2C94.6021 59.7 85.8021 53.4999 85.5021 53.9999C85.2021 54.4999 93.0021 57.6 92.7021 58.2C92.6021 58.3 89.2021 57.8 89.1021 57.9C88.9021 58.3 91.6021 58.3999 91.2021 59.0999C91.0021 59.4999 84.7021 55.6 84.6021 55.9C84.2021 56.6 94.7021 61.0999 94.4021 61.5999C94.3021 61.7999 89.7021 60.8 89.6021 60.9C89.3021 61.5 95.6021 63.9 95.4021 64.3C95.2021 64.7 88.4021 61 88.2021 61.2C87.9021 61.7 91.0021 62.0999 90.7021 62.5999C90.6021 62.7999 88.0021 61.4999 88.0021 61.5999C87.7021 62.0999 94.9021 64.8 94.6021 65.4C94.3021 66 84.9021 60.5 84.5021 61.2C84.3021 61.5 90.4021 63.9 90.1021 64.4C90.0021 64.5 88.2021 64.2 88.2021 64.2C87.8021 64.9 93.8021 66.5 93.4021 67.2C93.3021 67.4 87.1021 65.8999 87.0021 66.0999C86.8021 66.4999 95.8021 70.4999 95.5021 70.9999C95.3021 71.2999 85.9021 67.4 85.7021 67.8C85.5021 68.2 92.7021 70.8999 92.3021 71.5999C92.1021 71.8999 86.9021 70.2999 86.8021 70.5999C86.3021 71.3999 104.302 79.1 103.602 80.3C103.102 81.1 86.9021 71.1 86.5021 71.7C85.7021 73 102.102 78.9 101.302 80.3C101.102 80.7 88.4021 72.4 87.9021 73.3C87.3021 74.4 100.302 78.8999 99.6021 80.0999C99.2021 80.6999 89.2021 75.6 88.9021 76.2C87.7021 78.4 116.502 89.3999 115.302 91.4999C114.402 92.9999 89.5021 76.5 89.0021 77.4C87.8021 79.6 114.802 90.4 114.002 91.8" stroke="#999999" stroke-width="0.4" stroke-linecap="round" stroke-linejoin="round"/>
<path d="M158.902 44.5999C158.802 44.6999 162.002 46.1999 161.902 46.2999C161.802 46.3999 160.602 47.5999 160.602 47.5999C160.402 47.8999 162.802 48.3999 162.602 48.6999C162.402 48.9999 156.302 45.1999 156.102 45.5999C155.902 45.9999 161.702 48.1999 161.502 48.6999C161.402 48.8999 155.502 47.5999 155.402 47.7999C155.002 48.4999 161.102 50.3999 160.802 50.8999C160.402 51.5999 149.302 44.3999 148.902 45.0999C148.502 45.7999 158.202 49.7999 157.902 50.2999C157.802 50.4999 153.102 47.5999 153.002 47.6999C152.502 48.5999 161.802 51.7998 161.402 52.4998C161.002 53.1998 147.102 46.1999 146.802 46.7999C146.402 47.4999 157.702 51.8999 157.202 52.7999C157.002 53.1999 147.202 47.4999 146.802 48.0999C146.402 48.8999 154.302 50.8999 153.702 52.0999" stroke="#999999" stroke-width="0.4" stroke-linecap="round" stroke-linejoin="round"/>
<path d="M128.502 14.7C128.502 14.8 131.602 16.4 131.502 16.4C131.402 16.5 127.502 15.2999 127.402 15.4999C127.202 15.7999 133.102 18.3 132.902 18.7C132.702 19 125.402 14.5 125.302 14.8C125.102 15.2 129.402 16.7999 129.202 17.0999C129.002 17.3999 123.702 15.6 123.602 15.9C123.402 16.3 130.702 19.3 130.402 19.8C130.202 20.1 124.902 18.1999 124.702 18.4999C124.402 18.9999 132.802 22.5999 132.502 22.9999C132.402 23.0999 127.702 21.7 127.602 21.8C127.202 22.5 131.502 23.4 131.202 23.9C131.002 24.2 126.002 22.7999 125.902 23.0999C125.502 23.7999 132.202 25.6999 131.702 26.4999C131.602 26.6999 127.802 25.9999 127.802 26.0999C127.402 26.7999 128.502 25.7 128.202 26.3C128.102 26.5 123.602 26 123.502 26.2C123.102 26.9 131.602 30.3 131.302 30.7C131.102 31.1 124.902 27.6999 124.702 28.0999C124.402 28.5999 130.802 31.0999 130.602 31.4999C130.502 31.5999 127.302 30.4999 127.202 30.5999C126.802 31.1999 132.002 32.9 131.802 33.3C131.602 33.6 125.402 29.6999 125.202 30.0999C124.902 30.5999 133.502 34 133.102 34.7C133.002 34.9 128.302 34.6 128.202 34.7C127.502 35.9 142.802 41.7 142.202 42.8C141.802 43.5 124.302 33.7 123.802 34.7C123.302 35.6 136.802 41.2 136.402 41.9C136.002 42.6 125.702 37.3 125.402 37.8C124.202 40 154.702 52.3999 153.702 54.0999C153.202 54.9999 126.602 38.8 125.902 39.9C125.002 41.5 148.102 50.7 147.302 52.2C146.602 53.4 128.602 41.0999 128.002 41.9999C127.002 43.6999 150.702 52.9999 149.802 54.5999C149.402 55.2999 128.602 43.1999 128.102 43.9999C127.502 44.9999 147.102 53.8 146.602 54.7C146.002 55.7 127.802 42.4 127.002 43.7C126.302 44.9 145.502 52.7999 144.802 53.9999C144.402 54.6999 127.102 43.8999 126.402 45.0999C125.802 46.0999 142.602 53.4 142.202 54.2C141.602 55.2 125.202 46.4999 124.902 46.9999C124.502 47.6999 137.802 53.6 137.502 54.3C137.202 54.8 127.302 49.8999 126.902 50.4999C126.402 51.2999 131.502 52 131.002 52.9C130.902 53.1 125.802 51 125.702 51.2C125.502 51.6 129.202 52.2999 128.802 52.9999C128.602 53.2999 123.202 51.7999 123.002 52.0999C122.602 52.7999 127.802 54.4 127.602 54.8C127.402 55.1 121.402 51.3 121.202 51.7C120.802 52.3 127.202 54.3999 126.902 54.9999C126.702 55.2999 122.002 52.7 121.902 52.9C121.702 53.3 126.902 54.9999 126.602 55.5999C126.502 55.7999 122.402 53.5 122.202 53.8C121.902 54.4 123.802 54.0999 123.502 54.5999C123.502 54.6999 121.202 54.2 121.102 54.3C120.802 54.8 125.502 56.3 125.202 56.7C125.102 56.8 122.002 55.6 121.902 55.8C121.602 56.3 124.402 56.7999 124.202 57.0999C124.102 57.2999 120.102 56.7999 120.002 56.9999C119.702 57.4999 126.502 59.9999 126.202 60.5999C125.902 61.0999 116.602 56.9 116.402 57.2C116.102 57.7 121.402 59.2 121.002 59.9C120.902 60 119.702 61.2 119.702 61.3M119.702 61.3C119.502 61.7 120.102 60.7 119.702 61.3ZM119.702 61.3C119.602 61.4 117.702 62.4999 117.602 62.5999C117.202 63.1999 118.202 62.6 118.102 62.9C118.002 63 115.102 61.3999 115.102 61.4999C114.902 61.8999 121.002 64.5 120.902 64.8C120.802 65 114.402 61.6 114.202 61.9C113.902 62.4 120.402 65 120.202 65.4C120.002 65.8 112.202 62.6999 111.902 63.0999C111.602 63.5999 114.102 64 113.902 64.3C113.802 64.4 110.402 62.5 110.302 62.7C110.002 63.2 118.602 66.8 118.302 67.3C118.102 67.6 112.902 64.7999 112.802 64.9999C112.502 65.4999 115.202 65.7 114.902 66.2V66.3C114.702 66.7 118.402 67.7 118.202 68.2C118.002 68.6 111.002 65.0999 110.702 65.5999C110.502 65.9999 113.502 66.7999 113.302 67.0999C113.102 67.4999 107.002 64.5 106.802 64.9C106.602 65.3 110.702 66.6999 110.502 66.9999C110.302 67.2999 105.802 66 105.702 66.2C105.502 66.5 113.702 70.2 113.502 70.7C113.402 70.9 108.202 69.8999 108.102 70.0999C107.902 70.4999 110.002 70.4999 109.702 70.9999C109.602 71.0999 105.702 71.2 105.602 71.4C105.302 71.8 109.902 73.4 109.702 73.8C109.602 74 102.602 69.6999 102.402 70.0999C102.102 70.5999 110.602 74.0999 110.302 74.5999C110.102 74.8999 102.802 69.9999 102.602 70.4999C102.302 70.9999 106.202 71.9 105.902 72.4C105.802 72.5 103.502 72.7 103.402 72.8C103.202 73.1 107.602 74.5999 107.302 75.0999C107.202 75.2999 102.802 73.6 102.602 73.8C102.402 74.1 106.102 75.1 105.802 75.7C105.602 76 100.202 74.5 100.002 74.7C99.8021 75 104.702 76.8 104.402 77.3C104.402 77.4 102.402 76.4999 102.302 76.5999C102.102 76.8999 107.302 78.7 106.902 79.3C106.802 79.5 100.802 76.6999 100.602 76.9999C100.402 77.2999 101.502 76.7 101.202 77.3C101.102 77.5 98.0021 76.1 97.9021 76.2C97.5021 76.8 103.202 78.5999 102.902 79.0999" stroke="#999999" stroke-width="0.4" stroke-linecap="round" stroke-linejoin="round"/>
<path d="M148.102 25.5999C148.102 25.6999 150.902 27.0999 150.902 27.1999C150.802 27.3999 146.302 24.9999 146.102 25.2999C145.902 25.5999 152.302 28.5999 152.202 28.7999C152.102 28.9999 145.902 24.9999 145.702 25.2999C145.502 25.5999 152.402 28.8999 152.302 29.0999C152.102 29.4999 145.002 25.6999 144.702 26.1999C144.402 26.6999 149.302 28.4999 149.102 28.7999C149.002 28.9999 145.102 29.0999 145.002 29.2999C144.802 29.6999 149.002 30.9999 148.702 31.3999C148.602 31.4999 147.402 30.6999 147.302 30.7999C147.002 31.3999 149.202 31.4999 149.002 31.7999C148.902 31.9999 144.102 30.3999 144.002 30.6999C143.702 31.2999 148.202 32.4999 147.902 32.9999C147.802 33.1999 143.302 31.2999 143.202 31.4999C143.002 31.8999 147.402 33.2999 147.102 33.7999C146.902 34.0999 140.902 31.7999 140.702 32.0999C140.502 32.3999 143.202 32.7999 142.902 33.3999C142.902 33.4999 140.402 34.4999 140.402 34.5999C140.202 34.9999 142.602 35.3999 142.402 35.6999C142.202 35.9999 137.902 34.0999 137.802 34.2999C137.602 34.6999 145.702 37.9999 145.302 38.5999C145.102 38.8999 139.202 35.4999 139.102 35.6999C138.902 35.9999 143.202 37.5999 143.002 37.9999C142.902 38.0999 140.302 37.9999 140.202 38.0999C139.902 38.6999 142.102 38.2999 141.702 38.9999C141.502 39.3999 135.902 35.7999 135.702 36.0999C135.502 36.4999 139.202 37.4999 139.002 37.9999C139.002 38.0999 137.402 39.2999 137.402 39.3999C137.202 39.7999 143.102 42.0999 142.902 42.5999C142.802 42.7999 136.002 38.6999 135.802 38.9999C135.602 39.2999 136.902 39.1999 136.702 39.4999L135.902 38.9999C135.702 39.3999 140.002 40.9999 139.802 41.2999" stroke="#999999" stroke-width="0.4" stroke-linecap="round" stroke-linejoin="round"/>
<path d="M11.602 92.4999C9.50202 92.5999 24.2021 92.4999 26.7021 90.4999C24.8021 96.3999 12.2021 109.1 13.2021 107C9.50206 109.5 8.80202 110.5 14.102 114.9C13.802 115 14.6021 117.4 18.9021 114.1C17.2021 112.7 18.802 113.8 19.302 116.6C20.802 112.7 40.902 93.3999 38.802 94.6999C39.502 93.3999 77.502 96.3999 77.102 89.9999C78.502 90.0999 52.002 122.6 50.602 121.3C50.002 120.3 23.302 121.3 22.802 120.7C20.002 121.1 16.7021 121 20.7021 123C16.6021 127 19.802 132.8 25.602 128C23.602 134.3 40.002 129.5 43.102 127.5C40.502 133.2 29.502 142.6 31.302 141.6C29.402 146.3 29.2021 145.5 31.7021 149.4C31.1021 147.7 32.002 152.5 35.102 149C34.702 149.8 38.7021 148 40.2021 146.2C38.1021 146.5 49.202 138.8 48.002 134.4C46.902 140.4 48.2021 156.7 48.4021 154.6C47.0021 155.9 51.702 159.5 54.002 163.4C57.502 162.6 59.3021 159.2 59.7021 152.1C58.9021 154.5 57.602 127.2 60.502 126.5C58.402 130.7 86.802 100.6 86.802 101.2C86.902 101.3 85.202 137.7 84.802 138.4C86.102 140.4 64.6021 161.6 66.9021 160.7C64.1021 158.4 64.702 161.7 67.802 162.9C69.502 169.5 72.602 167.5 75.802 167.8C74.202 169 85.8021 156.1 86.7021 152.4C85.3021 152.8 86.9021 165.9 85.4021 166.9C87.7021 170.4 89.502 175.1 92.502 168.8C95.102 175.5 96.402 168.9 95.502 165C98.402 170.3 98.302 155.4 98.502 156.3C96.202 151.8 109.202 165 109.902 162.6C111.202 170.7 112.402 170.7 112.002 165.7C116.002 170.2 115.202 170.1 117.702 167C119.402 162.8 118.002 162.7 116.502 159.9C117.502 157.9 96.902 141.3 95.302 139.5C97.602 140.2 95.302 99.9999 97.302 98.4999C94.802 103.2 125.102 124.1 123.902 127.3C122.302 128.7 123.302 155.7 123.502 153.5C124.502 158.8 127.302 162.4 127.502 161.5C130.902 159.7 133.202 158.3 133.702 154.2C134.702 157.3 135.502 135 133.102 139C133.602 135.2 146.402 144.8 142.902 145.5C145.802 150.1 146.202 149.9 147.102 147.8C148.402 149.5 151.102 145.7 151.602 147.8C153.602 147.7 155.102 143.5 150.702 141.2C152.802 138.8 141.002 133.2 142.302 128C140.902 128.7 160.702 127.7 157.902 126C161.502 129 164.102 130 163.002 125.5C163.002 120.9 160.602 121.6 156.502 118.1C158.502 122.2 130.202 120.9 130.202 122.1C130.702 121.6 102.902 92.0999 104.202 93.4999C102.802 94.7999 141.502 92.3999 143.102 93.1999C141.902 94.4999 162.602 115.6 162.702 113.2C164.202 111.6 163.702 110.8 166.702 115.5C169.602 117.1 169.802 116.5 169.002 115.3C171.602 111.2 173.302 106.1 169.802 102.8C171.202 106.2 157.102 95.7999 156.602 95.6999C158.902 89.6999 172.802 89.1999 170.402 89.8999C174.702 90.2999 177.802 88.5999 177.202 84.9999C175.602 86.7999 173.402 78.9999 171.302 78.6999C172.502 78.5999 157.802 81.4999 156.302 78.8999C158.502 85.0999 168.702 66.6999 168.702 70.5999C172.602 67.1999 172.102 66.5999 168.802 65.3999C167.002 58.2999 163.702 61.8999 161.402 61.8999C162.602 59.0999 141.602 80.2999 142.002 82.5999C143.702 82.2999 103.502 80.9999 103.602 80.4999C103.102 85.2999 130.102 52.8999 128.802 53.5999C129.602 55.8999 160.302 55.2999 158.202 54.8999C162.402 53.7999 163.402 54.5999 164.302 48.7999C165.802 46.7999 162.602 43.6999 158.202 48.2999C159.802 46.7999 140.402 41.4999 140.002 48.2999C139.702 45.3999 152.702 31.0999 151.802 34.8999C153.902 34.9999 153.102 25.5999 150.302 29.9999C147.702 25.9999 145.002 25.7999 142.202 26.9999C145.302 27.5999 135.202 36.4999 134.002 35.8999C135.202 38.9999 134.102 19.0999 133.202 20.2999C132.202 19.2999 132.302 17.1999 128.702 13.9999C124.702 12.5999 122.202 13.8999 122.102 19.7999C123.702 16.6999 122.902 48.9999 121.302 50.8999C124.002 45.6999 96.202 72.1999 96.102 74.7999C97.402 75.9999 94.4021 36.4999 94.7021 40.1999C95.5021 36.4999 117.402 14.2999 113.702 18.6999C117.402 13.2999 119.402 9.09992 114.602 11.6999C113.102 6.79992 110.602 6.89993 107.002 7.79993C109.202 8.39993 97.1021 23.0999 96.7021 21.0999C95.6021 23.8999 96.702 9.99992 95.802 8.19992C95.002 7.29992 93.2021 4.59993 88.9021 0.799927C87.6021 1.89993 84.0021 6.59992 83.4021 5.69992C85.1021 6.49992 84.6021 18.5999 85.7021 20.8999C84.8021 17.5999 73.702 8.49991 74.002 11.5999C70.002 6.79991 65.902 4.59993 64.602 11.8999C63.602 13.1999 63.402 13.9999 64.502 19.1999C66.102 19.2999 86.0021 34.3999 85.9021 33.8999C85.7021 35.3999 86.902 73.1999 86.102 71.5999C86.602 71.6999 58.402 50.5999 60.302 49.6999C57.002 51.0999 58.0021 23.0999 58.4021 21.0999C57.5021 13.6999 55.9021 16.3999 52.9021 16.3999C49.9021 13.0999 47.602 16.9999 49.802 21.5999C47.702 19.6999 46.9021 40.7999 47.2021 38.5999C46.5021 36.8999 35.6021 26.4999 38.9021 25.6999C36.4021 23.5999 32.2021 27.4999 29.7021 25.5999C27.9021 29.9999 27.502 36.2999 30.802 37.7999C29.702 35.0999 40.702 44.1999 41.002 47.4999C38.802 46.5999 21.2021 47.6999 24.9021 45.4999C18.8021 48.6999 15.8021 48.0999 17.2021 51.4999C18.8021 54.1999 18.2021 58.9999 23.7021 58.3999C21.0021 57.9999 51.6021 57.6999 50.2021 58.6999C50.6021 58.2999 76.302 81.0999 77.602 81.0999C77.702 83.0999 40.7021 85.5999 40.7021 80.9999C37.7021 82.0999 19.502 61.4999 19.302 61.7999C17.302 64.1999 13.502 63.6999 14.102 66.6999C9.00202 66.2999 9.00202 68.2999 13.602 72.8999C13.202 68.4999 24.402 84.1999 27.002 85.5999C24.702 85.9999 11.0021 83.5999 11.2021 80.5999C7.60206 86.1999 6.30203 86.6999 5.80203 88.8999C3.90203 90.2999 7.60202 91.2999 11.602 92.4999Z" stroke="#666666"/>
<path d="M7.10204 94.9998C9.50204 93.0998 25.402 93.5998 24.802 92.4998C24.002 92.5998 12.002 105.6 15.302 104.7C12.702 109.5 13.8021 111.2 12.7021 112.9C15.8021 113.1 14.0021 113.7 13.5021 116.3C17.4021 115.9 22.4021 112.9 18.4021 113.1C24.2021 112.2 41.4021 94.5999 42.5021 93.1999C37.7021 91.8999 80.702 92.0999 77.102 94.7999C80.302 93.7999 52.2021 119.5 54.2021 120.7C49.2021 119.4 25.3021 119.7 23.2021 121.9C23.1021 121.3 20.802 123.1 14.602 125.1C21.302 126.8 22.902 130.3 21.802 132.4C22.602 129.6 44.3021 129.2 42.9021 132.8C42.3021 131.2 32.2021 140.8 33.7021 142.1C32.6021 143.8 29.8021 147.3 27.0021 148.8C33.5021 151 34.1021 150.8 37.5021 151.6C34.4021 149.6 38.6021 149.6 39.0021 149.8C42.0021 149.2 49.0021 137.4 51.0021 138.5C49.2021 138.7 49.502 156.1 50.302 157.8C48.102 158.3 54.102 161.5 54.602 161.4C56.602 160.2 59.2021 156.6 58.7021 155.2C59.4021 155.5 56.202 127.1 61.802 129.7C61.802 128.3 85.402 101.5 86.602 99.7999C88.102 99.2999 85.202 137.4 87.102 139.2C85.802 140.4 63.2021 159.5 68.5021 161.2C63.9021 159.5 63.7021 164.5 69.4021 166.1C67.8021 169.7 73.002 167.3 71.302 166.7C74.902 164.6 85.3021 154.1 89.0021 155.2C89.0021 154.4 86.102 166.7 87.602 167.8C89.002 170.4 90.3021 171 94.7021 173C92.9021 172.4 96.1021 169.4 99.4021 169.8C97.7021 168.7 95.002 153.3 98.802 156.6C93.502 152.4 108.202 164.6 105.902 165.9C106.802 166.6 113.102 165.9 112.802 170.3C115.802 167.3 114.502 165.5 115.002 166.1C119.002 161.8 121.102 160.8 115.502 158.6C112.802 159 95.9021 138 96.4021 139.9C93.1021 139 98.3021 99.4999 94.2021 102.8C96.2021 100.8 123.302 126.3 120.502 129.3C124.302 128.4 125.402 153.4 121.102 156.5C122.202 157.4 127.302 161 125.802 160.2C132.702 158.4 130.502 158.1 133.402 155.5C134.502 155.9 132.202 138 131.002 137.3C133.702 135.9 142.602 148.9 142.602 149.8C147.302 148.8 148.102 150 146.802 150.8C149.402 147.8 150.002 147.5 154.302 147.5C156.302 145.1 150.802 140.7 154.802 142.1C151.002 140.8 140.302 130 142.602 130.1C143.302 128.4 156.002 129.5 160.802 130.7C159.102 129.5 159.702 126.6 163.302 123.7C165.502 123.2 161.902 120.9 161.502 118.6C158.202 119.3 130.202 121.1 134.002 118.8C130.102 118.6 101.302 94.3998 107.002 94.4998C105.302 94.7998 143.702 92.5999 142.102 92.3999C144.302 94.5999 163.902 113.6 163.002 112.1C162.402 114.3 162.702 114.6 169.202 115C164.802 113.7 167.502 112.8 171.302 112.7C168.202 109.1 170.802 105.4 170.102 103.5C171.402 103.8 153.002 93.3998 155.002 92.9998C155.202 94.2998 170.702 91.7999 171.402 94.2999C169.302 92.3999 175.002 89.0998 176.502 87.9998C175.202 84.4998 171.102 81.0998 169.002 81.9998C167.002 82.0998 157.102 83.8999 159.902 81.3999C154.502 81.6999 164.902 69.5998 167.402 68.4998C171.402 68.0998 171.902 64.2998 171.002 63.4998C163.602 62.2998 161.302 62.1999 159.602 61.6999C162.102 61.8999 144.602 84.1999 138.902 80.6999C143.002 80.9999 100.702 83.6999 107.002 82.0999C103.702 83.4999 132.302 56.9999 128.002 55.8999C129.402 55.6999 155.502 55.2998 160.102 54.9998C158.702 54.1998 159.502 52.8999 163.302 48.2999C162.902 48.9999 157.002 45.9998 158.102 44.4998C158.402 44.1998 136.902 45.5999 141.102 46.0999C142.502 44.4999 148.102 35.5999 148.102 32.8999C154.502 34.6999 153.302 28.5999 153.802 26.6999C146.902 26.8999 141.802 27.5998 142.602 25.9998C144.302 27.1998 131.202 36.8999 135.002 36.3999C131.702 39.4999 135.002 22.5998 132.802 18.9998C135.502 17.4998 128.502 14.2998 128.302 12.9998C123.702 14.5998 119.902 18.1998 122.502 18.4998C121.002 21.0998 118.802 47.7999 122.002 47.0999C121.302 47.2999 94.5021 74.5999 95.5021 74.0999C96.6021 76.8999 96.402 38.6998 93.302 37.4998C93.602 38.5998 112.602 18.4999 112.702 16.3999C117.202 16.3999 113.602 12.4999 116.902 9.19986C115.402 10.0999 110.302 9.89987 109.502 8.89987C110.702 10.3999 95.102 21.9999 98.302 21.8999C96.002 22.2999 98.502 9.09985 94.302 7.09985C97.202 5.59985 93.1021 4.29985 91.5021 2.09985C90.1021 2.99985 87.9021 7.19987 83.2021 6.89987C83.0021 7.49987 88.202 22.4998 86.102 21.9998C83.602 23.2998 74.402 12.1999 73.302 9.19986C70.202 10.2999 65.802 9.49985 61.602 9.59985C66.202 11.6999 64.702 16.0999 66.602 17.3999C62.302 19.8999 83.802 36.9999 87.102 38.0999C81.902 38.8999 82.1021 77.0999 87.7021 73.6999C85.6021 75.6999 56.902 48.5999 59.602 48.6999C58.902 50.9999 55.2021 21.0998 56.5021 20.9998C61.5021 19.2998 56.7021 16.9999 53.4021 15.5999C49.5021 16.6999 44.9021 19.7999 45.2021 19.7999C48.5021 21.1999 45.602 39.6999 49.302 37.2999C49.302 38.1999 34.702 27.5999 40.302 27.3999C36.502 26.8999 29.502 25.5999 27.602 28.7999C30.702 30.2999 25.8021 35.6999 28.9021 36.1999C30.5021 36.3999 38.9021 45.2999 42.7021 44.0999C40.4021 47.2999 20.302 45.6999 20.302 44.1999C18.102 47.8999 16.6021 49.3999 19.5021 52.8999C17.7021 54.2999 20.302 56.4999 21.102 56.2999C27.202 58.9999 52.602 58.5999 52.102 56.7999C53.502 56.9999 78.0021 83.2998 80.5021 81.9998C75.0021 83.5998 41.2021 82.9999 37.4021 83.8999C40.1021 84.7999 19.802 63.0999 19.802 64.8999C17.302 63.6999 16.8021 60.6999 8.00206 63.8999C8.10206 65.4999 7.70208 71.2999 12.4021 71.0999C11.9021 70.5999 25.802 83.1999 25.802 82.7999C23.402 82.3999 9.30206 83.1998 9.50206 83.9998C8.60206 83.1998 3.40208 87.4999 7.90208 87.7999C6.50208 90.0999 6.40204 94.9998 7.10204 94.9998Z" stroke="#4D4D4D" stroke-width="0.75"/>
</g>
<defs>
<filter id="filter0_d_3_276" x="0.78894" y="0.138916" width="180.987" height="181.217" filterUnits="userSpaceOnUse" color-interpolation-filters="sRGB">
<feFlood flood-opacity="0" result="BackgroundImageFix"/>
<feColorMatrix in="SourceAlpha" type="matrix" values="0 0 0 0 0 0 0 0 0 0 0 0 0 0 0 0 0 0 127 0" result="hardAlpha"/>
<feOffset dy="4"/>
<feGaussianBlur stdDeviation="2"/>
<feComposite in2="hardAlpha" operator="out"/>
<feColorMatrix type="matrix" values="0 0 0 0 0 0 0 0 0 0 0 0 0 0 0 0 0 0 0.25 0"/>
<feBlend mode="normal" in2="BackgroundImageFix" result="effect1_dropShadow_3_276"/>
<feBlend mode="normal" in="SourceGraphic" in2="effect1_dropShadow_3_276" result="shape"/>
</filter>
</defs>
</svg>
