<svg xmlns="http://www.w3.org/2000/svg" width="202" height="225" fill="none"><g filter="url(#a)"><path stroke="#999" stroke-linecap="round" stroke-linejoin="round" stroke-width=".4" d="M171.802 52.9c-.1.1 4.5 2.5 4.4 2.6-.2.4-10.8-5.5-11.1-5-.5.9 17.8 8.9 17.2 9.9-.4.8-19.6-11.8-20-11.1-.6 1.1 17.9 9.2 17.4 10.1-.8 1.3-21.3-12-22-10.9s26.6 13.3 25.8 14.9"/><path stroke="#999" stroke-linecap="round" stroke-linejoin="round" stroke-width=".4" d="M133.502 9.9c-.1.2.4 0 .3.2-.2.3-5.9-3-6.1-2.7-.6 1 6.7 3.1 6.4 3.7-.1.2-6.9-4.1-7.1-3.8-.6 1 8.7 4.3 8.4 4.8-.5.9-16.5-9.5-17.1-8.4-1 1.7 23.3 12.3 22.8 13.2-.8 1.4-26.2-14.5-27.2-12.8-.9 1.6 32.7 16.3 31.6 18.3s-28.9-17.9-29.5-16.9c-1.4 2.3 30.9 16.1 30.2 17.4-.8 1.3-33.9-20.5-35.1-18.4-1.5 2.6 34.6 17.4 33.5 19.3s-32.9-20.1-33.9-18.3c-1.2 2 37.9 18.6 36.5 21.1-1.2 2.2-41.9-24.9-43.1-22.9-.9 1.6 44.9 22.2 43.3 25-.8 1.4-44.8-25.3-45.7-23.7-1.5 2.5 49.6 25.8 48.3 27.9-1.9 3.2-50.5-30.9-51.8-28.6-1.4 2.5 58.2 28.8 56.1 32.4-1.7 3-51.8-32.2-53.1-30-1.1 1.8 50 25.7 48.6 28.1-1.6 2.8-49.3-29.9-50.7-27.6-2.2 3.7 56.4 27 54 31.2-2.3 4-56.8-36.7-58.7-33.4-1.5 2.6 58.3 29.6 56.6 32.7-1 1.7-54.4-32.8-56-30-1.7 3 63.9 32.7 62.1 35.8-1.1 2-62.1-39.5-63.9-36.4-1.2 2 59.4 31.4 58.1 33.6-1 1.8-56.1-34.6-58.1-31-1.5 2.6 60.1 31.7 58.8 33.9-1.5 2.6-58.4-35.7-59.7-33.5-1.6 2.8 67.1 32.4 64.4 37.2-2.7 4.7-67.2-40.8-68.5-38.5-3.6 6.2 100.5 50.9 97.4 56.2-3.5 6.1-98-62.9-101.5-56.9-3.5 6.1 102.9 52.1 99.7 57.6-3.1 5.4-96.6-63.1-100.1-57.2-3 5.1 104.5 56.1 102.7 59.3-3.5 6.1-97.6-63.4-101.1-57.2-4 6.9 102.8 50.3 98.9 57.1-4 6.9-100.1-61.9-102.6-57.6-2.4 4.1 109.8 58.2 107.5 62.1-4.1 7.2-100.5-62.5-102.6-58.9-3.7 6.3 104.8 51 100.7 58.2-2 3.4-104.3-63.4-106.5-59.5-2.6 4.6 108.3 56.6 105.7 61-3 5.2-104.6-64.9-107.3-60.2-3.2 5.5 112.3 59.7 110.1 63.6-4.5 7.8-109.6-69.8-113.7-62.7-4 6.9 118.4 61.9 115.6 66.7-2.3 3.9-107.8-69.5-112.2-61.9-3.2 5.5 114.6 57.1 110.7 63.9-3.3 5.8-112.1-70.8-115.6-64.8-2.7 4.6 119.3 61.8 116.2 67.1-3.7 6.5-109.9-72.8-114.1-65.6-3.9 6.7 115.5 58.3 111.9 64.6-2.1 3.7-112.9-72.5-116.4-66.5-3.2 5.6 123.9 64.1 120.7 69.7-3.6 6.3-114.9-74.7-118.6-68.3-4.6 8 122.6 64.3 119.8 69.2-4.6 7.9-115.9-74.6-119.8-67.8-3.2 5.6 121.2 61 117.3 67.7-3.2 5.6-111-73.9-115.3-66.4-4.5 7.8 119.9 57.7 114.9 66.3-3.4 5.8-116.8-70.6-119-66.8-4.3 7.4 121.2 63.5 118.4 68.3-2.1 3.7-113.5-70.5-116.4-65.4-4.9 8.5 119.8 58 115 66.4-2.4 4.2-113.1-74.2-117.8-66.1-5 8.7 122.1 64.4 119.4 68.9-4.5 7.7-119.6-77.4-124.1-69.7-4.5 7.8 127.5 67.8 125 72.2-2.3 3.9-116.9-75.8-120.9-68.7-3.1 5.4 125.2 62 120.7 69.7-2.8 4.9-121.3-78.5-125.5-71.2-4.9 8.5 125.2 64.4 121.8 70.3-2.3 3.9-119.6-75.2-123.4-68.6-4.4 7.7 128.2 66.8 125.1 72.2-3.7 6.4-115.9-73.5-119.6-67.2-5 8.7 125.4 61.9 120.9 69.8-3.3 5.8-121-78.6-125.5-70.8-4.9 8.4 124.9 66.2 122.4 70.7-4.3 7.4-117.2-76.2-121.3-69.1-3.1 5.3 127.5 66.2 124.3 71.8-2.7 4.7-118.6-77.2-122.9-69.9-3.4 5.8 122.5 64.9 119.9 69.3-3.8 6.6-118-71.1-120.3-67.1-5.2 9 125.4 66.3 122.8 70.9-2.8 4.9-119.2-76.6-123.6-69-4.6 8 122.5 64.9 120 69.3-3.4 6-117.3-74.3-120.5-68.8-4.1 7 126 62.7 121.6 70.2-4.1 7.2-117.9-76.7-122.6-68.5-4.2 7.2 126.2 62.3 121.7 70.2-3.2 5.5-122.1-80.4-126.9-72.1-2.7 4.6 130 69.8 127.7 73.7-4.3 7.5-121.3-75.6-124.3-70.4-3.1 5.4 126.2 66.6 123.4 71.3-4.4 7.6-125.4-76.9-128.2-72-5 8.6 129.9 63.4 124.9 72.1-3.9 6.7-117-75.4-120.7-69-2.8 4.8 127.9 63.2 123.3 71.2-4.4 7.6-118.6-78-122.7-70.8-4.7 8.2 124.2 62.4 120.2 69.4-2.8 4.8-116.4-75.4-120.3-68.7-3 5.2 126.9 61.8 121.9 70.4-4.3 7.4-119.5-76.3-122.8-70.6-4.5 7.8 120.2 62.8 117.3 67.7-3.8 6.6-114.9-70.4-117.8-65.4-4.7 8.1 125 63.9 121.4 70.1-3.2 5.6-117.8-73-120.7-67.9-3.1 5.3 119.7 59.3 115.5 66.7-3.2 5.5-113.3-75.4-118-67.3-3.2 5.5 123.1 65.3 120.6 69.6s-117.5-76.1-122.3-67.8c-3.6 6.2 124.5 63.3 120.8 69.8-3.6 6.3-119.1-74.5-121.8-69.8-3.6 6.3 123.8 62.6 120 69.3-3.8 6.6-119.3-78.6-124.3-70.1-2.8 4.8 127.7 64.2 123.6 71.4-4.2 7.2-121.3-74.8-123.8-70.5-4.7 8.2 122.8 65.5 120.5 69.6-4.3 7.4-120.7-75.5-124.3-69.2-3.9 6.8 130 65.7 126 72.7s-126.3-78.7-129.7-72.8c-3.2 5.5 131.6 68.9 128.6 74.2-3.1 5.3-128.4-80.3-131.3-75.2-4.1 7 130.7 65.1 126.2 72.8-4.1 7.1-123.8-81.4-128.4-73.4-2.5 4.3 133.7 65.5 128.6 74.3-5 8.6-122.5-78.7-126.7-71.5-4.8 8.4 128.2 64.4 124 71.6-3 5.1-125.3-80.5-129.3-73.6-2.6 4.5 137.4 69.7 133.3 76.9-4.1 7.1-128.3-81-132.3-74.1-2.5 4.2 129.2 66.5 125.7 72.6-4.6 8-125.4-76.9-128.3-71.8-2.4 4.2 134.1 68.7 130.3 75.2-2.3 4-125.7-82.9-130.8-74.1-3.9 6.7 127.4 66.2 124.2 71.7-3.8 6.6-121.4-75.2-124.8-69.4-3 5.1 129.2 64 124.6 71.9-2.4 4.1-126.8-78.1-129.2-74-5 8.7 133.3 69 129.9 75-4 6.9-124.6-77.8-127.8-72.1-5 8.6 128.4 65.4 124.6 71.9-3.2 5.6-123.3-80.1-128.3-71.4-3.1 5.3 129.5 62.9 124.3 71.8-2.3 4.1-123.3-76.9-127-70.6-2.8 4.9 122.6 62.9 119.2 68.8-4.3 7.5-116.8-75.2-121.2-67.6-4.4 7.7 120.2 60.6 116.4 67.2-4.2 7.3-116.7-72.6-119.3-68-4.4 7.7 122 59.9 117.4 67.8-2.4 4.2-115.4-71.5-117.9-67.2-4.7 8.2 120.3 62.5 117.3 67.7-2.8 4.9-115-71.5-118.2-66-3.9 6.8 116.2 58.6 112.6 65-4.1 7.1-104.9-69.8-109.3-62.2-3.4 5.9 111.9 55.6 108 62.4-3.7 6.4-106.7-69.1-110.1-63.2-2.3 4 115.9 59.9 112.9 65.2-2.9 5-111-71-114.9-64.3-3.9 6.8 115.8 59.2 112.5 64.9-4.4 7.7-108.4-68.3-111.7-62.7-4.3 7.4 110.3 59.2 108.3 62.5-1.9 3.3-104.8-66.9-108.3-60.8-2 3.5 103.9 53.6 101.2 58.4-4 7-100.4-61.4-102.6-57.6-4.3 7.4 104.7 54 101.9 58.8-1.8 3.1-97.7-59.8-100-55.8-3.6 6.2 101.8 53.6 99.6 57.5-2.1 3.7-103.1-65.4-106.3-59.9-2.8 4.8 104.6 53.4 101.6 58.6-2.6 4.6-93.8-59.3-97.3-53.3-2.1 3.7 97.2 47.8 93.6 54s-94.1-59.1-97.2-53.5c-1.9 3.2 95.9 46.5 92.1 53.1-3.5 6-88-54.4-90-50.9-2.6 4.4 89.1 46 86.8 50.1-2 3.5-84-53.3-86.6-48.9-2.2 3.8 90.8 44.9 87.5 50.5-3 5.2-85.1-54-87.7-49.5-2.1 3.6 85.7 44.7 83.7 48.3-1.9 3.3-81.1-52.8-84.5-46.9-3.2 5.5 81.6 41.3 79.1 45.7-2.9 5.1-75.8-48.3-78-44.5-1.7 3 78.8 40.8 76.8 44.3-1.8 3.2-79.2-47.7-80.7-45-3.4 5.9 82.4 42.8 80.3 46.4-1.4 2.4-76.4-46.5-78.3-43.1-2.3 3.9 76 36.7 72.9 42.1-2.2 3.8-73.2-46.9-75.8-42.3-2.5 4.2 74.6 39.5 73 42.2-2.3 4.1-73.2-45.8-75.2-42.4-2.8 4.9 75.3 38.2 73 42.2-2.7 4.7-71.2-43.8-72.9-40.9-2.6 4.5 75.2 38.2 72.9 42.1-1.8 3.1-71.5-43.3-73.1-40.6-2.1 3.6 76.3 37.4 73.4 42.4-2.5 4.3-67.4-42-69.9-37.8-1.9 3.3 61.7 29.4 59 34-1.2 2.1-57-33.7-58.3-31.5-2.1 3.6 59.4 29.5 57.3 33.1-1.6 2.7-59-36.4-60.3-34-1.8 3.2 59.8 29.7 57.7 33.3-2 3.5-52.5-32.6-54.6-28.9-2 3.4 51.6 26.5 50.2 29-1.7 3-52.5-32.6-53.9-30.4-2.1 3.7 54.6 26.5 52.4 30.2-1.1 2-50.5-29.2-51.8-27-1.2 2.1 47.7 23.1 45.8 26.4-1.4 2.5-40.5-24-41.9-21.6-.9 1.5 39.5 20.3 38.4 22.2-1.2 2.2-38.5-22.2-39.4-20.7-1.5 2.6 35.8 18.5 34.8 20.1-.8 1.3-30.4-19.2-31.4-17.6-.8 1.5 32.5 16.7 31.6 18.3-.7 1.2-29.2-16.6-29.9-15.3-1 1.8 31.6 16.5 30.9 17.8-1 1.7-28.3-16.6-28.9-15.6-1 1.7 22.8 11.8 22.2 12.8-.4.7-20.9-11.7-21.8-10.2-.5.8 16.2 8.1 15.7 9-.3.6-11.5-5.7-11.9-5.1-.4.7 9.7 4.9 9.4 5.4-.1.2-5-2.4-5.1-2.1-.1.2 2.1 1 2 1.1"/><path stroke="#999" stroke-linecap="round" stroke-linejoin="round" stroke-width=".4" d="m119.302 115.9 1.2.7c-.1.1-1.8-.3-1.8-.2l1.5.9c0 .1-1.7-.8-1.7-.7l1.6.9c-.1.1-2.7-.3-2.8-.1 0 .1 2.3 1.3 2.2 1.3-.1.2-4.4 0-4.5.3-.1.1 3.5 1.9 3.4 2-.1.2-3.5-2-3.6-1.9s3.5 1.9 3.5 2c-.1.2-4.8-1.3-4.9-1.1s4.3 2.3 4.2 2.4c-.2.3-5.1-2-5.2-1.8s4.9 2.6 4.8 2.7c-.2.3-6.2-2-6.4-1.7-.1.1 5.7 3 5.6 3.2-.1.1-4.3 0-4.4.1-.1.3.2-.2.1 0s-2.8-.5-2.8-.4c-.2.3 4.4 2 4.2 2.4-.1.2-2.9-1.1-3-1-.1.2 1 .3.9.5-.1.1-2.2.3-2.3.4-.2.4 1.9.4 1.6.9-.1.3-3.8-2-4-1.7s1.4.3 1.2.7c0 .1.1 2.3.1 2.4-.2.4 4.6 2.1 4.4 2.5-.1.2-5.8-3.2-5.9-2.9s3.2 1.5 3 1.7c-.1.1-4.9-.6-5.1-.3-.2.4 4.3 2 4.1 2.4 0 .1-2.2-.4-2.3-.3-.2.4 3.8 1.3 3.4 2-.3.5-7.2-3.5-7.3-3.2-.4.6 7.4 3.5 7.1 4.1-.4.6-10.6-5.2-10.9-4.6-.4.7 7.1 3.3 6.8 3.9-.2.4-6.8-3.9-7.1-3.5-.3.6 9.1 4.8 8.9 5.1-.2.4-7-3.4-7.2-3-.4.8 4.1 1.4 3.7 2.1-.3.5-7.2-2.9-7.3-2.7-.3.5 10.9 5.7 10.6 6.1-.2.4-5.6-3.2-5.7-3-.4.7 4 1.2 3.5 2-.2.3-9.1-3.7-9.2-3.4-.3.5 7.1 3.4 6.8 3.9-.2.4-8.1-3.4-8.3-3.1-.4.7 10 5.1 9.7 5.6-.5.9-13.1-5.7-13.5-4.9-.5.9 14 7.2 13.6 7.9-.2.3-10.1-3.8-10.4-3.1-.4.8 7.9 3.3 7.3 4.2-.3.6-12.1-5.9-12.4-5.3-.4.7 12.7 6.3 12.2 7.1-.3.6-9.8-6.2-10.2-5.6-.6 1 8.3 3.6 7.8 4.5-.2.4-12-7.1-12.4-6.5-.5.9 18.7 9.6 18.1 10.5-.5.8-15.7-10-16.2-9.2-.8 1.3 18.2 9.4 17.7 10.2-.7 1.2-17.4-10-18-9-.6 1.1 19.5 9.5 18.8 10.8-.5.8-16.2-10.6-16.8-9.5-.9 1.6 17.9 8 16.9 9.7-.6 1-20.9-11.1-21.3-10.4-1.1 1.9 26 13.4 25.3 14.6-.4.7-23.1-12.9-23.7-11.9-1.4 2.5 28 12.9 26.5 15.3-.6 1-28.7-17.4-29.9-15.3-1.6 2.7 33.8 17.6 33 19-1.4 2.3-36.8-22.4-38.2-20.1-1.4 2.4 38.9 20.7 38.1 22-.6 1.1-33.2-20.7-34.4-18.7-1 1.7 35.1 17 33.7 19.4-.9 1.5-37.5-23.4-38.8-21.1-1.5 2.7 35.6 18.1 34.5 19.9-.7 1.1-35.9-20.7-37-18.8-1.4 2.4 38.6 20 37.6 21.7s-31.8-18.8-32.8-17.1c-1.6 2.8 34.9 16.8 33.4 19.3-1 1.8-37.3-23.1-38.7-20.7-1.6 2.7 35.8 18.8 35 20.2-1.2 2-32-20.1-33.1-18.2-1 1.7 36.8 18.9 35.8 20.7-.7 1.2-30.3-18.9-31.4-17-1 1.7 28.8 15 28.1 16.2s-21.5-11-21.9-10.2c-1.2 2.1 24.3 12.6 23.7 13.7-.4.7-17.4-9.1-18.1-8-.8 1.4 14.3 7.2 13.9 8-.3.6-12.2-7.1-12.5-6.5-.7 1.1 14.2 6.6 13.5 7.8-.5.8-13.9-7-14.4-6.1-.6 1.1 13.7 6.3 13 7.5-.5.8-17.6-10.6-18.3-9.4-.4.7 19.3 10.3 18.9 10.9-.5.9-15.2-8.2-15.5-7.6-.5.8 14.9 7.7 14.5 8.4-.6 1.1-19-9.9-19.4-9.2-.7 1.2 16.5 7.8 15.7 9.1-.4.6-11.2-6.6-11.6-6-.4.7 14.7 7 14.1 8.1-.5.8-13-8.5-13.5-7.7-.7 1.2 11.5 5.3 11 6.3-.2.4-10.8-6.3-11.1-5.6-.4.7 13.4 6.1 12.7 7.3-.5.8-13.2-8.2-13.6-7.6-.6 1.1 8.5 4 8.1 4.7-.3.5-8.7-2.9-8.9-2.6-.6 1.1 12.8 6.3 12.4 7.1-.3.5-11.7-5.6-12-5.1-.4.7 7.2 2.9 6.6 3.8-.2.4-8.9-5.2-9.2-4.6-.4.7 12.2 6.3 11.9 6.9-.2.4-11.8-5-12.3-4.3-.4.7 11.4 5.5 10.9 6.3-.3.5-10.5-6.1-10.8-5.7-.4.7 9.4 4.4 9 5.2-.3.5-10-5-10.4-4.4-.3.5 10.3 4.9 9.9 5.7-.3.5-8.4-4.3-8.6-4-.5.9 5.7 2.7 5.4 3.1-.2.3-5.8-1.2-6-.9-.4.7 8.5 4 8.1 4.7-.3.5-9.3-3.8-9.5-3.4-.3.5 9.1 4.6 8.8 5.1-.2.4-10.7-6.2-10.9-5.8-.4.6 6.4 2.8 6 3.5-.2.4-7.3-4.1-7.6-3.6-.2.4 8.4 3.8 8 4.6-.2.3-4.3-1.1-4.4-.9-.4.7 2.6.7 2.2 1.3-.1.3-6.5-3.2-6.7-2.8s11.3 5.7 10.9 6.3c-.2.4-7.9-2.8-8.2-2.4-.2.3 2.8 1 2.5 1.5-.1.2-3.4.2-3.4.3-.2.3 6.7 3.3 6.4 3.7-.1.2-5.9-2.5-6.1-2.1-.3.4.5-.2.3.2-.1.1.9 3 .9 3.1-.2.3 1-.1.7.4-.1.2-4.9-2.5-5-2.3-.3.5 6.2 3.1 6 3.5-.1.1-3.1-.3-3.1-.2-.3.5 1.6.5 1.4.8-.1.1-3.6.3-3.7.5s2.6.9 2.3 1.3c-.1.2-6.6-1.5-6.8-1.2-.1.2 6.3 3.3 6.1 3.5-.2.4-6.6-1.9-6.8-1.5-.2.3 5.4 2.8 5.3 3.1-.2.3-5.4-2.5-5.5-2.3s5.1 2.6 5 2.9c-.1.2-4.8-2.1-4.9-2-.1.2.2-.1.1 0 0 .1-1 1.6-1.1 1.7-.1.2 4 2.1 3.9 2.2-.1.2-3.9-1.8-4.1-1.5-.1.1 3.7 1.9 3.6 2.1s-3.6-1.9-3.7-1.8c0 .1 3.5 1.9 3.4 2-.1.2-3.9-.5-4-.3-.1.1 2.8 1.5 2.7 1.6-.1.2-3.2-.2-3.3-.1 0 .1 2.1 1.2 2.1 1.2 0 .1-2.5.1-2.6.2 0 0 1.5.8 1.5.9-.1.1-1.7-.1-1.7-.1l1.2.7"/><path stroke="#666" d="M194.802 87.4c-.6-20.8-16.5-38.6-37.4-39.2-.7-28-23.6-45.4-51.3-43.2-24.3-4.6-47.4 15.7-49.2 44.4-2.2.3-7.7-.8-8.9 1.7-22.9-2.4-38.8 14.4-40.5 39.4-.7 22.3 19.9 39.9 41.1 41 .6.3 8.5.4 10.3-3 1.2 2.9 83.1 4.6 81.9.8 2.2 4.4 12.6 4.4 12.5.6 22.4 4 41.2-14.1 38.4-41.5 3.9 2.4 4.8 2.9 3.1-1Z"/><path stroke="#666" d="M71.002 151c-.9-1.5 16.5 12.8 16.8 14.4-.5 1.9-17.3 48.2-16.6 50.3-1 .6 48.9-49.3 48.5-50.6 1.1 1.1-15.5-16.4-15.7-17 .3 2 16.6-32.6 16.1-31.7-.2.9-49.8 30.8-49.1 34.6Z"/><path stroke="#4D4D4D" stroke-width=".75" d="M195.902 87.8c-3.3-21.2-20.5-36.9-37.2-40.3-4.9-24.5-28.9-45.3-52-46.5-26.3.9-48.5 21.7-51 47.3-.3 1.7-2.7 1.2-9.9.7-20.7.4-39 18.1-41.3 40.8 5.1 22.7 19.1 40.3 45.5 41.8 3.7-.3 8.6-.5 10.8-.3 2.5-1.4 78.6-1.8 82.9.4-.4-2 11.3-1.6 9.4-.7 24.1-1.4 39.9-18.1 43.7-40.4-.1-1.1-5-3.4-.9-2.8Z"/><path stroke="#4D4D4D" stroke-width=".75" d="M70.702 149.6c1.2-1.1 16.2 15.9 15.6 14.9 1.8 1.6-14.8 48.9-14.9 50.6-.6-.4 47.6-48.9 48.6-50.3.3 0-16.9-16.5-15.8-16.6-.9 1.5 16.4-30.9 16-33.2.5 1.1-50 34.2-49.5 34.6Z"/></g><defs><filter id="a" width="201.057" height="223.58" x=".123" y=".625" color-interpolation-filters="sRGB" filterUnits="userSpaceOnUse"><feFlood flood-opacity="0" result="BackgroundImageFix"/><feColorMatrix in="SourceAlpha" result="hardAlpha" values="0 0 0 0 0 0 0 0 0 0 0 0 0 0 0 0 0 0 127 0"/><feOffset dy="4"/><feGaussianBlur stdDeviation="2"/><feComposite in2="hardAlpha" operator="out"/><feColorMatrix values="0 0 0 0 0 0 0 0 0 0 0 0 0 0 0 0 0 0 0.25 0"/><feBlend in2="BackgroundImageFix" result="effect1_dropShadow_3_63"/><feBlend in="SourceGraphic" in2="effect1_dropShadow_3_63" result="shape"/></filter></defs></svg>