<svg width="162" height="127" viewBox="0 0 162 127" fill="none" xmlns="http://www.w3.org/2000/svg">
<g filter="url(#filter0_d_3_317)">
<path d="M149.702 86.8C149.602 86.9 153.102 88.6999 153.102 88.7999C153.002 88.8999 150.802 88.1999 150.702 88.2999C150.502 88.6999 151.602 88.5 151.402 88.7C151.402 88.7 150.302 88.1999 150.302 88.2999C150.102 88.6999 151.802 88.9 151.702 89.1C151.502 89.4 145.702 86.6 145.502 87C145.102 87.7 152.402 90.6 152.202 90.9C152.002 91.2 145.302 89.2 145.002 89.6C144.702 90.1 152.802 93.2 152.402 93.9C152.202 94.2 147.402 90.9 147.302 91.1C146.802 91.9 153.102 93.7999 152.802 94.2999C152.602 94.5999 144.802 90.8999 144.502 91.2999C144.002 92.0999 149.402 93.3 149.102 93.9C149.002 94.1 145.302 92.7 145.202 92.9C144.802 93.5 150.502 94.9 150.102 95.7C149.802 96.2 140.602 91.6 140.302 92C140.002 92.5 148.402 95.6 147.902 96.4C147.802 96.6 139.802 93.9999 139.702 94.2999C139.302 94.9999 147.602 98.1 147.302 98.7C146.902 99.3 137.102 93.5 136.902 94C136.502 94.7 150.602 100.7 150.102 101.6C149.802 102.1 140.502 96.2 140.302 96.6C140.002 97.1 145.202 98.6 144.802 99.2C144.602 99.5 139.202 97.3 139.002 97.6C138.502 98.5 146.902 100.8 146.302 101.8C145.802 102.6 134.902 94.9 134.502 95.5C134.102 96.1 144.002 100 143.502 100.7C143.402 100.9 135.902 98.2 135.602 98.5C135.202 99.2 147.502 104.4 147.102 105.1C146.902 105.5 134.302 97.4 134.002 98C133.702 98.5 141.202 101.5 140.902 102C140.802 102.2 134.702 100.5 134.502 100.9C134.202 101.5 139.402 103 139.102 103.5C139.002 103.7 133.702 101.1 133.602 101.3C133.202 101.9 143.402 105.5 142.802 106.6C142.302 107.5 129.802 99.5 129.502 99.9C128.902 100.9 142.602 106.4 142.102 107.2C141.502 108.2 125.902 98.3 125.402 99.2C124.802 100.2 137.802 105.2 137.402 106.1C137.002 106.7 125.502 98.9 125.102 99.6C124.602 100.4 139.202 107.1 138.902 107.6C138.502 108.3 126.802 100.8 126.402 101.5C125.802 102.6 135.502 105.3 134.902 106.4C134.402 107.2 122.502 100.2 122.202 100.7C121.802 101.3 137.802 108.9 137.502 109.5C137.102 110.2 127.202 103.4 127.002 103.8C126.402 104.8 135.802 107.4 135.102 108.5C134.802 108.9 120.802 101.5 120.502 102C120.102 102.7 132.102 107.8 131.702 108.5C131.302 109.1 118.302 101.7 117.902 102.3C117.402 103.2 132.602 109.9 132.202 110.5C131.402 111.8 112.302 100.3 111.602 101.5C110.902 102.7 131.102 111.6 130.602 112.5C130.202 113.2 111.102 102.4 110.302 103.7C109.602 104.8 126.502 111.2 125.702 112.6C125.002 113.8 100.902 98.4999 100.202 99.7999C99.6019 100.9 124.902 112.3 124.102 113.6C123.402 114.9 102.102 99.3 101.202 100.7C100.202 102.4 122.302 110.8 121.402 112.4C120.902 113.3 93.7019 95.2 92.9019 96.6C92.0019 98.1 125.802 113.6 124.902 115.1C124.002 116.7 94.9019 95.7 93.9019 97.4C92.6019 99.6 126.602 114.4 125.802 115.8C124.002 118.9 80.5019 87.6 79.0019 90.2C77.7019 92.4 123.102 112.1 121.602 114.8C120.402 116.8 81.3019 88.0999 79.7019 90.7999C78.0019 94.0999 123.002 111.3 121.002 114.7C119.502 117.3 68.8019 84.2 67.8019 85.9C65.9019 89.3 119.202 112.6 117.902 114.8C116.902 116.5 66.5019 83.9 65.2019 86.2C62.9019 90.2 116.502 110.6 114.202 114.5C113.102 116.5 60.7019 80.5 58.5019 84.3C56.1019 88.5 114.302 113.5 113.002 115.8C110.802 119.6 53.1019 78 50.8019 81.9C48.6019 85.7 112.302 114.6 111.002 116.7C109.902 118.6 55.3019 81.2 53.4019 84.5C51.9019 87.1 111.102 112.8 108.902 116.6C107.502 119 49.2019 78.6 47.1019 82.2C44.7019 86.3 104.802 111.7 103.102 114.5C102.002 116.4 44.5019 79 42.7019 82.2C40.6019 85.8 100.802 112.4 99.3019 114.9C97.7019 117.7 48.0019 83.4 46.4019 86.2C44.2019 90.1 97.7019 111.2 95.7019 114.6C94.2019 117.1 42.3019 80.9 40.4019 84.3C38.4019 87.7 87.5019 109.1 86.5019 110.9C84.9019 113.7 42.3019 82.8 40.8019 85.4C39.7019 87.4 85.5019 108.4 84.3019 110.5C83.4019 112.1 42.9019 84.3 41.5019 86.8C40.5019 88.5 70.0019 101.6 69.3019 102.8C68.4019 104.4 39.8019 86.9 39.2019 87.9C38.1019 89.7 59.8019 98.5 59.2019 99.5C58.7019 100.4 37.4019 87.5 36.7019 88.9C35.9019 90.3 50.7019 96 50.2019 96.7C49.8019 97.4 36.1019 88.4 35.7019 89.1C35.0019 90.3 50.8019 96.1 50.0019 97.4C49.5019 98.3 33.8019 88.9 33.2019 89.9C32.6019 91 46.6019 96 45.9019 97.2C45.4019 98 27.8019 86.3 27.1019 87.5C26.7019 88.2 45.7019 97.5 45.4019 98.1C44.9019 99 30.1019 89.8 29.7019 90.4C29.3019 91.2 43.7019 97.5999 43.4019 98.2999C42.8019 99.3999 24.1019 88.2 23.7019 88.9C23.0019 90.1 39.2019 96.2 38.5019 97.4C38.2019 98 27.8019 91.1 27.5019 91.7C27.1019 92.3 41.3019 98.1999 40.7019 99.2999C40.3019 100.1 28.5019 91.3 28.1019 92.1C27.5019 93.2 38.7019 97 38.2019 97.9C38.0019 98.3 27.8019 91.9 27.5019 92.5C27.1019 93.2 40.0019 98.2 39.4019 99.4C39.0019 100.2 26.9019 91.6 26.5019 92.2C25.9019 93.2 34.1019 95.7 33.8019 96.4C33.5019 96.9 24.6019 93.2 24.4019 93.5C23.8019 94.5 36.6019 99.4999 36.2019 100.3C35.9019 100.8 24.2019 94.5 23.9019 95C23.5019 95.7 30.8019 97.8 30.3019 98.7C30.1019 99.1 21.3019 93.4 20.9019 94C20.5019 94.7 33.1019 100.3 32.7019 100.8C32.4019 101.2 19.7019 94.8999 19.2019 95.7999C18.8019 96.5999 31.2019 101.7 30.7019 102.5C30.4019 103.1 19.3019 95.8999 19.1019 96.2999C18.7019 97.0999 29.3019 101.1 28.8019 101.9C28.5019 102.5 17.3019 95.9 16.8019 96.7C16.5019 97.3 28.4019 102.2 27.9019 103.1C27.6019 103.7 17.9019 97.8 17.7019 98.2C17.1019 99.2 24.9019 101.7 24.6019 102.2C24.3019 102.7 16.2019 99.3999 16.0019 99.7999C15.5019 100.6 26.8019 105 26.4019 105.8C26.0019 106.4 14.0019 100 13.7019 100.5C13.3019 101.1 25.8019 106.7 25.4019 107.3C25.1019 107.9 11.6019 99.1 11.3019 99.7C10.8019 100.5 21.0019 104.1 20.4019 105C20.1019 105.6 9.80191 98.7 9.40191 99.4C9.10191 99.9 21.3019 104.9 20.7019 105.9C20.4019 106.4 12.6019 102.3 12.4019 102.8C11.9019 103.7 18.8019 105.4 18.4019 106.2C18.2019 106.6 8.1019 100.5 7.7019 101.1C7.4019 101.6 23.0019 108.9 22.5019 109.7C22.1019 110.3 10.6019 104.3 10.2019 104.9C9.9019 105.3 17.0019 108 16.7019 108.6C16.5019 109 9.80191 106.6 9.60191 106.8C9.40191 107.2 19.7019 111.8 19.3019 112.4C19.2019 112.7 10.7019 108.1 10.4019 108.6C10.1019 109.2 13.4019 109.7 13.1019 110.2C13.0019 110.3 10.9019 111.4 10.9019 111.5C10.8019 111.7 11.6019 111.4 11.4019 111.8L10.3019 111.7C10.2019 111.9 12.7019 112.8 12.6019 113C12.5019 113.2 9.2019 111.1 9.2019 111.2C9.1019 111.4 12.6019 113 12.6019 113.1" stroke="#999999" stroke-width="0.4" stroke-linecap="round" stroke-linejoin="round"/>
<path d="M149.702 6.39994C149.602 6.49994 153.102 8.29994 153.102 8.29994C153.002 8.39994 150.802 7.69994 150.702 7.79994C150.502 8.19994 151.602 7.99993 151.402 8.19993C151.402 8.19993 150.302 7.69994 150.302 7.79994C150.102 8.19994 151.802 8.39993 151.702 8.59993C151.502 8.89993 145.702 6.09992 145.502 6.49992C145.102 7.19992 152.402 10.0999 152.202 10.3999C152.002 10.6999 145.302 8.69993 145.002 9.09993C144.702 9.59993 152.802 12.6999 152.402 13.3999C152.202 13.6999 147.402 10.3999 147.302 10.5999C146.802 11.3999 153.102 13.2999 152.802 13.7999C152.602 14.0999 144.802 10.3999 144.502 10.7999C144.002 11.5999 149.402 12.7999 149.102 13.3999C149.002 13.5999 145.302 12.1999 145.202 12.3999C144.802 12.9999 150.502 14.3999 150.102 15.1999C149.802 15.6999 140.602 11.0999 140.302 11.4999C140.002 11.9999 148.402 15.0999 147.902 15.8999C147.802 16.0999 139.802 13.4999 139.702 13.7999C139.302 14.4999 147.602 17.5999 147.302 18.1999C146.902 18.7999 137.102 12.9999 136.902 13.4999C136.502 14.1999 150.602 20.1999 150.102 21.0999C149.802 21.5999 140.502 15.6999 140.302 16.0999C140.002 16.5999 145.202 18.0999 144.802 18.6999C144.602 18.9999 139.202 16.7999 139.002 17.0999C138.502 17.9999 146.802 20.1999 146.202 21.2999C145.702 22.0999 134.802 14.3999 134.402 14.9999C134.002 15.5999 143.802 19.4999 143.402 20.1999C143.302 20.3999 135.802 17.6999 135.602 17.9999C135.202 18.6999 147.502 23.8999 147.102 24.5999C146.902 24.9999 134.302 16.8999 134.002 17.4999C133.702 17.9999 141.202 20.9999 140.902 21.4999C140.802 21.6999 134.702 20.0999 134.502 20.3999C134.202 20.9999 139.402 22.4999 139.102 22.9999C139.002 23.1999 133.702 20.5999 133.602 20.7999C133.202 21.3999 143.402 24.9999 142.802 26.0999C142.302 26.9999 129.802 18.9999 129.502 19.3999C128.902 20.3999 142.602 25.8999 142.102 26.6999C141.502 27.6999 125.902 17.7999 125.402 18.6999C124.902 19.6999 137.802 24.6999 137.402 25.5999C137.002 26.1999 125.502 18.3999 125.102 19.0999C124.602 19.8999 139.202 26.5999 138.902 27.0999C138.502 27.7999 126.802 20.2999 126.402 20.9999C125.802 22.0999 135.502 24.7999 134.902 25.8999C134.402 26.6999 122.502 19.6999 122.202 20.1999C121.802 20.7999 137.802 28.3999 137.502 28.9999C137.102 29.6999 127.202 22.8999 127.002 23.2999C126.402 24.2999 135.802 26.8999 135.102 27.9999C134.802 28.3999 120.802 20.9999 120.502 21.4999C120.102 22.1999 132.102 27.2999 131.702 27.9999C131.302 28.5999 118.302 21.1999 117.902 21.7999C117.402 22.6999 132.602 29.3999 132.202 29.9999C131.402 31.2999 112.302 19.7999 111.602 20.9999C110.902 22.1999 131.102 31.0999 130.602 31.9999C130.202 32.6999 111.102 21.8999 110.302 23.1999C109.602 24.2999 126.502 30.6999 125.702 32.0999C125.002 33.2999 100.902 17.9999 100.202 19.2999C99.6019 20.3999 124.902 31.7999 124.102 33.0999C123.402 34.3999 102.102 18.7999 101.202 20.1999C100.202 21.8999 122.302 30.2999 121.402 31.8999C120.902 32.7999 93.7019 14.5999 92.9019 16.0999C92.0019 17.5999 125.802 33.0999 124.902 34.5999C124.002 36.1999 94.9019 15.1999 93.9019 16.8999C92.6019 19.0999 126.602 33.8999 125.802 35.2999C124.002 38.3999 80.5019 7.09993 79.0019 9.69993C77.7019 11.8999 123.102 31.5999 121.602 34.2999C120.402 36.2999 81.3019 7.59994 79.7019 10.2999C78.0019 13.6999 123.002 30.8999 121.002 34.3999C119.502 36.9999 68.8019 3.89993 67.8019 5.59993C65.9019 8.99993 119.202 32.2999 117.902 34.4999C116.902 36.1999 66.5019 3.59994 65.2019 5.89994C62.9019 9.89994 116.502 30.2999 114.202 34.1999C113.102 36.1999 60.7019 0.19992 58.5019 3.99992C56.1019 8.19992 114.302 33.1999 113.002 35.4999C110.802 39.2999 53.1019 -2.30007 50.8019 1.59993C48.6019 5.39993 112.302 34.2999 111.002 36.3999C109.902 38.2999 55.3019 0.899932 53.4019 4.19993C51.9019 6.79993 111.102 32.4999 108.902 36.2999C107.502 38.6999 49.2019 -1.70006 47.1019 1.89994C44.7019 5.99994 104.802 31.3999 103.102 34.1999C102.002 36.0999 44.5019 -1.30006 42.7019 1.89994C40.6019 5.49994 100.802 32.0999 99.3019 34.5999C97.7019 37.3999 48.0019 3.09994 46.4019 5.89994C44.2019 9.79994 97.7019 30.8999 95.7019 34.2999C94.2019 36.7999 42.3019 0.59992 40.4019 3.99992C38.4019 7.39992 87.5019 28.7999 86.5019 30.5999C84.9019 33.3999 42.3019 2.49993 40.8019 5.09993C39.7019 7.09993 85.5019 28.0999 84.3019 30.1999C83.4019 31.7999 43.0019 3.99993 41.5019 6.59993C40.5019 8.29993 70.0019 21.3999 69.3019 22.5999C68.4019 24.1999 39.8019 6.69993 39.2019 7.69993C38.1019 9.49993 59.8019 18.2999 59.2019 19.2999C58.7019 20.1999 37.5019 7.29993 36.7019 8.69993C35.9019 10.0999 50.7019 15.7999 50.2019 16.4999C49.8019 17.1999 36.1019 8.19994 35.7019 8.89994C35.0019 10.0999 50.7019 15.8999 50.0019 17.1999C49.5019 18.0999 33.8019 8.69993 33.2019 9.69993C32.6019 10.7999 46.6019 15.7999 45.9019 16.9999C45.4019 17.7999 27.8019 6.09994 27.1019 7.29994C26.7019 7.99994 45.7019 17.2999 45.4019 17.8999C44.9019 18.7999 30.1019 9.59993 29.7019 10.1999C29.3019 10.9999 43.7019 17.3999 43.4019 18.0999C42.8019 19.1999 24.1019 7.99993 23.7019 8.69993C23.0019 9.89993 39.2019 15.9999 38.5019 17.1999C38.2019 17.7999 27.8019 10.9999 27.5019 11.4999C27.1019 12.0999 41.3019 17.9999 40.7019 19.0999C40.3019 19.8999 28.5019 11.0999 28.1019 11.8999C27.5019 12.9999 38.7019 16.7999 38.2019 17.6999C38.0019 18.0999 27.8019 11.6999 27.5019 12.2999C27.1019 12.9999 40.0019 17.9999 39.4019 19.1999C39.0019 19.9999 26.9019 11.3999 26.5019 11.9999C25.9019 12.9999 34.1019 15.4999 33.8019 16.1999C33.5019 16.6999 24.6019 12.9999 24.4019 13.2999C23.8019 14.2999 36.6019 19.2999 36.2019 20.0999C35.9019 20.5999 24.2019 14.2999 23.9019 14.7999C23.5019 15.4999 30.8019 17.5999 30.3019 18.4999C30.1019 18.8999 21.3019 13.1999 20.9019 13.7999C20.5019 14.4999 33.1019 20.0999 32.7019 20.5999C32.4019 20.9999 19.7019 14.6999 19.2019 15.5999C18.8019 16.3999 31.2019 21.4999 30.7019 22.2999C30.4019 22.8999 19.3019 15.6999 19.1019 16.0999C18.7019 16.8999 29.3019 20.8999 28.8019 21.6999C28.5019 22.2999 17.3019 15.6999 16.8019 16.4999C16.5019 17.0999 28.4019 21.9999 27.9019 22.8999C27.6019 23.4999 17.9019 17.5999 17.7019 17.9999C17.1019 18.9999 24.9019 21.4999 24.6019 21.9999C24.3019 22.4999 16.2019 19.1999 16.0019 19.5999C15.5019 20.3999 26.8019 24.7999 26.4019 25.5999C26.0019 26.1999 14.0019 19.7999 13.7019 20.2999C13.3019 20.8999 25.8019 26.4999 25.4019 27.0999C25.1019 27.6999 11.6019 18.8999 11.3019 19.4999C10.8019 20.2999 20.9019 23.8999 20.4019 24.7999C20.1019 25.3999 9.80191 18.4999 9.40191 19.1999C9.10191 19.6999 21.3019 24.6999 20.7019 25.6999C20.4019 26.1999 12.6019 22.0999 12.4019 22.5999C11.9019 23.4999 18.8019 25.1999 18.4019 25.9999C18.2019 26.3999 8.1019 20.2999 7.7019 20.8999C7.4019 21.3999 23.0019 28.6999 22.5019 29.4999C22.1019 30.0999 10.6019 24.0999 10.2019 24.6999C9.9019 25.0999 17.0019 27.7999 16.7019 28.3999C16.5019 28.7999 9.80191 26.3999 9.60191 26.5999C9.40191 26.9999 19.7019 31.5999 19.3019 32.1999C19.2019 32.4999 10.7019 27.8999 10.4019 28.3999C10.1019 28.9999 13.4019 29.4999 13.1019 29.9999C13.0019 30.0999 11.0019 31.1999 10.9019 31.2999C10.8019 31.4999 11.6019 31.1999 11.4019 31.5999C11.4019 31.5999 10.4019 31.4999 10.3019 31.4999C10.2019 31.6999 12.6019 32.5999 12.5019 32.7999C12.4019 32.9999 9.20191 30.8999 9.10191 30.9999C9.00191 31.1999 12.5019 32.7999 12.5019 32.8999" stroke="#999999" stroke-width="0.4" stroke-linecap="round" stroke-linejoin="round"/>
<path d="M149.702 46.6C149.602 46.7 153.102 48.5 153.102 48.6C153.002 48.7 150.802 48 150.702 48.1C150.502 48.5 151.602 48.2999 151.402 48.4999C151.402 48.4999 150.302 48 150.302 48.1C150.102 48.5 151.802 48.7 151.702 48.9C151.502 49.2 145.702 46.4 145.502 46.8C145.102 47.5 152.402 50.4 152.202 50.7C152.002 51 145.302 49 145.002 49.4C144.702 49.9 152.802 53 152.402 53.7C152.202 54 147.402 50.7 147.302 50.9C146.802 51.7 153.102 53.6 152.802 54.1C152.602 54.4 144.802 50.7 144.502 51.1C144.002 51.9 149.402 53.1 149.102 53.7C149.002 53.9 145.302 52.5 145.202 52.7C144.802 53.3 150.502 54.7 150.102 55.5C149.802 56 140.602 51.4 140.302 51.8C140.002 52.3 148.402 55.4 147.902 56.2C147.802 56.4 139.802 53.8 139.702 54.1C139.302 54.8 147.602 57.9 147.302 58.5C146.902 59.1 137.102 53.3 136.902 53.8C136.502 54.5 150.602 60.5 150.102 61.4C149.802 61.9 140.502 56 140.302 56.4C140.002 56.9 145.202 58.4 144.802 59C144.602 59.3 139.202 57.1 139.002 57.4C138.502 58.3 146.902 60.6 146.302 61.6C145.802 62.4 134.902 54.7 134.502 55.3C134.102 55.9 144.002 59.8 143.502 60.5C143.402 60.7 135.902 58 135.602 58.3C135.202 59 147.502 64.2 147.102 64.9C146.902 65.3 134.302 57.2 134.002 57.8C133.702 58.3 141.202 61.3 140.902 61.8C140.802 62 134.702 60.3 134.502 60.7C134.202 61.3 139.402 62.8 139.102 63.3C139.002 63.5 133.702 60.9 133.602 61.1C133.202 61.7 143.402 65.3 142.802 66.4C142.302 67.3 129.802 59.3 129.502 59.7C128.902 60.7 142.602 66.2 142.102 67C141.502 68 125.902 58.1 125.402 59C124.802 60 137.802 65 137.402 65.9C137.002 66.5 125.502 58.7 125.102 59.4C124.602 60.2 139.202 66.9 138.902 67.4C138.502 68.1 126.802 60.6 126.402 61.3C125.802 62.4 135.502 65.1 134.902 66.2C134.402 67 122.502 60 122.202 60.5C121.802 61.1 137.802 68.7 137.502 69.3C137.102 70 127.202 63.2 127.002 63.6C126.402 64.6 135.802 67.2 135.102 68.3C134.802 68.7 120.802 61.3 120.502 61.8C120.102 62.5 132.102 67.6 131.702 68.3C131.302 68.9 118.302 61.5 117.902 62.1C117.402 63 132.602 69.7 132.202 70.3C131.402 71.6 112.302 60.1 111.602 61.3C110.902 62.5 131.102 71.4 130.602 72.3C130.202 73 111.102 62.2 110.302 63.5C109.602 64.6 126.502 71 125.702 72.4C125.002 73.6 100.902 58.3 100.202 59.6C99.602 60.7 124.902 72.1 124.102 73.4C123.402 74.7 102.102 59.1 101.202 60.5C100.202 62.2 122.302 70.6 121.402 72.2C120.902 73.1 93.7019 55 92.9019 56.4C92.0019 57.9 125.702 73.3 124.902 74.9C124.002 76.5 94.9019 55.5 93.9019 57.2C92.6019 59.4 126.602 74.2 125.802 75.6C124.002 78.7 80.502 47.4 79.002 50C77.702 52.2 123.102 71.9 121.602 74.6C120.402 76.6 81.302 47.9 79.702 50.6C77.902 53.7 122.802 70.9 120.802 74.3C119.302 76.9 68.602 43.7999 67.602 45.4999C65.702 48.9 119.002 72.2 117.702 74.4C116.702 76.1 66.302 43.5 65.002 45.8C62.702 49.8 116.302 70.2 114.002 74.1C112.902 76.1 60.502 40.1 58.302 43.9C55.902 48.1 114.102 73.1 112.802 75.4C110.602 79.2 52.902 37.5999 50.602 41.4999C48.402 45.2999 112.102 74.2 110.802 76.3C109.702 78.2 55.102 40.8 53.202 44.1C51.702 46.7 110.902 72.4 108.702 76.2C107.302 78.6 49.002 38.2 46.902 41.8C44.502 45.9 104.602 71.3 102.902 74.1C101.802 76 44.302 38.6 42.502 41.8C40.402 45.4 100.602 72 99.102 74.5C97.502 77.3 47.802 43 46.202 45.8C44.002 49.7 97.502 70.8 95.502 74.2C94.002 76.7 42.102 40.5 40.202 43.9C38.202 47.3 87.302 68.7 86.302 70.5C84.702 73.3 42.102 42.4 40.602 44.9999C39.502 46.9999 85.302 68 84.102 70.1C83.202 71.7 42.702 43.9 41.302 46.4999C40.302 48.1999 69.802 61.3 69.102 62.5C68.202 64.1 39.602 46.6 39.002 47.6C37.902 49.4 59.602 58.2 59.002 59.2C58.502 60.1 37.202 47.2 36.502 48.6C35.702 50 50.502 55.7 50.002 56.4C49.602 57.1 35.902 48.1 35.502 48.8C34.802 50 50.502 55.8 49.802 57.1C49.302 58 33.602 48.6 33.002 49.6C32.402 50.7 46.402 55.7 45.702 56.9C45.202 57.7 27.602 46 26.902 47.2C26.502 47.9 45.502 57.2 45.202 57.8C44.702 58.7 29.902 49.5 29.502 50.1C29.102 50.9 43.502 57.3 43.202 58C42.602 59.1 23.902 47.9 23.502 48.6C22.802 49.8 39.002 55.9 38.302 57.1C38.002 57.7 27.602 50.9 27.302 51.4C26.902 52 41.102 57.9 40.502 59C40.102 59.8 28.302 51 27.902 51.8C27.302 52.9 38.502 56.7 38.002 57.6C37.802 58 27.602 51.6 27.302 52.2C26.902 52.9 39.802 57.9 39.202 59.1C38.802 59.9 26.702 51.3 26.302 51.9C25.702 52.9 33.902 55.4 33.602 56.1C33.302 56.6 24.402 52.9 24.202 53.2C23.602 54.2 36.402 59.2 36.002 60C35.702 60.5 24.002 54.2 23.702 54.7C23.302 55.4 30.602 57.5 30.102 58.4C29.902 58.8 21.102 53.1 20.702 53.7C20.302 54.4 32.902 60 32.502 60.5C32.202 60.9 19.502 54.6 19.002 55.5C18.602 56.3 31.002 61.4 30.502 62.2C30.202 62.8 19.102 55.6 18.902 56C18.502 56.8 29.102 60.8 28.602 61.6C28.302 62.2 17.102 55.6 16.602 56.4C16.302 57 28.202 61.9 27.702 62.8C27.402 63.4 17.702 57.5 17.502 57.9C16.902 58.9 24.702 61.4 24.402 61.9C24.102 62.4 16.002 59.1 15.802 59.5C15.302 60.3 26.602 64.7 26.202 65.5C25.802 66.1 13.802 59.7 13.502 60.2C13.102 60.8 25.602 66.4 25.202 67C24.902 67.6 11.402 58.8 11.102 59.4C10.602 60.2 20.702 63.8 20.202 64.7C19.902 65.3 9.60195 58.4 9.20195 59.1C8.90195 59.6 21.102 64.6 20.502 65.6C20.202 66.1 12.402 62 12.202 62.5C11.702 63.4 18.602 65.1 18.202 65.9C18.002 66.3 7.90195 60.2 7.50195 60.8C7.20195 61.3 22.802 68.6 22.302 69.4C21.902 70 10.402 64 10.002 64.6C9.70195 65 16.802 67.7 16.502 68.3C16.302 68.7 9.60195 66.3 9.40195 66.5C9.20195 66.9 19.502 71.5 19.102 72.1C19.002 72.4 10.502 67.8 10.202 68.3C9.90195 68.9 13.202 69.4 12.902 69.9C12.802 70 10.802 71.1 10.702 71.2C10.602 71.4 11.402 71.1 11.202 71.5L10.102 71.4C10.002 71.6 12.502 72.5 12.402 72.7C12.302 72.9 9.10195 70.8 9.00195 70.9C8.90195 71.1 12.402 72.7 12.402 72.8" stroke="#999999" stroke-width="0.4" stroke-linecap="round" stroke-linejoin="round"/>
<path d="M8.50194 110.7C11.9019 113.9 14.8019 114.3 21.5019 111.6C35.1019 98.9999 47.2019 90.7998 76.0019 107.5C91.3019 114.7 105.102 117.8 115.102 117.8C130.802 118.2 143.002 109 151.202 100.1C157.302 97.5999 158.602 92.9999 153.602 89.0999C152.702 85.5999 145.802 85.8998 142.202 88.6998C126.802 99.5998 117.202 109.7 83.9019 93.5999C44.3019 71.0999 23.3019 85.9999 9.50194 99.3999C5.80193 102.7 3.90194 107.4 8.50194 110.7Z" stroke="#666666"/>
<path d="M140.302 7.99992C129.402 19.1999 116.902 30.0999 84.0019 12.1999C43.5019 -10.2001 23.0019 6.29994 11.0019 19.3999C5.80186 21.7999 5.50186 27.1999 9.80186 30.2999C10.5019 34.1999 17.2019 34.1999 22.1019 30.6999C32.8019 18.7999 45.9019 9.49994 75.7019 26.3999C91.5019 34.5999 103.702 37.6999 114.002 36.7999C133.302 37.4999 143.202 28.1999 151.702 20.2999C157.902 16.9999 156.802 12.1999 151.802 8.79994C150.702 5.19994 146.302 4.89992 140.302 7.99992Z" stroke="#666666"/>
<path d="M20.2019 70.9998C33.6019 59.1998 47.1019 49.5998 75.9019 66.4998C92.5019 74.8998 102.902 78.2998 112.302 77.9998C132.102 78.0998 142.102 68.7999 151.602 60.3999C155.902 57.4999 158.602 52.4998 154.102 49.5998C151.502 45.4998 146.502 45.1999 141.902 48.3999C126.702 59.4999 117.402 68.5998 85.4019 52.0998C43.7019 30.0998 22.9019 45.7998 9.80194 58.4998C4.40194 62.2998 6.00193 66.9998 9.50193 69.4998C12.0019 73.2998 16.2019 74.7998 20.2019 70.9998Z" stroke="#666666"/>
<path d="M5.70187 110.5C14.2019 114 18.0019 114.1 19.0019 111.4C34.4019 99.3999 44.7019 90.4999 79.2019 107.4C91.1019 114.8 103.802 117.7 113.402 118.5C133.402 117.8 139.402 108.4 155.502 100.9C153.302 98.1999 155.702 92.9 154.202 89.6C151.502 86.4 147.502 85.3999 145.402 87.9999C127.302 100.3 118.602 109.7 85.1019 92.6C41.9019 71.3 27.8019 87.0999 7.30188 98.7999C8.80188 101.9 4.80187 107.1 5.70187 110.5Z" stroke="#4D4D4D" stroke-width="0.75"/>
<path d="M145.102 7.79997C124.702 19.6 116.602 29.4 84.4019 12.8C46.0019 -9.30003 27.9019 6.39997 9.20191 18.8C5.50191 21.6 3.50191 26.7 5.50191 30.4C11.0019 33.5 15.2019 34 17.6019 31.6C32.1019 19.3 46.7019 9.89995 79.9019 26.4999C90.8019 34.3999 102.302 37.5 114.302 37.9C131.502 37.8 141.702 28.2 152.302 20.2C153.502 17.5 157.402 12.6999 153.102 8.99995C152.102 5.89995 147.102 5.39997 145.102 7.79997Z" stroke="#4D4D4D" stroke-width="0.75"/>
<path d="M21.6019 71.5C37.4019 59.4 45.1019 50 79.3019 66.8C93.4019 74.9 102.202 77.6 114.302 78.3C134.002 77.3 140.802 68.4 154.402 60.6C154.002 57.7 156.502 53 155.902 49.5C149.402 46.4 147.702 45.8 142.402 48.4C125.702 60 115.102 69.6 87.2019 52.8C45.2019 31.4 22.6019 46.9 8.10194 59.1C7.00194 62.1 8.70194 66.9 9.00194 70.2C10.6019 73.7 19.3019 74.1 21.6019 71.5Z" stroke="#4D4D4D" stroke-width="0.75"/>
</g>
<defs>
<filter id="filter0_d_3_317" x="0.336426" y="0.658081" width="160.844" height="126.217" filterUnits="userSpaceOnUse" color-interpolation-filters="sRGB">
<feFlood flood-opacity="0" result="BackgroundImageFix"/>
<feColorMatrix in="SourceAlpha" type="matrix" values="0 0 0 0 0 0 0 0 0 0 0 0 0 0 0 0 0 0 127 0" result="hardAlpha"/>
<feOffset dy="4"/>
<feGaussianBlur stdDeviation="2"/>
<feComposite in2="hardAlpha" operator="out"/>
<feColorMatrix type="matrix" values="0 0 0 0 0 0 0 0 0 0 0 0 0 0 0 0 0 0 0.25 0"/>
<feBlend mode="normal" in2="BackgroundImageFix" result="effect1_dropShadow_3_317"/>
<feBlend mode="normal" in="SourceGraphic" in2="effect1_dropShadow_3_317" result="shape"/>
</filter>
</defs>
</svg>
