<svg width="202" height="225" viewBox="0 0 202 225" fill="none" xmlns="http://www.w3.org/2000/svg">
<g filter="url(#filter0_d_3_63)">
<path d="M171.802 52.8999C171.702 52.9999 176.302 55.3999 176.202 55.4999C176.002 55.8999 165.402 49.9999 165.102 50.4999C164.602 51.3999 182.902 59.3999 182.302 60.3999C181.902 61.1999 162.702 48.5999 162.302 49.2999C161.702 50.3999 180.202 58.4999 179.702 59.3999C178.902 60.6999 158.402 47.3999 157.702 48.4999C157.002 49.5999 184.302 61.7999 183.502 63.3999" stroke="#999999" stroke-width="0.4" stroke-linecap="round" stroke-linejoin="round"/>
<path d="M133.502 9.89995C133.402 10.1 133.902 9.89996 133.802 10.1C133.602 10.4 127.902 7.09995 127.702 7.39995C127.102 8.39995 134.402 10.5 134.102 11.1C134.002 11.3 127.202 6.99995 127.002 7.29995C126.402 8.29995 135.702 11.6 135.402 12.1C134.902 13 118.902 2.59995 118.302 3.69995C117.302 5.39995 141.602 16 141.102 16.9C140.302 18.3 114.902 2.39996 113.902 4.09996C113.002 5.69996 146.602 20.4 145.502 22.4C144.402 24.4 116.602 4.49996 116.002 5.49996C114.602 7.79996 146.902 21.6 146.202 22.9C145.402 24.2 112.302 2.39996 111.102 4.49996C109.602 7.09996 145.702 21.9 144.602 23.8C143.502 25.7 111.702 3.69996 110.702 5.49996C109.502 7.49996 148.602 24.1 147.202 26.6C146.002 28.8 105.302 1.69995 104.102 3.69995C103.202 5.29995 149.002 25.9 147.402 28.7C146.602 30.1 102.602 3.39996 101.702 4.99996C100.202 7.49996 151.302 30.8 150.002 32.9C148.102 36.1 99.502 1.99995 98.202 4.29995C96.802 6.79995 156.402 33.1 154.302 36.7C152.602 39.7 102.502 4.49995 101.202 6.69995C100.102 8.49995 151.202 32.4 149.802 34.8C148.202 37.6 100.502 4.89995 99.102 7.19995C96.902 10.9 155.502 34.2 153.102 38.4C150.802 42.4 96.302 1.69996 94.402 4.99996C92.902 7.59996 152.702 34.6 151.002 37.7C150.002 39.4 96.602 4.89996 95.002 7.69995C93.302 10.7 158.902 40.4 157.102 43.5C156.002 45.5 95.002 3.99996 93.202 7.09996C92.002 9.09996 152.602 38.5 151.302 40.7C150.302 42.5 95.202 6.09996 93.202 9.69995C91.702 12.3 153.302 41.4 152.002 43.6C150.502 46.2 93.6021 7.89996 92.3021 10.1C90.7021 12.9 159.402 42.5 156.702 47.3C154.002 52 89.502 6.49995 88.202 8.79995C84.602 15 188.702 59.7 185.602 65C182.102 71.1 87.602 2.09996 84.102 8.09996C80.602 14.2 187.002 60.2 183.802 65.7C180.702 71.1 87.202 2.59996 83.702 8.49996C80.702 13.6 188.202 64.6 186.402 67.8C182.902 73.9 88.8021 4.39996 85.3021 10.6C81.3021 17.5 188.102 60.9 184.202 67.7C180.202 74.6 84.102 5.79996 81.602 10.1C79.202 14.2 191.402 68.3 189.102 72.2C185.002 79.4 88.602 9.69995 86.502 13.3C82.802 19.6 191.302 64.3 187.202 71.5C185.202 74.9 82.902 8.09996 80.702 12C78.102 16.6 189.002 68.6 186.402 73C183.402 78.2 81.802 8.09995 79.102 12.8C75.902 18.3 191.402 72.4999 189.202 76.3999C184.702 84.1999 79.602 6.59996 75.502 13.7C71.502 20.6 193.902 75.5999 191.102 80.3999C188.802 84.2999 83.302 10.9 78.902 18.5C75.702 24 193.502 75.5999 189.602 82.3999C186.302 88.1999 77.502 11.6 74.002 17.6C71.302 22.2 193.302 79.4 190.202 84.7C186.502 91.2 80.302 11.9 76.102 19.1C72.202 25.8 191.602 77.4 188.002 83.7C185.902 87.4 75.102 11.2 71.602 17.2C68.402 22.8 195.502 81.2999 192.302 86.8999C188.702 93.1999 77.402 12.2 73.702 18.6C69.102 26.6 196.302 82.9 193.502 87.8C188.902 95.7 77.602 13.2 73.702 20C70.502 25.6 194.902 81 191.002 87.7C187.802 93.3 80.002 13.8 75.702 21.3C71.202 29.1 195.602 78.9999 190.602 87.5999C187.202 93.3999 73.802 17 71.602 20.8C67.302 28.2 192.802 84.2999 190.002 89.0999C187.902 92.7999 76.502 18.6 73.602 23.7C68.702 32.2 193.402 81.6999 188.602 90.0999C186.202 94.2999 75.5021 15.9 70.8021 24C65.8021 32.7 192.902 88.3999 190.202 92.8999C185.702 100.6 70.602 15.5 66.102 23.2C61.602 31 193.602 90.9999 191.102 95.3999C188.802 99.2999 74.202 19.6 70.202 26.7C67.102 32.1 195.402 88.6999 190.902 96.3999C188.102 101.3 69.602 17.9 65.4021 25.2C60.502 33.7 190.602 89.6 187.202 95.5C184.902 99.4 67.6021 20.3 63.8021 26.9C59.4021 34.6 192.002 93.6999 188.902 99.0999C185.202 105.5 73.0021 25.6 69.3021 31.9C64.3021 40.6 194.702 93.8 190.202 101.7C186.902 107.5 69.202 23.1 64.702 30.9C59.802 39.3 189.602 97.0999 187.102 101.6C182.802 109 69.9021 25.4 65.8021 32.5C62.7021 37.8 193.302 98.7 190.102 104.3C187.402 109 71.502 27.1 67.202 34.4C63.802 40.2 189.702 99.3 187.102 103.7C183.302 110.3 69.1021 32.6 66.8021 36.6C61.6021 45.6 192.202 102.9 189.602 107.5C186.802 112.4 70.402 30.9 66.002 38.5C61.402 46.5 188.502 103.4 186.002 107.8C182.602 113.8 68.702 33.5 65.502 39C61.402 46 191.502 101.7 187.102 109.2C183.002 116.4 69.202 32.5 64.502 40.7C60.302 47.9 190.702 103 186.202 110.9C183.002 116.4 64.1021 30.5 59.3021 38.8C56.6021 43.4 189.302 108.6 187.002 112.5C182.702 120 65.702 36.9 62.702 42.1C59.602 47.5 188.902 108.7 186.102 113.4C181.702 121 60.702 36.5 57.9021 41.4C52.9021 50 187.802 104.8 182.802 113.5C178.902 120.2 65.802 38.1 62.102 44.5C59.302 49.3 190.002 107.7 185.402 115.7C181.002 123.3 66.802 37.7 62.702 44.9C58.002 53.1 186.902 107.3 182.902 114.3C180.102 119.1 66.502 38.9 62.602 45.6C59.602 50.8 189.502 107.4 184.502 116C180.202 123.4 65.002 39.7 61.702 45.4C57.202 53.2 181.902 108.2 179.002 113.1C175.202 119.7 64.102 42.7 61.202 47.7C56.502 55.8 186.202 111.6 182.602 117.8C179.402 123.4 64.8021 44.8 61.9021 49.9C58.8021 55.2 181.602 109.2 177.402 116.6C174.202 122.1 64.102 41.2 59.4021 49.3C56.202 54.8 182.502 114.6 180.002 118.9C177.502 123.2 62.502 42.8 57.702 51.1C54.102 57.3 182.202 114.4 178.502 120.9C174.902 127.2 59.402 46.4 56.702 51.1C53.102 57.4 180.502 113.7 176.702 120.4C172.902 127 57.4021 41.8 52.4021 50.3C49.6021 55.1 180.102 114.5 176.002 121.7C171.802 128.9 54.702 46.9 52.202 51.2C47.502 59.4 175.002 116.7 172.702 120.8C168.402 128.2 52.002 45.3 48.4021 51.6C44.502 58.4 178.402 117.3 174.402 124.3C170.402 131.3 48.102 45.6 44.702 51.5C41.502 57 176.302 120.4 173.302 125.7C170.202 131 44.902 45.4 42.002 50.5C37.902 57.5 172.702 115.6 168.202 123.3C164.102 130.4 44.4021 41.9 39.8021 49.9C37.3021 54.2 173.502 115.4 168.402 124.2C163.402 132.8 45.902 45.5 41.702 52.7C36.902 61.1 169.902 117.1 165.702 124.3C162.702 129.4 40.402 43.8 36.402 50.7C33.802 55.2 173.802 120.4 169.702 127.6C165.602 134.7 41.402 46.6 37.402 53.5C34.902 57.7 166.602 120 163.102 126.1C158.502 134.1 37.7021 49.2 34.8021 54.3C32.4021 58.5 168.902 123 165.102 129.5C162.802 133.5 39.4021 46.6 34.3021 55.4C30.4021 62.1 161.702 121.6 158.502 127.1C154.702 133.7 37.102 51.9 33.702 57.7C30.702 62.8 162.902 121.7 158.302 129.6C155.902 133.7 31.502 51.5 29.102 55.6C24.102 64.3 162.402 124.6 159.002 130.6C155.002 137.5 34.402 52.8 31.202 58.5C26.202 67.1 159.602 123.9 155.802 130.4C152.602 136 32.502 50.3 27.502 59C24.402 64.3 157.002 121.9 151.802 130.8C149.502 134.9 28.5021 53.9 24.8021 60.2C22.0021 65.1 147.402 123.1 144.002 129C139.702 136.5 27.2021 53.8 22.8021 61.4C18.4021 69.1 143.002 122 139.202 128.6C135.002 135.9 22.502 56 19.902 60.6C15.502 68.3 141.902 120.5 137.302 128.4C134.902 132.6 21.902 56.9 19.402 61.2C14.702 69.4 139.702 123.7 136.702 128.9C133.902 133.8 21.702 57.4 18.502 62.9C14.602 69.7 134.702 121.5 131.102 127.9C127.002 135 26.2021 58.1 21.8021 65.7C18.4021 71.6 133.702 121.3 129.802 128.1C126.102 134.5 23.102 59 19.702 64.9C17.402 68.9 135.602 124.8 132.602 130.1C129.702 135.1 21.602 59.1 17.702 65.8C13.802 72.6 133.502 125 130.202 130.7C125.802 138.4 21.802 62.4 18.502 68C14.202 75.4 128.802 127.2 126.802 130.5C124.902 133.8 22.002 63.6 18.502 69.7C16.502 73.2 122.402 123.3 119.702 128.1C115.702 135.1 19.302 66.7 17.102 70.5C12.802 77.9 121.802 124.5 119.002 129.3C117.202 132.4 21.302 69.5 19.002 73.5C15.402 79.7 120.802 127.1 118.602 131C116.502 134.7 15.5021 65.5999 12.3021 71.0999C9.50207 75.8999 116.902 124.5 113.902 129.7C111.302 134.3 20.102 70.3999 16.602 76.3999C14.502 80.0999 113.802 124.2 110.202 130.4C106.602 136.6 16.102 71.2999 13.002 76.8999C11.102 80.0999 108.902 123.4 105.102 130C101.602 136 17.102 75.5999 15.102 79.0999C12.502 83.4999 104.202 125.1 101.902 129.2C99.902 132.7 17.9021 75.9 15.3021 80.3C13.1021 84.1 106.102 125.2 102.802 130.8C99.8021 136 17.702 76.8 15.102 81.3C13.002 84.9 100.802 126 98.8021 129.6C96.9021 132.9 17.7021 76.8 14.3021 82.7C11.1021 88.2 95.902 124 93.402 128.4C90.502 133.5 17.602 80.0999 15.402 83.8999C13.702 86.8999 94.202 124.7 92.202 128.2C90.402 131.4 13.002 80.5 11.502 83.2C8.10202 89.1 93.9021 126 91.8021 129.6C90.4021 132 15.402 83.1 13.502 86.5C11.202 90.4 89.502 123.2 86.402 128.6C84.202 132.4 13.202 81.7 10.602 86.3C8.102 90.5 85.202 125.8 83.602 128.5C81.302 132.6 10.402 82.6999 8.40205 86.0999C5.60205 90.9999 83.702 124.3 81.402 128.3C78.702 133 10.202 84.4999 8.50202 87.3999C5.90202 91.8999 83.702 125.6 81.402 129.5C79.602 132.6 9.90207 86.1999 8.30207 88.8999C6.20207 92.4999 84.602 126.3 81.702 131.3C79.202 135.6 14.3021 89.3 11.8021 93.5C9.90207 96.8 73.5021 122.9 70.8021 127.5C69.6021 129.6 13.802 93.8 12.502 96C10.402 99.6 71.9021 125.5 69.8021 129.1C68.2021 131.8 10.802 92.6999 9.50202 95.0999C7.70202 98.2999 69.302 124.8 67.202 128.4C65.202 131.9 14.702 95.8 12.602 99.5C10.602 102.9 64.2021 126 62.8021 128.5C61.1021 131.5 10.302 95.8999 8.90205 98.0999C6.80205 101.8 63.5021 124.6 61.3021 128.3C60.2021 130.3 10.802 99.1 9.50202 101.3C8.30202 103.4 57.2021 124.4 55.3021 127.7C53.9021 130.2 14.802 103.7 13.402 106.1C12.502 107.6 52.9021 126.4 51.8021 128.3C50.6021 130.5 13.302 106.1 12.402 107.6C10.902 110.2 48.202 126.1 47.202 127.7C46.402 129 16.8021 108.5 15.8021 110.1C15.0021 111.6 48.302 126.8 47.4021 128.4C46.7021 129.6 18.202 111.8 17.502 113.1C16.502 114.9 49.1021 129.6 48.4021 130.9C47.4021 132.6 20.102 114.3 19.502 115.3C18.502 117 42.302 127.1 41.702 128.1C41.302 128.8 20.802 116.4 19.902 117.9C19.402 118.7 36.102 126 35.602 126.9C35.302 127.5 24.102 121.2 23.702 121.8C23.302 122.5 33.402 126.7 33.102 127.2C33.002 127.4 28.102 124.8 28.002 125.1C27.902 125.3 30.102 126.1 30.002 126.2" stroke="#999999" stroke-width="0.4" stroke-linecap="round" stroke-linejoin="round"/>
<path d="M119.302 115.9L120.502 116.6C120.402 116.7 118.702 116.3 118.702 116.4L120.202 117.3C120.202 117.4 118.502 116.5 118.502 116.6L120.102 117.5C120.002 117.6 117.402 117.2 117.302 117.4C117.302 117.5 119.602 118.7 119.502 118.7C119.402 118.9 115.102 118.7 115.002 119C114.902 119.1 118.502 120.9 118.402 121C118.302 121.2 114.902 119 114.802 119.1C114.702 119.2 118.302 121 118.302 121.1C118.202 121.3 113.502 119.8 113.402 120C113.302 120.2 117.702 122.3 117.602 122.4C117.402 122.7 112.502 120.4 112.402 120.6C112.302 120.8 117.302 123.2 117.202 123.3C117.002 123.6 111.002 121.3 110.802 121.6C110.702 121.7 116.502 124.6 116.402 124.8C116.302 124.9 112.102 124.8 112.002 124.9C111.902 125.2 112.202 124.7 112.102 124.9C112.002 125.1 109.302 124.4 109.302 124.5C109.102 124.8 113.702 126.5 113.502 126.9C113.402 127.1 110.602 125.8 110.502 125.9C110.402 126.1 111.502 126.2 111.402 126.4C111.302 126.5 109.202 126.7 109.102 126.8C108.902 127.2 111.002 127.2 110.702 127.7C110.602 128 106.902 125.7 106.702 126C106.502 126.3 108.102 126.3 107.902 126.7C107.902 126.8 108.002 129 108.002 129.1C107.802 129.5 112.602 131.2 112.402 131.6C112.302 131.8 106.602 128.4 106.502 128.7C106.402 129 109.702 130.2 109.502 130.4C109.402 130.5 104.602 129.8 104.402 130.1C104.202 130.5 108.702 132.1 108.502 132.5C108.502 132.6 106.302 132.1 106.202 132.2C106.002 132.6 110.002 133.5 109.602 134.2C109.302 134.7 102.402 130.7 102.302 131C101.902 131.6 109.702 134.5 109.402 135.1C109.002 135.7 98.8021 129.9 98.5021 130.5C98.1021 131.2 105.602 133.8 105.302 134.4C105.102 134.8 98.502 130.5 98.202 130.9C97.902 131.5 107.302 135.7 107.102 136C106.902 136.4 100.102 132.6 99.9021 133C99.5021 133.8 104.002 134.4 103.602 135.1C103.302 135.6 96.4021 132.2 96.3021 132.4C96.0021 132.9 107.202 138.1 106.902 138.5C106.702 138.9 101.302 135.3 101.202 135.5C100.802 136.2 105.202 136.7 104.702 137.5C104.502 137.8 95.6021 133.8 95.5021 134.1C95.2021 134.6 102.602 137.5 102.302 138C102.102 138.4 94.2021 134.6 94.0021 134.9C93.6021 135.6 104.002 140 103.702 140.5C103.202 141.4 90.602 134.8 90.202 135.6C89.702 136.5 104.202 142.8 103.802 143.5C103.602 143.8 93.7021 139.7 93.4021 140.4C93.0021 141.2 101.302 143.7 100.702 144.6C100.402 145.2 88.6021 138.7 88.3021 139.3C87.9021 140 101.002 145.6 100.502 146.4C100.202 147 90.7021 140.2 90.3021 140.8C89.7021 141.8 98.6021 144.4 98.1021 145.3C97.9021 145.7 86.102 138.2 85.702 138.8C85.202 139.7 104.402 148.4 103.802 149.3C103.302 150.1 88.1021 139.3 87.6021 140.1C86.8021 141.4 105.802 149.5 105.302 150.3C104.602 151.5 87.9021 140.3 87.3021 141.3C86.7021 142.4 106.802 150.8 106.102 152.1C105.602 152.9 89.9021 141.5 89.3021 142.6C88.4021 144.2 107.202 150.6 106.202 152.3C105.602 153.3 85.3021 141.2 84.9021 141.9C83.8021 143.8 110.902 155.3 110.202 156.5C109.802 157.2 87.1021 143.6 86.5021 144.6C85.1021 147.1 114.502 157.5 113.002 159.9C112.402 160.9 84.3021 142.5 83.1021 144.6C81.5021 147.3 116.902 162.2 116.102 163.6C114.702 165.9 79.3021 141.2 77.9021 143.5C76.5021 145.9 116.802 164.2 116.002 165.5C115.402 166.6 82.8021 144.8 81.6021 146.8C80.6021 148.5 116.702 163.8 115.302 166.2C114.402 167.7 77.8021 142.8 76.5021 145.1C75.0021 147.8 112.102 163.2 111.002 165C110.302 166.1 75.1021 144.3 74.0021 146.2C72.6021 148.6 112.602 166.2 111.602 167.9C110.602 169.6 79.8021 149.1 78.8021 150.8C77.2021 153.6 113.702 167.6 112.202 170.1C111.202 171.9 74.9021 147 73.5021 149.4C71.9021 152.1 109.302 168.2 108.502 169.6C107.302 171.6 76.5021 149.5 75.4021 151.4C74.4021 153.1 112.202 170.3 111.202 172.1C110.502 173.3 80.9021 153.2 79.8021 155.1C78.8021 156.8 108.602 170.1 107.902 171.3C107.202 172.5 86.4021 160.3 86.0021 161.1C84.8021 163.2 110.302 173.7 109.702 174.8C109.302 175.5 92.3021 165.7 91.6021 166.8C90.8021 168.2 105.902 174 105.502 174.8C105.202 175.4 93.3021 167.7 93.0021 168.3C92.3021 169.4 107.202 174.9 106.502 176.1C106.002 176.9 92.6021 169.1 92.1021 170C91.5021 171.1 105.802 176.3 105.102 177.5C104.602 178.3 87.5021 166.9 86.8021 168.1C86.4021 168.8 106.102 178.4 105.702 179C105.202 179.9 90.502 170.8 90.202 171.4C89.702 172.2 105.102 179.1 104.702 179.8C104.102 180.9 85.7021 169.9 85.3021 170.6C84.6021 171.8 101.802 178.4 101.002 179.7C100.602 180.3 89.8021 173.1 89.4021 173.7C89.0021 174.4 104.102 180.7 103.502 181.8C103.002 182.6 90.5021 173.3 90.0021 174.1C89.3021 175.3 101.502 179.4 101.002 180.4C100.802 180.8 90.2021 174.1 89.9021 174.8C89.5021 175.5 103.302 180.9 102.602 182.1C102.102 182.9 89.4021 173.9 89.0021 174.5C88.4021 175.6 97.5021 178.5 97.1021 179.2C96.8021 179.7 88.402 176.3 88.202 176.6C87.602 177.7 101.002 182.9 100.602 183.7C100.302 184.2 88.9021 178.1 88.6021 178.6C88.2021 179.3 95.802 181.5 95.202 182.4C95.002 182.8 86.3021 177.2 86.0021 177.8C85.6021 178.5 98.2021 184.1 97.9021 184.7C97.7021 185.1 86.1021 179.7 85.6021 180.4C85.2021 181.1 97.0021 185.9 96.5021 186.7C96.2021 187.2 86.002 180.6 85.702 181C85.302 181.7 95.102 185.4 94.702 186.2C94.402 186.7 84.7021 181.2 84.3021 181.8C84.0021 182.3 94.602 186.7 94.202 187.5C93.902 188 85.8021 183.2 85.6021 183.5C85.1021 184.4 91.3021 186.2 91.0021 186.6C90.8021 186.9 85.2021 185.4 85.0021 185.7C84.6021 186.4 93.5021 189.7 93.1021 190.4C92.8021 190.9 83.8021 186.6 83.6021 187C83.3021 187.5 92.7021 191.6 92.4021 192.1C92.2021 192.5 81.7021 185.9 81.5021 186.3C81.1021 186.9 87.9021 189.1 87.5021 189.8C87.3021 190.2 80.2021 185.7 79.9021 186.2C79.7021 186.6 88.3021 190 87.9021 190.8C87.7021 191.1 83.6021 189.7 83.5021 189.9C83.1021 190.6 86.102 190.6 85.702 191.2C85.602 191.5 79.2021 188 79.0021 188.4C78.8021 188.8 90.3021 194.1 89.9021 194.7C89.7021 195.1 82.002 191.9 81.702 192.3C81.502 192.6 84.502 193.3 84.202 193.8C84.102 194 80.8021 194 80.8021 194.1C80.6021 194.4 87.502 197.4 87.202 197.8C87.102 198 81.3021 195.3 81.1021 195.7C80.8021 196.1 81.6021 195.5 81.4021 195.9C81.3021 196 82.3021 198.9 82.3021 199C82.1021 199.3 83.3021 198.9 83.0021 199.4C82.9021 199.6 78.1021 196.9 78.0021 197.1C77.7021 197.6 84.2021 200.2 84.0021 200.6C83.9021 200.7 80.9021 200.3 80.9021 200.4C80.6021 200.9 82.5021 200.9 82.3021 201.2C82.2021 201.3 78.7021 201.5 78.6021 201.7C78.5021 201.9 81.2021 202.6 80.9021 203C80.8021 203.2 74.3021 201.5 74.1021 201.8C74.0021 202 80.402 205.1 80.202 205.3C80.002 205.7 73.6021 203.4 73.4021 203.8C73.2021 204.1 78.802 206.6 78.702 206.9C78.502 207.2 73.302 204.4 73.202 204.6C73.102 204.8 78.302 207.2 78.202 207.5C78.102 207.7 73.4021 205.4 73.3021 205.5C73.2021 205.7 73.5021 205.4 73.4021 205.5C73.4021 205.6 72.4021 207.1 72.3021 207.2C72.2021 207.4 76.302 209.3 76.202 209.4C76.102 209.6 72.3021 207.6 72.1021 207.9C72.0021 208 75.802 209.8 75.702 210C75.602 210.2 72.1021 208.1 72.0021 208.2C72.0021 208.3 75.5021 210.1 75.4021 210.2C75.3021 210.4 71.5021 209.7 71.4021 209.9C71.3021 210 74.2021 211.4 74.1021 211.5C74.0021 211.7 70.9021 211.3 70.8021 211.4C70.8021 211.5 72.9021 212.6 72.9021 212.6C72.9021 212.7 70.4021 212.7 70.3021 212.8C70.3021 212.8 71.8021 213.6 71.8021 213.7C71.7021 213.8 70.1021 213.6 70.1021 213.6L71.3021 214.3" stroke="#999999" stroke-width="0.4" stroke-linecap="round" stroke-linejoin="round"/>
<path d="M194.802 87.4C194.202 66.6 178.302 48.8 157.402 48.2C156.702 20.2 133.802 2.79999 106.102 4.99999C81.8021 0.399989 58.7021 20.7 56.9021 49.4C54.7021 49.7 49.2021 48.6 48.0021 51.1C25.1021 48.7 9.20209 65.5 7.50209 90.5C6.80209 112.8 27.4021 130.4 48.6021 131.5C49.2021 131.8 57.1021 131.9 58.9021 128.5C60.1021 131.4 142.002 133.1 140.802 129.3C143.002 133.7 153.402 133.7 153.302 129.9C175.702 133.9 194.502 115.8 191.702 88.4C195.602 90.8 196.502 91.3 194.802 87.4Z" stroke="#666666"/>
<path d="M71.0021 151C70.1021 149.5 87.5022 163.8 87.8022 165.4C87.3022 167.3 70.5021 213.6 71.2021 215.7C70.2021 216.3 120.102 166.4 119.702 165.1C120.802 166.2 104.202 148.7 104.002 148.1C104.302 150.1 120.602 115.5 120.102 116.4C119.902 117.3 70.3021 147.2 71.0021 151Z" stroke="#666666"/>
<path d="M195.902 87.8C192.602 66.6 175.402 50.9 158.702 47.5C153.802 23 129.802 2.2 106.702 1C80.402 1.9 58.202 22.7 55.702 48.3C55.402 50 53.0021 49.5 45.8021 49C25.1021 49.4 6.80208 67.1 4.50208 89.8C9.60208 112.5 23.6021 130.1 50.0021 131.6C53.7021 131.3 58.6021 131.1 60.8021 131.3C63.3021 129.9 139.402 129.5 143.702 131.7C143.302 129.7 155.002 130.1 153.102 131C177.202 129.6 193.002 112.9 196.802 90.6C196.702 89.5 191.802 87.2 195.902 87.8Z" stroke="#4D4D4D" stroke-width="0.75"/>
<path d="M70.7021 149.6C71.9021 148.5 86.9022 165.5 86.3022 164.5C88.1022 166.1 71.5021 213.4 71.4021 215.1C70.8021 214.7 119.002 166.2 120.002 164.8C120.302 164.8 103.102 148.3 104.202 148.2C103.302 149.7 120.602 117.3 120.202 115C120.702 116.1 70.2021 149.2 70.7021 149.6Z" stroke="#4D4D4D" stroke-width="0.75"/>
</g>
<defs>
<filter id="filter0_d_3_63" x="0.122833" y="0.624634" width="201.057" height="223.58" filterUnits="userSpaceOnUse" color-interpolation-filters="sRGB">
<feFlood flood-opacity="0" result="BackgroundImageFix"/>
<feColorMatrix in="SourceAlpha" type="matrix" values="0 0 0 0 0 0 0 0 0 0 0 0 0 0 0 0 0 0 127 0" result="hardAlpha"/>
<feOffset dy="4"/>
<feGaussianBlur stdDeviation="2"/>
<feComposite in2="hardAlpha" operator="out"/>
<feColorMatrix type="matrix" values="0 0 0 0 0 0 0 0 0 0 0 0 0 0 0 0 0 0 0.25 0"/>
<feBlend mode="normal" in2="BackgroundImageFix" result="effect1_dropShadow_3_63"/>
<feBlend mode="normal" in="SourceGraphic" in2="effect1_dropShadow_3_63" result="shape"/>
</filter>
</defs>
</svg>
