<svg width="221" height="222" viewBox="0 0 221 222" fill="none" xmlns="http://www.w3.org/2000/svg">
<g filter="url(#filter0_d_3_5)">
<path d="M114.402 1.20007L115.802 2.00007C115.702 2.10007 113.102 1.10007 113.002 1.20007C112.902 1.30007 115.902 2.80006 115.802 2.80006C115.702 2.90006 112.602 1.00007 112.502 1.20007C112.402 1.30007 115.802 3.00007 115.802 3.10007C115.702 3.30007 110.802 1.30007 110.602 1.60007C110.402 1.90007 112.202 2.30007 112.202 2.50007C112.102 2.60007 110.202 4.00007 110.102 4.20007C109.902 4.50007 112.402 5.00006 112.202 5.40006L112.502 5.70007C112.202 6.20007 112.802 5.50006 112.602 5.80006C112.602 5.90006 110.402 6.20006 110.302 6.30006C110.002 6.80006 112.602 7.20007 112.402 7.50007C112.302 7.60007 110.402 7.40007 110.302 7.50007C110.102 7.80007 112.602 8.30007 112.402 8.70007C112.302 8.80007 109.202 8.60006 109.102 8.80006C109.002 9.00006 109.702 8.60007 109.402 9.00007C109.302 9.10007 110.402 12.1001 110.402 12.2001C110.202 12.5001 110.702 12.0001 110.602 12.3001C110.502 12.4001 108.702 12.4001 108.602 12.4001C108.402 12.7001 114.602 15.2001 114.302 15.7001C114.202 15.9001 110.502 14.0001 110.402 14.1001C110.302 14.3001 112.702 15.0001 112.502 15.3001C112.402 15.4001 110.502 15.7001 110.402 15.8001C110.102 16.3001 112.802 16.5001 112.502 17.0001C112.302 17.3001 108.602 15.0001 108.502 15.2001C108.302 15.5001 110.102 15.7001 109.902 16.0001C109.802 16.1001 111.702 19.1001 111.602 19.3001C111.402 19.6001 115.502 21.1001 115.302 21.4001C115.202 21.5001 110.602 18.9001 110.502 19.1001C110.402 19.3001 112.702 20.1001 112.602 20.3001C112.602 20.4001 110.602 21.6001 110.502 21.7001C110.302 22.0001 112.702 22.7001 112.602 22.9001C112.602 23.0001 113.202 24.2001 113.102 24.2001C112.902 24.5001 114.402 24.3001 114.102 24.8001C113.902 25.1001 110.102 23.3001 110.002 23.4001C109.702 23.9001 114.502 25.5001 114.302 25.9001C114.102 26.3001 107.802 23.3001 107.602 23.7001C107.302 24.1001 111.102 25.2001 110.902 25.6001C110.802 25.8001 107.902 24.3001 107.802 24.4001C107.602 24.8001 113.002 27.1001 112.902 27.3001C112.802 27.4001 110.602 27.0001 110.602 27.1001C110.302 27.6001 113.002 27.8001 112.702 28.3001C112.502 28.6001 108.202 27.0001 108.102 27.2001C107.902 27.5001 114.002 30.2001 113.802 30.5001C113.702 30.7001 110.702 28.9001 110.602 29.0001C110.302 29.4001 113.002 29.7001 112.702 30.2001C112.602 30.3001 109.202 30.0001 109.102 30.1001C108.902 30.4001 110.202 30.3001 110.002 30.6001C110.002 30.7001 109.002 31.7001 109.002 31.7001C108.802 32.1001 112.302 33.2001 112.102 33.5001C111.902 33.8001 107.602 33.5001 107.502 33.8001C107.302 34.1001 110.902 35.5001 110.802 35.7001C110.702 35.8001 107.402 36.3001 107.302 36.5001L108.702 37.3001" stroke="#999999" stroke-width="0.4" stroke-linecap="round" stroke-linejoin="round"/>
<path d="M114.402 178.5L115.802 179.3C115.702 179.4 113.102 178.4 113.002 178.5C112.902 178.6 115.902 180.1 115.802 180.1C115.702 180.2 112.602 178.3 112.502 178.5C112.402 178.6 115.802 180.3 115.802 180.4C115.702 180.6 110.802 178.6 110.602 178.9C110.402 179.2 112.202 179.6 112.202 179.8C112.102 179.9 110.202 181.3 110.102 181.5C109.902 181.8 112.402 182.3 112.202 182.7L112.502 183C112.202 183.5 112.802 182.8 112.602 183.1C112.602 183.2 110.402 183.5 110.302 183.6C110.002 184.1 112.602 184.5 112.402 184.8C112.302 184.9 110.402 184.7 110.302 184.8C110.102 185.1 112.602 185.6 112.402 186C112.302 186.1 109.202 185.9 109.102 186.1C109.002 186.3 109.702 185.9 109.402 186.3C109.302 186.4 110.402 189.4 110.402 189.5C110.202 189.8 110.702 189.3 110.602 189.6C110.502 189.7 108.702 189.7 108.602 189.7C108.402 190 114.602 192.5 114.302 193C114.202 193.2 110.502 191.3 110.402 191.4C110.302 191.6 112.702 192.3 112.502 192.6C112.402 192.7 110.502 193 110.402 193.1C110.102 193.6 112.802 193.8 112.502 194.3C112.302 194.6 108.602 192.3 108.502 192.5C108.302 192.8 110.102 193 109.902 193.3C109.802 193.4 111.702 196.4 111.602 196.6C111.402 196.9 115.502 198.4 115.302 198.7C115.202 198.8 110.602 196.2 110.502 196.4C110.402 196.6 112.702 197.4 112.602 197.6C112.602 197.7 110.602 198.9 110.502 199C110.302 199.3 112.702 200 112.602 200.2C112.602 200.3 113.202 201.5 113.102 201.5C112.902 201.8 114.402 201.6 114.102 202.1C113.902 202.4 110.102 200.6 110.002 200.7C109.702 201.2 114.502 202.8 114.302 203.2C114.102 203.6 107.802 200.6 107.602 201C107.302 201.4 111.102 202.5 110.902 202.9C110.802 203.1 107.902 201.6 107.802 201.7C107.602 202.1 113.002 204.4 112.902 204.6C112.802 204.7 110.602 204.3 110.602 204.4C110.302 204.9 113.002 205.1 112.702 205.6C112.502 205.9 108.202 204.3 108.102 204.5C107.902 204.8 114.002 207.5 113.802 207.8C113.702 208 110.702 206.2 110.602 206.3C110.302 206.7 113.002 207 112.702 207.5C112.602 207.6 109.202 207.3 109.102 207.4C108.902 207.7 110.202 207.6 110.002 207.9C110.002 208 109.002 209 109.002 209C108.802 209.4 112.302 210.5 112.102 210.8C111.902 211.1 107.602 210.8 107.502 211.1C107.402 211.3 108.702 211.6 108.602 211.7C108.602 211.7 107.402 212.4 107.302 212.5L108.702 213.3" stroke="#999999" stroke-width="0.4" stroke-linecap="round" stroke-linejoin="round"/>
<path d="M215.102 103.2L216.502 104C216.402 104.1 213.802 103.1 213.702 103.2C213.602 103.3 216.602 104.8 216.502 104.8C216.402 104.9 213.302 103 213.202 103.2C213.102 103.3 216.502 105 216.502 105.1C216.402 105.3 211.502 103.3 211.302 103.6C211.102 103.9 213.002 104.4 212.902 104.5C212.802 104.7 208.902 104.7 208.702 105C208.502 105.4 213.202 106.9 212.902 107.4C212.802 107.5 210.902 106.3 210.802 106.4C210.402 107 213.502 107.5 213.302 107.8C213.202 108 206.502 105.2 206.302 105.5C205.802 106.3 210.302 107 209.902 107.6C209.802 107.8 205.802 106.2 205.702 106.4C205.302 107.1 211.902 108.9 211.402 109.7C211.002 110.3 199.102 103.8 198.702 104.4C198.402 104.9 207.202 108.2 206.802 109.1C206.602 109.4 195.602 104.8 195.402 105.2C195.002 105.9 203.602 109.2 203.302 109.7C202.902 110.4 191.702 103.6 191.402 104.1C191.002 104.8 205.402 110.9 204.802 111.8C204.502 112.4 194.302 105.9 194.102 106.3C193.802 106.8 199.202 108.4 198.802 109C198.602 109.4 191.302 106 191.102 106.3C190.602 107.2 199.102 109.5 198.502 110.6C198.002 111.4 186.402 103.2 186.002 103.9C185.602 104.5 195.602 108.4 195.202 109.2C195.002 109.5 185.602 105.4 185.302 105.8C184.902 106.5 196.902 111.5 196.502 112.2C196.302 112.6 184.402 104.9 184.102 105.5C183.902 105.9 190.102 108.4 189.802 108.8C189.702 109 184.302 107.8 184.202 108.2C184.002 108.6 188.602 110.3 188.402 110.6C188.402 110.7 186.802 110.6 186.802 110.7C186.602 111 188.502 111 188.202 111.5C188.002 111.8 183.802 109.8 183.702 109.9C183.502 110.3 186.802 111.3 186.602 111.6C186.402 111.9 181.002 109.7 180.902 110C180.802 110.2 185.502 112.4 185.402 112.6C185.302 112.8 181.102 110.4 180.902 110.6C180.802 110.7 184.402 112.5 184.302 112.6C184.202 112.8 181.002 111.6 180.902 111.8M180.902 111.8L182.302 112.6C182.202 112.7 180.902 111.8 180.902 111.8Z" stroke="#999999" stroke-width="0.4" stroke-linecap="round" stroke-linejoin="round"/>
<path d="M39.202 103.2L40.602 104C40.502 104.1 37.902 103.1 37.802 103.2C37.702 103.3 40.702 104.8 40.602 104.8C40.502 104.9 37.402 103 37.302 103.2C37.202 103.3 40.602 105 40.602 105.1C40.502 105.3 35.602 103.3 35.402 103.6C35.202 103.9 37.102 104.4 37.002 104.5C36.902 104.7 33.002 104.7 32.802 105C32.602 105.4 37.302 106.9 37.002 107.4C36.902 107.5 35.002 106.3 34.902 106.4C34.502 107 37.602 107.5 37.402 107.8C37.302 108 30.602 105.2 30.402 105.5C29.902 106.3 34.402 107 34.002 107.6C33.902 107.8 29.902 106.2 29.802 106.4C29.402 107.1 36.002 108.9 35.502 109.7C35.102 110.3 23.202 103.8 22.802 104.4C22.502 104.9 31.302 108.2 30.902 109.1C30.702 109.4 19.702 104.8 19.502 105.2C19.102 105.9 27.702 109.2 27.402 109.7C27.002 110.4 15.802 103.6 15.502 104.1C15.102 104.8 29.502 110.9 28.902 111.8C28.602 112.4 18.402 105.9 18.202 106.3C17.902 106.8 23.302 108.4 22.902 109C22.702 109.4 15.402 106 15.202 106.3C14.702 107.2 23.202 109.5 22.602 110.6C22.102 111.4 10.502 103.2 10.102 103.9C9.70204 104.5 19.702 108.4 19.302 109.2C19.102 109.5 9.70205 105.4 9.40205 105.8C9.00205 106.5 21.002 111.5 20.602 112.2C20.402 112.6 8.50205 104.9 8.20205 105.5C8.00205 105.9 14.202 108.4 13.902 108.8C13.802 109 8.40204 107.8 8.30204 108.2C8.10204 108.6 12.702 110.3 12.502 110.6C12.502 110.7 10.902 110.6 10.902 110.7C10.702 111 12.602 111 12.302 111.5C12.102 111.8 7.90204 109.8 7.80204 109.9C7.60204 110.3 10.902 111.3 10.702 111.6C10.502 111.9 5.10205 109.7 5.00205 110C4.90205 110.2 9.60205 112.4 9.50205 112.6C9.40205 112.8 5.20205 110.4 5.00205 110.6C4.90205 110.7 8.50205 112.5 8.40205 112.6C8.30205 112.8 5.10205 111.6 5.00205 111.8M5.00205 111.8L6.40205 112.6C6.30205 112.7 5.00205 111.8 5.00205 111.8Z" stroke="#999999" stroke-width="0.4" stroke-linecap="round" stroke-linejoin="round"/>
<path d="M188.902 26.4L190.502 27.3C190.402 27.4 188.502 26.8 188.402 26.9C188.302 27.1 192.602 29.2 192.502 29.3C192.402 29.4 188.302 26.9 188.202 27.1C188.102 27.3 193.202 29.8 193.102 29.9C193.002 30.1 188.102 28.1 187.902 28.4C187.602 28.9 192.702 30.9 192.602 31.1C192.502 31.3 188.602 31.3 188.502 31.6C188.302 31.9 191.102 32.6 190.802 33V33.1C190.502 33.6 191.302 33 191.202 33.3C191.102 33.4 187.602 32.8 187.502 33C187.202 33.5 190.002 34 189.802 34.4C189.702 34.6 186.702 33.7 186.702 33.8C186.502 34.1 189.302 34.7 189.002 35.2C188.902 35.4 184.302 34.2 184.202 34.4C184.102 34.7 185.102 34.3 184.802 34.7C184.802 34.8 183.902 36.7 183.802 36.8C183.602 37.2 184.402 36.7 184.202 37C184.102 37.2 181.202 36.4 181.102 36.5C180.902 36.8 187.302 39.4 187.002 39.9C186.902 40.1 182.502 37.7 182.402 37.9C182.302 38.1 184.902 38.9 184.802 39.3C184.702 39.5 181.402 38.9 181.402 39C181.102 39.5 184.102 39.8 183.802 40.4C183.602 40.7 179.302 38 179.202 38.3C179.002 38.6 181.102 38.9 180.902 39.3C180.902 39.4 180.902 41.5 180.802 41.6C180.602 42 184.902 43.5 184.702 43.9C184.602 44.1 179.402 41 179.302 41.3C179.202 41.5 181.802 42.4 181.702 42.7C181.602 42.8 177.802 42.8 177.702 43C177.502 43.3 180.202 44.1 180.102 44.4L179.702 45.2C179.502 45.5 181.302 45.4 180.902 45.9C180.702 46.2 176.002 43.8 175.902 44C175.602 44.5 180.702 46.2 180.402 46.6C180.102 47.1 172.602 43.2 172.302 43.6C172.002 44.1 176.102 45.2 175.802 45.6C175.702 45.8 172.202 43.9 172.102 44.1C171.902 44.5 177.602 47 177.502 47.2C177.402 47.4 174.302 46.3 174.202 46.4C173.902 46.9 176.902 47.3 176.602 47.8C176.402 48.2 170.802 45.7 170.702 46C170.502 46.3 176.902 49.2 176.702 49.5C176.602 49.7 173.102 47.6 173.002 47.7C172.702 48.2 175.702 48.6 175.402 49.1C175.302 49.2 170.402 47.9 170.302 48.1C170.102 48.4 171.702 48.5 171.502 48.8C171.402 48.9 169.102 49 169.102 49.1C168.902 49.5 172.702 50.8 172.502 51.1C172.302 51.5 166.002 49.8 165.802 50.1C165.502 50.6 172.102 53.3 171.902 53.6C171.802 53.7 168.802 54.5 168.702 54.7C168.502 55 169.602 54.8 169.402 55.1C169.302 55.2 170.002 57.2 170.002 57.3L171.602 58.2" stroke="#999999" stroke-width="0.4" stroke-linecap="round" stroke-linejoin="round"/>
<path d="M63.802 151.5L65.402 152.4C65.302 152.5 63.402 151.9 63.302 152C63.202 152.2 67.502 154.3 67.402 154.4C67.302 154.5 63.202 152 63.102 152.2C63.002 152.4 68.102 154.9 68.002 155C67.902 155.2 63.002 153.2 62.802 153.5C62.502 154 67.702 156 67.502 156.2C67.402 156.4 63.502 156.4 63.402 156.7C63.202 157 66.002 157.7 65.802 158.1V158.2C65.502 158.7 66.302 158.1 66.202 158.4C66.102 158.5 62.602 157.9 62.502 158.1C62.202 158.6 65.002 159.1 64.802 159.5C64.702 159.7 61.702 158.8 61.702 158.9C61.502 159.2 64.302 159.8 64.002 160.3C63.902 160.5 59.302 159.3 59.202 159.5C59.102 159.8 60.102 159.4 59.802 159.8C59.802 159.9 58.902 161.8 58.802 161.9C58.602 162.3 59.402 161.8 59.202 162.1C59.102 162.3 56.202 161.5 56.102 161.6C55.902 161.9 62.302 164.5 62.002 165C61.902 165.2 57.502 162.8 57.402 163C57.302 163.2 59.902 164 59.802 164.4C59.702 164.6 56.402 164 56.402 164.1C56.102 164.6 59.102 164.9 58.802 165.5C58.602 165.8 54.302 163.1 54.202 163.4C54.002 163.7 56.102 164 55.902 164.4C55.902 164.5 55.902 166.6 55.802 166.7C55.602 167.1 59.902 168.6 59.702 169C59.602 169.2 54.402 166.1 54.302 166.4C54.202 166.6 56.802 167.5 56.702 167.8C56.602 167.9 52.802 167.9 52.702 168.1C52.502 168.4 55.202 169.2 55.102 169.5L54.702 170.3C54.502 170.6 56.302 170.5 55.902 171C55.702 171.3 51.002 168.9 50.902 169.1C50.602 169.6 55.702 171.3 55.402 171.7C55.102 172.2 47.602 168.3 47.302 168.7C47.002 169.2 51.102 170.3 50.802 170.7C50.702 170.9 47.202 169 47.102 169.2C46.902 169.6 52.602 172.1 52.502 172.3C52.402 172.5 49.302 171.4 49.202 171.5C48.902 172 51.902 172.4 51.602 172.9C51.402 173.3 45.802 170.8 45.702 171.1C45.502 171.4 51.902 174.3 51.702 174.6C51.602 174.8 48.102 172.7 48.102 172.8C47.802 173.3 50.802 173.7 50.502 174.2C50.402 174.3 45.502 173 45.402 173.2C45.202 173.5 46.802 173.6 46.602 173.9C46.502 174 44.202 174.2 44.202 174.2C44.002 174.6 47.802 175.9 47.602 176.2C47.402 176.6 41.102 174.9 40.902 175.2C40.602 175.7 47.202 178.4 47.002 178.7C46.902 178.8 43.902 179.6 43.802 179.8C43.602 180.1 44.702 179.9 44.502 180.2C44.402 180.3 45.102 182.3 45.102 182.4L46.702 183.3" stroke="#999999" stroke-width="0.4" stroke-linecap="round" stroke-linejoin="round"/>
<path d="M170.102 151.5C170.102 151.5 171.702 152.4 171.602 152.4C171.502 152.5 169.602 151.9 169.502 152C169.402 152.2 173.702 154.3 173.602 154.4C173.502 154.5 169.402 152 169.302 152.2C169.202 152.4 174.202 154.9 174.102 155C174.002 155.2 169.202 153.2 169.002 153.5C168.702 154 174.202 156.1 174.002 156.4C173.902 156.6 169.702 156.4 169.502 156.7C169.102 157.4 181.302 162.4 180.802 163.3C180.502 163.9 171.902 157.9 171.802 158.2C171.202 159.3 182.002 163.3 181.602 163.9C181.302 164.3 169.602 157.9 169.202 158.5C168.402 159.9 183.002 165.1 182.502 166.2C182.102 166.9 170.402 159.6 170.002 160.2C169.302 161.4 187.702 168.5 186.902 170C186.402 170.9 168.602 160.2 168.002 161.1C167.502 162 190.502 172 189.602 173.6C189.402 174 175.902 167.7 175.702 168.2C175.202 169.1 189.502 175.1 189.102 175.9C188.702 176.6 177.202 169.6 176.902 170.1C176.502 170.8 192.602 177.7 192.002 178.8C191.702 179.3 182.802 173.6 182.502 174C182.202 174.5 187.102 175.9 186.802 176.5C186.802 176.6 186.702 178 186.602 178.1C186.302 178.7 188.802 178.5 188.402 179.1C188.202 179.4 183.902 176.7 183.802 177C183.602 177.3 186.002 177.7 185.702 178.1C185.602 178.2 188.102 181.6 188.002 181.7C188.002 181.7 190.202 182.9 190.202 183C190.202 183 188.602 182.2 188.502 182.2C188.502 182.2 190.102 183.1 190.002 183.1" stroke="#999999" stroke-width="0.4" stroke-linecap="round" stroke-linejoin="round"/>
<path d="M45.0021 26.4C45.0021 26.4 46.6021 27.3 46.5021 27.3C46.4021 27.4 44.5021 26.8 44.4021 26.9C44.3021 27.1 48.6021 29.2 48.5021 29.3C48.4021 29.4 44.3021 26.9 44.2021 27.1C44.1021 27.3 49.1021 29.8 49.0021 29.9C48.9021 30.1 44.1021 28.1 43.9021 28.4C43.6021 28.9 49.1021 31 48.9021 31.3C48.8021 31.5 44.6021 31.3 44.4021 31.6C44.0021 32.3 56.3021 37.3 55.8021 38.2C55.5021 38.8 46.9021 32.8 46.8021 33.1C46.2021 34.2 57.0021 38.2 56.6021 38.8C56.3021 39.2 44.6021 32.7 44.2021 33.4C43.4021 34.8 58.1021 40.1 57.5021 41.1C57.1021 41.8 45.3021 34.5 45.0021 35.1C44.3021 36.3 62.8021 43.4 61.9021 44.9C61.4021 45.8 43.6021 35.1 43.0021 36C42.5021 36.9 65.5021 46.9 64.6021 48.4C64.4021 48.8 50.9021 42.6 50.7021 43C50.2021 43.9 64.5021 49.9 64.1021 50.7C63.7021 51.4 52.2021 44.4 51.9021 44.9C51.5021 45.6 67.6021 52.5 67.0021 53.6C66.7021 54.1 57.8021 48.5 57.5021 48.8C57.2021 49.3 62.1021 50.7 61.8021 51.3C61.8021 51.4 61.7021 52.8 61.6021 52.9C61.3021 53.5 63.8021 53.3 63.4021 53.9C63.2021 54.2 58.9021 51.5 58.8021 51.8C58.6021 52.1 61.0021 52.5 60.7021 52.9C60.6021 53 63.1021 56.4 63.0021 56.6C63.0021 56.6 65.2021 57.8 65.2021 57.9C65.2021 57.9 63.6021 57.1 63.5021 57.1C63.5021 57.1 65.1021 58 65.0021 58" stroke="#999999" stroke-width="0.4" stroke-linecap="round" stroke-linejoin="round"/>
<path d="M136.202 58.6C136.102 58.7 140.802 61.1 140.802 61.2C140.602 61.5 134.402 57.8 134.202 58.2C133.702 59.2 140.402 61 140.102 61.6C140.002 61.8 133.602 57.7 133.502 58C132.902 59 141.602 62 141.302 62.5C140.802 63.3 125.502 53.4 124.902 54.5C123.902 56.2 147.602 66.5 147.102 67.3C146.302 68.7 121.502 53.2 120.602 54.9C119.702 56.4 152.502 70.8 151.402 72.7C150.302 74.6 123.302 55.3 122.702 56.3C121.402 58.6 152.702 71.9 152.002 73.2C151.302 74.5 118.902 53.3 117.802 55.2C116.402 57.7 151.502 72.1 150.402 74C149.402 75.8 118.402 54.5 117.402 56.2C116.302 58.2 154.302 74.3 152.902 76.7C151.702 78.8 112.002 52.4 110.802 54.4C109.902 56 154.502 76.1 153.002 78.8C152.202 80.2 109.402 54.2 108.502 55.8C107.102 58.3 156.802 80.9 155.602 83C153.802 86.1 106.302 52.9 105.002 55.1C103.602 57.5 161.802 83.2 159.802 86.7C158.102 89.6 109.302 55.3 108.002 57.5C107.002 59.3 156.602 82.5 155.202 84.8C153.602 87.5 107.302 55.8 106.002 58.1C103.902 61.8 160.802 84.3 158.502 88.4C156.202 92.3 103.202 52.6 101.302 55.9C99.802 58.4 158.102 84.7 156.302 87.7C155.402 89.3 103.302 55.8 101.702 58.5C100.002 61.4 163.902 90.3 162.102 93.4C161.002 95.3 101.702 55 99.902 58C98.802 60 157.502 88.5 156.302 90.6C155.302 92.3 102.002 57.2 100.002 60.7C98.502 63.3 158.202 91.3 156.902 93.6C155.402 96.1 100.302 59 99.002 61.2C97.402 63.9 164.102 92.6 161.402 97.2C158.802 101.8 96.202 57.6 94.902 59.8C92.402 64.1 163.702 94.6 161.602 98.3C159.102 102.5 93.302 55 90.902 59.2C88.502 63.4 160.402 94.3 158.202 98.1C156.102 101.7 92.902 55.7 90.602 59.7C88.602 63.2 161.602 97.7 160.302 99.9C157.902 104 94.602 57.6 92.202 61.7C89.502 66.4 159.902 94.6 157.302 99.3C154.702 103.9 90.102 58.3 88.502 61.1C86.902 63.9 162.702 100.4 161.102 103C158.402 107.7 94.802 61.8 93.402 64.2C90.902 68.5 161.802 97.2 159.002 102.1C157.702 104.4 89.202 60.4 87.702 62.9C85.902 66 158.902 100 157.202 103C155.202 106.5 88.102 60.7 86.302 63.8C84.202 67.5 160.702 103.3 159.202 105.9C156.202 111.1 85.402 59.9 82.702 64.6C80.002 69.3 161.902 106 160.002 109.2C158.502 111.8 89.102 64.6 86.302 69.5C84.202 73.2 160.202 106.1 157.502 110.6C155.302 114.4 83.702 64.6 81.402 68.6C79.602 71.7 159.702 109.1 157.602 112.6C155.202 116.8 86.202 65.4 83.502 70.1C80.902 74.6 157.702 107.3 155.302 111.5C153.902 113.9 81.302 64.2 79.002 68.1C76.802 71.9 161.402 110.8 159.302 114.5C156.902 118.6 83.502 65.3 81.002 69.5C77.902 74.8 162.202 112 160.402 115.3C157.402 120.5 83.702 66.4 81.102 70.9C78.902 74.6 160.002 110.5 157.402 115C155.302 118.6 85.802 67.5 83.002 72.3C80.002 77.5 160.202 109.2 156.802 114.9C154.602 118.7 80.302 69.4 78.902 71.8C76.002 76.7 157.602 112.9 155.702 116.1C154.302 118.5 82.802 71.4 80.902 74.7C77.602 80.4 157.102 111.3 153.902 116.8C152.402 119.5 81.102 69.8 78.102 75C74.802 80.8 156.802 116.4 155.002 119.4C152.102 124.5 76.402 69.2 73.502 74.3C70.502 79.4 157.102 118.8 155.502 121.6C154.002 124.1 80.302 73.3 77.702 77.8C75.602 81.4 158.002 117.4 155.102 122.5C153.202 125.7 75.802 71.6 73.002 76.4C69.802 82 153.402 117.6 151.202 121.5C149.802 124 73.902 73.9 71.502 78.1C68.602 83.1 154.402 121.2 152.402 124.8C150.102 128.8 79.402 79.2 77.102 83.2C73.802 88.9 156.302 122.1 153.302 127.2C151.202 130.9 75.402 77.2 72.502 82.2C69.302 87.7 151.502 124 149.802 126.9C147.102 131.5 76.102 79.4 73.602 83.8C71.602 87.2 154.702 125.8 152.702 129.4C151.002 132.4 77.802 81 75.102 85.7C72.902 89.5 151.202 125.9 149.602 128.7C147.302 132.8 76.302 85.4 74.802 87.9C71.502 93.7 153.302 129.3 151.602 132.3C149.802 135.4 76.902 85.2 74.102 89.9C71.102 95 149.102 129.5 147.502 132.3C145.402 135.9 75.602 87 73.602 90.4C71.002 94.9 151.202 128.8 148.502 133.6C146.002 138 75.602 87 72.702 92.1C70.102 96.7 150.102 130.1 147.202 135.1C145.202 138.6 70.502 85 67.502 90.3C65.802 93.2 149.202 134.2 147.802 136.7C145.102 141.3 72.902 90.5 71.002 93.7C69.002 97.1 148.402 134.5 146.702 137.4C144.002 142.1 68.102 90 66.302 93C63.202 98.3 146.102 131.9 142.902 137.3C140.602 141.3 72.702 92.4 70.502 96.2C68.802 99.2 148.302 134.5 145.402 139.4C142.802 144 73.602 92.2 71.102 96.5C68.202 101.6 145.402 133.6 142.902 137.9C141.202 140.8 73.302 93.2 71.002 97.2C69.102 100.4 147.502 134.2 144.402 139.6C141.802 144.1 72.102 93.6 70.202 97C67.402 101.8 140.702 133.6 138.902 136.7C136.702 140.6 71.502 96.5 69.802 99.4C67.002 104.3 144.202 137.3 142.002 141.1C140.102 144.4 72.302 98.7 70.602 101.7C68.802 104.9 139.002 135.3 136.402 139.7C134.602 142.9 70.902 96.4 68.202 101.1C66.302 104.4 140.502 139.4 139.002 142C137.602 144.4 71.202 99.3 68.502 104.1C66.402 107.7 139.202 139.9 137.002 143.7C135.002 147.2 70.302 102.2 68.802 104.9C66.702 108.5 137.302 139.4 135.102 143.2C133.102 146.7 70.602 101.5 67.902 106.1C66.402 108.8 136.402 140.4 134.102 144.3C131.902 148 70.802 105.8 69.502 108C67.002 112.4 131.902 141.1 130.602 143.3C128.502 146.9 71.602 107.7 69.902 110.8C67.902 114.3 133.902 143 131.802 146.5C129.902 149.8 71.102 109.8 69.502 112.6C68.002 115.3 131.902 145.1 130.402 147.7C128.902 150.2 69.002 109.6 67.602 112C65.702 115.4 127.302 141.5 125.102 145.2C123.202 148.4 68.502 108.4 66.402 112C65.202 114 127.602 141.8 125.202 145.9C123.102 149.6 72.602 113.1 70.802 116.2C68.602 120 124.002 142.5 122.102 145.8C120.802 148 68.702 112.1 67.002 115C65.902 117 127.702 145.8 125.802 149C124.102 151.9 72.802 116.9 71.202 119.7C70.202 121.5 120.202 144.6 118.702 147.1C117.002 150 73.202 120.7 72.102 122.5C71.202 124.1 121.502 147.7 120.102 150.2C119.302 151.6 75.502 121.7 73.702 124.8C72.302 127.2 114.302 145.6 113.102 147.6C112.002 149.4 78.502 128.1 77.602 129.7C76.702 131.3 113.502 147.1 112.102 149.6C111.402 150.8 74.602 126.9 73.902 128.1C72.402 130.8 113.502 148.5 112.402 150.3C111.402 152.1 79.902 131.3 79.102 132.7C77.802 135 109.502 147.9 108.502 149.7C107.802 150.8 82.502 135 81.502 136.7C80.902 137.7 103.402 147.1 102.402 148.8C102.102 149.3 87.702 141.7 87.302 142.5C87.202 142.6 91.902 145 91.902 145.1" stroke="#999999" stroke-width="0.4" stroke-linecap="round" stroke-linejoin="round"/>
<path d="M115.302 37.2C115.302 37.7 107.602 37.1 107.602 37.5C107.602 37 107.602 0.899998 107.602 2.4C107.602 1.2 115.302 0.700001 115.202 1.7C115.402 1.7 115.302 37.3 115.302 37.2Z" stroke="#666666"/>
<path d="M115.202 212.6C115.302 213.3 107.602 213.5 107.602 213.4C107.502 213.2 107.502 178.3 107.702 179.1C107.702 178.4 115.302 178.7 115.202 178.9C115.202 178.7 115.302 213.7 115.202 212.6Z" stroke="#666666"/>
<path d="M181.502 112.4C181.502 112.3 181.502 103.4 181.902 103.5C181.302 103.3 216.002 103.6 215.702 103.5C216.002 103.4 215.902 112.4 215.802 112.3C216.102 112.4 181.602 112.6 181.502 112.4Z" stroke="#666666"/>
<path d="M5.50201 112.6C5.40201 112.5 5.80201 103.4 5.80201 103.7C5.50201 103.6 40.202 103.4 40.002 103.6C40.202 103.6 40.102 112.6 39.902 112.4C40.002 112.5 5.30201 112.6 5.50201 112.6Z" stroke="#666666"/>
<path d="M170.902 57.1C170.702 57.5 164.302 51.8 164.702 52C164.302 51.1 189.502 25.9 189.202 27C189.802 26.1 195.702 32.7 195.702 33.4C196.002 32.3 170.402 57.5 170.902 57.1Z" stroke="#666666"/>
<path d="M45.7021 182.3C45.3021 182.8 39.3021 176.6 39.2021 177.2C39.1021 176.3 64.5021 151.7 64.0021 151.9C64.6021 151 71.0021 157.5 70.2021 157.8C70.7021 157.6 45.4021 183.6 45.7021 182.3Z" stroke="#666666"/>
<path d="M164.502 158.5C164.402 157.7 170.602 151.9 170.902 152.2C170.802 151.9 195.902 177.3 195.602 176.3C196.002 176.9 189.702 183.1 189.602 183C189.502 183.4 164.502 157.5 164.502 158.5Z" stroke="#666666"/>
<path d="M39.3021 33.4C39.2021 32.2 45.4021 26.3 45.6021 26.7C45.5021 27 70.7021 51.8 70.7021 51.2C70.8021 51.4 64.5021 58.2 64.3021 58C64.3021 58.2 39.0021 32.4 39.3021 33.4Z" stroke="#666666"/>
<path d="M162.702 102C163.902 127.9 140.702 151.9 114.302 150.5C86.002 150.5 64.502 127.8 66.002 101.5C65.402 75.8001 87.202 52.2001 113.702 52.9001C140.702 52.1001 163.002 74.1001 162.702 102Z" stroke="#666666"/>
<path d="M115.202 37.2999C115.202 37.0999 107.802 37.4 107.702 37.1C107.802 37.3 107.702 1.59995 107.602 1.19995C107.602 1.49995 115.302 1.79995 115.402 1.49995C115.302 1.49995 115.102 37.2999 115.202 37.2999Z" stroke="#4D4D4D" stroke-width="0.75"/>
<path d="M115.302 213C115.102 212.8 107.602 212.9 107.702 213.6C107.702 213 107.602 178.6 107.502 178.7C107.602 179.3 115.202 179 115.402 178.5C115.302 178.9 115.302 212.8 115.302 213Z" stroke="#4D4D4D" stroke-width="0.75"/>
<path d="M181.902 112.6C182.402 112.4 181.202 103.6 181.502 103.5C182.202 103.5 216.502 103.6 216.102 103.5C215.602 103.5 216.302 112.4 216.002 112.5C215.102 112.4 181.702 112.5 181.902 112.6Z" stroke="#4D4D4D" stroke-width="0.75"/>
<path d="M5.20203 112.6C6.20203 112.4 5.90202 103.7 5.30202 103.6C5.90202 103.7 39.702 103.7 40.702 103.6C39.302 103.7 39.602 112.4 39.902 112.5C39.402 112.4 6.40203 112.5 5.20203 112.6Z" stroke="#4D4D4D" stroke-width="0.75"/>
<path d="M170.102 57.8C170.602 57.5 165.002 51.6 163.902 51.4C164.302 51.2 189.602 26.6 189.802 26.5C190.002 26.5 195.702 32.7 196.002 32.7C195.302 32.8 170.702 58 170.102 57.8Z" stroke="#4D4D4D" stroke-width="0.75"/>
<path d="M45.702 183.2C46.302 182.6 39.802 176.6 38.902 176.5C40.002 176.8 64.602 151.6 64.902 151.6C64.402 151.6 70.802 158.3 71.002 158C70.202 157.8 46.402 183.1 45.702 183.2Z" stroke="#4D4D4D" stroke-width="0.75"/>
<path d="M163.902 157.8C165.102 157.9 171.502 152.1 170.602 151.5C170.302 152 195.602 176.4 196.102 176.5C195.202 176.9 190.002 182.6 189.402 183.1C189.002 182.9 165.202 157.9 163.902 157.8Z" stroke="#4D4D4D" stroke-width="0.75"/>
<path d="M39.202 32.8C40.002 33 45.402 26.6 45.102 26.1C45.902 26.4 70.302 51.2 70.302 51.9C70.802 51.5 63.802 57.7 65.102 58.2C64.002 57.5 39.402 32.6 39.202 32.8Z" stroke="#4D4D4D" stroke-width="0.75"/>
<path d="M163.702 102.7C160.802 128.5 142.402 149.3 114.602 150.4C88.202 150 66.002 129.4 64.702 101.4C67.802 75.4 89.202 53.5 114.502 53C141.802 54 160.502 75.5 163.702 102.7Z" stroke="#4D4D4D" stroke-width="0.75"/>
</g>
<defs>
<filter id="filter0_d_3_5" x="0.800049" y="0.665527" width="219.905" height="221.259" filterUnits="userSpaceOnUse" color-interpolation-filters="sRGB">
<feFlood flood-opacity="0" result="BackgroundImageFix"/>
<feColorMatrix in="SourceAlpha" type="matrix" values="0 0 0 0 0 0 0 0 0 0 0 0 0 0 0 0 0 0 127 0" result="hardAlpha"/>
<feOffset dy="4"/>
<feGaussianBlur stdDeviation="2"/>
<feComposite in2="hardAlpha" operator="out"/>
<feColorMatrix type="matrix" values="0 0 0 0 0 0 0 0 0 0 0 0 0 0 0 0 0 0 0.25 0"/>
<feBlend mode="normal" in2="BackgroundImageFix" result="effect1_dropShadow_3_5"/>
<feBlend mode="normal" in="SourceGraphic" in2="effect1_dropShadow_3_5" result="shape"/>
</filter>
</defs>
</svg>
