<svg width="423" height="329" viewBox="0 0 423 329" fill="none" xmlns="http://www.w3.org/2000/svg">
<path d="M284.671 201.963C284.473 202.161 293.192 206.52 292.994 206.718C292.597 207.511 273.574 197.009 272.98 197.999C271.989 199.783 305.676 214.248 304.685 216.23C303.892 217.617 268.422 194.631 267.828 195.82C266.639 197.801 299.533 212.069 298.542 213.654C297.155 216.032 262.279 192.847 261.09 194.829C259.901 196.81 305.874 217.221 304.289 219.797" stroke="#999999" stroke-width="0.4" stroke-linecap="round" stroke-linejoin="round"/>
<path d="M220.071 133.003C219.675 133.598 225.818 135.777 225.62 136.174C225.223 136.966 211.749 128.842 211.352 129.634C210.163 131.616 224.233 135.579 223.638 136.768C223.44 137.164 210.163 128.842 209.965 129.238C208.776 131.22 226.016 137.164 225.421 138.155C224.431 139.74 195.301 120.915 194.112 123.095C192.329 126.266 236.717 145.685 235.924 147.271C234.537 149.847 188.366 121.312 186.582 124.482C184.997 127.455 245.237 153.612 243.256 157.178C241.274 160.745 191.734 125.473 190.744 127.256C188.366 131.616 245.634 155.791 244.247 158.169C242.859 160.547 183.808 121.906 181.628 125.671C178.854 130.229 242.661 156.386 240.68 159.755C238.698 162.925 182.619 124.68 180.836 127.653C178.656 131.418 247.813 160.349 245.039 164.708C242.86 168.474 170.135 120.519 168.154 124.284C166.37 127.256 248.012 163.718 245.039 168.672C243.652 171.248 165.379 124.284 163.794 127.058C161.218 131.616 251.38 172.635 249.201 176.4C245.832 182.146 159.435 121.708 157.057 125.869C154.481 130.427 261.09 177.391 257.325 183.732C254.353 189.082 165.379 126.86 163.2 130.823C161.218 134.192 250.786 175.607 248.21 179.967C245.436 184.921 161.812 128.049 159.435 132.012C155.67 138.75 258.514 179.174 254.155 186.704C249.993 193.838 153.49 121.708 149.923 127.653C147.149 132.21 252.767 179.769 249.597 185.119C248.012 188.091 154.282 128.247 151.31 133.003C146.951 140.533 314.791 216.824 310.234 224.751C307.261 229.705 152.499 124.086 147.941 132.012C144.969 137.164 302.703 214.248 299.533 219.599C296.759 224.354 153.688 128.049 148.338 137.363C144.375 144.1 307.261 221.382 303.892 227.129C299.929 233.866 150.121 132.409 146.752 138.353C142.591 145.487 320.934 222.769 313.8 234.857C306.865 246.944 142.195 130.031 138.826 135.777C132.287 147.072 320.736 227.921 314.989 237.631C308.648 248.728 137.241 123.888 131.098 134.786C124.757 145.685 315.188 227.921 309.441 237.829C303.892 247.341 136.646 125.077 130.503 135.777C125.153 144.893 317.169 235.848 313.8 241.594C307.657 252.295 140.213 128.842 133.872 139.939C126.738 152.224 315.386 228.714 308.45 240.802C301.515 252.889 131.296 131.616 126.937 139.146C122.775 146.478 320.934 241.991 316.971 248.926C309.639 261.608 140.411 139.146 136.646 145.487C130.107 156.782 320.142 234.659 312.81 247.143C309.441 253.087 129.513 136.174 125.549 142.911C120.992 151.036 314.395 241.396 309.837 249.322C304.487 258.438 127.729 136.768 122.973 144.893C117.425 154.602 318.16 248.53 314.197 255.267C306.469 268.742 123.568 134.588 116.434 146.874C109.499 158.962 321.132 253.88 316.376 262.401C312.611 269.138 131.296 143.902 123.766 156.98C118.218 166.492 318.754 253.88 312.017 265.571C306.27 275.479 120.595 145.091 114.651 155.395C110.093 163.321 317.565 260.419 312.215 269.535C305.874 280.433 125.946 146.082 118.812 158.566C112.075 170.059 313.8 256.852 307.657 267.553C304.091 273.894 116.038 144.694 110.093 154.801C104.545 164.312 321.132 263.986 315.782 273.498C309.639 284.198 120.397 146.478 114.254 157.377C106.328 171.05 322.916 266.562 317.962 275.083C310.234 288.558 121.19 148.856 114.452 160.349C108.904 169.861 318.754 263.193 312.215 274.489C306.865 283.802 125.549 150.441 118.416 162.925C110.687 176.202 319.745 259.627 311.224 274.29C305.478 284.198 114.254 155.99 110.688 162.132C103.356 174.616 313.999 268.544 309.243 276.866C305.676 283.009 120.001 159.755 115.047 168.275C106.724 182.543 313.602 264.184 305.478 278.254C301.515 285.189 117.623 155.791 109.895 169.068C101.374 183.732 312.215 275.678 307.657 283.208C300.326 296.088 108.508 154.999 101.176 167.879C93.6459 180.759 313.008 280.433 308.846 287.765C305.081 294.304 116.236 163.321 109.499 175.013C104.346 183.93 315.187 276.668 307.657 289.549C302.902 297.673 107.319 160.349 100.383 172.239C92.2587 186.308 305.478 277.659 299.731 287.369C295.966 293.71 104.346 165.501 98.0053 176.004C90.6734 188.686 306.865 284.793 301.713 293.512C295.768 303.816 115.443 176.004 109.499 186.11C101.374 200.377 310.828 285.387 303.496 298.069C298.146 307.383 108.111 171.842 100.978 184.326C93.0513 197.999 300.722 290.143 296.561 297.277C289.823 308.968 109.895 176.4 103.554 187.497C98.5998 196.018 307.261 293.115 302.109 302.231C297.749 309.761 113.66 179.967 106.922 191.658C101.572 200.972 299.731 293.71 295.768 300.646C289.823 310.95 110.688 190.073 107.121 196.414C98.9962 210.681 303.496 300.249 299.335 307.383C294.975 315.111 113.264 188.686 106.328 200.575C98.9961 213.059 294.579 300.249 290.616 306.987C285.266 316.102 110.291 193.243 105.535 201.566C99.1942 212.465 299.137 297.673 292.399 309.365C285.662 321.056 99.987 184.921 92.2588 198.396C85.5214 210.285 296.362 299.06 289.031 311.941C283.68 321.254 85.5213 178.183 77.595 192.253C73.2355 199.981 293.588 308.374 289.823 314.913C282.491 327.595 84.9269 187.695 79.9729 196.414C74.6226 205.529 291.805 308.176 287.247 316.102C279.717 329.18 70.2631 183.534 65.3091 192.054C56.7883 206.718 287.643 300.447 279.123 315.507C272.583 327.001 78.3876 186.308 72.0465 197.207C67.2907 205.529 291.607 305.6 283.68 319.273C276.15 332.153 80.1711 185.515 73.0373 197.801C64.9128 212.069 285.464 304.411 278.528 316.498C273.772 324.821 77.7932 186.704 71.0557 198.197C65.9036 207.114 289.625 304.411 280.906 319.471C273.574 332.351 74.4244 187.695 68.6778 197.603C60.7515 211.078 274.763 305.005 269.809 313.724C263.072 325.415 67.2907 190.271 62.1386 198.99C54.0141 213.257 280.906 310.752 274.763 321.65C269.016 331.558 65.3091 192.253 60.157 201.368C54.8067 210.681 269.611 305.005 262.081 317.885C256.532 327.397 62.1386 184.723 53.8159 198.99C48.0693 208.7 270.8 314.12 266.44 321.849C262.081 329.379 57.7791 187.299 49.2583 201.962C42.9172 212.861 266.242 312.337 259.901 323.434C253.56 334.333 53.6177 194.432 48.8619 202.755C42.5208 213.654 261.883 310.355 255.344 322.047C248.804 333.144 52.2306 188.884 43.908 203.349C39.1521 211.474 258.118 310.95 251.182 323.037C244.247 334.927 49.4564 198.99 45.2951 206.124C37.3687 219.797 246.625 313.328 242.86 320.065C235.924 331.955 47.4749 198.792 41.7283 208.898C35.3872 219.797 248.012 312.931 241.472 324.226C235.131 335.125 42.3227 200.972 36.9724 210.285C32.0184 218.806 240.283 316.498 235.528 324.821C230.772 332.945 36.7742 200.773 32.2165 208.502C25.8754 219.4 231.366 307.581 224.431 319.471C218.09 330.369 35.5853 195.621 28.4516 207.709C24.6866 214.248 231.366 306.987 223.638 320.461C216.306 333.342 40.341 203.548 34.1981 214.446C26.8662 226.93 222.053 308.374 215.712 319.273C211.352 326.803 30.4331 200.773 24.6865 211.078C20.9215 217.617 228.196 314.318 222.053 325.019C216.108 335.323 34.7926 208.105 29.046 218.013C25.4792 224.156 211.154 311.544 206.002 320.263C199.463 331.558 30.0369 213.654 25.8755 220.788C22.5068 226.732 212.145 316.102 206.795 325.217C203.624 330.766 32.8111 211.276 25.8755 223.364C20.5252 232.677 196.887 311.941 192.527 319.471C187.573 328.19 31.8202 221.778 27.2626 229.308C23.2994 236.244 195.896 312.535 189.753 323.236C186.582 328.784 21.7142 219.995 18.5436 225.345C11.8062 237.037 195.301 316.895 190.744 324.821C185.592 333.738 28.0553 224.354 23.8939 231.686C17.3547 242.981 188.762 315.507 183.808 324.028C179.647 331.162 25.0828 222.967 18.7417 233.866C14.7786 240.603 181.827 312.931 175.287 324.226C172.315 329.379 20.1289 229.506 15.5713 237.433C12.0044 243.576 164.19 313.328 159.831 320.858C154.679 329.775 18.5436 231.884 13.3914 241C8.04114 250.313 155.075 312.139 150.319 320.065C145.365 328.784 11.4099 234.262 8.23935 239.811C2.88906 249.124 151.905 310.157 146.554 319.669C143.78 324.623 11.0136 236.244 8.04124 241.396C2.29463 251.106 148.932 314.517 145.365 320.66C142.195 326.208 11.608 239.414 7.843 245.755C3.28535 253.682 138.43 311.346 134.07 318.678C129.513 326.406 19.7326 243.378 14.9768 251.502C11.0136 258.24 136.25 311.148 131.692 318.876C127.729 325.812 14.9767 243.576 11.2117 250.115C8.63566 254.673 140.808 316.895 137.241 322.839C134.07 328.388 13.3915 245.557 9.23014 252.889C4.87064 260.419 136.25 317.687 132.485 324.028C127.729 332.351 15.7694 252.097 12.2025 258.239C7.64487 266.166 127.927 320.263 125.748 323.83C123.766 327.199 17.1564 256.258 13.3914 262.401C11.2117 266.166 114.254 313.922 111.48 319.074C107.517 325.812 14.5804 261.41 12.4006 265.175C8.04114 272.705 112.867 316.696 110.093 321.452C108.508 324.226 20.327 268.544 18.1473 272.309C14.7786 278.254 111.48 321.056 109.3 324.821C107.319 328.388 9.23014 262.995 6.25776 268.346C3.68169 272.903 102.761 317.489 99.7888 322.443C97.609 326.208 21.3178 276.272 18.3454 281.226C16.562 284.397 95.4293 318.678 92.4569 324.028C89.6827 328.982 17.3546 280.037 14.7786 284.396C13.3915 286.973 85.125 318.084 82.1526 323.236C79.7747 327.397 21.9123 287.369 20.5252 289.747C18.5436 293.115 77.3968 318.48 75.8115 321.65C74.6225 323.83 24.2902 290.539 22.7049 293.116C21.1197 295.89 79.9729 320.858 77.595 324.821C75.8115 327.991 26.2718 293.908 24.6865 296.682C23.2994 299.06 70.8576 320.263 69.4705 322.641C68.4797 324.226 28.8478 299.06 27.2626 301.834C25.4791 305.005 59.5625 317.291 58.1754 319.669C57.1846 321.452 31.6221 303.618 30.8295 305.005C29.8387 306.59 56.5901 317.489 55.4011 319.273C54.8067 320.263 29.046 306.194 28.6497 306.987C27.2626 309.166 53.2214 319.272 52.4288 320.66C52.2306 321.056 35.7835 313.13 35.3871 313.922C35.189 314.319 44.7006 318.678 44.5024 319.074" stroke="#999999" stroke-width="0.4" stroke-linecap="round" stroke-linejoin="round"/>
<path d="M280.113 1.02925L282.888 2.61456C282.689 2.81272 277.537 0.831094 277.339 1.02925C277.141 1.22741 283.086 4.19981 282.888 4.19981C282.689 4.39797 276.547 0.632935 276.348 1.02925C276.15 1.22741 282.888 4.59616 282.888 4.79432C282.689 5.19064 272.98 1.22746 272.583 1.82194C272.187 2.41641 275.754 3.20904 275.754 3.60536C275.556 4.00167 267.828 4.00167 267.431 4.59615C267.035 5.38879 276.348 8.36116 275.754 9.35195C275.556 9.55011 271.791 7.1722 271.791 7.37036C270.998 8.55932 277.141 9.5501 276.745 10.1446C276.547 10.3427 268.818 8.55929 268.62 8.95561C267.828 10.1446 270.602 8.95566 270.007 9.74829C269.809 9.94645 271.791 12.9188 271.593 13.117C270.998 13.9096 273.574 12.7206 272.782 13.9096C272.583 14.3059 264.855 12.7206 264.657 13.117C264.261 13.7114 270.998 15.2967 270.404 16.4857C270.404 16.6838 267.233 19.8544 267.233 19.8544C266.639 20.8451 272.98 22.2323 272.583 23.0249C272.385 23.6194 263.864 20.0525 263.666 20.4489C263.072 21.2415 280.708 28.5734 279.915 29.9605C279.519 30.7531 267.431 23.4212 267.035 24.0157C266.639 24.6102 276.745 28.5734 276.15 29.366C275.952 29.5642 271.394 29.7623 271.196 29.9605C270.404 31.1494 276.348 31.1495 275.556 32.5366C275.16 33.3292 263.468 25.601 263.072 26.3936C262.675 27.1863 271.593 29.9605 270.998 30.9513C270.998 31.1494 269.413 34.32 269.215 34.5182C268.62 35.509 282.095 40.661 281.501 41.6518C281.302 42.0482 267.035 33.3292 266.639 34.1218C266.242 34.7163 270.206 35.3108 269.809 35.9052C269.809 36.1034 266.837 39.0758 266.837 39.274C266.44 40.0666 276.348 44.0297 275.952 44.6242C275.952 44.8224 271.989 44.2279 271.989 44.2279C271.593 45.0206 279.717 47.0022 278.924 48.1911C278.33 48.9838 266.044 42.0482 265.648 42.4445C264.855 43.6335 279.717 49.1819 279.123 50.1727C278.528 51.1635 261.288 41.85 260.694 42.8408C260.099 44.0298 272.583 48.1911 271.989 49.3801C271.593 49.9746 261.487 43.8316 261.288 44.4261C260.694 45.2187 274.367 51.1635 273.97 51.758C273.772 52.1543 266.837 49.38 266.639 49.7764C266.044 50.569 270.007 50.569 269.413 51.3617C269.215 51.758 261.685 49.5782 261.486 49.9745C261.288 50.3709 266.242 52.3524 266.044 52.7487C265.846 53.1451 260.099 49.5782 259.901 49.7764C259.703 50.1727 269.611 54.7304 269.413 55.3248C269.215 55.523 260.099 53.5414 259.901 53.7395L262.676 55.3248" stroke="#999999" stroke-width="0.4" stroke-linecap="round" stroke-linejoin="round"/>
<path d="M419.221 150.243L421.995 151.828C421.797 152.027 416.645 150.045 416.447 150.243C416.249 150.441 422.193 153.414 421.995 153.414C421.797 153.612 415.654 149.847 415.456 150.243C415.258 150.441 421.995 153.81 421.995 154.008C421.797 154.404 412.087 150.441 411.691 151.036C411.295 151.63 415.06 152.621 414.862 152.819C414.663 153.215 406.935 153.215 406.539 153.81C406.143 154.603 415.456 157.575 414.862 158.566C414.663 158.764 410.898 156.386 410.7 156.584C409.907 157.773 416.05 158.764 415.654 159.358C415.456 159.755 402.179 154.206 401.783 154.801C400.792 156.386 409.709 157.773 408.917 158.962C408.719 159.358 400.792 156.188 400.594 156.584C399.801 157.971 412.88 161.538 411.889 163.123C411.097 164.312 387.516 151.432 386.723 152.621C386.128 153.612 403.765 160.151 402.774 161.934C402.576 162.331 386.327 156.98 385.93 157.575C385.336 158.764 396.433 162.331 395.838 163.322C395.442 164.114 382.562 157.575 382.363 157.971C381.769 158.764 399.603 166.294 398.811 167.483C398.414 168.276 386.128 160.944 385.732 161.34C385.336 161.935 393.064 164.709 392.668 165.303C392.47 165.7 385.93 164.312 385.732 164.709C385.336 165.501 387.317 164.511 386.921 165.303C386.723 165.898 379.589 161.538 379.193 161.934C378.995 162.331 391.875 168.672 391.479 169.068C391.281 169.465 379.391 166.096 379.193 166.492C379.193 166.492 383.552 168.87 383.552 169.068C383.552 169.266 379.391 167.285 379.193 167.483L381.967 169.068" stroke="#999999" stroke-width="0.4" stroke-linecap="round" stroke-linejoin="round"/>
<path d="M358.584 222.967C358.584 222.967 361.755 224.751 361.557 224.751C361.359 224.949 357.594 223.76 357.395 223.958C357.197 224.354 365.718 228.516 365.52 228.714C365.322 228.912 357.197 223.958 356.999 224.354C356.801 224.751 366.709 229.705 366.511 229.903C366.313 230.299 356.801 226.336 356.405 226.93C355.81 227.921 366.709 232.281 366.511 232.677C366.313 233.073 357.99 232.677 357.594 233.272C356.801 234.659 381.174 244.567 380.184 246.35C379.589 247.539 362.547 235.649 362.151 236.244C360.962 238.424 382.363 246.35 381.769 247.539C381.174 248.53 357.99 235.451 357.197 236.838C355.612 239.613 384.741 250.115 383.552 252.097C382.76 253.484 359.377 239.018 358.783 240.207C357.594 242.189 388.308 253.88 386.921 256.456C385.93 258.041 355.81 240.405 354.819 241.991C354.027 243.378 383.156 255.267 381.967 257.645C381.769 258.041 370.276 255.664 370.077 256.06C369.483 257.249 381.373 261.41 380.976 262.203C380.778 262.599 372.654 259.627 372.654 259.825C372.257 260.618 387.516 266.959 386.723 267.949C386.525 268.346 379.589 264.779 379.391 265.175C379.193 265.571 382.562 266.166 382.165 266.76C382.165 266.959 380.976 269.337 380.778 269.337C380.58 269.535 386.723 272.507 386.525 272.705C386.327 272.903 382.958 271.318 382.958 271.516C382.958 271.516 386.128 273.3 385.93 273.3" stroke="#999999" stroke-width="0.4" stroke-linecap="round" stroke-linejoin="round"/>
<path d="M178.656 43.0388C178.656 43.0388 181.827 44.8222 181.629 44.8222C181.43 45.0204 177.665 43.8315 177.467 44.0296C177.269 44.4259 185.79 48.5873 185.592 48.7854C185.394 48.9836 177.269 44.0296 177.071 44.426C176.873 44.8223 186.781 49.7762 186.583 49.9744C186.384 50.3707 176.873 46.4075 176.477 47.002C175.882 47.9928 186.781 52.3523 186.583 52.7486C186.384 53.1449 178.062 52.7486 177.665 53.3431C176.873 54.7302 201.246 64.6381 200.256 66.4215C199.661 67.6105 182.619 55.721 182.223 56.3155C181.034 58.4952 202.435 66.4216 201.841 67.6105C201.246 68.6013 178.062 55.5228 177.269 56.9099C175.684 59.6842 204.813 70.1866 203.624 72.1682C202.832 73.5553 179.449 59.0897 178.854 60.2787C177.665 62.2603 208.38 73.9516 206.993 76.5277C206.002 78.1129 175.882 60.4768 175.089 62.0621C174.297 63.4492 203.426 75.3387 202.039 77.7166C201.841 78.1129 190.348 75.7351 190.149 76.1314C189.555 77.3203 201.445 81.2835 200.85 82.2743C200.652 82.6706 192.725 79.6982 192.527 79.8964C192.131 80.689 207.191 86.832 206.597 88.0209C206.398 88.4172 199.463 84.8503 199.265 85.2466C199.067 85.643 202.435 86.2375 202.039 86.832C202.039 87.0301 200.85 89.408 200.85 89.408C200.652 89.6062 206.795 92.3804 206.597 92.7767C206.398 92.9749 203.03 91.3896 203.03 91.5878C203.03 91.5878 206.2 93.3712 206.002 93.3712" stroke="#999999" stroke-width="0.4" stroke-linecap="round" stroke-linejoin="round"/>
<path d="M383.354 43.0388L386.525 44.8222C386.327 45.0204 382.562 43.8315 382.363 44.0296C382.165 44.4259 390.686 48.5873 390.488 48.7854C390.29 48.9836 382.165 44.0296 381.967 44.426C381.769 44.8223 391.875 49.7762 391.677 49.9744C391.479 50.3707 381.769 46.4075 381.373 47.002C380.778 47.9928 391.082 51.956 390.686 52.3523C390.488 52.7486 382.76 52.7486 382.562 53.3431C382.165 53.9376 387.714 55.3247 387.317 56.1173V56.3155C386.723 57.3063 388.308 56.1173 388.11 56.7118C387.912 56.9099 380.976 55.721 380.778 56.1173C380.184 57.1081 385.93 58.0989 385.534 58.8915C385.336 59.2879 379.391 57.5044 379.391 57.7026C378.995 58.297 384.543 59.486 384.147 60.4768C383.949 60.8731 374.833 58.4952 374.635 58.8915C374.437 59.486 376.419 58.6934 375.824 59.6842C375.824 59.8823 373.843 63.6473 373.843 63.8455C373.446 64.6381 375.032 63.6474 374.635 64.2418C374.437 64.6382 368.69 63.0529 368.492 63.2511C368.096 63.8455 380.778 68.9977 380.382 69.9884C380.184 70.3848 371.465 65.6289 371.267 66.0253C371.068 66.4216 376.22 68.0068 376.022 68.7995C375.824 69.1958 369.285 68.0069 369.285 68.205C368.69 69.1958 374.635 69.7903 374.041 70.9792C373.644 71.5737 365.124 66.2234 364.925 66.8179C364.529 67.4124 368.69 68.0068 368.294 68.7995C368.294 68.9976 368.294 73.159 368.096 73.3571C367.7 74.1497 376.419 77.1222 375.824 77.9148C375.626 78.3111 365.322 72.1682 365.124 72.7627C364.925 73.159 370.078 74.9424 369.879 75.5369C369.681 75.735 362.151 75.7351 361.953 76.1314C361.557 76.7259 366.907 78.3111 366.709 78.9056L365.916 80.4908C365.52 81.0853 369.087 80.8872 368.492 81.878C368.096 82.4725 358.782 77.7167 358.584 78.113C357.99 79.1038 368.096 82.4724 367.501 83.2651C366.907 84.2559 352.045 76.5277 351.451 77.3203C350.856 78.3111 358.981 80.4908 358.584 81.4816C358.386 81.878 351.451 77.9148 351.252 78.5093C350.856 79.3019 362.151 84.2559 361.953 84.6522C361.755 85.0485 355.612 82.6706 355.216 83.0669C354.621 84.0577 360.566 84.8504 359.971 85.8412C359.773 86.4356 351.847 83.8596 351.649 84.0577C351.451 84.4541 360.368 88.6154 360.17 89.0117C359.773 89.6062 351.847 84.454 351.649 84.8504C351.252 85.4448 364.529 91.3896 364.133 91.9841C364.133 92.1823 359.179 91.9841 359.179 92.1822L362.349 93.9657" stroke="#999999" stroke-width="0.4" stroke-linecap="round" stroke-linejoin="round"/>
<path d="M297.948 191.262C297.353 192.253 317.962 201.566 317.367 202.557C317.169 202.755 311.819 201.963 311.621 202.161C311.224 202.755 323.709 208.106 323.114 208.898C322.916 209.294 311.225 202.359 311.026 202.755C310.63 203.35 315.188 204.737 314.99 205.133C314.791 205.529 317.566 210.087 317.367 210.285L320.34 211.871" stroke="#999999" stroke-width="0.4" stroke-linecap="round" stroke-linejoin="round"/>
<path d="M316.376 106.053C316.178 106.45 317.962 106.45 317.764 106.846C317.367 107.44 307.856 102.09 307.459 102.685C306.469 104.27 315.187 105.855 314.593 106.846C314.395 107.044 306.865 102.486 306.667 102.685C305.676 104.468 317.367 107.837 316.971 108.629C316.178 110.016 292.201 94.9563 291.21 96.7398C289.625 99.514 326.879 115.565 326.086 116.952C324.897 119.132 286.454 96.3435 285.067 98.9195C283.68 101.297 334.013 123.095 332.229 126.265C330.644 129.238 290.219 100.307 289.229 101.694C287.049 105.459 334.409 125.076 333.22 127.058C332.031 129.04 282.689 97.3342 280.906 100.505C278.528 104.468 330.248 125.076 328.464 128.049C326.879 130.625 281.897 100.307 280.51 102.883C278.726 106.053 335.003 129.238 332.824 133.003C331.04 136.173 270.602 96.9379 268.818 99.9103C267.431 102.486 334.211 132.012 331.833 136.372C330.644 138.551 266.837 101.099 265.45 103.279C263.27 107.044 337.381 140.533 335.4 143.703C332.625 148.459 261.09 98.9195 259.108 102.288C256.929 106.053 346.1 145.289 342.93 150.639C340.354 154.998 267.233 104.072 265.45 107.242C263.864 110.016 335.598 143.109 333.616 146.676C331.437 150.639 264.261 105.657 262.279 108.827C259.109 114.376 342.93 146.874 339.165 153.215C335.796 159.16 255.938 99.7122 253.164 104.666C250.984 108.629 337.183 147.072 334.607 151.63C333.22 154.008 257.523 106.648 255.344 110.413C252.767 114.772 347.884 157.575 345.11 162.33C343.524 165.303 254.551 105.062 251.975 109.62C250.191 112.592 335.202 153.611 333.418 156.584C332.031 158.962 256.136 110.611 253.362 115.565C251.182 119.33 335.202 158.367 333.22 161.736C331.238 165.303 253.758 113.781 251.975 116.754C249.597 120.717 345.902 161.736 341.939 168.671C337.976 175.409 246.228 111.007 244.247 114.178C240.482 120.717 344.911 164.906 341.741 170.455C338.174 176.796 240.68 107.242 237.113 113.385C233.546 119.528 337.381 163.916 334.211 169.464C331.238 174.616 240.085 108.629 236.717 114.376C233.744 119.528 339.759 169.464 337.976 172.833C334.607 178.579 244.048 112.989 240.482 118.934C236.518 125.869 335.202 164.708 331.238 171.446C327.473 177.985 236.122 114.376 233.744 118.339C231.366 122.5 340.354 174.814 338.174 178.579C334.409 185.119 245.634 121.311 243.652 124.68C240.085 131.021 337.778 169.662 333.814 176.796C332.229 179.768 243.256 124.086 241.472 127.454C239.095 131.616 331.437 174.022 329.257 178.183C327.077 181.948 254.947 134.192 252.966 137.561C250.588 141.722 334.013 180.363 332.229 183.335C329.455 188.289 261.883 142.514 259.307 147.072C256.731 151.63 334.211 186.109 332.229 189.28C331.04 191.262 278.132 158.962 275.952 162.528C274.169 165.699 327.87 187.298 325.492 191.262C323.906 193.838 272.98 160.943 271.394 163.717C270.007 166.095 326.284 191.658 324.699 194.432C323.114 197.206 278.132 164.114 276.348 167.086C274.367 170.653 321.727 188.884 319.745 192.252C318.754 193.838 270.602 161.736 269.016 164.312C267.431 167.086 328.86 195.225 327.275 197.999C325.69 200.773 275.159 164.312 273.376 167.284C270.998 171.248 330.644 197.206 329.257 199.584C327.275 202.953 278.528 169.266 276.943 172.04C275.358 174.616 324.303 195.225 322.519 198.395C321.33 200.377 282.689 172.238 281.104 175.013C279.123 178.579 323.51 194.234 321.33 198.197C320.141 200.377 277.537 174.814 276.745 176.202C274.961 179.372 319.151 197.999 317.962 199.981C317.367 200.971 284.869 182.543 284.077 183.93C282.095 187.298 314.989 197.405 313.008 200.773C312.215 202.16 275.556 177.589 273.97 180.363C273.97 180.561 277.735 182.543 277.735 182.543" stroke="#999999" stroke-width="0.4" stroke-linecap="round" stroke-linejoin="round"/>
<path d="M259.307 192.451C258.316 150.045 220.468 118.339 179.449 123.492C133.872 121.906 101.176 153.81 94.8349 197.009C84.1343 195.225 77.1987 186.902 75.8116 191.064C34.3964 190.469 5.26705 222.175 8.23943 260.221C3.0873 294.899 34.9909 326.406 73.6319 323.236C72.0466 322.047 80.3693 327.397 80.5674 322.641C84.3325 323.83 92.0607 323.83 97.2128 321.056C100.582 324.227 233.546 325.019 229.979 323.632C238.5 324.226 252.173 327.595 254.353 327.001C291.607 327.793 325.096 299.258 318.16 261.212C323.51 223.76 296.363 198.99 259.307 192.451Z" stroke="#666666"/>
<path d="M281.5 1.22751C282.095 1.02935 261.685 2.21832 261.685 2.41648C261.685 1.822 261.486 54.5323 261.883 53.9378C261.685 55.3249 281.897 54.3341 281.897 55.1268C282.095 55.7212 281.897 1.02935 281.5 1.22751Z" stroke="#666666"/>
<path d="M380.382 151.234C380.382 151.036 379.986 168.474 380.58 168.474C380.58 168.87 421.599 168.275 420.806 168.474C421.401 168.672 421.203 150.838 421.005 151.036C421.203 150.441 380.382 150.639 380.382 151.234Z" stroke="#666666"/>
<path d="M348.082 235.65C346.695 235.451 384.543 273.3 384.147 271.715C384.741 272.705 397.622 261.014 396.829 259.825C397.622 260.221 359.377 223.76 359.971 223.76C359.377 222.175 347.487 234.857 348.082 235.65Z" stroke="#666666"/>
<path d="M216.504 79.8963C217.099 80.2926 179.449 43.4351 179.845 44.0295C180.241 42.8406 166.965 55.5228 167.955 56.1172C167.559 54.7301 205.209 93.9656 204.219 93.3711C204.813 92.7766 217.297 80.4908 216.504 79.8963Z" stroke="#666666"/>
<path d="M397.225 55.5231C396.829 54.9286 384.741 42.6428 383.949 43.4354C384.543 43.0391 346.893 80.4911 347.686 79.5003C347.488 80.0948 359.575 92.777 359.773 92.5788C359.972 92.5788 397.622 55.9194 397.225 55.5231Z" stroke="#666666"/>
<path d="M282.491 94.7586C262.477 93.1733 243.256 104.27 231.763 119.925C254.353 131.418 270.205 157.377 275.754 178.976C292.994 184.525 307.261 197.801 319.547 212.663C336.39 200.575 347.289 182.345 345.902 160.349C346.299 125.671 318.556 95.7494 282.491 94.7586Z" stroke="#666666"/>
<path d="M257.722 194.631C260.298 154.404 225.818 122.501 177.269 118.736C139.619 123.888 103.95 153.017 90.2772 196.414C81.9546 193.244 86.7104 191.064 72.4429 191.856C39.7467 192.451 12.5989 220.788 1.30383 258.438C8.63571 294.899 39.1522 322.443 71.4521 327.595C80.3693 322.641 75.2171 322.84 77.0006 324.821C84.3324 323.038 89.8808 322.245 99.5906 327.794C93.6458 323.83 233.744 324.425 233.15 325.416C230.177 322.641 255.344 323.236 255.145 326.208C286.653 323.632 313.602 297.079 319.943 259.627C316.575 225.345 291.21 198.792 257.722 194.631Z" stroke="#4D4D4D" stroke-width="0.75"/>
<path d="M282.095 1.82209C282.095 2.02025 261.288 2.41657 261.486 1.82209C262.081 1.62393 261.883 54.3342 261.486 55.325C261.486 54.9287 281.897 54.3342 282.095 55.325C281.897 53.9379 281.699 2.21841 282.095 1.82209Z" stroke="#4D4D4D" stroke-width="0.75"/>
<path d="M380.184 150.441C379.986 150.837 381.174 168.473 379.787 168.275C381.174 168.077 420.608 168.275 421.203 168.473C420.014 168.473 421.401 151.035 421.203 150.639C420.608 151.035 381.373 151.035 380.184 150.441Z" stroke="#4D4D4D" stroke-width="0.75"/>
<path d="M346.893 235.848C348.478 235.65 383.552 272.111 385.534 273.102C383.751 272.904 396.829 260.221 397.225 260.816C397.225 260.42 360.962 222.968 360.764 222.373C359.972 223.562 347.686 235.65 346.893 235.848Z" stroke="#4D4D4D" stroke-width="0.75"/>
<path d="M217.099 80.6889C217.694 80.6889 179.647 43.8314 179.251 42.8406C180.836 43.8314 168.154 55.5228 167.163 55.3246C167.559 55.5228 204.02 92.7766 205.606 93.5693C204.417 92.7766 217.495 80.4908 217.099 80.6889Z" stroke="#4D4D4D" stroke-width="0.75"/>
<path d="M396.631 56.1172C395.838 55.9191 384.543 43.4351 385.732 42.8406C384.147 43.4351 347.091 80.4908 347.091 80.6889C347.686 80.6889 359.773 92.5785 359.179 92.7766C359.377 92.5785 396.036 56.1172 396.631 56.1172Z" stroke="#4D4D4D" stroke-width="0.75"/>
<path d="M283.086 93.9658C260.892 96.5419 245.832 105.657 233.348 119.132C252.173 132.805 270.8 155.791 275.754 181.75C294.381 184.524 309.837 196.216 319.943 211.672C334.013 198.99 343.326 180.363 345.11 159.556C344.515 124.482 318.953 95.7493 283.086 93.9658Z" stroke="#4D4D4D" stroke-width="0.75"/>
</svg>
