<svg width="208" height="208" viewBox="0 0 208 208" fill="none" xmlns="http://www.w3.org/2000/svg">
<g filter="url(#filter0_d_3_45)">
<path d="M177.002 53.4999C176.902 53.5999 181.302 55.7999 181.202 55.8999C181.002 56.2999 170.502 50.4999 170.202 50.9999C169.602 51.9999 188.402 59.9999 187.802 61.0999C187.302 61.8999 167.502 48.8999 167.102 49.5999C166.402 50.6999 185.802 59.1999 185.302 60.0999C184.502 61.4999 162.702 47.4999 162.002 48.6999C161.302 49.8999 190.402 62.8999 189.502 64.5999C188.702 66.0999 164.502 48.2999 163.602 49.8999C162.802 51.2999 192.602 64.7999 191.802 66.1999" stroke="#999999" stroke-width="0.4" stroke-linecap="round" stroke-linejoin="round"/>
<path d="M136.002 10.1999C135.802 10.4999 139.002 11.5999 138.802 11.7999C138.502 12.1999 130.602 7.29991 130.302 7.69991C129.702 8.79991 138.202 11.3999 137.802 11.9999C137.602 12.2999 129.902 7.19991 129.702 7.59991C129.102 8.69991 139.502 12.4999 139.102 12.9999C138.602 13.8999 121.502 2.69991 120.802 3.89991C119.802 5.69991 145.302 16.8999 144.802 17.7999C143.902 19.2999 117.302 2.39991 116.202 4.19991C115.302 5.79991 150.402 21.2999 149.302 23.2999C148.102 25.3999 118.902 4.49991 118.302 5.59991C116.902 7.99991 150.702 22.4999 149.902 23.7999C149.102 25.1999 114.602 2.39991 113.402 4.49991C111.902 7.09991 149.302 22.5999 148.202 24.5999C147.102 26.4999 113.702 3.49991 112.702 5.29991C111.502 7.39991 152.402 24.7999 150.902 27.2999C149.602 29.5999 107.402 1.29991 106.102 3.39991C105.102 5.09991 152.602 26.4999 151.002 29.2999C150.102 30.7999 104.402 2.79991 103.402 4.49991C101.902 7.09991 155.002 31.3999 153.702 33.4999C151.802 36.7999 101.202 1.39991 99.9022 3.69991C98.4022 6.29991 160.102 33.4999 157.902 37.1999C156.102 40.2999 104.202 3.79991 102.902 6.09991C101.802 7.99991 154.802 32.7999 153.402 35.2999C151.702 38.1999 102.102 4.09991 100.702 6.59991C98.5022 10.4999 159.302 34.5999 156.802 38.9999C154.402 43.1999 97.9022 0.899905 95.9022 4.39991C94.3022 7.09991 156.502 35.0999 154.602 38.2999C153.602 39.9999 98.0021 4.09991 96.3021 6.99991C94.5021 10.0999 162.402 40.7999 160.502 44.0999C159.302 46.1999 96.3022 3.29991 94.5022 6.49991C93.3022 8.59991 156.102 39.0999 154.802 41.2999C153.702 43.1999 96.4021 5.19991 94.3021 8.99991C92.7021 11.6999 156.902 41.9999 155.502 44.2999C153.902 46.9999 94.7021 6.99991 93.3021 9.39991C90.9021 13.4999 195.002 58.7999 191.002 65.7999C186.902 72.7999 91.2022 4.69991 89.2022 7.99991C85.4022 14.5999 195.302 61.7999 192.102 67.3999C188.402 73.8999 88.7021 0.899907 85.1021 7.29991C81.4021 13.6999 193.602 62.1999 190.202 67.9999C186.902 73.6999 88.3022 1.49991 84.7022 7.69991C81.6022 13.0999 194.602 66.5999 192.602 69.9999C188.902 76.3999 89.9021 3.19991 86.1021 9.69991C81.9021 16.8999 194.402 62.6999 190.302 69.7999C186.102 76.9999 84.9021 4.49991 82.3021 8.99991C79.8021 13.2999 197.402 70.0999 195.102 74.0999C190.802 81.5999 89.4022 8.29991 87.2022 12.0999C83.4022 18.7999 197.402 65.7999 193.102 73.2999C191.102 76.8999 83.7022 6.69991 81.4022 10.7999C78.6022 15.5999 195.002 70.1999 192.302 74.7999C189.102 80.2999 82.7021 6.69991 79.8021 11.5999C76.5021 17.2999 197.302 73.9999 194.902 78.0999C190.202 86.2999 80.3022 4.89991 76.0022 12.3999C71.8022 19.6999 199.702 77.0999 196.802 82.0999C194.402 86.1999 84.0022 9.29991 79.4022 17.1999C76.1022 22.9999 199.202 76.8999 195.102 83.9999C191.602 89.9999 78.0022 9.89991 74.4022 16.1999C71.6022 20.9999 198.902 80.7999 195.802 86.2999C191.902 93.0999 80.9022 10.1999 76.5022 17.6999C72.4022 24.6999 197.302 78.6999 193.502 85.2999C191.302 89.1999 75.5022 9.49991 71.9022 15.7999C68.5022 21.6999 201.102 82.6999 197.802 88.4999C194.002 94.9999 77.8022 10.4999 74.0022 17.1999C69.2022 25.4999 201.902 84.2999 199.002 89.3999C194.202 97.6999 78.1022 11.4999 74.0022 18.5999C70.6022 24.3999 200.402 82.1999 196.402 89.1999C193.102 94.9999 80.5022 12.0999 76.0022 19.8999C71.3022 27.9999 201.102 80.1999 195.902 89.0999C192.402 95.1999 74.1021 15.4999 71.8021 19.3999C67.3021 27.0999 198.102 85.5999 195.202 90.5999C193.002 94.4999 76.8022 16.8999 73.7022 22.1999C68.6022 30.9999 198.802 82.8999 193.802 91.4999C191.302 95.8999 75.6022 13.8999 70.7022 22.3999C65.5022 31.4999 198.002 89.4999 195.302 94.2999C190.702 102.4 70.7021 13.4999 66.1021 21.5999C61.4021 29.6999 198.802 92.1999 196.202 96.6999C193.802 100.8 74.4022 17.6999 70.2022 24.9999C67.0022 30.5999 200.702 89.5999 196.002 97.6999C193.002 102.8 69.8022 15.9999 65.4022 23.5999C60.3022 32.3999 195.902 90.6999 192.302 96.8999C189.902 101 67.5021 18.3999 63.6021 25.1999C59.0021 33.1999 197.102 94.7999 193.802 100.4C189.902 107.1 72.9021 23.5999 69.1021 30.1999C63.9021 39.2999 199.802 94.7999 195.102 103C191.602 109 69.1022 21.0999 64.4022 29.1999C59.3022 37.9999 194.602 98.1999 192.002 102.8C187.502 110.5 69.8022 23.3999 65.5022 30.6999C62.3022 36.1999 198.302 99.6999 194.902 105.4C192.002 110.3 71.3022 24.8999 66.9022 32.5999C63.4022 38.5999 194.502 100.2 191.902 104.8C187.902 111.7 68.8021 30.3999 66.3021 34.6999C60.9021 43.9999 197.002 103.8 194.302 108.6C191.302 113.7 70.1022 28.6999 65.5022 36.5999C60.7022 44.8999 193.302 104.3 190.702 108.9C187.102 115.1 68.3021 31.3999 65.1021 37.0999C60.9021 44.3999 196.302 102.4 191.802 110.2C187.502 117.7 69.0022 30.0999 64.0022 38.6999C59.7022 46.1999 195.402 103.7 190.702 111.9C187.402 117.7 63.7021 28.0999 58.6021 36.7999C55.8021 41.5999 193.802 109.5 191.502 113.5C187.002 121.3 65.1022 34.6999 62.0022 40.0999C58.8022 45.6999 193.502 109.5 190.602 114.4C186.102 122.3 60.1021 34.2999 57.1021 39.3999C51.9021 48.2999 192.202 105.4 187.002 114.4C183.002 121.4 65.1021 35.8999 61.3021 42.4999C58.4021 47.4999 194.402 108.3 189.602 116.6C185.102 124.5 66.2022 35.3999 61.9022 42.8999C57.0022 51.3999 191.302 107.9 187.102 115.2C184.202 120.2 65.8021 36.5999 61.8021 43.5999C58.7021 48.9999 193.902 107.9 188.702 116.9C184.202 124.6 64.3022 37.4999 60.9022 43.3999C56.2022 51.4999 186.202 108.8 183.202 114C179.202 120.9 63.2022 40.2999 60.2022 45.4999C55.3022 53.8999 190.502 112.1 186.802 118.6C183.502 124.4 63.9021 42.2999 60.8021 47.6999C57.6021 53.1999 185.702 109.6 181.302 117.3C178.002 123 63.1021 38.6999 58.3021 46.9999C55.0021 52.7999 186.502 115.1 183.902 119.5C181.402 123.9 63.2022 41.1999 58.2022 49.7999C54.5022 56.1999 186.102 114.9 182.302 121.5C178.602 127.9 61.2022 45.6999 58.4022 50.4999C54.7022 56.8999 184.402 114.2 180.502 121C176.702 127.6 60.5022 41.8999 55.5022 50.4999C52.7022 55.2999 183.802 115 179.602 122.2C175.402 129.4 57.3021 46.7999 54.8021 51.0999C50.0021 59.2999 178.602 117.1 176.202 121.2C171.902 128.7 53.9022 44.5999 50.2022 50.9999C46.2022 57.8999 182.002 117.6 177.802 124.7C173.702 131.8 49.5021 44.6999 46.1021 50.6999C42.9021 56.2999 179.602 120.6 176.502 126C173.402 131.4 46.2022 44.4999 43.2022 49.5999C39.1022 56.6999 175.902 115.7 171.402 123.6C167.202 130.8 45.5021 40.7999 40.8021 48.8999C38.3021 53.2999 176.802 115.5 171.602 124.4C166.502 133.2 46.9021 44.1999 42.6021 51.5999C37.7021 60.0999 173.102 117.1 168.902 124.5C165.902 129.7 41.2022 42.3999 37.2022 49.4999C34.6022 53.9999 177.002 120.5 172.802 127.8C168.602 135 41.9021 45.0999 37.8021 52.0999C35.3021 56.3999 169.702 120 166.102 126.2C161.402 134.4 38.0022 47.5999 35.0022 52.7999C32.5022 57.0999 171.802 122.9 168.002 129.6C165.602 133.7 39.5021 44.7999 34.3021 53.7999C30.4021 60.5999 164.602 121.5 161.302 127.1C157.402 133.9 37.0021 50.0999 33.6021 55.9999C30.6021 61.1999 165.702 121.5 161.102 129.6C158.702 133.8 31.4022 49.6999 29.0022 53.8999C23.9022 62.7999 165.202 124.4 161.702 130.5C157.602 137.5 34.2021 50.7999 30.8021 56.5999C25.7021 65.3999 162.302 123.6 158.402 130.3C155.102 136.1 32.1022 48.1999 27.0022 56.9999C23.8022 62.4999 159.702 121.5 154.402 130.6C152.002 134.8 27.8021 51.5999 24.1021 58.0999C21.2021 63.1999 150.102 122.8 146.602 128.9C142.202 136.6 26.4022 51.4999 21.9022 59.2999C17.3022 67.1999 145.702 121.8 141.802 128.5C137.502 136 21.7022 53.6999 18.9022 58.4999C14.3022 66.3999 144.602 120.2 139.902 128.3C137.402 132.6 20.9022 54.4999 18.4022 58.9999C13.5022 67.3999 142.502 123.5 139.402 128.8C136.502 133.8 20.6021 54.8999 17.3021 60.5999C13.2021 67.6999 137.602 121.3 133.802 127.8C129.502 135.2 25.1021 55.4999 20.6021 63.2999C17.1021 69.3999 136.602 120.9 132.602 128C128.802 134.7 22.0022 56.3999 18.5022 62.4999C16.1022 66.5999 138.502 124.5 135.402 130C132.402 135.2 20.5022 56.4999 16.5022 63.2999C12.4022 70.2999 136.402 124.6 133.002 130.6C128.402 138.6 20.5021 59.5999 17.1021 65.4999C12.7021 73.1999 131.702 127 129.702 130.5C127.702 133.9 20.6022 60.7999 16.9022 67.0999C14.8022 70.6999 125.302 123.1 122.502 128.1C118.302 135.4 17.8022 63.8999 15.5022 67.8999C11.0022 75.6999 124.702 124.3 121.802 129.3C119.902 132.6 19.7022 66.5999 17.2022 70.8999C13.5022 77.2999 123.702 127 121.402 131C119.202 134.9 13.7021 62.4999 10.3021 68.3999C7.40214 73.3999 119.802 124.3 116.602 129.8C113.802 134.6 18.1022 67.2999 14.4022 73.6999C12.2022 77.4999 116.702 124 112.902 130.6C109.102 137.1 13.9022 68.2999 10.5022 74.0999C8.60215 77.4999 111.802 123.2 107.702 130.2C104.002 136.6 14.5022 72.4999 12.4022 76.1999C9.70217 80.8999 106.902 125 104.402 129.3C102.202 133 15.2022 72.6999 12.5022 77.2999C10.2022 81.2999 108.802 125 105.302 130.9C102.102 136.4 15.1022 73.4999 12.2022 78.3999C10.0022 82.1999 103.402 126 101.202 129.8C99.2022 133.3 14.9021 73.4999 11.3021 79.6999C7.90214 85.5999 98.6022 123.9 95.9022 128.5C92.8022 133.9 14.8022 76.6999 12.4022 80.7999C10.5022 83.9999 96.9022 124.6 94.7022 128.3C92.7022 131.7 9.90216 77.1999 8.20216 79.9999C4.60216 86.2999 96.4022 125.8 94.2022 129.7C92.7022 132.2 12.2021 79.6999 10.1021 83.2999C7.70213 87.4999 92.1021 123 88.8021 128.7C86.4021 132.8 10.0021 78.0999 7.10213 82.9999C4.50213 87.5999 87.6022 125.7 86.0022 128.5C83.5022 132.9 7.00214 78.8999 4.80214 82.5999C1.70214 87.8999 86.3021 124 83.8021 128.2C80.8021 133.3 6.60214 80.5999 4.80214 83.7999C2.00214 88.6999 86.3022 125.3 83.9022 129.5C81.9022 132.9 6.30213 82.3999 4.60213 85.2999C2.30213 89.1999 87.4021 125.8 84.3021 131.3C81.6021 135.9 10.7022 85.1999 8.00215 89.7999C5.90215 93.3999 76.3022 122.4 73.4022 127.5C72.1022 129.8 9.80217 89.6999 8.40217 92.0999C6.10217 96.0999 74.7022 125.1 72.4022 129.1C70.6022 132.2 6.80214 88.5999 5.30214 91.1999C3.30214 94.6999 72.0022 124.3 69.7022 128.4C67.4022 132.4 10.5021 91.2999 8.10213 95.4999C5.90213 99.2999 66.8022 125.7 65.2022 128.5C63.3022 131.8 5.80214 91.4999 4.30214 94.0999C1.90214 98.1999 66.2021 124.2 63.8021 128.4C62.5021 130.7 6.10213 94.5999 4.60213 97.1999C3.20213 99.5999 60.0022 124 57.7022 127.9C56.0022 130.8 9.60215 98.8999 8.00215 101.8C7.00215 103.5 55.5021 126.3 54.3021 128.5C52.8021 131.1 7.80216 101.2 6.70216 103C4.90216 106.2 50.8022 125.9 49.7022 127.8C48.7022 129.5 11.2021 103.4 10.1021 105.4C9.10213 107.2 51.1022 126.6 50.0022 128.4C49.1022 130 12.2021 106.4 11.3021 108C10.0021 110.2 51.9022 129.2 50.9022 130.9C49.6022 133.1 13.6021 108.6 12.8021 110C11.5021 112.2 45.2022 127 44.5022 128.3C43.9022 129.4 13.2022 109.7 12.0022 111.9C11.3022 113.1 40.1022 126.1 39.2022 127.6C38.4022 128.9 14.6021 113.3 13.8021 114.7C13.0021 116.1 39.5021 128 38.8021 129.1C38.3021 129.9 17.9022 117.8 17.2022 119C16.6022 120 35.8022 128.4 35.2022 129.4C35.0022 129.7 25.4021 124.7 25.1021 125.2C25.0021 125.4 26.6022 125.6 26.4022 126C26.2022 126.3 22.6022 123.6 22.5022 123.8C22.4022 124.1 27.3022 126.3 27.2022 126.5" stroke="#999999" stroke-width="0.4" stroke-linecap="round" stroke-linejoin="round"/>
<path d="M49.7022 144.4L51.0022 145.1C51.0022 145.2 49.5022 145 49.4022 145C49.4022 145.1 51.5022 146.2 51.5022 146.2C51.5022 146.3 49.3021 145.1 49.3021 145.2C49.3021 145.3 51.7022 146.5 51.7022 146.6C51.6022 146.7 48.9021 146.2 48.8021 146.4C48.7021 146.6 52.7022 148.6 52.7022 148.6C52.6022 148.7 50.9021 150.2 50.8021 150.4C50.7021 150.6 51.2022 150.2 51.0022 150.5V150.6C50.8022 151 51.5022 150.6 51.4022 150.8C51.4022 150.9 50.4022 151.9 50.4022 152C50.1022 152.5 52.8021 152.9 52.6021 153.3C52.5021 153.4 50.0022 152.9 50.0022 153C49.8022 153.4 53.7022 154.5 53.5022 155C53.4022 155.2 48.2021 153.6 48.1021 153.9C47.9021 154.3 52.2021 155.4 51.8021 156.1C51.7021 156.2 48.4022 156.7 48.4022 156.8C48.0022 157.4 54.9021 159.9 54.6021 160.4C54.3021 160.9 46.3022 156.4 46.0022 156.7C45.6022 157.3 59.6021 163.3 59.1021 164.2C58.8021 164.7 49.9022 159.1 49.7022 159.5C49.4022 160 55.2021 161.8 54.8021 162.5C54.6021 162.8 49.2021 160.7 49.1021 160.9C48.5021 162 59.3021 165.2 58.6021 166.4C58.1021 167.3 45.2021 158.2 44.8021 159C44.4021 159.7 57.1021 164.9 56.6021 165.8C56.4021 166.1 47.3022 162.2 47.0022 162.6C46.5022 163.5 64.0022 171.1 63.4022 172.1C63.1022 172.7 46.0022 161.4 45.5022 162.3C45.1022 162.9 58.3022 168.8 57.9022 169.4C57.7022 169.7 47.6022 165.2 47.2022 165.9C46.7022 166.8 60.1022 172.3 59.7022 173.1C59.4022 173.6 47.2022 166.2 46.9022 166.7C46.3022 167.7 65.7022 175.3 64.7022 177C63.9022 178.5 43.8022 165 43.4022 165.7C42.5022 167.3 66.0022 177 65.2022 178.3C64.4022 179.8 41.1021 164.2 40.3021 165.6C39.4021 167.1 63.0022 176.8 62.2022 178.2C61.5022 179.4 41.1021 164.9 40.3021 166.2C39.6021 167.5 64.7022 179.2 64.2022 180C63.5022 181.3 43.2022 167.3 42.4022 168.6C41.4022 170.3 62.2022 177.8 61.2022 179.5C60.4022 180.9 39.9022 167.6 39.4022 168.5C38.8022 169.5 65.5022 182.3 65.0022 183.3C64.2022 184.7 44.9022 171.1 44.5022 171.8C43.6022 173.4 63.9022 180.6 62.9022 182.4C62.5022 183.1 40.1021 170.1 39.6021 170.9C38.9021 172 61.6022 182.1 60.9022 183.2C60.3022 184.3 39.4021 171.2 38.8021 172.2C38.0021 173.6 63.1022 184.9 62.5022 185.9C61.5022 187.6 37.2022 172.1 36.2022 173.7C35.2022 175.4 63.3021 187.8 62.6021 189C62.2021 189.7 41.4021 177.8 40.6021 179.2C39.9021 180.5 60.2022 188.4 59.2022 190C58.6022 191.1 37.0021 177.5 36.3021 178.7C35.7021 179.7 59.3021 190.4 58.6021 191.6C57.9021 192.7 39.3022 179 38.5022 180.3C37.6022 181.8 56.9021 189.1 56.1021 190.5C55.7021 191.2 34.9022 177.4 34.2022 178.5C33.5022 179.7 60.6022 192.1 59.9022 193.3C59.2022 194.5 37.1021 178.6 36.3021 179.9C35.3021 181.7 61.5022 193 60.9022 194.1C60.0022 195.7 37.6021 180.3 36.8021 181.6C36.1021 182.8 58.1021 192 57.3021 193.4C56.8021 194.3 39.6022 181.8 38.9022 183C37.9022 184.7 57.8022 191.4 56.7022 193.3C56.1022 194.3 36.1021 182.5 35.8021 183.1C34.9021 184.6 55.3022 193 54.7022 194C54.4022 194.5 39.2021 185.9 38.8021 186.6C37.9021 188.2 52.7021 192.5 51.8021 194.1C51.5021 194.6 37.8022 186.6 37.2022 187.6C36.4022 189.1 52.0022 195.1 51.5022 195.9C50.9022 196.9 34.8022 186.8 34.2022 187.9C33.6022 189 50.6021 196.6 50.3021 197.2C50.1021 197.5 39.8022 191.4 39.4022 192C39.0022 192.7 49.2021 196.4 48.6021 197.3C48.3021 197.8 36.7022 190.8 36.4022 191.5C35.9022 192.3 43.3022 194.7 43.0022 195.3C42.9022 195.4 39.8021 195.1 39.8021 195.2C39.7021 195.4 44.2021 197.6 44.1021 197.7" stroke="#999999" stroke-width="0.4" stroke-linecap="round" stroke-linejoin="round"/>
<path d="M103.702 144.4L105.002 145.1C105.002 145.2 103.502 145 103.402 145C103.402 145.1 105.502 146.2 105.502 146.2C105.502 146.3 103.302 145.1 103.302 145.2C103.302 145.3 105.702 146.5 105.702 146.6C105.602 146.7 102.902 146.2 102.802 146.4C102.702 146.6 106.702 148.6 106.702 148.6C106.602 148.7 104.902 150.2 104.802 150.4C104.702 150.6 105.202 150.2 105.002 150.5C105.002 150.5 105.002 150.6 105.002 150.7C104.802 151.1 105.502 150.7 105.402 150.9C105.402 151 104.402 152 104.402 152.1C104.102 152.6 106.802 153 106.602 153.4C106.502 153.5 104.002 153 104.002 153.1C103.802 153.5 107.702 154.6 107.402 155.1C107.302 155.3 102.102 153.7 102.002 154C101.802 154.4 106.102 155.5 105.702 156.1C105.602 156.2 102.402 156.7 102.302 156.8C101.902 157.4 108.802 159.9 108.502 160.4C108.202 160.9 100.202 156.4 100.002 156.7C99.6022 157.3 113.602 163.3 113.102 164.2C112.802 164.7 103.902 159.1 103.702 159.5C103.402 160 109.202 161.8 108.802 162.5C108.602 162.8 103.202 160.7 103.102 160.9C102.502 162 113.302 165.2 112.602 166.4C112.102 167.3 99.2021 158.2 98.8021 159C98.4021 159.7 111.102 164.9 110.602 165.8C110.402 166.1 101.302 162.2 101.002 162.6C100.502 163.5 118.002 171.1 117.402 172.1C117.102 172.7 100.002 161.4 99.5022 162.3C99.1022 162.9 112.302 168.8 111.902 169.4C111.702 169.7 101.602 165.2 101.302 165.9C100.802 166.8 114.202 172.3 113.802 173.1C113.502 173.6 101.302 166.2 101.002 166.7C100.402 167.7 119.802 175.3 118.802 177C118.002 178.5 97.9022 165 97.5022 165.7C96.6022 167.3 120.102 177 119.302 178.3C118.502 179.8 95.2022 164.2 94.4022 165.6C93.5022 167.1 117.002 176.8 116.202 178.2C115.502 179.4 95.1022 164.9 94.4022 166.2C93.7022 167.5 118.802 179.2 118.302 180C117.602 181.3 97.3022 167.3 96.5022 168.6C95.5022 170.3 116.302 177.8 115.302 179.5C114.502 180.9 94.0022 167.6 93.5022 168.5C92.9022 169.5 119.602 182.3 119.102 183.3C118.302 184.7 99.0021 171.1 98.6021 171.8C97.7021 173.4 118.002 180.6 117.002 182.4C116.602 183.1 94.2022 170.1 93.7022 170.9C93.0022 172 115.702 182.1 115.002 183.2C114.402 184.3 93.5022 171.2 92.9022 172.2C92.1022 173.6 117.102 184.9 116.602 185.9C115.602 187.6 91.3021 172.1 90.3021 173.7C89.3021 175.4 117.402 187.8 116.702 189C116.302 189.7 95.5022 177.8 94.7022 179.2C94.0022 180.5 114.202 188.4 113.302 190C112.702 191.1 91.1022 177.5 90.4022 178.7C89.8022 179.7 113.402 190.4 112.702 191.6C112.002 192.7 93.4021 179.1 92.6021 180.3C91.7021 181.8 111.002 189.1 110.202 190.5C109.802 191.2 89.0021 177.4 88.3021 178.6C87.6021 179.8 114.702 192.2 114.002 193.4C113.302 194.6 91.2022 178.7 90.4022 180C89.4022 181.8 115.602 193.1 115.002 194.2C114.102 195.8 91.7022 180.4 90.9022 181.7C90.2022 182.9 112.202 192.1 111.402 193.5C110.902 194.4 93.7022 181.9 93.0022 183.1C92.0022 184.8 111.902 191.5 110.802 193.4C110.202 194.4 90.2022 182.6 89.9022 183.2C89.0022 184.7 109.402 193.1 108.802 194.1C108.502 194.6 93.3022 186 92.9022 186.7C92.0022 188.3 106.802 192.6 105.902 194.2C105.602 194.7 91.9021 186.8 91.3021 187.7C90.5021 189.2 106.102 195.2 105.602 196C105.002 197 88.9021 186.9 88.3021 188C87.7021 189.1 104.702 196.7 104.402 197.3C104.202 197.6 93.9021 191.5 93.6021 192.2C93.2021 192.9 103.402 196.6 102.802 197.5C102.502 198 91.0021 191 90.6021 191.7C90.1021 192.5 97.5022 194.9 97.2022 195.5C97.1022 195.6 94.0022 195.3 94.0022 195.4C93.9022 195.6 98.4022 197.8 98.4022 197.9" stroke="#999999" stroke-width="0.4" stroke-linecap="round" stroke-linejoin="round"/>
<path d="M157.702 144.4L159.002 145.1C159.002 145.2 157.502 145 157.402 145C157.402 145.1 159.502 146.2 159.502 146.2C159.502 146.3 157.302 145.1 157.302 145.2C157.302 145.3 159.702 146.5 159.702 146.6C159.602 146.7 156.902 146.2 156.802 146.4C156.702 146.6 160.702 148.6 160.702 148.6C160.602 148.7 158.902 150.2 158.802 150.4C158.702 150.6 159.202 150.2 159.002 150.5C159.002 150.5 159.002 150.6 159.002 150.7C158.802 151.1 159.502 150.7 159.402 150.9C159.402 151 158.402 152 158.402 152.1C158.102 152.6 160.802 153 160.602 153.4C160.502 153.5 158.002 153 158.002 153.1C157.802 153.5 161.702 154.6 161.402 155.1C161.302 155.3 156.102 153.7 156.002 154C155.802 154.4 160.102 155.5 159.702 156.2C159.602 156.3 156.402 156.8 156.302 156.9C155.902 157.5 162.802 160 162.502 160.5C162.202 161 154.202 156.5 154.002 156.8C153.602 157.4 167.602 163.4 167.102 164.3C166.802 164.8 157.902 159.2 157.702 159.6C157.402 160.1 163.202 161.9 162.802 162.6C162.602 162.9 157.202 160.8 157.102 161C156.502 162.1 167.302 165.3 166.602 166.5C166.102 167.4 153.202 158.3 152.802 159.1C152.402 159.8 165.102 165 164.602 165.9C164.402 166.2 155.302 162.3 155.002 162.7C154.502 163.6 172.002 171.2 171.402 172.2C171.102 172.8 154.002 161.5 153.502 162.4C153.102 163 166.302 168.9 165.902 169.5C165.702 169.8 155.602 165.3 155.302 166C154.802 166.9 168.202 172.4 167.802 173.2C167.502 173.7 155.302 166.3 155.002 166.8C154.402 167.8 173.802 175.4 172.802 177.1C172.002 178.5 151.902 165.1 151.502 165.8C150.602 167.4 174.102 177.1 173.302 178.4C172.502 179.9 149.202 164.3 148.402 165.7C147.502 167.2 171.002 176.9 170.202 178.3C169.502 179.5 149.102 165 148.402 166.3C147.702 167.6 172.802 179.3 172.302 180.1C171.602 181.4 151.302 167.4 150.502 168.7C149.502 170.4 170.302 177.9 169.302 179.6C168.502 181 148.002 167.7 147.502 168.6C146.902 169.6 173.602 182.4 173.102 183.4C172.302 184.8 153.002 171.2 152.602 171.9C151.702 173.5 172.002 180.7 171.002 182.5C170.602 183.2 148.202 170.2 147.702 171C147.002 172.1 169.702 182.2 169.002 183.3C168.402 184.4 147.502 171.3 146.902 172.3C146.102 173.7 171.102 185 170.602 186C169.602 187.7 145.302 172.2 144.302 173.8C143.302 175.5 171.402 187.9 170.702 189.1C170.302 189.8 149.502 177.9 148.702 179.3C148.002 180.6 168.302 188.5 167.302 190.1C166.702 191.2 145.102 177.6 144.402 178.8C143.802 179.8 167.402 190.5 166.702 191.7C166.002 192.8 147.402 179.1 146.602 180.4C145.702 181.9 165.002 189.2 164.202 190.6C163.802 191.3 143.002 177.5 142.302 178.6C141.602 179.8 168.702 192.2 168.002 193.4C167.302 194.6 145.202 178.7 144.402 180C143.402 181.8 169.602 193.1 169.002 194.2C168.102 195.8 145.702 180.4 144.902 181.7C144.202 182.9 166.202 192.1 165.402 193.5C164.902 194.4 147.702 181.9 147.002 183.1C146.002 184.8 165.902 191.5 164.802 193.4C164.202 194.4 144.202 182.6 143.902 183.2C143.002 184.7 163.402 193.1 162.802 194.1C162.502 194.6 147.302 186 146.902 186.7C146.002 188.3 160.802 192.6 159.902 194.2C159.602 194.7 145.902 186.7 145.302 187.7C144.502 189.2 160.102 195.2 159.602 196C159.002 197 142.902 186.9 142.302 188C141.702 189.1 158.702 196.7 158.402 197.3C158.202 197.6 147.902 191.5 147.502 192.1C147.102 192.8 157.302 196.5 156.702 197.4C156.402 197.9 144.802 190.9 144.502 191.6C144.002 192.4 151.402 194.8 151.102 195.4C151.002 195.5 147.902 195.2 147.902 195.3C147.802 195.5 152.302 197.7 152.202 197.8" stroke="#999999" stroke-width="0.4" stroke-linecap="round" stroke-linejoin="round"/>
<path d="M161.402 50.4C160.802 20.6 136.602 2.79999 110.102 4.99999C81.1021 4.09999 58.4022 22.9 54.9022 47.6C52.4022 51 50.9021 49.3 46.6021 49.1C21.6021 47.6 3.30218 67.5 5.90218 92C5.30218 115.1 23.5022 130.7 49.2022 128.6C48.8022 131.8 54.3021 131.8 59.1021 131.3C55.6021 131.2 142.402 131.3 144.202 132.8C147.302 129.8 154.602 129.7 157.802 131.2C182.202 133.2 199.502 112.5 200.302 88C202.502 66.5 183.202 50.6 161.402 50.4Z" stroke="#666666"/>
<path d="M65.9022 177.2C65.9022 178.6 65.7021 177.4 65.3021 177.2C65.9021 176.7 50.0021 145.2 50.3021 145.3C50.0021 144.8 35.2021 177.1 34.8021 177.8C34.7021 178 34.4022 177 34.9022 176.9C34.0022 179.3 34.0021 181.8 34.1021 182C33.4021 191.4 41.2021 198.3 50.1021 197.7C59.6021 199.8 67.0021 192.5 66.8021 183.6C66.8021 181.3 66.3022 179.9 65.9022 177.2Z" stroke="#666666"/>
<path d="M119.602 177.4C119.902 176.6 119.902 177.9 119.502 177.3C119.702 176.1 104.402 144.3 104.602 144.9C104.402 144.2 88.9021 177.6 88.8021 177.2C88.5021 177.1 88.3021 177.3 89.1021 176.5C88.3021 178.7 87.8021 181.7 87.8021 181.7C87.8021 191.8 95.1021 199.8 104.302 198.8C113.502 198.8 121.102 191.4 120.602 183.1C120.702 181.4 120.602 180.2 119.602 177.4Z" stroke="#666666"/>
<path d="M173.402 176.5C174.102 177.4 173.802 176.6 173.702 176.8C173.602 175.6 158.602 144.2 158.502 145.3C158.202 144.4 142.802 176 142.902 177.7C142.902 178 142.802 177.5 142.802 177.9C142.302 180.2 141.902 180.5 142.202 181.7C141.902 191.5 149.502 198.4 158.502 197.3C167.802 198 175.102 192.6 175.002 183C174.702 182 174.502 180 173.402 176.5Z" stroke="#666666"/>
<path d="M163.302 48.4999C156.702 22.3999 136.202 2.79993 110.702 1.29993C78.9021 2.19993 55.8021 23.0999 54.1021 49.4999C52.9021 48.6999 47.0021 49.7999 50.2021 47.4999C24.2021 47.7999 9.00216 66.9999 4.40216 89.8999C8.80216 111.3 25.8021 130.2 47.6021 131.5C52.4021 129.9 55.8022 130.9 59.4022 132.5C57.5022 130.2 144.102 130.3 141.302 131C144.802 130.1 152.202 129.4 158.302 130.8C181.702 130.7 199.202 111.6 202.802 90.5999C197.402 68.3999 178.502 52.3999 163.302 48.4999Z" stroke="#4D4D4D" stroke-width="0.75"/>
<path d="M65.6021 177C65.2021 177.8 65.2022 177.3 66.4022 177.8C65.2022 176.3 50.2021 144.5 50.1021 144.2C51.0021 145.4 35.6021 177 35.1021 177.4C35.5021 177.2 35.0021 177.4 35.3021 177.2C33.9021 179.2 34.3022 180.7 33.4022 183C34.1022 191.7 41.2021 197.9 50.5021 199.2C59.2021 198.8 67.0021 190.8 66.3021 182.9C66.1021 180.5 65.6021 178.7 65.6021 177Z" stroke="#4D4D4D" stroke-width="0.75"/>
<path d="M119.702 177.7C120.202 177.5 119.702 177.3 120.102 177.5C119.202 176.6 103.802 145.1 104.002 144.1C104.502 144.6 88.9021 176.8 89.2021 177.1C89.3021 177 88.4022 177 89.4022 177.4C88.5022 179 87.5022 180.4 87.4022 183.2C88.5022 191 94.8021 198.7 104.302 199C113.402 198.2 120.402 190.9 121.602 182.4C120.602 181 119.602 178.8 119.702 177.7Z" stroke="#4D4D4D" stroke-width="0.75"/>
<path d="M173.702 177.3C173.302 176.9 174.202 177.1 174.102 177.5C173.002 176.7 158.602 145.3 158.502 144.3C158.202 145.4 143.102 176.7 142.102 177.4C143.602 176.8 143.202 177.4 143.002 177.7C141.802 179.6 141.802 180.6 142.102 183.3C141.402 191.6 148.702 198.7 158.802 198.3C167.402 198.3 174.302 191 175.302 182.9C174.702 181.3 174.902 179.3 173.702 177.3Z" stroke="#4D4D4D" stroke-width="0.75"/>
</g>
<defs>
<filter id="filter0_d_3_45" x="0.0194702" y="0.924561" width="207.165" height="206.651" filterUnits="userSpaceOnUse" color-interpolation-filters="sRGB">
<feFlood flood-opacity="0" result="BackgroundImageFix"/>
<feColorMatrix in="SourceAlpha" type="matrix" values="0 0 0 0 0 0 0 0 0 0 0 0 0 0 0 0 0 0 127 0" result="hardAlpha"/>
<feOffset dy="4"/>
<feGaussianBlur stdDeviation="2"/>
<feComposite in2="hardAlpha" operator="out"/>
<feColorMatrix type="matrix" values="0 0 0 0 0 0 0 0 0 0 0 0 0 0 0 0 0 0 0.25 0"/>
<feBlend mode="normal" in2="BackgroundImageFix" result="effect1_dropShadow_3_45"/>
<feBlend mode="normal" in="SourceGraphic" in2="effect1_dropShadow_3_45" result="shape"/>
</filter>
</defs>
</svg>
