<svg xmlns="http://www.w3.org/2000/svg" width="221" height="222" fill="none"><g filter="url(#a)"><path stroke="#999" stroke-linecap="round" stroke-linejoin="round" stroke-width=".4" d="m114.402 1.2 1.4.8c-.1.1-2.7-.9-2.8-.8s2.9 1.6 2.8 1.6c-.1.1-3.2-1.8-3.3-1.6-.1.1 3.3 1.8 3.3 1.9-.1.2-5-1.8-5.2-1.5s1.6.7 1.6.9c-.1.1-2 1.5-2.1 1.7-.2.3 2.3.8 2.1 1.2l.3.3c-.3.5.3-.2.1.1 0 .1-2.2.4-2.3.5-.3.5 2.3.9 2.1 1.2-.1.1-2-.1-2.1 0-.2.3 2.3.8 2.1 1.2-.1.1-3.2-.1-3.3.1s.6-.2.3.2c-.1.1 1 3.1 1 3.2-.2.3.3-.2.2.1-.1.1-1.9.1-2 .1-.2.3 6 2.8 5.7 3.3-.1.2-3.8-1.7-3.9-1.6-.1.2 2.3.9 2.1 1.2-.1.1-2 .4-2.1.5-.3.5 2.4.7 2.1 1.2-.2.3-3.9-2-4-1.8-.2.3 1.6.5 1.4.8-.1.1 1.8 3.1 1.7 3.3-.2.3 3.9 1.8 3.7 2.1-.1.1-4.7-2.5-4.8-2.3s2.2 1 2.1 1.2c0 .1-2 1.3-2.1 1.4-.2.3 2.2 1 2.1 1.2 0 .1.6 1.3.5 1.3-.2.3 1.3.1 1 .6-.2.3-4-1.5-4.1-1.4-.3.5 4.5 2.1 4.3 2.5s-6.5-2.6-6.7-2.2c-.3.4 3.5 1.5 3.3 1.9-.1.2-3-1.3-3.1-1.2-.2.4 5.2 2.7 5.1 2.9-.1.1-2.3-.3-2.3-.2-.3.5 2.4.7 2.1 1.2-.2.3-4.5-1.3-4.6-1.1-.2.3 5.9 3 5.7 3.3-.1.2-3.1-1.6-3.2-1.5-.3.4 2.4.7 2.1 1.2-.1.1-3.5-.2-3.6-.1-.2.3 1.1.2.9.5 0 .1-1 1.1-1 1.1-.2.4 3.3 1.5 3.1 1.8s-4.5 0-4.6.3c-.2.3 3.4 1.7 3.3 1.9-.1.1-3.4.6-3.5.8l1.4.8M114.402 178.5l1.4.8c-.1.1-2.7-.9-2.8-.8s2.9 1.6 2.8 1.6c-.1.1-3.2-1.8-3.3-1.6-.1.1 3.3 1.8 3.3 1.9-.1.2-5-1.8-5.2-1.5s1.6.7 1.6.9c-.1.1-2 1.5-2.1 1.7-.2.3 2.3.8 2.1 1.2l.3.3c-.3.5.3-.2.1.1 0 .1-2.2.4-2.3.5-.3.5 2.3.9 2.1 1.2-.1.1-2-.1-2.1 0-.2.3 2.3.8 2.1 1.2-.1.1-3.2-.1-3.3.1s.6-.2.3.2c-.1.1 1 3.1 1 3.2-.2.3.3-.2.2.1-.1.1-1.9.1-2 .1-.2.3 6 2.8 5.7 3.3-.1.2-3.8-1.7-3.9-1.6-.1.2 2.3.9 2.1 1.2-.1.1-2 .4-2.1.5-.3.5 2.4.7 2.1 1.2-.2.3-3.9-2-4-1.8-.2.3 1.6.5 1.4.8-.1.1 1.8 3.1 1.7 3.3-.2.3 3.9 1.8 3.7 2.1-.1.1-4.7-2.5-4.8-2.3s2.2 1 2.1 1.2c0 .1-2 1.3-2.1 1.4-.2.3 2.2 1 2.1 1.2 0 .1.6 1.3.5 1.3-.2.3 1.3.1 1 .6-.2.3-4-1.5-4.1-1.4-.3.5 4.5 2.1 4.3 2.5s-6.5-2.6-6.7-2.2c-.3.4 3.5 1.5 3.3 1.9-.1.2-3-1.3-3.1-1.2-.2.4 5.2 2.7 5.1 2.9-.1.1-2.3-.3-2.3-.2-.3.5 2.4.7 2.1 1.2-.2.3-4.5-1.3-4.6-1.1-.2.3 5.9 3 5.7 3.3-.1.2-3.1-1.6-3.2-1.5-.3.4 2.4.7 2.1 1.2-.1.1-3.5-.2-3.6-.1-.2.3 1.1.2.9.5 0 .1-1 1.1-1 1.1-.2.4 3.3 1.5 3.1 1.8s-4.5 0-4.6.3c-.1.2 1.2.5 1.1.6 0 0-1.2.7-1.3.8l1.4.8M215.102 103.2l1.4.8c-.1.1-2.7-.9-2.8-.8s2.9 1.6 2.8 1.6c-.1.1-3.2-1.8-3.3-1.6-.1.1 3.3 1.8 3.3 1.9-.1.2-5-1.8-5.2-1.5s1.7.8 1.6.9c-.1.2-4 .2-4.2.5-.2.4 4.5 1.9 4.2 2.4-.1.1-2-1.1-2.1-1-.4.6 2.7 1.1 2.5 1.4-.1.2-6.8-2.6-7-2.3-.5.8 4 1.5 3.6 2.1-.1.2-4.1-1.4-4.2-1.2-.4.7 6.2 2.5 5.7 3.3-.4.6-12.3-5.9-12.7-5.3-.3.5 8.5 3.8 8.1 4.7-.2.3-11.2-4.3-11.4-3.9-.4.7 8.2 4 7.9 4.5-.4.7-11.6-6.1-11.9-5.6-.4.7 14 6.8 13.4 7.7-.3.6-10.5-5.9-10.7-5.5-.3.5 5.1 2.1 4.7 2.7-.2.4-7.5-3-7.7-2.7-.5.9 8 3.2 7.4 4.3-.5.8-12.1-7.4-12.5-6.7-.4.6 9.6 4.5 9.2 5.3-.2.3-9.6-3.8-9.9-3.4-.4.7 11.6 5.7 11.2 6.4-.2.4-12.1-7.3-12.4-6.7-.2.4 6 2.9 5.7 3.3-.1.2-5.5-1-5.6-.6-.2.4 4.4 2.1 4.2 2.4 0 .1-1.6 0-1.6.1-.2.3 1.7.3 1.4.8-.2.3-4.4-1.7-4.5-1.6-.2.4 3.1 1.4 2.9 1.7s-5.6-1.9-5.7-1.6c-.1.2 4.6 2.4 4.5 2.6s-4.3-2.2-4.5-2c-.1.1 3.5 1.9 3.4 2-.1.2-3.3-1-3.4-.8m0 0 1.4.8c-.1.1-1.4-.8-1.4-.8M39.202 103.2l1.4.8c-.1.1-2.7-.9-2.8-.8s2.9 1.6 2.8 1.6c-.1.1-3.2-1.8-3.3-1.6-.1.1 3.3 1.8 3.3 1.9-.1.2-5-1.8-5.2-1.5s1.7.8 1.6.9c-.1.2-4 .2-4.2.5-.2.4 4.5 1.9 4.2 2.4-.1.1-2-1.1-2.1-1-.4.6 2.7 1.1 2.5 1.4-.1.2-6.8-2.6-7-2.3-.5.8 4 1.5 3.6 2.1-.1.2-4.1-1.4-4.2-1.2-.4.7 6.2 2.5 5.7 3.3-.4.6-12.3-5.9-12.7-5.3-.3.5 8.5 3.8 8.1 4.7-.2.3-11.2-4.3-11.4-3.9-.4.7 8.2 4 7.9 4.5-.4.7-11.6-6.1-11.9-5.6-.4.7 14 6.8 13.4 7.7-.3.6-10.5-5.9-10.7-5.5-.3.5 5.1 2.1 4.7 2.7-.2.4-7.5-3-7.7-2.7-.5.9 8 3.2 7.4 4.3-.5.8-12.1-7.4-12.5-6.7-.4.6 9.6 4.5 9.2 5.3-.2.3-9.6-3.8-9.9-3.4-.4.7 11.6 5.7 11.2 6.4-.2.4-12.1-7.3-12.4-6.7-.2.4 6 2.9 5.7 3.3-.1.2-5.5-1-5.6-.6-.2.4 4.4 2.1 4.2 2.4 0 .1-1.6 0-1.6.1-.2.3 1.7.3 1.4.8-.2.3-4.4-1.7-4.5-1.6-.2.4 3.1 1.4 2.9 1.7s-5.6-1.9-5.7-1.6c-.1.2 4.6 2.4 4.5 2.6s-4.3-2.2-4.5-2c-.1.1 3.5 1.9 3.4 2-.1.2-3.3-1-3.4-.8m0 0 1.4.8c-.1.1-1.4-.8-1.4-.8M188.902 26.4l1.6.9c-.1.1-2-.5-2.1-.4-.1.2 4.2 2.3 4.1 2.4s-4.2-2.4-4.3-2.2 5 2.7 4.9 2.8c-.1.2-5-1.8-5.2-1.5-.3.5 4.8 2.5 4.7 2.7s-4 .2-4.1.5c-.2.3 2.6 1 2.3 1.4v.1c-.3.5.5-.1.4.2-.1.1-3.6-.5-3.7-.3-.3.5 2.5 1 2.3 1.4-.1.2-3.1-.7-3.1-.6-.2.3 2.6.9 2.3 1.4-.1.2-4.7-1-4.8-.8-.1.3.9-.1.6.3 0 .1-.9 2-1 2.1-.2.4.6-.1.4.2-.1.2-3-.6-3.1-.5-.2.3 6.2 2.9 5.9 3.4-.1.2-4.5-2.2-4.6-2s2.5 1 2.4 1.4c-.1.2-3.4-.4-3.4-.3-.3.5 2.7.8 2.4 1.4-.2.3-4.5-2.4-4.6-2.1-.2.3 1.9.6 1.7 1 0 .1 0 2.2-.1 2.3-.2.4 4.1 1.9 3.9 2.3-.1.2-5.3-2.9-5.4-2.6-.1.2 2.5 1.1 2.4 1.4-.1.1-3.9.1-4 .3-.2.3 2.5 1.1 2.4 1.4l-.4.8c-.2.3 1.6.2 1.2.7-.2.3-4.9-2.1-5-1.9-.3.5 4.8 2.2 4.5 2.6-.3.5-7.8-3.4-8.1-3-.3.5 3.8 1.6 3.5 2-.1.2-3.6-1.7-3.7-1.5-.2.4 5.5 2.9 5.4 3.1s-3.2-.9-3.3-.8c-.3.5 2.7.9 2.4 1.4-.2.4-5.8-2.1-5.9-1.8-.2.3 6.2 3.2 6 3.5-.1.2-3.6-1.9-3.7-1.8-.3.5 2.7.9 2.4 1.4-.1.1-5-1.2-5.1-1-.2.3 1.4.4 1.2.7-.1.1-2.4.2-2.4.3-.2.4 3.6 1.7 3.4 2-.2.4-6.5-1.3-6.7-1-.3.5 6.3 3.2 6.1 3.5-.1.1-3.1.9-3.2 1.1-.2.3.9.1.7.4-.1.1.6 2.1.6 2.2l1.6.9M63.802 151.5l1.6.9c-.1.1-2-.5-2.1-.4-.1.2 4.2 2.3 4.1 2.4s-4.2-2.4-4.3-2.2 5 2.7 4.9 2.8c-.1.2-5-1.8-5.2-1.5-.3.5 4.9 2.5 4.7 2.7-.1.2-4 .2-4.1.5-.2.3 2.6 1 2.4 1.4v.1c-.3.5.5-.1.4.2-.1.1-3.6-.5-3.7-.3-.3.5 2.5 1 2.3 1.4-.1.2-3.1-.7-3.1-.6-.2.3 2.6.9 2.3 1.4-.1.2-4.7-1-4.8-.8-.1.3.9-.1.6.3 0 .1-.9 2-1 2.1-.2.4.6-.1.4.2-.1.2-3-.6-3.1-.5-.2.3 6.2 2.9 5.9 3.4-.1.2-4.5-2.2-4.6-2s2.5 1 2.4 1.4c-.1.2-3.4-.4-3.4-.3-.3.5 2.7.8 2.4 1.4-.2.3-4.5-2.4-4.6-2.1-.2.3 1.9.6 1.7 1 0 .1 0 2.2-.1 2.3-.2.4 4.1 1.9 3.9 2.3-.1.2-5.3-2.9-5.4-2.6-.1.2 2.5 1.1 2.4 1.4-.1.1-3.9.1-4 .3-.2.3 2.5 1.1 2.4 1.4l-.4.8c-.2.3 1.6.2 1.2.7-.2.3-4.9-2.1-5-1.9-.3.5 4.8 2.2 4.5 2.6-.3.5-7.8-3.4-8.1-3-.3.5 3.8 1.6 3.5 2-.1.2-3.6-1.7-3.7-1.5-.2.4 5.5 2.9 5.4 3.1s-3.2-.9-3.3-.8c-.3.5 2.7.9 2.4 1.4-.2.4-5.8-2.1-5.9-1.8-.2.3 6.2 3.2 6 3.5-.1.2-3.6-1.9-3.6-1.8-.3.5 2.7.9 2.4 1.4-.1.1-5-1.2-5.1-1-.2.3 1.4.4 1.2.7-.1.1-2.4.3-2.4.3-.2.4 3.6 1.7 3.4 2-.2.4-6.5-1.3-6.7-1-.3.5 6.3 3.2 6.1 3.5-.1.1-3.1.9-3.2 1.1-.2.3.9.1.7.4-.1.1.6 2.1.6 2.2l1.6.9M170.102 151.5s1.6.9 1.5.9c-.1.1-2-.5-2.1-.4-.1.2 4.2 2.3 4.1 2.4s-4.2-2.4-4.3-2.2 4.9 2.7 4.8 2.8c-.1.2-4.9-1.8-5.1-1.5-.3.5 5.2 2.6 5 2.9-.1.2-4.3 0-4.5.3-.4.7 11.8 5.7 11.3 6.6-.3.6-8.9-5.4-9-5.1-.6 1.1 10.2 5.1 9.8 5.7-.3.4-12-6-12.4-5.4-.8 1.4 13.8 6.6 13.3 7.7-.4.7-12.1-6.6-12.5-6-.7 1.2 17.7 8.3 16.9 9.8-.5.9-18.3-9.8-18.9-8.9-.5.9 22.5 10.9 21.6 12.5-.2.4-13.7-5.9-13.9-5.4-.5.9 13.8 6.9 13.4 7.7-.4.7-11.9-6.3-12.2-5.8-.4.7 15.7 7.6 15.1 8.7-.3.5-9.2-5.2-9.5-4.8-.3.5 4.6 1.9 4.3 2.5 0 .1-.1 1.5-.2 1.6-.3.6 2.2.4 1.8 1-.2.3-4.5-2.4-4.6-2.1-.2.3 2.2.7 1.9 1.1-.1.1 2.4 3.5 2.3 3.6 0 0 2.2 1.2 2.2 1.3 0 0-1.6-.8-1.7-.8 0 0 1.6.9 1.5.9M45.002 26.4s1.6.9 1.5.9c-.1.1-2-.5-2.1-.4-.1.2 4.2 2.3 4.1 2.4s-4.2-2.4-4.3-2.2 4.9 2.7 4.8 2.8c-.1.2-4.9-1.8-5.1-1.5-.3.5 5.2 2.6 5 2.9-.1.2-4.3 0-4.5.3-.4.7 11.9 5.7 11.4 6.6-.3.6-8.9-5.4-9-5.1-.6 1.1 10.2 5.1 9.8 5.7-.3.4-12-6.1-12.4-5.4-.8 1.4 13.9 6.7 13.3 7.7-.4.7-12.2-6.6-12.5-6-.7 1.2 17.8 8.3 16.9 9.8-.5.9-18.3-9.8-18.9-8.9-.5.9 22.5 10.9 21.6 12.4-.2.4-13.7-5.8-13.9-5.4-.5.9 13.8 6.9 13.4 7.7-.4.7-11.9-6.3-12.2-5.8-.4.7 15.7 7.6 15.1 8.7-.3.5-9.2-5.1-9.5-4.8-.3.5 4.6 1.9 4.3 2.5 0 .1-.1 1.5-.2 1.6-.3.6 2.2.4 1.8 1-.2.3-4.5-2.4-4.6-2.1-.2.3 2.2.7 1.9 1.1-.1.1 2.4 3.5 2.3 3.7 0 0 2.2 1.2 2.2 1.3 0 0-1.6-.8-1.7-.8 0 0 1.6.9 1.5.9M136.202 58.6c-.1.1 4.6 2.5 4.6 2.6-.2.3-6.4-3.4-6.6-3-.5 1 6.2 2.8 5.9 3.4-.1.2-6.5-3.9-6.6-3.6-.6 1 8.1 4 7.8 4.5-.5.8-15.8-9.1-16.4-8-1 1.7 22.7 12 22.2 12.8-.8 1.4-25.6-14.1-26.5-12.4-.9 1.5 31.9 15.9 30.8 17.8s-28.1-17.4-28.7-16.4c-1.3 2.3 30 15.6 29.3 16.9s-33.1-19.9-34.2-18c-1.4 2.5 33.7 16.9 32.6 18.8-1 1.8-32-19.5-33-17.8-1.1 2 36.9 18.1 35.5 20.5-1.2 2.1-40.9-24.3-42.1-22.3-.9 1.6 43.7 21.7 42.2 24.4-.8 1.4-43.6-24.6-44.5-23-1.4 2.5 48.3 25.1 47.1 27.2-1.8 3.1-49.3-30.1-50.6-27.9-1.4 2.4 56.8 28.1 54.8 31.6-1.7 2.9-50.5-31.4-51.8-29.2-1 1.8 48.6 25 47.2 27.3-1.6 2.7-47.9-29-49.2-26.7-2.1 3.7 54.8 26.2 52.5 30.3-2.3 3.9-55.3-35.8-57.2-32.5-1.5 2.5 56.8 28.8 55 31.8-.9 1.6-53-31.9-54.6-29.2-1.7 2.9 62.2 31.8 60.4 34.9-1.1 1.9-60.4-38.4-62.2-35.4-1.1 2 57.6 30.5 56.4 32.6-1 1.7-54.3-33.4-56.3-29.9-1.5 2.6 58.2 30.6 56.9 32.9-1.5 2.5-56.6-34.6-57.9-32.4-1.6 2.7 65.1 31.4 62.4 36-2.6 4.6-65.2-39.6-66.5-37.4-2.5 4.3 68.8 34.8 66.7 38.5-2.5 4.2-68.3-43.3-70.7-39.1s69.5 35.1 67.3 38.9c-2.1 3.6-65.3-42.4-67.6-38.4-2 3.5 71 38 69.7 40.2-2.4 4.1-65.7-42.3-68.1-38.2-2.7 4.7 67.7 32.9 65.1 37.6-2.6 4.6-67.2-41-68.8-38.2s74.2 39.3 72.6 41.9c-2.7 4.7-66.3-41.2-67.7-38.8-2.5 4.3 68.4 33 65.6 37.9-1.3 2.3-69.8-41.7-71.3-39.2-1.8 3.1 71.2 37.1 69.5 40.1-2 3.5-69.1-42.3-70.9-39.2-2.1 3.7 74.4 39.5 72.9 42.1-3 5.2-73.8-46-76.5-41.3s79.2 41.4 77.3 44.6c-1.5 2.6-70.9-44.6-73.7-39.7-2.1 3.7 73.9 36.6 71.2 41.1-2.2 3.8-73.8-46-76.1-42-1.8 3.1 78.3 40.5 76.2 44-2.4 4.2-71.4-47.2-74.1-42.5-2.6 4.5 74.2 37.2 71.8 41.4-1.4 2.4-74-47.3-76.3-43.4-2.2 3.8 82.4 42.7 80.3 46.4-2.4 4.1-75.8-49.2-78.3-45-3.1 5.3 81.2 42.5 79.4 45.8-3 5.2-76.7-48.9-79.3-44.4-2.2 3.7 78.9 39.6 76.3 44.1-2.1 3.6-71.6-47.5-74.4-42.7-3 5.2 77.2 36.9 73.8 42.6-2.2 3.8-76.5-45.5-77.9-43.1-2.9 4.9 78.7 41.1 76.8 44.3-1.4 2.4-72.9-44.7-74.8-41.4-3.3 5.7 76.2 36.6 73 42.1-1.5 2.7-72.8-47-75.8-41.8-3.3 5.8 78.7 41.4 76.9 44.4-2.9 5.1-78.6-50.2-81.5-45.1-3 5.1 83.6 44.5 82 47.3-1.5 2.5-75.2-48.3-77.8-43.8-2.1 3.6 80.3 39.6 77.4 44.7-1.9 3.2-79.3-50.9-82.1-46.1-3.2 5.6 80.4 41.2 78.2 45.1-1.4 2.5-77.3-47.6-79.7-43.4-2.9 5 82.9 43.1 80.9 46.7-2.3 4-73-45.6-75.3-41.6-3.3 5.7 79.2 38.9 76.2 44-2.1 3.7-77.9-50-80.8-45-3.2 5.5 79 41.8 77.3 44.7-2.7 4.6-73.7-47.5-76.2-43.1-2 3.4 81.1 42 79.1 45.6-1.7 3-74.9-48.4-77.6-43.7-2.2 3.8 76.1 40.2 74.5 43-2.3 4.1-73.3-43.3-74.8-40.8-3.3 5.8 78.5 41.4 76.8 44.4-1.8 3.1-74.7-47.1-77.5-42.4-3 5.1 75 39.6 73.4 42.4-2.1 3.6-71.9-45.3-73.9-41.9-2.6 4.5 77.6 38.4 74.9 43.2-2.5 4.4-72.9-46.6-75.8-41.5-2.6 4.6 77.4 38 74.5 43-2 3.5-76.7-50.1-79.7-44.8-1.7 2.9 81.7 43.9 80.3 46.4-2.7 4.6-74.9-46.2-76.8-43-2 3.4 77.4 40.8 75.7 43.7-2.7 4.7-78.6-47.4-80.4-44.4-3.1 5.3 79.8 38.9 76.6 44.3-2.3 4-70.2-44.9-72.4-41.1-1.7 3 77.8 38.3 74.9 43.2-2.6 4.6-71.8-47.2-74.3-42.9-2.9 5.1 74.3 37.1 71.8 41.4-1.7 2.9-69.6-44.7-71.9-40.7-1.9 3.2 76.5 37 73.4 42.4-2.6 4.5-72.3-46-74.2-42.6-2.8 4.8 70.5 36.6 68.7 39.7-2.2 3.9-67.4-40.2-69.1-37.3-2.8 4.9 74.4 37.9 72.2 41.7-1.9 3.3-69.7-42.4-71.4-39.4-1.8 3.2 68.4 33.6 65.8 38-1.8 3.2-65.5-43.3-68.2-38.6-1.9 3.3 72.3 38.3 70.8 40.9-1.4 2.4-67.8-42.7-70.5-37.9-2.1 3.6 70.7 35.8 68.5 39.6-2 3.5-66.7-41.5-68.2-38.8-2.1 3.6 68.5 34.5 66.3 38.3-2 3.5-64.5-41.7-67.2-37.1-1.5 2.7 68.5 34.3 66.2 38.2-2.2 3.7-63.3-38.5-64.6-36.3-2.5 4.4 62.4 33.1 61.1 35.3-2.1 3.6-59-35.6-60.7-32.5-2 3.5 64 32.2 61.9 35.7-1.9 3.3-60.7-36.7-62.3-33.9-1.5 2.7 62.4 32.5 60.9 35.1-1.5 2.5-61.4-38.1-62.8-35.7-1.9 3.4 59.7 29.5 57.5 33.2-1.9 3.2-56.6-36.8-58.7-33.2-1.2 2 61.2 29.8 58.8 33.9-2.1 3.7-52.6-32.8-54.4-29.7-2.2 3.8 53.2 26.3 51.3 29.6-1.3 2.2-53.4-33.7-55.1-30.8-1.1 2 60.7 30.8 58.8 34-1.7 2.9-53-32.1-54.6-29.3-1 1.8 49 24.9 47.5 27.4-1.7 2.9-45.5-26.4-46.6-24.6-.9 1.6 49.4 25.2 48 27.7-.8 1.4-44.6-28.5-46.4-25.4-1.4 2.4 40.6 20.8 39.4 22.8-1.1 1.8-34.6-19.5-35.5-17.9s35.9 17.4 34.5 19.9c-.7 1.2-37.5-22.7-38.2-21.5-1.5 2.7 39.6 20.4 38.5 22.2-1 1.8-32.5-19-33.3-17.6-1.3 2.3 30.4 15.2 29.4 17-.7 1.1-26-14.7-27-13-.6 1 21.9 10.4 20.9 12.1-.3.5-14.7-7.1-15.1-6.3-.1.1 4.6 2.5 4.6 2.6"/><path stroke="#666" d="M115.302 37.2c0 .5-7.7-.1-7.7.3V2.4c0-1.2 7.7-1.7 7.6-.7.2 0 .1 35.6.1 35.5ZM115.202 212.6c.1.7-7.6.9-7.6.8-.1-.2-.1-35.1.1-34.3 0-.7 7.6-.4 7.5-.2 0-.2.1 34.8 0 33.7ZM181.502 112.4c0-.1 0-9 .4-8.9-.6-.2 34.1.1 33.8 0 .3-.1.2 8.9.1 8.8.3.1-34.2.3-34.3.1ZM5.502 112.6c-.1-.1.3-9.2.3-8.9-.3-.1 34.4-.3 34.2-.1.2 0 .1 9-.1 8.8.1.1-34.6.2-34.4.2ZM170.902 57.1c-.2.4-6.6-5.3-6.2-5.1-.4-.9 24.8-26.1 24.5-25 .6-.9 6.5 5.7 6.5 6.4.3-1.1-25.3 24.1-24.8 23.7ZM45.702 182.3c-.4.5-6.4-5.7-6.5-5.1-.1-.9 25.3-25.5 24.8-25.3.6-.9 7 5.6 6.2 5.9.5-.2-24.8 25.8-24.5 24.5ZM164.502 158.5c-.1-.8 6.1-6.6 6.4-6.3-.1-.3 25 25.1 24.7 24.1.4.6-5.9 6.8-6 6.7-.1.4-25.1-25.5-25.1-24.5ZM39.302 33.4c-.1-1.2 6.1-7.1 6.3-6.7-.1.3 25.1 25.1 25.1 24.5.1.2-6.2 7-6.4 6.8 0 .2-25.3-25.6-25-24.6ZM162.702 102c1.2 25.9-22 49.9-48.4 48.5-28.3 0-49.8-22.7-48.3-49-.6-25.7 21.2-49.3 47.7-48.6 27-.8 49.3 21.2 49 49.1Z"/><path stroke="#4D4D4D" stroke-width=".75" d="M115.202 37.3c0-.2-7.4.1-7.5-.2.1.2 0-35.5-.1-35.9 0 .3 7.7.6 7.8.3-.1 0-.3 35.8-.2 35.8ZM115.302 213c-.2-.2-7.7-.1-7.6.6 0-.6-.1-35-.2-34.9.1.6 7.7.3 7.9-.2-.1.4-.1 34.3-.1 34.5ZM181.902 112.6c.5-.2-.7-9-.4-9.1.7 0 35 .1 34.6 0-.5 0 .2 8.9-.1 9-.9-.1-34.3 0-34.1.1ZM5.202 112.6c1-.2.7-8.9.1-9 .6.1 34.4.1 35.4 0-1.4.1-1.1 8.8-.8 8.9-.5-.1-33.5 0-34.7.1ZM170.102 57.8c.5-.3-5.1-6.2-6.2-6.4.4-.2 25.7-24.8 25.9-24.9.2 0 5.9 6.2 6.2 6.2-.7.1-25.3 25.3-25.9 25.1ZM45.702 183.2c.6-.6-5.9-6.6-6.8-6.7 1.1.3 25.7-24.9 26-24.9-.5 0 5.9 6.7 6.1 6.4-.8-.2-24.6 25.1-25.3 25.2ZM163.902 157.8c1.2.1 7.6-5.7 6.7-6.3-.3.5 25 24.9 25.5 25-.9.4-6.1 6.1-6.7 6.6-.4-.2-24.2-25.2-25.5-25.3ZM39.202 32.8c.8.2 6.2-6.2 5.9-6.7.8.3 25.2 25.1 25.2 25.8.5-.4-6.5 5.8-5.2 6.3-1.1-.7-25.7-25.6-25.9-25.4ZM163.702 102.7c-2.9 25.8-21.3 46.6-49.1 47.7-26.4-.4-48.6-21-49.9-49 3.1-26 24.5-47.9 49.8-48.4 27.3 1 46 22.5 49.2 49.7Z"/></g><defs><filter id="a" width="219.905" height="221.259" x=".8" y=".666" color-interpolation-filters="sRGB" filterUnits="userSpaceOnUse"><feFlood flood-opacity="0" result="BackgroundImageFix"/><feColorMatrix in="SourceAlpha" result="hardAlpha" values="0 0 0 0 0 0 0 0 0 0 0 0 0 0 0 0 0 0 127 0"/><feOffset dy="4"/><feGaussianBlur stdDeviation="2"/><feComposite in2="hardAlpha" operator="out"/><feColorMatrix values="0 0 0 0 0 0 0 0 0 0 0 0 0 0 0 0 0 0 0.25 0"/><feBlend in2="BackgroundImageFix" result="effect1_dropShadow_3_5"/><feBlend in="SourceGraphic" in2="effect1_dropShadow_3_5" result="shape"/></filter></defs></svg>