<svg xmlns="http://www.w3.org/2000/svg" width="208" height="208" fill="none"><g filter="url(#a)"><path stroke="#999" stroke-linecap="round" stroke-linejoin="round" stroke-width=".4" d="M177.002 53.5c-.1.1 4.3 2.3 4.2 2.4-.2.4-10.7-5.4-11-4.9-.6 1 18.2 9 17.6 10.1-.5.8-20.3-12.2-20.7-11.5-.7 1.1 18.7 9.6 18.2 10.5-.8 1.4-22.6-12.6-23.3-11.4s28.4 14.2 27.5 15.9c-.8 1.5-25-16.3-25.9-14.7-.8 1.4 29 14.9 28.2 16.3"/><path stroke="#999" stroke-linecap="round" stroke-linejoin="round" stroke-width=".4" d="M136.002 10.2c-.2.3 3 1.4 2.8 1.6-.3.4-8.2-4.5-8.5-4.1-.6 1.1 7.9 3.7 7.5 4.3-.2.3-7.9-4.8-8.1-4.4-.6 1.1 9.8 4.9 9.4 5.4-.5.9-17.6-10.3-18.3-9.1-1 1.8 24.5 13 24 13.9-.9 1.5-27.5-15.4-28.6-13.6-.9 1.6 34.2 17.1 33.1 19.1-1.2 2.1-30.4-18.8-31-17.7-1.4 2.4 32.4 16.9 31.6 18.2-.8 1.4-35.3-21.4-36.5-19.3-1.5 2.6 35.9 18.1 34.8 20.1-1.1 1.9-34.5-21.1-35.5-19.3-1.2 2.1 39.7 19.5 38.2 22-1.3 2.3-43.5-26-44.8-23.9-1 1.7 46.5 23.1 44.9 25.9-.9 1.5-46.6-26.5-47.6-24.8-1.5 2.6 51.6 26.9 50.3 29-1.9 3.3-52.5-32.1-53.8-29.8-1.5 2.6 60.2 29.8 58 33.5-1.8 3.1-53.7-33.4-55-31.1-1.1 1.9 51.9 26.7 50.5 29.2-1.7 2.9-51.3-31.2-52.7-28.7-2.2 3.9 58.6 28 56.1 32.4-2.4 4.2-58.9-38.1-60.9-34.6-1.6 2.7 60.6 30.7 58.7 33.9-1 1.7-56.6-34.2-58.3-31.3-1.8 3.1 66.1 33.8 64.2 37.1-1.2 2.1-64.2-40.8-66-37.6-1.2 2.1 61.6 32.6 60.3 34.8-1.1 1.9-58.4-36.1-60.5-32.3-1.6 2.7 62.6 33 61.2 35.3-1.6 2.7-60.8-37.3-62.2-34.9-2.4 4.1 101.7 49.4 97.7 56.4-4.1 7-99.8-61.1-101.8-57.8-3.8 6.6 106.1 53.8 102.9 59.4-3.7 6.5-103.4-66.5-107-60.1-3.7 6.4 108.5 54.9 105.1 60.7-3.3 5.7-101.9-66.5-105.5-60.3-3.1 5.4 109.9 58.9 107.9 62.3-3.7 6.4-102.7-66.8-106.5-60.3-4.2 7.2 108.3 53 104.2 60.1-4.2 7.2-105.4-65.3-108-60.8-2.5 4.3 115.1 61.1 112.8 65.1-4.3 7.5-105.7-65.8-107.9-62-3.8 6.7 110.2 53.7 105.9 61.2-2 3.6-109.4-66.6-111.7-62.5-2.8 4.8 113.6 59.4 110.9 64-3.2 5.5-109.6-68.1-112.5-63.2-3.3 5.7 117.5 62.4 115.1 66.5-4.7 8.2-114.6-73.2-118.9-65.7-4.2 7.3 123.7 64.7 120.8 69.7-2.4 4.1-112.8-72.8-117.4-64.9-3.3 5.8 119.8 59.7 115.7 66.8-3.5 6-117.1-74.1-120.7-67.8-2.8 4.8 124.5 64.6 121.4 70.1-3.9 6.8-114.9-76.1-119.3-68.6-4.1 7 120.8 61 117 67.6-2.2 3.9-118-75.8-121.6-69.5-3.4 5.9 129.2 66.9 125.9 72.7-3.8 6.5-120-78-123.8-71.3-4.8 8.3 127.9 67.1 125 72.2-4.8 8.3-120.9-77.9-125-70.8-3.4 5.8 126.4 63.6 122.4 70.6-3.3 5.8-115.9-77.1-120.4-69.3-4.7 8.1 125.1 60.3 119.9 69.2-3.5 6.1-121.8-73.6-124.1-69.7-4.5 7.7 126.3 66.2 123.4 71.2-2.2 3.9-118.4-73.7-121.5-68.4-5.1 8.8 125.1 60.7 120.1 69.3-2.5 4.4-118.2-77.6-123.1-69.1-5.2 9.1 127.3 67.1 124.6 71.9-4.6 8.1-124.6-80.8-129.2-72.7-4.7 8.1 132.7 70.6 130.1 75.1-2.4 4.1-121.8-79-126-71.7-3.2 5.6 130.5 64.6 125.8 72.7-3 5.1-126.2-81.7-130.6-74.1-5.1 8.8 130.5 67.1 126.9 73.3-2.4 4.1-124.8-78.5-128.7-71.7-4.6 8 133.5 69.6 130.2 75.2-3.9 6.7-120.9-76.8-124.7-70.2-5.2 9.1 130.7 64.6 126 72.8-3.5 6-126-81.9-130.7-73.8-5.1 8.8 130.2 69 127.6 73.6-4.5 7.7-122.2-79.4-126.5-72.1-3.2 5.5 132.8 69 129.4 74.7-2.9 4.9-123.6-80.5-128-72.8-3.5 6 127.6 67.6 125 72.2-4 6.9-123.1-74.4-125.6-70.1-5.4 9.3 130.7 69.1 128 73.9-3 5.1-124.2-79.9-128.8-72-4.8 8.3 127.8 67.7 125.2 72.3-3.6 6.2-122.4-77.5-125.6-71.8-4.2 7.3 131.2 65.3 126.7 73.1-4.3 7.5-122.8-80.1-127.8-71.5-4.3 7.5 131.4 65 126.7 73.2-3.3 5.8-127-83.8-132.1-75.1-2.8 4.8 135.2 72.7 132.9 76.7-4.5 7.8-126.4-78.8-129.5-73.4-3.2 5.6 131.5 69.4 128.6 74.3-4.5 7.9-130.5-80.1-133.5-75-5.2 8.9 135.1 66 129.9 75-4 7-121.9-78.5-125.7-71.9-2.9 5 133.1 65.8 128.3 74.1-4.5 7.9-123.4-81.2-127.7-73.7-4.9 8.5 129.4 65 125.2 72.3-2.9 5-121.3-78.6-125.3-71.6-3.1 5.4 132.1 64.3 126.9 73.3-4.5 7.7-124.4-79.4-127.8-73.5-4.7 8.1 125.3 65.4 122.3 70.6-4 6.9-120-73.7-123-68.5-4.9 8.4 130.3 66.6 126.6 73.1-3.3 5.8-122.9-76.3-126-70.9-3.2 5.5 124.9 61.9 120.5 69.6-3.3 5.7-118.2-78.6-123-70.3-3.3 5.8 128.2 68.1 125.6 72.5-2.5 4.4-120.7-78.3-125.7-69.7-3.7 6.4 127.9 65.1 124.1 71.7-3.7 6.4-121.1-75.8-123.9-71-3.7 6.4 126 63.7 122.1 70.5-3.8 6.6-120-79.1-125-70.5-2.8 4.8 128.3 64.5 124.1 71.7s-122.3-75.4-124.8-71.1c-4.8 8.2 123.8 66 121.4 70.1-4.3 7.5-122.3-76.6-126-70.2-4 6.9 131.8 66.6 127.6 73.7-4.1 7.1-128.3-80-131.7-74-3.2 5.6 133.5 69.9 130.4 75.3s-130.3-81.5-133.3-76.4c-4.1 7.1 132.7 66.1 128.2 74-4.2 7.2-125.9-82.8-130.6-74.7-2.5 4.4 136 66.6 130.8 75.5-5.1 8.8-124.7-80.2-129-72.8-4.9 8.5 130.5 65.5 126.3 72.9-3 5.2-127.7-82.1-131.7-75-2.6 4.5 139.8 71 135.6 78.3-4.2 7.2-130.9-82.7-135-75.7-2.5 4.3 131.9 67.9 128.3 74.1-4.7 8.2-128.1-78.6-131.1-73.4-2.5 4.3 136.8 70.1 133 76.8-2.4 4.1-128.5-84.8-133.7-75.8-3.9 6.8 130.3 67.7 127 73.3-3.9 6.8-124.3-77-127.7-71.1-3 5.2 132.1 65.5 127.5 73.6-2.4 4.2-129.7-79.9-132.1-75.7-5.1 8.9 136.2 70.5 132.7 76.6-4.1 7-127.5-79.7-130.9-73.9-5.1 8.8 131.5 67 127.6 73.7-3.3 5.8-126.3-82.1-131.4-73.3-3.2 5.5 132.7 64.5 127.4 73.6-2.4 4.2-126.6-79-130.3-72.5-2.9 5.1 126 64.7 122.5 70.8-4.4 7.7-120.2-77.4-124.7-69.6-4.6 7.9 123.8 62.5 119.9 69.2-4.3 7.5-120.1-74.8-122.9-70-4.6 7.9 125.7 61.7 121 69.8-2.5 4.3-119-73.8-121.5-69.3-4.9 8.4 124.1 64.5 121 69.8-2.9 5-118.8-73.9-122.1-68.2-4.1 7.1 120.3 60.7 116.5 67.2-4.3 7.4-108.7-72.3-113.2-64.5-3.5 6.1 116 57.6 112 64.7-3.8 6.7-110.6-71.6-114.1-65.5-2.4 4.1 120 62 116.9 67.5-3 5.2-114.9-73.5-118.9-66.7-4.1 7 119.9 61.3 116.5 67.3-4.6 8-112.5-71-115.9-65.1-4.4 7.7 114.6 61.5 112.6 65-2 3.4-109.1-69.7-112.8-63.4-2.1 3.6 108.4 56 105.6 61-4.2 7.3-104.7-64.2-107-60.2-4.5 7.8 109.2 56.4 106.3 61.4-1.9 3.3-102.1-62.7-104.6-58.4-3.7 6.4 106.5 56.1 104.2 60.1-2.2 3.9-107.7-68.5-111.1-62.6-2.9 5 109.5 55.9 106.3 61.4-2.8 4.8-98.5-62.5-102.2-56.1-2.2 3.8 102.3 50.3 98.5 56.9-3.8 6.5-99-62.3-102.4-56.5-1.9 3.4 101.3 49.1 97.2 56.1-3.7 6.4-93.2-57.7-95.3-54-2.7 4.7 94.5 48.8 92 53.1-2.2 3.7-89.2-56.6-91.9-52-2.3 4 96.3 47.7 92.8 53.6-3.2 5.5-90.2-57.4-93.1-52.5-2.2 3.8 91.2 47.6 89 51.4-2 3.5-86.3-56.3-89.9-50.1-3.4 5.9 87.3 44.2 84.6 48.8-3.1 5.4-81.1-51.8-83.5-47.7-1.9 3.2 84.5 43.8 82.3 47.5-2 3.4-84.8-51.1-86.5-48.3-3.6 6.3 88.2 45.8 86 49.7-1.5 2.5-82-50-84.1-46.4-2.4 4.2 82 39.7 78.7 45.4-2.4 4.1-78.8-50.6-81.7-45.7-2.6 4.6 80.5 42.7 78.9 45.5-2.5 4.4-79-49.6-81.2-45.9-3.1 5.3 81.5 41.4 79 45.6-3 5.1-77.2-47.6-79-44.4-2.8 4.9 81.5 41.5 79.1 45.7-2 3.4-77.6-47.1-79.3-44.2-2.3 3.9 82.8 40.5 79.7 46-2.7 4.6-73.6-46.1-76.3-41.5-2.1 3.6 68.3 32.6 65.4 37.7-1.3 2.3-63.6-37.8-65-35.4-2.3 4 66.3 33 64 37-1.8 3.1-65.6-40.5-67.1-37.9-2 3.5 66.7 33.1 64.4 37.2-2.3 4-59.2-37.1-61.6-32.9-2.2 3.8 58.7 30.2 57.1 33-1.9 3.3-59.4-37-60.9-34.4-2.4 4.1 61.9 30.1 59.5 34.3-1.3 2.3-57.7-33.8-59.2-31.2-1.4 2.4 55.4 26.8 53.1 30.7-1.7 2.9-48.1-29-49.7-26.1-1 1.7 47.5 24.5 46.3 26.7-1.5 2.6-46.5-27.3-47.6-25.5-1.8 3.2 44.1 22.9 43 24.8-1 1.7-38.5-24.4-39.6-22.4-1 1.8 41 21.2 39.9 23-.9 1.6-37.8-22-38.7-20.4-1.3 2.2 40.6 21.2 39.6 22.9-1.3 2.2-37.3-22.3-38.1-20.9-1.3 2.2 32.4 17 31.7 18.3-.6 1.1-31.3-18.6-32.5-16.4-.7 1.2 28.1 14.2 27.2 15.7-.8 1.3-24.6-14.3-25.4-12.9s25.7 13.3 25 14.4c-.5.8-20.9-11.3-21.6-10.1-.6 1 18.6 9.4 18 10.4-.2.3-9.8-4.7-10.1-4.2-.1.2 1.5.4 1.3.8-.2.3-3.8-2.4-3.9-2.2-.1.3 4.8 2.5 4.7 2.7M49.702 144.4l1.3.7c0 .1-1.5-.1-1.6-.1 0 .1 2.1 1.2 2.1 1.2 0 .1-2.2-1.1-2.2-1s2.4 1.3 2.4 1.4c-.1.1-2.8-.4-2.9-.2s3.9 2.2 3.9 2.2c-.1.1-1.8 1.6-1.9 1.8s.4-.2.2.1v.1c-.2.4.5 0 .4.2 0 .1-1 1.1-1 1.2-.3.5 2.4.9 2.2 1.3-.1.1-2.6-.4-2.6-.3-.2.4 3.7 1.5 3.5 2-.1.2-5.3-1.4-5.4-1.1-.2.4 4.1 1.5 3.7 2.2-.1.1-3.4.6-3.4.7-.4.6 6.5 3.1 6.2 3.6s-8.3-4-8.6-3.7c-.4.6 13.6 6.6 13.1 7.5-.3.5-9.2-5.1-9.4-4.7-.3.5 5.5 2.3 5.1 3-.2.3-5.6-1.8-5.7-1.6-.6 1.1 10.2 4.3 9.5 5.5-.5.9-13.4-8.2-13.8-7.4-.4.7 12.3 5.9 11.8 6.8-.2.3-9.3-3.6-9.6-3.2-.5.9 17 8.5 16.4 9.5-.3.6-17.4-10.7-17.9-9.8-.4.6 12.8 6.5 12.4 7.1-.2.3-10.3-4.2-10.7-3.5-.5.9 12.9 6.4 12.5 7.2-.3.5-12.5-6.9-12.8-6.4-.6 1 18.8 8.6 17.8 10.3-.8 1.5-20.9-12-21.3-11.3-.9 1.6 22.6 11.3 21.8 12.6-.8 1.5-24.1-14.1-24.9-12.7-.9 1.5 22.7 11.2 21.9 12.6-.7 1.2-21.1-13.3-21.9-12-.7 1.3 24.4 13 23.9 13.8-.7 1.3-21-12.7-21.8-11.4-1 1.7 19.8 9.2 18.8 10.9-.8 1.4-21.3-11.9-21.8-11-.6 1 26.1 13.8 25.6 14.8-.8 1.4-20.1-12.2-20.5-11.5-.9 1.6 19.4 8.8 18.4 10.6-.4.7-22.8-12.3-23.3-11.5-.7 1.1 22 11.2 21.3 12.3-.6 1.1-21.5-12-22.1-11-.8 1.4 24.3 12.7 23.7 13.7-1 1.7-25.3-13.8-26.3-12.2-1 1.7 27.1 14.1 26.4 15.3-.4.7-21.2-11.2-22-9.8-.7 1.3 19.6 9.2 18.6 10.8-.6 1.1-22.2-12.5-22.9-11.3-.6 1 23 11.7 22.3 12.9-.7 1.1-19.3-12.6-20.1-11.3-.9 1.5 18.4 8.8 17.6 10.2-.4.7-21.2-13.1-21.9-12-.7 1.2 26.4 13.6 25.7 14.8s-22.8-14.7-23.6-13.4c-1 1.8 25.2 13.1 24.6 14.2-.9 1.6-23.3-13.8-24.1-12.5-.7 1.2 21.3 10.4 20.5 11.8-.5.9-17.7-11.6-18.4-10.4-1 1.7 18.9 8.4 17.8 10.3-.6 1-20.6-10.8-20.9-10.2-.9 1.5 19.5 9.9 18.9 10.9-.3.5-15.5-8.1-15.9-7.4-.9 1.6 13.9 5.9 13 7.5-.3.5-14-7.5-14.6-6.5-.8 1.5 14.8 7.5 14.3 8.3-.6 1-16.7-9.1-17.3-8s16.4 8.7 16.1 9.3c-.2.3-10.5-5.8-10.9-5.2-.4.7 9.8 4.4 9.2 5.3-.3.5-11.9-6.5-12.2-5.8-.5.8 6.9 3.2 6.6 3.8-.1.1-3.2-.2-3.2-.1-.1.2 4.4 2.4 4.3 2.5M103.702 144.4l1.3.7c0 .1-1.5-.1-1.6-.1 0 .1 2.1 1.2 2.1 1.2 0 .1-2.2-1.1-2.2-1s2.4 1.3 2.4 1.4c-.1.1-2.8-.4-2.9-.2s3.9 2.2 3.9 2.2c-.1.1-1.8 1.6-1.9 1.8s.4-.2.2.1v.2c-.2.4.5 0 .4.2 0 .1-1 1.1-1 1.2-.3.5 2.4.9 2.2 1.3-.1.1-2.6-.4-2.6-.3-.2.4 3.7 1.5 3.4 2-.1.2-5.3-1.4-5.4-1.1-.2.4 4.1 1.5 3.7 2.1-.1.1-3.3.6-3.4.7-.4.6 6.5 3.1 6.2 3.6s-8.3-4-8.5-3.7c-.4.6 13.6 6.6 13.1 7.5-.3.5-9.2-5.1-9.4-4.7-.3.5 5.5 2.3 5.1 3-.2.3-5.6-1.8-5.7-1.6-.6 1.1 10.2 4.3 9.5 5.5-.5.9-13.4-8.2-13.8-7.4-.4.7 12.3 5.9 11.8 6.8-.2.3-9.3-3.6-9.6-3.2-.5.9 17 8.5 16.4 9.5-.3.6-17.4-10.7-17.9-9.8-.4.6 12.8 6.5 12.4 7.1-.2.3-10.3-4.2-10.6-3.5-.5.9 12.9 6.4 12.5 7.2-.3.5-12.5-6.9-12.8-6.4-.6 1 18.8 8.6 17.8 10.3-.8 1.5-20.9-12-21.3-11.3-.9 1.6 22.6 11.3 21.8 12.6-.8 1.5-24.1-14.1-24.9-12.7-.9 1.5 22.6 11.2 21.8 12.6-.7 1.2-21.1-13.3-21.8-12s24.4 13 23.9 13.8c-.7 1.3-21-12.7-21.8-11.4-1 1.7 19.8 9.2 18.8 10.9-.8 1.4-21.3-11.9-21.8-11-.6 1 26.1 13.8 25.6 14.8-.8 1.4-20.1-12.2-20.5-11.5-.9 1.6 19.4 8.8 18.4 10.6-.4.7-22.8-12.3-23.3-11.5-.7 1.1 22 11.2 21.3 12.3-.6 1.1-21.5-12-22.1-11-.8 1.4 24.2 12.7 23.7 13.7-1 1.7-25.3-13.8-26.3-12.2-1 1.7 27.1 14.1 26.4 15.3-.4.7-21.2-11.2-22-9.8-.7 1.3 19.5 9.2 18.6 10.8-.6 1.1-22.2-12.5-22.9-11.3-.6 1 23 11.7 22.3 12.9-.7 1.1-19.3-12.5-20.1-11.3-.9 1.5 18.4 8.8 17.6 10.2-.4.7-21.2-13.1-21.9-11.9s26.4 13.6 25.7 14.8-22.8-14.7-23.6-13.4c-1 1.8 25.2 13.1 24.6 14.2-.9 1.6-23.3-13.8-24.1-12.5-.7 1.2 21.3 10.4 20.5 11.8-.5.9-17.7-11.6-18.4-10.4-1 1.7 18.9 8.4 17.8 10.3-.6 1-20.6-10.8-20.9-10.2-.9 1.5 19.5 9.9 18.9 10.9-.3.5-15.5-8.1-15.9-7.4-.9 1.6 13.9 5.9 13 7.5-.3.5-14-7.4-14.6-6.5-.8 1.5 14.8 7.5 14.3 8.3-.6 1-16.7-9.1-17.3-8s16.4 8.7 16.1 9.3c-.2.3-10.5-5.8-10.8-5.1-.4.7 9.8 4.4 9.2 5.3-.3.5-11.8-6.5-12.2-5.8-.5.8 6.9 3.2 6.6 3.8-.1.1-3.2-.2-3.2-.1-.1.2 4.4 2.4 4.4 2.5M157.702 144.4l1.3.7c0 .1-1.5-.1-1.6-.1 0 .1 2.1 1.2 2.1 1.2 0 .1-2.2-1.1-2.2-1s2.4 1.3 2.4 1.4c-.1.1-2.8-.4-2.9-.2s3.9 2.2 3.9 2.2c-.1.1-1.8 1.6-1.9 1.8s.4-.2.2.1v.2c-.2.4.5 0 .4.2 0 .1-1 1.1-1 1.2-.3.5 2.4.9 2.2 1.3-.1.1-2.6-.4-2.6-.3-.2.4 3.7 1.5 3.4 2-.1.2-5.3-1.4-5.4-1.1-.2.4 4.1 1.5 3.7 2.2-.1.1-3.3.6-3.4.7-.4.6 6.5 3.1 6.2 3.6s-8.3-4-8.5-3.7c-.4.6 13.6 6.6 13.1 7.5-.3.5-9.2-5.1-9.4-4.7-.3.5 5.5 2.3 5.1 3-.2.3-5.6-1.8-5.7-1.6-.6 1.1 10.2 4.3 9.5 5.5-.5.9-13.4-8.2-13.8-7.4-.4.7 12.3 5.9 11.8 6.8-.2.3-9.3-3.6-9.6-3.2-.5.9 17 8.5 16.4 9.5-.3.6-17.4-10.7-17.9-9.8-.4.6 12.8 6.5 12.4 7.1-.2.3-10.3-4.2-10.6-3.5-.5.9 12.9 6.4 12.5 7.2-.3.5-12.5-6.9-12.8-6.4-.6 1 18.8 8.6 17.8 10.3-.8 1.4-20.9-12-21.3-11.3-.9 1.6 22.6 11.3 21.8 12.6-.8 1.5-24.1-14.1-24.9-12.7-.9 1.5 22.6 11.2 21.8 12.6-.7 1.2-21.1-13.3-21.8-12s24.4 13 23.9 13.8c-.7 1.3-21-12.7-21.8-11.4-1 1.7 19.8 9.2 18.8 10.9-.8 1.4-21.3-11.9-21.8-11-.6 1 26.1 13.8 25.6 14.8-.8 1.4-20.1-12.2-20.5-11.5-.9 1.6 19.4 8.8 18.4 10.6-.4.7-22.8-12.3-23.3-11.5-.7 1.1 22 11.2 21.3 12.3-.6 1.1-21.5-12-22.1-11-.8 1.4 24.2 12.7 23.7 13.7-1 1.7-25.3-13.8-26.3-12.2-1 1.7 27.1 14.1 26.4 15.3-.4.7-21.2-11.2-22-9.8-.7 1.3 19.6 9.2 18.6 10.8-.6 1.1-22.2-12.5-22.9-11.3-.6 1 23 11.7 22.3 12.9-.7 1.1-19.3-12.6-20.1-11.3-.9 1.5 18.4 8.8 17.6 10.2-.4.7-21.2-13.1-21.9-12-.7 1.2 26.4 13.6 25.7 14.8s-22.8-14.7-23.6-13.4c-1 1.8 25.2 13.1 24.6 14.2-.9 1.6-23.3-13.8-24.1-12.5-.7 1.2 21.3 10.4 20.5 11.8-.5.9-17.7-11.6-18.4-10.4-1 1.7 18.9 8.4 17.8 10.3-.6 1-20.6-10.8-20.9-10.2-.9 1.5 19.5 9.9 18.9 10.9-.3.5-15.5-8.1-15.9-7.4-.9 1.6 13.9 5.9 13 7.5-.3.5-14-7.5-14.6-6.5-.8 1.5 14.8 7.5 14.3 8.3-.6 1-16.7-9.1-17.3-8s16.4 8.7 16.1 9.3c-.2.3-10.5-5.8-10.9-5.2-.4.7 9.8 4.4 9.2 5.3-.3.5-11.9-6.5-12.2-5.8-.5.8 6.9 3.2 6.6 3.8-.1.1-3.2-.2-3.2-.1-.1.2 4.4 2.4 4.3 2.5"/><path stroke="#666" d="M161.402 50.4c-.6-29.8-24.8-47.6-51.3-45.4-29-.9-51.7 17.9-55.2 42.6-2.5 3.4-4 1.7-8.3 1.5-25-1.5-43.3 18.4-40.7 42.9-.6 23.1 17.6 38.7 43.3 36.6-.4 3.2 5.1 3.2 9.9 2.7-3.5-.1 83.3 0 85.1 1.5 3.1-3 10.4-3.1 13.6-1.6 24.4 2 41.7-18.7 42.5-43.2 2.2-21.5-17.1-37.4-38.9-37.6ZM65.902 177.2c0 1.4-.2.2-.6 0 .6-.5-15.3-32-15-31.9-.3-.5-15.1 31.8-15.5 32.5-.1.2-.4-.8.1-.9-.9 2.4-.9 4.9-.8 5.1-.7 9.4 7.1 16.3 16 15.7 9.5 2.1 16.9-5.2 16.7-14.1 0-2.3-.5-3.7-.9-6.4ZM119.602 177.4c.3-.8.3.5-.1-.1.2-1.2-15.1-33-14.9-32.4-.2-.7-15.7 32.7-15.8 32.3-.3-.1-.5.1.3-.7-.8 2.2-1.3 5.2-1.3 5.2 0 10.1 7.3 18.1 16.5 17.1 9.2 0 16.8-7.4 16.3-15.7.1-1.7 0-2.9-1-5.7ZM173.402 176.5c.7.9.4.1.3.3-.1-1.2-15.1-32.6-15.2-31.5-.3-.9-15.7 30.7-15.6 32.4 0 .3-.1-.2-.1.2-.5 2.3-.9 2.6-.6 3.8-.3 9.8 7.3 16.7 16.3 15.6 9.3.7 16.6-4.7 16.5-14.3-.3-1-.5-3-1.6-6.5Z"/><path stroke="#4D4D4D" stroke-width=".75" d="M163.302 48.5c-6.6-26.1-27.1-45.7-52.6-47.2-31.8.9-54.9 21.8-56.6 48.2-1.2-.8-7.1.3-3.9-2-26 .3-41.2 19.5-45.8 42.4 4.4 21.4 21.4 40.3 43.2 41.6 4.8-1.6 8.2-.6 11.8 1-1.9-2.3 84.7-2.2 81.9-1.5 3.5-.9 10.9-1.6 17-.2 23.4-.1 40.9-19.2 44.5-40.2-5.4-22.2-24.3-38.2-39.5-42.1ZM65.602 177c-.4.8-.4.3.8.8-1.2-1.5-16.2-33.3-16.3-33.6.9 1.2-14.5 32.8-15 33.2.4-.2-.1 0 .2-.2-1.4 2-1 3.5-1.9 5.8.7 8.7 7.8 14.9 17.1 16.2 8.7-.4 16.5-8.4 15.8-16.3-.2-2.4-.7-4.2-.7-5.9ZM119.702 177.7c.5-.2 0-.4.4-.2-.9-.9-16.3-32.4-16.1-33.4.5.5-15.1 32.7-14.8 33 .1-.1-.8-.1.2.3-.9 1.6-1.9 3-2 5.8 1.1 7.8 7.4 15.5 16.9 15.8 9.1-.8 16.1-8.1 17.3-16.6-1-1.4-2-3.6-1.9-4.7ZM173.702 177.3c-.4-.4.5-.2.4.2-1.1-.8-15.5-32.2-15.6-33.2-.3 1.1-15.4 32.4-16.4 33.1 1.5-.6 1.1 0 .9.3-1.2 1.9-1.2 2.9-.9 5.6-.7 8.3 6.6 15.4 16.7 15 8.6 0 15.5-7.3 16.5-15.4-.6-1.6-.4-3.6-1.6-5.6Z"/></g><defs><filter id="a" width="207.165" height="206.651" x=".019" y=".925" color-interpolation-filters="sRGB" filterUnits="userSpaceOnUse"><feFlood flood-opacity="0" result="BackgroundImageFix"/><feColorMatrix in="SourceAlpha" result="hardAlpha" values="0 0 0 0 0 0 0 0 0 0 0 0 0 0 0 0 0 0 127 0"/><feOffset dy="4"/><feGaussianBlur stdDeviation="2"/><feComposite in2="hardAlpha" operator="out"/><feColorMatrix values="0 0 0 0 0 0 0 0 0 0 0 0 0 0 0 0 0 0 0.25 0"/><feBlend in2="BackgroundImageFix" result="effect1_dropShadow_3_45"/><feBlend in="SourceGraphic" in2="effect1_dropShadow_3_45" result="shape"/></filter></defs></svg>