<svg xmlns="http://www.w3.org/2000/svg" width="182" height="182" fill="none"><g filter="url(#a)"><path stroke="#999" stroke-linecap="round" stroke-linejoin="round" stroke-width=".4" d="M112.802 7.8c0 .1 2.9 1.5 2.8 1.6s-4.7-.2-4.9 0c-.2.4 2.5.9 2.3 1.3-.1.2-4.9-1.2-5-1-.2.4 7.6 3.7 7.3 4.2-.2.4-6.4-1.5-6.5-1.3-.4.7 4.3 1.6 3.9 2.2-.1.2-4-1.8-4.1-1.7-.2.4 7.2 3.5 6.9 4-.3.4-8.3-4.2-8.5-3.9-.2.4 3.6 1.6 3.4 1.9 0 0-.9-.3-.9-.2-.2.4 3.1 1 2.7 1.6-.2.3-7.8-3.5-8-3.1-.2.3 3.9 1.6 3.6 2.1 0 .1.6 1.4.5 1.5-.2.3.8-.2.5.3-.1.1-2 .5-2.1.6-.3.5 1.8.6 1.6.9-.1.1-3.2-.9-3.3-.7-.4.6 4.3 2 4.1 2.4-.2.3-5.5-2.7-5.7-2.4-.2.4 4.1 1.9 3.9 2.3-.1.2-5.3-2.5-5.5-2.2-.3.6 2.7.9 2.4 1.4 0 .1-2.2-.9-2.2-.8-.3.5 3.5 1.5 3.3 1.9-.1.1-3.7-.5-3.8-.3-.2.4 1.1.1.9.5-.1.2-3.4-1.4-3.5-1.3-.2.4 7.8 3.9 7.6 4.4-.2.3-5.5-2.1-5.6-1.9-.2.4.6-.5.2.1 0 .1-1.2 1.4-1.2 1.5-.3.5 3.2 1.1 2.8 1.6-.2.3-7.2-4.1-7.3-3.8-.3.5 9.2 4.5 8.8 5.1-.1.2-3.5-1.9-3.6-1.8-.2.4 2 .6 1.8 1"/><path stroke="#999" stroke-linecap="round" stroke-linejoin="round" stroke-width=".4" d="M93.802 4.1c-.1.1.1-.1 0 0m0 0c0 .1-1.3 1.3-1.4 1.4m0 0c-.2.4.1-.2 0 0m0 0c0 .1-.8 1.1-.8 1.2-.3.4 1.3.2 1 .6-.2.4-7-2.6-7.2-2.2-.3.5 4.9 2.2 4.7 2.7l-1.1.9c-.2.4 4.8 1.9 4.4 2.5-.2.3-6.5-1.7-6.7-1.5-.2.4 4.3 1.5 3.9 2.2-.1.1-1 2-1.1 2.1-.2.3 6.1 3 5.9 3.4-.3.5-10.2-5.9-10.6-5.3-.3.6 5.9 2.7 5.6 3.2l.2.6c-.2.4 4.1 1.9 3.9 2.2-.1.2-4.1-2.4-4.3-2.1-.3.5.4-.4.1.1-.2.3-5.2-2-5.3-1.8-.3.5 9.6 5.1 9.4 5.4-.4.6-9.6-5.1-9.9-4.7-.4.7 6.6 3 6.3 3.6-.1.2-4.6-.3-4.7 0-.6 1.1 17 8.1 16.2 9.4-.6 1-14.9-8.1-15.3-7.4-.5.9 11.5 5.5 11 6.4-.2.3-8.5-3.5-8.8-3.2-.6 1.1 8.9 4.3 8.5 4.9-.3.6-12.2-7.6-12.5-7.1-.6 1 14.7 7.8 14.4 8.3M54.002 15.4c-.1.1 3 1.7 3 1.7-.2.3-5.1-1.6-5.2-1.4s4.3 2.1 4.1 2.4c-.1.1-3-.5-3.1-.4-.3.5 1.1.3.9.5-.1.2-3.9-1.2-4-1-.2.4 3 1 2.7 1.6 0 .1.5 2.6.5 2.7-.2.3.9.1.8.4-.1.2-4-1.6-4.1-1.5-.2.4 3.4 1.1 3 1.7 0 .1-.3 2-.3 2.1-.4.7 1.6.1 1.2.7-.2.4-6.1-3.7-6.3-3.5-.2.4 6.5 3.1 6.3 3.6-.1.1-2.9 1-3 1.1-.2.4 5.4 2.5 5.1 2.9-.1.1-2.1.6-2.1.7-.3.5 4.3 1.8 4 2.3-.2.3-6.7-2.7-6.8-2.5-.2.3 7.2 3.2 6.8 3.9-.2.3-7.9-3.8-8-3.5-.3.5 5.2 2.5 5 2.9-.1.2-6.3-2.3-6.4-2.1-.3.6 6.8 3.3 6.5 3.8-.2.3-5.1-.8-5.2-.6-.3.4 4.2 1.6 3.8 2.2 0 .1.1 1.9.1 1.9-.3.5 3.9 1.8 3.7 2.1-.2.4-9.1-4.9-9.4-4.5-.2.4 9.1 4.5 8.7 5-.1.1-4.6-1.3-4.7-1.1-.2.4 5.9 2.5 5.5 3.2-.2.3-5-2.9-5.1-2.7-.3.6 3.7 1.5 3.4 2-.1.2-5-3.1-5.1-2.9-.2.4 3.3 1.4 3.1 1.8M26.702 94.9c-.3.5 8.3 4.3 8.1 4.7-.1.2-7.9-4-8-3.7-.2.4 6 2.6 5.6 3.2-.2.3-8.5-4.1-8.7-3.8-.3.6 9.9 5 9.6 5.5-.2.3-9.1-5-9.3-4.6-.4.6 8.9 4.6 8.6 5-.1.1-4.2-2.2-4.3-2.1-.4.7 3.4 1.5 3.2 1.9s-8.6-3.1-8.8-2.8 8.3 4.1 8 4.6c-.2.3-6-2-6.2-1.7-.3.5 2.4.5 2.1 1.2-.2.3-5.1-.9-5.3-.7-.3.5 4.2 1.9 3.9 2.3-.3.5-8-2.9-8.3-2.6-.2.4 7.4 3.5 7.1 4.1-.1.2-7.4-4.3-7.6-3.9-.3.5 7.1 3.4 6.8 3.9-.1.1-1.6.5-1.6.6-.3.5 3.4 1.3 3.1 1.8-.2.3-5.6-2.5-5.8-2.1-.2.3 2.9 1 2.6 1.5-.2.3-7-4-7.2-3.7-.3.5 10.5 5.3 10.2 5.9-.2.4-8.4-5.1-8.7-4.6-.2.3 2.7.8 2.4 1.4-.1.2-4.6-1-4.7-.8-.4.6 3.7 1.3 3.3 1.9-.1.1 1.1 3 1.1 3.1-.3.5 1 .1.8.5-.1.1-4-2.1-4.1-2-.3.5 4 1.8 3.7 2.2-.1.1-2.8.4-2.9.5-.2.4 1.1.2.9.5-.1.2-4.1-.2-4.3 0-.2.3 1.2.4 1.1.6 0 0-1 .4-1 .5-.1.1 3.4 1.8 3.3 1.9"/><path stroke="#999" stroke-linecap="round" stroke-linejoin="round" stroke-width=".4" d="M17.302 61.9c-.1.1 2.9 1.5 2.8 1.6-.1.2-3.8-2.1-3.9-1.9s5 2.7 4.9 2.8l-1.4.2c-.3.6 2.3.8 2.1 1.2-.2.3-5-3.1-5.2-2.8-.3.4 6.9 3.4 6.6 3.8-.4.6-9.6-4.8-9.8-4.4-.5.9 10.6 5.3 10.2 5.9-.2.4-9.2-5-9.4-4.6-.3.6 14.2 7.3 13.8 8s-11.3-5.9-11.6-5.3c-.5.9 15.3 7.6 14.8 8.5-.3.5-14.1-7.6-14.6-6.7s16.2 8.2 15.7 9c-.6 1.1-20.5-11.7-21.1-10.6-1.3 2.2 47.3 25.2 46.3 26.8-1 1.8-44.7-27.6-46.3-24.8-1.2 2.2 39.1 19.3 37.7 21.8-1 1.8-33.1-19.8-34.1-18-.8 1.4 37.1 19.2 36.2 20.9-1 1.7-28-16.9-28.9-15.3-1.1 1.9 25.4 13 24.7 14.2s-19.3-10.2-19.9-9.3c-.7 1.3 16.4 8.3 15.9 9.2-.4.7-16.6-9.4-17.1-8.5-.7 1.2 17.6 9.4 17.3 10-.6 1.1-19.6-10.6-20.2-9.7-.5.8 13.6 6.3 12.9 7.5-.2.4-10.6-5.7-10.9-5.1-.4.6 11.6 5.3 11 6.4-.4.6-15.5-7.9-15.9-7.2s14.8 6.7 14 8.1c-.4.7-15.3-8.4-15.7-7.9-.6 1.1 15.6 8 15.2 8.8-.3.6-14.4-9.1-14.8-8.3-.8 1.4 16.1 7.9 15.5 9-.7 1.3-19.9-10.9-20.4-10.1-.7 1.3 16.6 8.5 16.1 9.3-.6 1.1-17.6-9-18-8.3-.5 1 22.8 11.9 22.2 12.8-.5.9-23.6-13.8-24.4-12.4-.6 1 12.5 6.4 12.1 7-.3.4-12.5-5.6-12.9-4.9-.5.8 3.7 1.6 3.5 2-.2.3-5.9-3.8-6.1-3.5-.4.8 8.3 4 7.9 4.6-.1.1-3.2-1.9-3.4-1.7-.3.5 5.4 2.5 5.1 3s-7.8-4.7-8.1-4.1c-.2.3 8.2 4.2 7.9 4.6-.2.4-9-4.5-9.3-4-.2.4 6.1 2.7 5.7 3.3-.2.3-5.6-1.1-5.8-.8-.1.2 4.1 2.1 4 2.3s-3.2-1.9-3.3-1.7c-.1.1.8.3.7.4M50.502 139.4c-.4.7 3.4 1.2 3.1 1.8-.1.2-3.8.3-3.9.4-.4.7 10.5 5.2 10.1 5.8-.3.5-8.4-4.6-8.6-4.2s5.5 2.7 5.3 3-5.2-.7-5.3-.5c-.2.4 7.7 4 7.5 4.3-.3.5-8.8-3.4-9-3-.4.7 4.5 1.8 4.1 2.4-.1.1-3.6 0-3.7.1-.2.4 8.1 4.1 7.9 4.5-.1.1-4.5-2-4.6-1.8-.2.3.9-.3.5.3 0 0 .1 1 .1 1.1-.3.6 2.1.2 1.7 1-.1.3-5.7-2.7-5.9-2.4-.3.5 5.8 2.7 5.5 3.2-.1.2-5.4-2.8-5.5-2.7-.3.5 8.9 4.3 8.5 4.9-.1.1-4.1-.7-4.2-.6-.3.5 4.2 2 4 2.3-.1.2-7.3-3.1-7.5-2.8s5.3 2.5 5 2.9c-.1.1-3.5-1.2-3.6-1-.2.3 1.2.3 1 .6 0 0-1.6.7-1.7.8s.9.4.9.5"/><path stroke="#999" stroke-linecap="round" stroke-linejoin="round" stroke-width=".4" d="M46.102 133.8c-.3.6 11.5 5.3 10.9 6.3-.3.4-13.3-6.6-13.7-5.9s11.1 5.4 10.7 6.2c-.5.9-13.9-8.5-14.3-7.7-.5.8 15.8 7.5 15.1 8.7-.4.6-13.1-6.5-13.5-5.8-.3.6 5.4 2.5 5.1 3-.2.4-6.4-3.9-6.6-3.6-.3.6 6.4 3 6.1 3.5-.1.3-7.1-3.8-7.2-3.4-.2.3 6.2 3.2 6 3.5-.1.1-2.8-1.4-2.9-1.3-.3.6 1.6.5 1.4.8 0 .1-1.3-.5-1.3-.4-.2.3 1.8.2 1.4.8-.1.2-4.9-2.9-5-2.6-.3.5 7.3 3.4 7 4-.2.4-8-3.1-8.2-2.7-.3.5 5.7 2.4 5.3 3.1-.2.4-6.4-2-6.6-1.8-.2.4 9 4.4 8.6 5-.2.3-7.1-2.8-7.2-2.6-.3.6 5.7 2.8 5.5 3.2-.2.3-6.8-1.6-7-1.3-.3.5 4.9 2 4.6 2.6-.3.5-8.2-5.1-8.5-4.6s8.3 4.2 8.1 4.7c-.2.3-5.3-1.4-5.4-1.1-.2.4 5.8 2.7 5.6 3.2-.1.2-5.4-2.2-5.6-1.8-.4.6.7-.3.4.2-.1.1-.9 1.8-.9 1.9-.3.5 3.8 1.6 3.5 2-.2.4-6.7-2-6.8-1.8-.1.1 3.6 1.9 3.6 2.1 0 .1-1.8-1.1-1.9-1s.9.3.8.5M87.702 154.9c-.2.4 3.9 1.4 3.5 2 0 .1.9 1.8.9 1.9-.3.5.5-.5.1.1 0 .1-1.5-.6-1.5-.5-.3.5 6.7 3.1 6.4 3.7-.1.3-7-3.3-7.2-2.8-.3.5 5.5 2.3 5.1 3-.2.3-6-2.8-6.2-2.5-.3.6 4.2 1.5 3.8 2.2-.1.2-5.4-1.3-5.5-1-.2.4 6.9 3.1 6.5 3.8-.1.2-3 1.1-3 1.1-.3.5 4.5 1.9 4.2 2.4-.1.2-4.2 0-4.3.1-.3.5 2.1.5 1.8 1-.1.2-2.9.7-3 .9-.2.4 1.4.5 1.3.7 0 .1-1.1-.1-1.2-.1-.2.3.5 0 .4.2-.1.1-2.1-.1-2.1.1-.1.1 3.1 1.6 3 1.7M101.902 156.9c-.5.8 13.7 6.1 12.9 7.4-.5.8-13.5-8.1-14-7.3-.6 1.1 12.2 6.2 11.8 6.8-.3.6-10.6-6.5-10.9-6.1-.5.9 13.5 6.9 13.1 7.5-.3.6-8.9-4.8-9.1-4.5-.3.5 7.9 3.8 7.5 4.4-.1.2-3.4-.2-3.5 0-.2.4 3.7 1.8 3.6 2.1-.1.2-5.7-3-5.9-2.7-.1.1 5.6 2.9 5.4 3.1-.1.1-4.3-2.3-4.4-2.1-.1.1 3.4 1.8 3.3 1.9"/><path stroke="#999" stroke-linecap="round" stroke-linejoin="round" stroke-width=".4" d="M87.102 101.5c-.3.5 4.2 1.9 4 2.3 0 0-1-.5-1.1-.5-.2.4 3.7 1.4 3.4 2-.2.3-7.5-1.8-7.6-1.5-.4.6 7.9 3.6 7.5 4.3-.1.1-2.5-1.4-2.6-1.3-.4.6 3.1 1 2.8 1.6-.1.2-3.3.7-3.4.9-.3.5 3.8 1.6 3.6 2.1-.3.4-7.1-2.5-7.3-2.1-.2.3 5.5 2.5 5.2 3 0 .1-1.4 1-1.5 1.1-.2.3 2.1.6 1.9 1.1 0 .1-2.5-.4-2.6-.2-.4.6 5.1 2.3 4.8 2.8-.1.3-5.5-2.3-5.7-1.9-.4.7 8.5 4 8.1 4.7-.1.2-7.6-4.1-7.8-3.8-.3.5 5.3 2.4 5.1 2.9-.1.2-4.4-.4-4.5-.2-.2.3 2.4.9 2.1 1.2 0 .1-1.9.8-1.9.9-.3.5 3.3 1.1 2.9 1.7-.1.2-4.7-.7-4.8-.6-.3.5 7 3.6 6.8 3.9-.1.1-2.7-1.6-2.8-1.5-.4.7 2.2.3 1.7 1-.1.2-6.2-1.9-6.4-1.6-.4.7 9.6 5 9.3 5.4-.3.5-7.3-4.4-7.5-4-.3.4 2.3.8 2.1 1.2l-.5 1.2c-.3.5 6.6 3.3 6.4 3.7-.2.3-5.9-1.8-6.1-1.4s1.5.4 1.3.7c-.1.2-4.1-1.8-4.2-1.6-.3.5 6 2.5 5.6 3.2-.1.2-3.6-.6-3.7-.4-.4.7 2.1.7 1.9 1.1-.1.2-5.4-.7-5.5-.4-.4.7 8.1 4.1 7.9 4.6-.1.2-5.8-2.1-6-1.8-.3.5 7.3 3 6.8 3.9-.1.1-3-1-3.1-.8-.3.5 6.7 2.5 6.1 3.5-.3.6-10.1-5.1-10.3-4.7-.5.9 14.5 6.6 13.7 7.9-.2.4-8.9-4.6-9.3-4-.9 1.6 15.6 7.2 14.8 8.5-.6 1.1-17.8-9.1-18.2-8.5-.7 1.1 21.2 9.8 20.1 11.6-.6 1.1-19.1-11.6-19.6-10.7-.9 1.6 26.7 13.4 25.8 14.9-.7 1.2-25.5-13.3-26.1-12.3-.6 1.1 24.8 12.2 23.9 13.8-1.1 1.8-29.4-16.2-29.9-15.3-1.1 1.9 32.1 16.5 31.2 18-.8 1.3-30.7-20.2-31.8-18.3-1 1.7 31.7 15.7 30.6 17.7-.9 1.5-30-19.6-31.1-17.7-1.4 2.4 37.9 19.1 36.7 21.2-1 1.8-35.9-21.1-37.1-19.2-.4.7 10 4.5 9.4 5.4-.1.2-6.1-2.8-6.3-2.6-.6 1 11.2 5 10.6 6.1-.4.7-13.7-6.7-13.9-6.2-.6 1.1 12.1 6.2 11.7 6.8-.5.8-14.3-7.2-14.7-6.5s14.7 6.9 14 8.1c-.3.6-13.6-6.4-14.1-5.5-.3.4 4.4 1.9 4.2 2.4-.2.3-6.3-3.2-6.4-2.9-.2.4 5.8 2.7 5.5 3.2-.1.1-3.5.1-3.6.3-.3.5 3 1 2.7 1.6-.1.2-5.9-1.6-6.1-1.2-.4.7 8.1 4 7.8 4.5-.2.3-6.5-3.1-6.8-2.7-.2.4 4.5 2 4.3 2.5-.2.3-5.2-2.1-5.4-1.8-.3.5 1-.2.7.4 0 .1-2-.7-2-.6-.3.5 7.9 3.9 7.6 4.4-.3.6-9.4-5-9.7-4.5s5 2.4 4.8 2.8c-.1.2-7.3-2.4-7.5-2-.3.4 9.8 5.1 9.6 5.5-.3.6-10.7-4.3-10.9-4-.3.5 6.2 2.9 5.9 3.4 0 .1-.9.8-.9.9-.3.5 4.3 1.7 4 2.3-.3.5-9.2-4.3-9.4-4-.3.5 7.9 3.7 7.5 4.4-.1.2-5.7-3.1-5.9-2.7-.3.6 2.1.7 1.9 1.1 0 0 .4.6.4.7-.3.5.3-.3.1.1-.1.1-2.3-.9-2.3-.8-.3.5 3.1 1.1 2.8 1.6-.1.2-2.7-.3-2.8-.2-.1.2 1.7.6 1.5.9-.1.1-4.3-2.3-4.4-2.1-.2.4 7.1 3.6 6.9 4-.1.3-5.4-1.9-5.6-1.6-.1.1 2.9 1.6 2.8 1.6"/><path stroke="#999" stroke-linecap="round" stroke-linejoin="round" stroke-width=".4" d="M82.702 96c-.6 1 12.2 6.1 11.8 6.8-.5.8-17.5-8.4-17.8-7.8-.5.9 18.3 8.8 17.5 10.1-.4.6-14.5-6.7-15-5.9-.4.6.6-.4.3.2-.1.1-.6 2.1-.7 2.2-.2.4.6-.1.4.3-.1.2-3.7-1.6-3.8-1.3-.2.4 4.2 1.8 3.9 2.3-.2.4-6.5-3.6-6.7-3.3s3.6 1.5 3.3 1.9c0 .1-.4 1.2-.5 1.2-.3.6 3 1 2.7 1.5-.1.2-4-1.9-4.1-1.8-.2.4 4.6 2.1 4.4 2.5-.1.2-4.8-2.4-4.9-2.1-.4.7 2.7 1 2.5 1.4-.1.1-3.4 0-3.5.2-.3.5 1.5.2 1.2.7-.1.3-6.4-1.4-6.5-1.2-.3.5 5.4 2.3 5 2.9 0 .1-.2 1.9-.3 2-.2.3.7-.1.5.3-.1.2-5.8-2.7-6-2.4-.2.4 4.1 1.8 3.8 2.2v1c-.3.5.5-.2.3.1-.1.2-4.5-.8-4.6-.6-.2.4 2.5 1.1 2.4 1.4-.1.2-3.4-.3-3.5-.1-.3.6 7.9 3.8 7.6 4.4-.1.2-5.4-3.2-5.6-2.9-.3.6.9-.1.6.3 0 .1-2.8-.7-2.9-.6-.2.3 4.3 1.6 3.9 2.3-.2.3-7.7-3.5-7.9-3.1-.3.6 7.8 4.1 7.6 4.4s-8.5-3.6-8.6-3.3c-.2.4 9 4.5 8.7 5-.1.1-4.2-2.1-4.3-1.9-.4.6 1.8.6 1.6.9s-6-3.3-6.1-3c-.2.4 9.4 4.7 9.1 5.2-.2.4-7.9-4-8.2-3.5-.2.3 5.4 2.7 5.2 3-.1.1-4.3-.7-4.4-.5-.2.3 6.1 2.8 5.8 3.4-.3.5-8.8-2.8-9-2.4s4.2 1.9 3.9 2.3c-.2.3-6.6-1.4-6.8-1-.3.5 8.3 4.3 8.1 4.7-.4.7-11.3-4.4-11.6-3.8-.3.5 5.2 2.4 5 2.9-.2.3-6.8-2.7-7-2.4-.4.8 10.5 5.2 10.1 5.8-.2.4-11.1-4.5-11.5-3.8s7.2 3.1 6.7 3.9c-.4.6-12.4-6.9-12.7-6.4-.6 1 13 6.3 12.5 7.2-.4.7-10.7-5-10.9-4.6-.7 1.3 11.8 5.7 11.3 6.5-.3.5-12.7-8.3-13.2-7.4-.7 1.3 14.8 7.7 14.4 8.3-.5.9-20.1-10.4-20.9-9.1-.6 1 23.3 11.8 22.6 13-.8 1.5-22.4-13.3-23.3-11.7-.7 1.3 24.8 13.1 24.3 14-.7 1.3-33-17.5-33.6-16.5-.7 1.3 33.6 16.6 32.4 18.7-1.1 1.9-29.2-17.1-30.1-15.5-.7 1.2 9.9 4.8 9.5 5.5-.4.8-13.4-6.7-13.9-5.8-.6 1 13.7 7.2 13.4 7.7-.5.8-16.6-10-17-9.3-.6 1 14.5 7.5 14.2 8.2-.3.5-13.4-8.3-13.9-7.6-.3.5 13.5 6.5 13 7.5-.2.4-12.2-7.1-12.6-6.5-.5.9 10.4 4.9 9.9 5.7-.2.3-8.3-3-8.5-2.6s5.2 2 4.8 2.7c-.2.4-6.1-3.5-6.3-3.2-.3.5 9.5 4.6 9.1 5.3-.2.3-5-2.9-5.2-2.7m0 0c-.2.4.4-.5 0 0m0 0c-.2.3-5.6-3.3-5.8-2.9s3.7 1.5 3.4 2c-.1.2-2.4 1.4-2.4 1.5-.1.1 3.7 2 3.7 2.1-.1.2-3.2-2-3.3-1.8 0 .1 3.1 1.7 3 1.7M135.402 138.5c-.6 1 11.4 5.5 10.9 6.3-.2.3-4.9-1.2-5-1-.4.6 7.4 3.6 7.2 4.1-.1.1-2.2.7-2.3.8 0 .1.3 0 .2.1"/><path stroke="#999" stroke-linecap="round" stroke-linejoin="round" stroke-width=".4" d="M101.002 103.4c-1.9 3.2 45.8 22.8 44.3 25.6-.8 1.5-39.5-24-40.6-22.2-1.8 3.1 41.3 20 39.6 22.9-.8 1.4-38.4-21.6-39.1-20.3-.8 1.4 35.9 19.2 35.2 20.3-.5.9-30.2-18.8-31.4-16.7-1.1 1.9 33.4 16 31.9 18.4-.6 1.1-24.8-12.7-25.3-11.9-.8 1.4 33.6 16.4 32.3 18.6-1 1.8-30.3-19.3-31.3-17.6-1.4 2.5 36.4 17.8 35 20.2-.6 1.1-28.4-18.5-29.5-16.5-.8 1.4 26.3 12.9 25.3 14.6-.7 1.2-21.1-11.8-21.9-10.5-.7 1.2 27.5 13.1 26.3 15.2-.8 1.5-23.8-13.5-24.7-11.9-.6 1.1 21.2 9.5 20 11.5-.5.9-19.1-9.6-19.5-9-.3.5 4 1.4 3.6 2.1-.1.1-2.5 1.2-2.6 1.3-.4.6 1.4.2 1.1.7-.1.2-3 .4-3.1.6-.3.4 6.1 3 5.8 3.4-.1.2-3.1-.4-3.2-.2-.2.4 1.5.4 1.3.8-.1.1-2.6 1.2-2.7 1.4-.3.4 1.2-.1.8.5-.1.1-.6 1.7-.6 1.8-.3.5 5.5 2.3 5.2 3-.3.5-8.3-3.4-8.6-2.8s9.1 4.4 8.7 5c-.2.3-5.3-2.7-5.4-2.5-.4.6 6.1 2.8 5.8 3.4-.2.3-5.4-1.5-5.6-1.2-.4.7.7-.4.4.2-.1.1-2.7 1.1-2.8 1.2-.3.5 8.1 4.1 7.8 4.5-.2.3-7.2-3-7.4-2.6-.3.6 3.8 1.6 3.6 2.1-.2.3-5.6-1.6-5.8-1.3s3 1.1 2.7 1.6c0 .1-.2.9-.2 1-.2.3.7 0 .5.3 0 .1-2.2 0-2.2.1s3.1 1.6 3 1.7"/><path stroke="#999" stroke-linecap="round" stroke-linejoin="round" stroke-width=".4" d="M159.602 119.1c0 .1 3.1 1.6 3 1.7s-2.8-1.2-2.9-1.1c-.1.2 3.8 2 3.7 2.1s-4-.4-4.1-.2c-.2.4 1.6.2 1.3.8-.2.3-5.9-2.9-6.1-2.7-.2.4 4.5 2 4.2 2.4-.1.2-4.9-2.4-5-2.3-.2.4 10.6 5.1 10.1 5.8-.4.8-14.4-7.4-14.8-6.6-.5.9 12.8 6.3 12.3 7.1-.2.4-8.2-5-8.3-4.7-.2.4 7 2.8 6.5 3.7-.4.7-10.8-5.3-11.1-4.9-.5.9 13.3 6.3 12.7 7.3-.4.7-13.2-6.3-13.4-6-.4.7 10.6 5.1 10.2 5.9-.3.6-10.7-6-11-5.5-.5.8 8.7 3.4 8 4.6-.3.4-11-7.1-11.3-6.5-.4.7 12.6 6.5 12.3 7.1-.3.4-12.3-5.4-12.6-4.8-.7 1.2 12.6 5.9 12 6.9-.3.5-12.6-7.9-13.1-7.1-.4.7 7.4 3 6.9 4-.2.3-9.2-5-9.5-4.5-.3.6 8.6 3.5 7.9 4.6-.3.6-9.6-4-9.8-3.5-.7 1.2 7.3 2.9 6.8 3.9-.4.7-12.6-7.3-12.9-6.9-.3.6 16.6 8.5 16.1 9.3M55.702 59c-1.3 2.2 59.8 28.9 57.4 33.1-1.8 3.2-49.4-29.3-51-26.5-1.5 2.6 43.6 21.2 41.9 24.2-1.5 2.6-37.5-22.4-38.7-20.4-1.3 2.2 37.1 18.8 36 20.8-1 1.8-34.5-22.6-35.8-20.4-1.5 2.7 36.2 17.5 34.8 20.1-.6 1.1-29.8-17.2-30.4-16-.6 1.1 33 17.3 32.2 18.6-1 1.7-32.4-20.9-33.6-18.9-1.4 2.5 35.6 18 34.5 19.9-.8 1.4-23.3-12.2-23.9-11.2-1.3 2.2 32.1 16.5 31.2 18-.6 1-30.7-19.1-31.6-17.5-.8 1.5 35.7 17.8 34.5 19.9-.8 1.4-31.3-18.3-31.9-17.3-1 1.7 36.6 18 35.2 20.3-1.3 2.3-37.2-22.2-38.5-19.9-1.4 2.4 45 23.8 44.1 25.4-1.7 2.9-44.2-27.7-45.3-26-1.8 3.2 44.4 21.4 42.6 24.6-1.4 2.4-49.4-28.5-50.5-26.5-1.7 2.9 62.2 32.8 60.9 35.1-1.9 3.3-60.1-35.2-61.2-33.1-.7 1.1 27 12.7 25.8 14.9-1.1 1.9-28.7-16.8-29.6-15.2-1.3 2.3 33 15.9 31.6 18.3-1.5 2.6-37.5-21.9-38.5-20.1-.5.8 14.7 7.3 14.2 8.2s-18.3-9.1-18.7-8.4c-.5.9 16.8 8.2 16.2 9.3-.5.8-13.2-7.1-13.4-6.7-.6 1 11.2 5.3 10.7 6.2-.2.4-10.4-6.7-10.7-6.1-.6 1.1 7.7 3.4 7.2 4.2-.2.3-9-4.7-9.4-4.1s9.6 4.3 9.1 5.2c-.3.5-12.5-6.2-12.8-5.7-.5.8 9.9 4.8 9.5 5.5-.4.6-11.4-6.6-11.7-6.1-.5.9 10.3 4.8 9.8 5.7-.3.5-14.3-7.3-14.6-6.8-.5.9 13.4 6.6 12.9 7.4-.5.9-14.3-7.7-14.6-7.2-.4.6 12.9 6.3 12.4 7.2"/><path stroke="#999" stroke-linecap="round" stroke-linejoin="round" stroke-width=".4" d="M35.102 26.6c0 .1 2.8 1.5 2.8 1.6s0 2.1-.1 2.2c-.4.7.9 0 .7.4-.3.5-8.1-3.6-8.3-3.1-.6 1 17.5 9.3 17.1 9.9s-15.7-7.2-16-6.7c-.8 1.4 21.8 11.2 21.2 12.2-.4.7-20.4-10.5-20.9-9.6-1.2 2.1 24 12.1 23.2 13.4-.7 1.2-25.4-14.9-26.3-13.3-1.4 2.4 33.4 17.1 32.5 18.7-.5.8-23.6-13-24.2-11.9-1.1 1.9 34.3 17.1 33.2 19.1-.8 1.4-34.2-22.9-35.6-20.4-1.3 2.2 36.3 18.4 35.2 20.3-.6 1-29.3-17.8-29.9-16.8-1 1.7 28 14.6 27.3 15.8-.9 1.6-23.9-13.9-24.3-13.1-1 1.7 29 14.8 28.2 16.3-.9 1.6-31.3-20.8-32.6-18.5-1 1.7 33.8 17 32.7 18.9-1 1.7-28.9-16.7-30.1-14.6-1.7 3 36.2 17.5 34.7 20.1-.6 1.1-35.2-21.2-36-19.7-.9 1.6 40.7 20.8 39.5 22.8-1.4 2.4-43.1-25.3-44.5-22.9-.6 1 14.4 7.4 14 8.1-.4.6-18.8-9.9-19.3-9-.7 1.2 15.5 7.9 15.1 8.7-.5.9-18.6-10.8-19.1-9.9-.7 1.2 16.7 8.5 16.2 9.3-.6 1-14.8-6.7-15.2-6-.3.6 12.9 5.9 12.2 7-.4.6-13.4-6.6-13.8-5.9-.5.9 11.6 5.9 11.3 6.5-.4.7-14.1-6.7-14.3-6.3-.4.7 8.1 3.6 7.7 4.4-.4.7-10.7-4.9-10.9-4.6-.4.6 10.9 5.5 10.5 6.1-.3.5-9.7-5.1-10-4.5-.3.5 2.5 1 2.3 1.3-.1.2-3.5-1.7-3.6-1.5-.2.4 3.5 1.6 3.3 1.9-.1.1-1.7 1.2-1.7 1.3s3.1 1.6 3 1.7M146.402 95.3c-.8 1.3 24 12.4 23.4 13.5s-20.7-12.1-21.5-10.8c-.5.8 19.1 9.3 18.3 10.6-.4.7-11.9-6.5-12.4-5.7-.7 1.2 14.5 6.7 13.8 7.9-.2.3-9.7-4.2-10-3.8-.3.5 10.7 5.3 10.3 6-.1.3-8.1-4.8-8.3-4.4-.4.7 7.3 3.5 7 4-.1.2-3.8-2.2-4-1.9-.4.7.5-.2.3.2-.1.1-2.6 0-2.7.1-.1.2 5 2.7 4.9 2.8s-2.8-1.4-2.8-1.3c-.1.1 1.6.8 1.5.9"/><path stroke="#999" stroke-linecap="round" stroke-linejoin="round" stroke-width=".4" d="M166.502 60.6c-.1.1 2.8 1.5 2.7 1.6s-3.2-1.6-3.3-1.5c-.1.2 1.4.6 1.3.8s-3.5-1.1-3.6-1c-.1.2 1.6.6 1.5.9-.1.1 2.2 2 2.1 2.1-.2.3 2.4.9 2.2 1.3-.2.3-5.2-1.1-5.4-.9-.3.5 3.7 1.4 3.4 1.9-.1.1-3.4-2-3.5-1.7-.3.6 3.8 1.4 3.5 2 0 .1-2.9-1.1-3-1-.3.6 5.4 2.4 5.1 2.9-.3.6-9.3-4.7-9.5-4.4-.2.4 3.7 1.7 3.5 2-.1.2-4.6-1.3-4.7-1.1-.3.5 6.9 3.5 6.7 3.9-.2.3-7-2.2-7.3-1.7-.3.4 6.5 3 6.2 3.6-.1.2-4.6-2.2-4.7-2-.2.3 4.8 2 4.5 2.6-.1.2-4.3-2.5-4.4-2.3-.3.6 4 1.8 3.8 2.2-.1.2-5.5-3.1-5.7-2.8-.4.6 2.5.9 2.3 1.3-.1.2-2.9.8-3 .9-.2.3 4.8 2 4.5 2.6-.1.1-2.6.6-2.6.7-.2.4 2.6.7 2.3 1.3-.1.2-4.8-.2-4.9.1-.2.4 1.3-.1.9.5 0 .1-1.7.7-1.8.8-.2.4 3.8 1.7 3.5 2-.1.2-4.6-.9-4.7-.7-.3.5 4.3 1.8 4 2.3-.1.2-6.9-3.3-7.1-3-.3.5 4.1 2 3.9 2.3s-5.6-1.9-5.8-1.7c-.3.5 6.7 3 6.3 3.7-.1.2-6.9-4-7.2-3.5-1 1.8 24.8 12.3 23.9 13.8-1 1.7-24.4-13.5-25.4-11.8-.8 1.3 21.1 11.1 20.6 11.9-.6 1-21.5-13-21.9-12.2-.5.8 23.8 11.8 23 13.3-.6 1.1-24.6-12.3-25-11.6-.7 1.3 15.7 8.1 15.3 8.8s-16.2-8.2-16.7-7.4c-.7 1.2 16.9 8.8 16.5 9.5-.3.5-12.8-7.3-13.3-6.5-.5.9 13 6 12.4 7.2-.9 1.5-22.6-11.5-23.2-10.5-.9 1.6 28 14.1 27.1 15.7-.8 1.4-27-16.4-28-14.6-1.3 2.3 28.2 14.3 27.4 15.8-.7 1.2-25.8-14.7-26.3-13.9-.9 1.5 34 16.6 32.7 18.9-1.5 2.6-37.8-22.2-39-20.1-1.8 3.1 42.8 20.8 41.1 23.7-1 1.7-38.3-24.3-39.6-21.9-1.7 3 39.3 20 38.2 22-.8 1.4-42.3-24.1-43.1-22.7-.7 1.1 8 3.7 7.6 4.4-.3.5-16.4-7.8-16.9-6.9-.6 1 13.4 6.8 13 7.5-.3.5-9.6-5.5-9.9-5-.5.8 9.2 4.2 8.7 5-.3.6-9.5-5-9.8-4.4-.5.9 9.5 4.7 9.2 5.3-.4.7-16.9-9-17.3-8.2-.7 1.2 13.4 6.3 12.8 7.4-.5.9-15.5-8.1-16-7.2-.7 1.2 13 6.6 12.6 7.3-.3.6-10.1-5.9-10.4-5.5-.7 1.1 14.8 7 14.1 8.2-.5.8-13.7-8.1-14.1-7.5-.7 1.2 13.5 6.6 13 7.5"/><path stroke="#999" stroke-linecap="round" stroke-linejoin="round" stroke-width=".4" d="M70.102 8.2c-.1.1 2.8 1.5 2.7 1.6-.1.2-3.7.4-3.8.5-.5.9 9.3 4.3 8.8 5.1-.2.4-7.9-4.3-8.2-3.9-.4.7 12.1 5.6 11.5 6.7-.3.5-10.6-6.7-10.9-6-.3.5 10.9 4.9 10.3 5.9s-14.8-9.5-15.3-8.7c-.5.9 15.6 8.3 15.3 8.8-.2.4-10.3-5.1-10.7-4.5-1.4 2.3 32 15.7 30.8 17.8-.8 1.4-32-19.8-32.7-18.6-1 1.8 28.2 14.5 27.5 15.8-.6 1-30.8-19.4-31.7-18-1.3 2.3 31.7 16.8 31.1 17.9-.7 1.2-29.9-18.1-30.7-16.8-1.3 2.2 36.3 18.5 35.3 20.4-1.1 1.8-33.7-20.2-34.4-18.8-.9 1.6 30.7 14.8 29.4 17-1 1.7-24.6-14.4-25.1-13.6-1.1 1.9 28.4 14 27.3 15.8-1 1.8-27.3-16.6-27.8-15.7-.8 1.5 29 14 27.8 16-.9 1.5-29.6-17.5-30.8-15.5-1.2 2.1 30.5 14.9 29.3 16.9-.9 1.5-25.5-16-26.4-14.5-1.1 1.9 25.5 12.1 24.4 14.1-.6 1.1-19.9-10.5-20.5-9.6-.9 1.5 24.4 12.1 23.5 13.6-.3.6-15.3-7.8-15.6-7.4-.6 1.1 11.4 5.3 10.8 6.3-.3.4-8.3-4.9-8.6-4.4-.7 1.1 8.1 3.3 7.5 4.3-.1.2-4.7-2-4.8-1.8-.4.7 10.1 4.9 9.7 5.6-.2.4-8.5-3.7-8.8-3.2-.4.7 4.9 2.3 4.6 2.7 0 0-1.2.9-1.2 1-.4.7 2.5.8 2.2 1.3s-7.3-3.4-7.5-3 10.4 5.3 10.1 5.8c-.2.3-8.9-4.2-9.2-3.6-.4.6 7.9 4.1 7.7 4.5-.1.2-4-1.8-4.1-1.6-.2.4 3.4 1.5 3.2 1.9-.1.2-3.6-1.6-3.7-1.4-.3.6 1.6 0 1.2.7-.1.2-3.7-1.8-3.9-1.5-.3.4 6.5 2.9 6.2 3.6-.1.1-2.2.6-2.3.7-.4.6 5.5 2.7 5.3 3.1-.1.2-6.5-2-6.7-1.7-.4.6 3.4 1.2 3.1 1.8-.1.1-2-.9-2.1-.8-.4.7 7 3.2 6.6 3.8-.2.4-8.1-3.2-8.4-2.7-.4.7 6.5 2.8 6.1 3.5-.1.2-5.4-2.9-5.5-2.7-.2.4 7.4 3.4 7 4.1-.2.3-5.5-1.1-5.7-.9-.4.6 6 2.6 5.6 3.3-.3.5-9.1-5.7-9.4-5.2s7.5 3.6 7.2 4.2c-.1.1-3.5-.4-3.6-.3-.2.4 2.5.5 2.1 1.2-.2.4-6.5-3.5-6.6-3.2-.4.7 10.1 5.2 9.8 5.7-.1.2-4.7-.8-4.8-.7-.3.6 6 3 5.8 3.4s-7-3.3-7.2-3.1c-.3.5 2.8.9 2.5 1.4-.1.2-2.7-1.1-2.7-1-.3.5 6.9 3.2 6.6 3.8s-9.7-4.9-10.1-4.2c-.2.3 5.9 2.7 5.6 3.2-.1.1-1.9-.2-1.9-.2-.4.7 5.6 2.3 5.2 3-.1.2-6.3-1.3-6.4-1.1-.2.4 8.8 4.4 8.5 4.9-.2.3-9.6-3.6-9.8-3.2s7 3.1 6.6 3.8c-.2.3-5.4-1.3-5.5-1-.5.8 17.5 8.5 16.8 9.7-.5.8-16.7-9.2-17.1-8.6-.8 1.3 15.6 7.2 14.8 8.6-.2.4-12.9-7.9-13.4-7-.6 1.1 12.4 5.6 11.7 6.8-.4.6-10.4-4.5-10.7-3.9-1.2 2.2 27.6 13.2 26.4 15.3-.9 1.5-25.8-15-26.3-14.1-1.2 2.2 25.8 13 25 14.4M158.902 44.6c-.1.1 3.1 1.6 3 1.7l-1.3 1.3c-.2.3 2.2.8 2 1.1s-6.3-3.5-6.5-3.1 5.6 2.6 5.4 3.1c-.1.2-6-1.1-6.1-.9-.4.7 5.7 2.6 5.4 3.1-.4.7-11.5-6.5-11.9-5.8s9.3 4.7 9 5.2c-.1.2-4.8-2.7-4.9-2.6-.5.9 8.8 4.1 8.4 4.8s-14.3-6.3-14.6-5.7c-.4.7 10.9 5.1 10.4 6-.2.4-10-5.3-10.4-4.7-.4.8 7.5 2.8 6.9 4"/><path stroke="#999" stroke-linecap="round" stroke-linejoin="round" stroke-width=".4" d="M128.502 14.7c0 .1 3.1 1.7 3 1.7-.1.1-4-1.1-4.1-.9-.2.3 5.7 2.8 5.5 3.2-.2.3-7.5-4.2-7.6-3.9-.2.4 4.1 2 3.9 2.3s-5.5-1.5-5.6-1.2c-.2.4 7.1 3.4 6.8 3.9-.2.3-5.5-1.6-5.7-1.3-.3.5 8.1 4.1 7.8 4.5-.1.1-4.8-1.3-4.9-1.2-.4.7 3.9 1.6 3.6 2.1-.2.3-5.2-1.1-5.3-.8-.4.7 6.3 2.6 5.8 3.4-.1.2-3.9-.5-3.9-.4-.4.7.7-.4.4.2-.1.2-4.6-.3-4.7-.1-.4.7 8.1 4.1 7.8 4.5-.2.4-6.4-3-6.6-2.6-.3.5 6.1 3 5.9 3.4-.1.1-3.3-1-3.4-.9-.4.6 4.8 2.3 4.6 2.7-.2.3-6.4-3.6-6.6-3.2-.3.5 8.3 3.9 7.9 4.6-.1.2-4.8-.1-4.9 0-.7 1.2 14.6 7 14 8.1-.4.7-17.9-9.1-18.4-8.1-.5.9 13 6.5 12.6 7.2s-10.7-4.6-11-4.1c-1.2 2.2 29.3 14.6 28.3 16.3-.5.9-27.1-15.3-27.8-14.2-.9 1.6 22.2 10.8 21.4 12.3-.7 1.2-18.7-11.1-19.3-10.2-1 1.7 22.7 11 21.8 12.6-.4.7-21.2-11.4-21.7-10.6-.6 1 19 9.8 18.5 10.7-.6 1-18.8-12.3-19.6-11-.7 1.2 18.5 9.1 17.8 10.3-.4.7-17.7-10.1-18.4-8.9-.6 1 16.2 8.3 15.8 9.1-.6 1-17-7.7-17.3-7.2-.4.7 12.9 6.6 12.6 7.3-.3.5-10.2-4.4-10.6-3.8-.5.8 4.6 1.5 4.1 2.4-.1.2-5.2-1.9-5.3-1.7-.2.4 3.5 1.1 3.1 1.8-.2.3-5.6-1.2-5.8-.9-.4.7 4.8 2.3 4.6 2.7-.2.3-6.2-3.5-6.4-3.1-.4.6 6 2.7 5.7 3.3-.2.3-4.9-2.3-5-2.1-.2.4 5 2.1 4.7 2.7-.1.2-4.2-2.1-4.4-1.8-.3.6 1.6.3 1.3.8 0 .1-2.3-.4-2.4-.3-.3.5 4.4 2 4.1 2.4-.1.1-3.2-1.1-3.3-.9-.3.5 2.5 1 2.3 1.3-.1.2-4.1-.3-4.2-.1-.3.5 6.5 3 6.2 3.6-.3.5-9.6-3.7-9.8-3.4-.3.5 5 2 4.6 2.7-.1.1-1.3 1.3-1.3 1.4m0 0c-.2.4.4-.6 0 0m0 0c-.1.1-2 1.2-2.1 1.3-.4.6.6 0 .5.3-.1.1-3-1.5-3-1.4-.2.4 5.9 3 5.8 3.3-.1.2-6.5-3.2-6.7-2.9-.3.5 6.2 3.1 6 3.5s-8-2.7-8.3-2.3c-.3.5 2.2.9 2 1.2-.1.1-3.5-1.8-3.6-1.6-.3.5 8.3 4.1 8 4.6-.2.3-5.4-2.5-5.5-2.3-.3.5 2.4.7 2.1 1.2v.1c-.2.4 3.5 1.4 3.3 1.9-.2.4-7.2-3.1-7.5-2.6-.2.4 2.8 1.2 2.6 1.5-.2.4-6.3-2.6-6.5-2.2s3.9 1.8 3.7 2.1-4.7-1-4.8-.8c-.2.3 8 4 7.8 4.5-.1.2-5.3-.8-5.4-.6-.2.4 1.9.4 1.6.9-.1.1-4 .2-4.1.4-.3.4 4.3 2 4.1 2.4-.1.2-7.1-4.1-7.3-3.7-.3.5 8.2 4 7.9 4.5-.2.3-7.5-4.6-7.7-4.1-.3.5 3.6 1.4 3.3 1.9-.1.1-2.4.3-2.5.4-.2.3 4.2 1.8 3.9 2.3-.1.2-4.5-1.5-4.7-1.3-.2.3 3.5 1.3 3.2 1.9-.2.3-5.6-1.2-5.8-1-.2.3 4.7 2.1 4.4 2.6 0 .1-2-.8-2.1-.7-.2.3 5 2.1 4.6 2.7-.1.2-6.1-2.6-6.3-2.3s.9-.3.6.3c-.1.2-3.2-1.2-3.3-1.1-.4.6 5.3 2.4 5 2.9"/><path stroke="#999" stroke-linecap="round" stroke-linejoin="round" stroke-width=".4" d="M148.102 25.6c0 .1 2.8 1.5 2.8 1.6-.1.2-4.6-2.2-4.8-1.9s6.2 3.3 6.1 3.5-6.3-3.8-6.5-3.5 6.7 3.6 6.6 3.8c-.2.4-7.3-3.4-7.6-2.9s4.6 2.3 4.4 2.6c-.1.2-4 .3-4.1.5-.2.4 4 1.7 3.7 2.1-.1.1-1.3-.7-1.4-.6-.3.6 1.9.7 1.7 1-.1.2-4.9-1.4-5-1.1-.3.6 4.2 1.8 3.9 2.3-.1.2-4.6-1.7-4.7-1.5-.2.4 4.2 1.8 3.9 2.3-.2.3-6.2-2-6.4-1.7s2.5.7 2.2 1.3c0 .1-2.5 1.1-2.5 1.2-.2.4 2.2.8 2 1.1s-4.5-1.6-4.6-1.4c-.2.4 7.9 3.7 7.5 4.3-.2.3-6.1-3.1-6.2-2.9-.2.3 4.1 1.9 3.9 2.3-.1.1-2.7 0-2.8.1-.3.6 1.9.2 1.5.9-.2.4-5.8-3.2-6-2.9-.2.4 3.5 1.4 3.3 1.9 0 .1-1.6 1.3-1.6 1.4-.2.4 5.7 2.7 5.5 3.2-.1.2-6.9-3.9-7.1-3.6s1.1.2.9.5l-.8-.5c-.2.4 4.1 2 3.9 2.3"/><path stroke="#666" d="M11.602 92.5c-2.1.1 12.6 0 15.1-2-1.9 5.9-14.5 18.6-13.5 16.5-3.7 2.5-4.4 3.5.9 7.9-.3.1.5 2.5 4.8-.8-1.7-1.4-.1-.3.4 2.5 1.5-3.9 21.6-23.2 19.5-21.9.7-1.3 38.7 1.7 38.3-4.7 1.4.1-25.1 32.6-26.5 31.3-.6-1-27.3 0-27.8-.6-2.8.4-6.1.3-2.1 2.3-4.1 4-.9 9.8 4.9 5-2 6.3 14.4 1.5 17.5-.5-2.6 5.7-13.6 15.1-11.8 14.1-1.9 4.7-2.1 3.9.4 7.8-.6-1.7.3 3.1 3.4-.4-.4.8 3.6-1 5.1-2.8-2.1.3 9-7.4 7.8-11.8-1.1 6 .2 22.3.4 20.2-1.4 1.3 3.3 4.9 5.6 8.8 3.5-.8 5.3-4.2 5.7-11.3-.8 2.4-2.1-24.9.8-25.6-2.1 4.2 26.3-25.9 26.3-25.3.1.1-1.6 36.5-2 37.2 1.3 2-20.2 23.2-17.9 22.3-2.8-2.3-2.2 1 .9 2.2 1.7 6.6 4.8 4.6 8 4.9-1.6 1.2 10-11.7 10.9-15.4-1.4.4.2 13.5-1.3 14.5 2.3 3.5 4.1 8.2 7.1 1.9 2.6 6.7 3.9.1 3-3.8 2.9 5.3 2.8-9.6 3-8.7-2.3-4.5 10.7 8.7 11.4 6.3 1.3 8.1 2.5 8.1 2.1 3.1 4 4.5 3.2 4.4 5.7 1.3 1.7-4.2.3-4.3-1.2-7.1 1-2-19.6-18.6-21.2-20.4 2.3.7 0-39.5 2-41-2.5 4.7 27.8 25.6 26.6 28.8-1.6 1.4-.6 28.4-.4 26.2 1 5.3 3.8 8.9 4 8 3.4-1.8 5.7-3.2 6.2-7.3 1 3.1 1.8-19.2-.6-15.2.5-3.8 13.3 5.8 9.8 6.5 2.9 4.6 3.3 4.4 4.2 2.3 1.3 1.7 4-2.1 4.5 0 2-.1 3.5-4.3-.9-6.6 2.1-2.4-9.7-8-8.4-13.2-1.4.7 18.4-.3 15.6-2 3.6 3 6.2 4 5.1-.5 0-4.6-2.4-3.9-6.5-7.4 2 4.1-26.3 2.8-26.3 4 .5-.5-27.3-30-26-28.6-1.4 1.3 37.3-1.1 38.9-.3-1.2 1.3 19.5 22.4 19.6 20 1.5-1.6 1-2.4 4 2.3 2.9 1.6 3.1 1 2.3-.2 2.6-4.1 4.3-9.2.8-12.5 1.4 3.4-12.7-7-13.2-7.1 2.3-6 16.2-6.5 13.8-5.8 4.3.4 7.4-1.3 6.8-4.9-1.6 1.8-3.8-6-5.9-6.3 1.2-.1-13.5 2.8-15 .2 2.2 6.2 12.4-12.2 12.4-8.3 3.9-3.4 3.4-4 .1-5.2-1.8-7.1-5.1-3.5-7.4-3.5 1.2-2.8-19.8 18.4-19.4 20.7 1.7-.3-38.5-1.6-38.4-2.1-.5 4.8 26.5-27.6 25.2-26.9.8 2.3 31.5 1.7 29.4 1.3 4.2-1.1 5.2-.3 6.1-6.1 1.5-2-1.7-5.1-6.1-.5 1.6-1.5-17.8-6.8-18.2 0-.3-2.9 12.7-17.2 11.8-13.4 2.1.1 1.3-9.3-1.5-4.9-2.6-4-5.3-4.2-8.1-3 3.1.6-7 9.5-8.2 8.9 1.2 3.1.1-16.8-.8-15.6-1-1-.9-3.1-4.5-6.3-4-1.4-6.5-.1-6.6 5.8 1.6-3.1.8 29.2-.8 31.1 2.7-5.2-25.1 21.3-25.2 23.9 1.3 1.2-1.7-38.3-1.4-34.6.8-3.7 22.7-25.9 19-21.5 3.7-5.4 5.7-9.6.9-7-1.5-4.9-4-4.8-7.6-3.9 2.2.6-9.9 15.3-10.3 13.3-1.1 2.8 0-11.1-.9-12.9-.8-.9-2.6-3.6-6.9-7.4-1.3 1.1-4.9 5.8-5.5 4.9 1.7.8 1.2 12.9 2.3 15.2-.9-3.3-12-12.4-11.7-9.3-4-4.8-8.1-7-9.4.3-1 1.3-1.2 2.1-.1 7.3 1.6.1 21.5 15.2 21.4 14.7-.2 1.5 1 39.3.2 37.7.5.1-27.7-21-25.8-21.9-3.3 1.4-2.3-26.6-1.9-28.6-.9-7.4-2.5-4.7-5.5-4.7-3-3.3-5.3.6-3.1 5.2-2.1-1.9-2.9 19.2-2.6 17-.7-1.7-11.6-12.1-8.3-12.9-2.5-2.1-6.7 1.8-9.2-.1-1.8 4.4-2.2 10.7 1.1 12.2-1.1-2.7 9.9 6.4 10.2 9.7-2.2-.9-19.8.2-16.1-2-6.1 3.2-9.1 2.6-7.7 6 1.6 2.7 1 7.5 6.5 6.9-2.7-.4 27.9-.7 26.5.3.4-.4 26.1 22.4 27.4 22.4.1 2-36.9 4.5-36.9-.1-3 1.1-21.2-19.5-21.4-19.2-2 2.4-5.8 1.9-5.2 4.9-5.1-.4-5.1 1.6-.5 6.2-.4-4.4 10.8 11.3 13.4 12.7-2.3.4-16-2-15.8-5-3.6 5.6-4.9 6.1-5.4 8.3-1.9 1.4 1.8 2.4 5.8 3.6Z"/><path stroke="#4D4D4D" stroke-width=".75" d="M7.102 95c2.4-1.9 18.3-1.4 17.7-2.5-.8.1-12.8 13.1-9.5 12.2-2.6 4.8-1.5 6.5-2.6 8.2 3.1.2 1.3.8.8 3.4 3.9-.4 8.9-3.4 4.9-3.2 5.8-.9 23-18.5 24.1-19.9-4.8-1.3 38.2-1.1 34.6 1.6 3.2-1-24.9 24.7-22.9 25.9-5-1.3-28.9-1-31 1.2-.1-.6-2.4 1.2-8.6 3.2 6.7 1.7 8.3 5.2 7.2 7.3.8-2.8 22.5-3.2 21.1.4-.6-1.6-10.7 8-9.2 9.3-1.1 1.7-3.9 5.2-6.7 6.7 6.5 2.2 7.1 2 10.5 2.8-3.1-2 1.1-2 1.5-1.8 3-.6 10-12.4 12-11.3-1.8.2-1.5 17.6-.7 19.3-2.2.5 3.8 3.7 4.3 3.6 2-1.2 4.6-4.8 4.1-6.2.7.3-2.5-28.1 3.1-25.5 0-1.4 23.6-28.2 24.8-29.9 1.5-.5-1.4 37.6.5 39.4-1.3 1.2-23.9 20.3-18.6 22-4.6-1.7-4.8 3.3.9 4.9-1.6 3.6 3.6 1.2 1.9.6 3.6-2.1 14-12.6 17.7-11.5 0-.8-2.9 11.5-1.4 12.6 1.4 2.6 2.7 3.2 7.1 5.2-1.8-.6 1.4-3.6 4.7-3.2-1.7-1.1-4.4-16.5-.6-13.2-5.3-4.2 9.4 8 7.1 9.3.9.7 7.2 0 6.9 4.4 3-3 1.7-4.8 2.2-4.2 4-4.3 6.1-5.3.5-7.5-2.7.4-19.6-20.6-19.1-18.7-3.3-.9 1.9-40.4-2.2-37.1 2-2 29.1 23.5 26.3 26.5 3.8-.9 4.9 24.1.6 27.2 1.1.9 6.2 4.5 4.7 3.7 6.9-1.8 4.7-2.1 7.6-4.7 1.1.4-1.2-17.5-2.4-18.2 2.7-1.4 11.6 11.6 11.6 12.5 4.7-1 5.5.2 4.2 1 2.6-3 3.2-3.3 7.5-3.3 2-2.4-3.5-6.8.5-5.4-3.8-1.3-14.5-12.1-12.2-12 .7-1.7 13.4-.6 18.2.6-1.7-1.2-1.1-4.1 2.5-7 2.2-.5-1.4-2.8-1.8-5.1-3.3.7-31.3 2.5-27.5.2-3.9-.2-32.7-24.4-27-24.3-1.7.3 36.7-1.9 35.1-2.1 2.2 2.2 21.8 21.2 20.9 19.7-.6 2.2-.3 2.5 6.2 2.9-4.4-1.3-1.7-2.2 2.1-2.3-3.1-3.6-.5-7.3-1.2-9.2 1.3.3-17.1-10.1-15.1-10.5.2 1.3 15.7-1.2 16.4 1.3-2.1-1.9 3.6-5.2 5.1-6.3-1.3-3.5-5.4-6.9-7.5-6-2 .1-11.9 1.9-9.1-.6-5.4.3 5-11.8 7.5-12.9 4-.4 4.5-4.2 3.6-5-7.4-1.2-9.7-1.3-11.4-1.8 2.5.2-15 22.5-20.7 19 4.1.3-38.2 3-31.9 1.4-3.3 1.4 25.3-25.1 21-26.2 1.4-.2 27.5-.6 32.1-.9-1.4-.8-.6-2.1 3.2-6.7-.4.7-6.3-2.3-5.2-3.8.3-.3-21.2 1.1-17 1.6 1.4-1.6 7-10.5 7-13.2 6.4 1.8 5.2-4.3 5.7-6.2-6.9.2-12 .9-11.2-.7 1.7 1.2-11.4 10.9-7.6 10.4-3.3 3.1 0-13.8-2.2-17.4 2.7-1.5-4.3-4.7-4.5-6-4.6 1.6-8.4 5.2-5.8 5.5-1.5 2.6-3.7 29.3-.5 28.6-.7.2-27.5 27.5-26.5 27 1.1 2.8.9-35.4-2.2-36.6.3 1.1 19.3-19 19.4-21.1 4.5 0 .9-3.9 4.2-7.2-1.5.9-6.6.7-7.4-.3 1.2 1.5-14.4 13.1-11.2 13-2.3.4.2-12.8-4-14.8 2.9-1.5-1.2-2.8-2.8-5-1.4.9-3.6 5.1-8.3 4.8-.2.6 5 15.6 2.9 15.1-2.5 1.3-11.7-9.8-12.8-12.8-3.1 1.1-7.5.3-11.7.4 4.6 2.1 3.1 6.5 5 7.8-4.3 2.5 17.2 19.6 20.5 20.7-5.2.8-5 39 .6 35.6-2.1 2-30.8-25.1-28.1-25-.7 2.3-4.4-27.6-3.1-27.7 5-1.7.2-4-3.1-5.4-3.9 1.1-8.5 4.2-8.2 4.2 3.3 1.4.4 19.9 4.1 17.5 0 .9-14.6-9.7-9-9.9-3.8-.5-10.8-1.8-12.7 1.4 3.1 1.5-1.8 6.9 1.3 7.4 1.6.2 10 9.1 13.8 7.9-2.3 3.2-22.4 1.6-22.4.1-2.2 3.7-3.7 5.2-.8 8.7-1.8 1.4.8 3.6 1.6 3.4 6.1 2.7 31.5 2.3 31 .5 1.4.2 25.9 26.5 28.4 25.2-5.5 1.6-39.3 1-43.1 1.9 2.7.9-17.6-20.8-17.6-19-2.5-1.2-3-4.2-11.8-1 .1 1.6-.3 7.4 4.4 7.2-.5-.5 13.4 12.1 13.4 11.7-2.4-.4-16.5.4-16.3 1.2-.9-.8-6.1 3.5-1.6 3.8-1.4 2.3-1.5 7.2-.8 7.2Z"/></g><defs><filter id="a" width="180.987" height="181.217" x=".789" y=".139" color-interpolation-filters="sRGB" filterUnits="userSpaceOnUse"><feFlood flood-opacity="0" result="BackgroundImageFix"/><feColorMatrix in="SourceAlpha" result="hardAlpha" values="0 0 0 0 0 0 0 0 0 0 0 0 0 0 0 0 0 0 127 0"/><feOffset dy="4"/><feGaussianBlur stdDeviation="2"/><feComposite in2="hardAlpha" operator="out"/><feColorMatrix values="0 0 0 0 0 0 0 0 0 0 0 0 0 0 0 0 0 0 0.25 0"/><feBlend in2="BackgroundImageFix" result="effect1_dropShadow_3_276"/><feBlend in="SourceGraphic" in2="effect1_dropShadow_3_276" result="shape"/></filter></defs></svg>